solid /home/fmg/OpenFOAM/VAWT/cfd/cfdopenfoam/constant/triSurface/VAWT1.stl
facet normal -0.000092 0.000029 0.000000
  outer loop
    vertex -0.003109 0.199815 0.250000
    vertex -0.003050 0.200000 0.250000
    vertex -0.003050 0.200000 -0.250000
  endloop
endfacet
facet normal -0.000092 0.000029 0.000000
  outer loop
    vertex -0.003109 0.199815 0.250000
    vertex -0.003050 0.200000 -0.250000
    vertex -0.003109 0.199815 -0.250000
  endloop
endfacet
facet normal -0.000005 -0.000793 0.000000
  outer loop
    vertex -0.003050 0.200000 0.250000
    vertex -0.004635 0.200009 0.250000
    vertex -0.004635 0.200009 -0.250000
  endloop
endfacet
facet normal -0.000005 -0.000793 -0.000000
  outer loop
    vertex -0.003050 0.200000 0.250000
    vertex -0.004635 0.200009 -0.250000
    vertex -0.003050 0.200000 -0.250000
  endloop
endfacet
facet normal -0.000001 -0.000564 0.000000
  outer loop
    vertex -0.004635 0.200009 0.250000
    vertex -0.005763 0.200011 0.250000
    vertex -0.005763 0.200011 -0.250000
  endloop
endfacet
facet normal -0.000001 -0.000564 -0.000000
  outer loop
    vertex -0.004635 0.200009 0.250000
    vertex -0.005763 0.200011 -0.250000
    vertex -0.004635 0.200009 -0.250000
  endloop
endfacet
facet normal 0.000002 -0.000648 0.000000
  outer loop
    vertex -0.005763 0.200011 0.250000
    vertex -0.007059 0.200007 0.250000
    vertex -0.007059 0.200007 -0.250000
  endloop
endfacet
facet normal 0.000002 -0.000648 0.000000
  outer loop
    vertex -0.005763 0.200011 0.250000
    vertex -0.007059 0.200007 -0.250000
    vertex -0.005763 0.200011 -0.250000
  endloop
endfacet
facet normal 0.000007 -0.000787 0.000000
  outer loop
    vertex -0.007059 0.200007 0.250000
    vertex -0.008633 0.199993 0.250000
    vertex -0.008633 0.199993 -0.250000
  endloop
endfacet
facet normal 0.000007 -0.000787 0.000000
  outer loop
    vertex -0.007059 0.200007 0.250000
    vertex -0.008633 0.199993 -0.250000
    vertex -0.007059 0.200007 -0.250000
  endloop
endfacet
facet normal 0.000011 -0.000805 0.000000
  outer loop
    vertex -0.008633 0.199993 0.250000
    vertex -0.010244 0.199970 0.250000
    vertex -0.010244 0.199970 -0.250000
  endloop
endfacet
facet normal 0.000011 -0.000805 0.000000
  outer loop
    vertex -0.008633 0.199993 0.250000
    vertex -0.010244 0.199970 -0.250000
    vertex -0.008633 0.199993 -0.250000
  endloop
endfacet
facet normal 0.000017 -0.000840 0.000000
  outer loop
    vertex -0.010244 0.199970 0.250000
    vertex -0.011924 0.199937 0.250000
    vertex -0.011924 0.199937 -0.250000
  endloop
endfacet
facet normal 0.000017 -0.000840 0.000000
  outer loop
    vertex -0.010244 0.199970 0.250000
    vertex -0.011924 0.199937 -0.250000
    vertex -0.010244 0.199970 -0.250000
  endloop
endfacet
facet normal 0.000022 -0.000864 0.000000
  outer loop
    vertex -0.011924 0.199937 0.250000
    vertex -0.013653 0.199893 0.250000
    vertex -0.013653 0.199893 -0.250000
  endloop
endfacet
facet normal 0.000022 -0.000864 0.000000
  outer loop
    vertex -0.011924 0.199937 0.250000
    vertex -0.013653 0.199893 -0.250000
    vertex -0.011924 0.199937 -0.250000
  endloop
endfacet
facet normal 0.000027 -0.000886 0.000000
  outer loop
    vertex -0.013653 0.199893 0.250000
    vertex -0.015425 0.199839 0.250000
    vertex -0.015425 0.199839 -0.250000
  endloop
endfacet
facet normal 0.000027 -0.000886 0.000000
  outer loop
    vertex -0.013653 0.199893 0.250000
    vertex -0.015425 0.199839 -0.250000
    vertex -0.013653 0.199893 -0.250000
  endloop
endfacet
facet normal 0.000042 -0.001113 0.000000
  outer loop
    vertex -0.015425 0.199839 0.250000
    vertex -0.017652 0.199755 0.250000
    vertex -0.017652 0.199755 -0.250000
  endloop
endfacet
facet normal 0.000042 -0.001113 0.000000
  outer loop
    vertex -0.015425 0.199839 0.250000
    vertex -0.017652 0.199755 -0.250000
    vertex -0.015425 0.199839 -0.250000
  endloop
endfacet
facet normal 0.000049 -0.001096 0.000000
  outer loop
    vertex -0.017652 0.199755 0.250000
    vertex -0.019843 0.199657 0.250000
    vertex -0.019843 0.199657 -0.250000
  endloop
endfacet
facet normal 0.000049 -0.001096 0.000000
  outer loop
    vertex -0.017652 0.199755 0.250000
    vertex -0.019843 0.199657 -0.250000
    vertex -0.017652 0.199755 -0.250000
  endloop
endfacet
facet normal 0.000047 -0.000900 0.000000
  outer loop
    vertex -0.019843 0.199657 0.250000
    vertex -0.021644 0.199563 0.250000
    vertex -0.021644 0.199563 -0.250000
  endloop
endfacet
facet normal 0.000047 -0.000900 0.000000
  outer loop
    vertex -0.019843 0.199657 0.250000
    vertex -0.021644 0.199563 -0.250000
    vertex -0.019843 0.199657 -0.250000
  endloop
endfacet
facet normal 0.000046 -0.000773 0.000000
  outer loop
    vertex -0.021644 0.199563 0.250000
    vertex -0.023190 0.199472 0.250000
    vertex -0.023190 0.199472 -0.250000
  endloop
endfacet
facet normal 0.000046 -0.000773 0.000000
  outer loop
    vertex -0.021644 0.199563 0.250000
    vertex -0.023190 0.199472 -0.250000
    vertex -0.021644 0.199563 -0.250000
  endloop
endfacet
facet normal 0.000053 -0.000822 0.000000
  outer loop
    vertex -0.023190 0.199472 0.250000
    vertex -0.024833 0.199365 0.250000
    vertex -0.024833 0.199365 -0.250000
  endloop
endfacet
facet normal 0.000053 -0.000822 0.000000
  outer loop
    vertex -0.023190 0.199472 0.250000
    vertex -0.024833 0.199365 -0.250000
    vertex -0.023190 0.199472 -0.250000
  endloop
endfacet
facet normal 0.000050 -0.000694 0.000000
  outer loop
    vertex -0.024833 0.199365 0.250000
    vertex -0.026221 0.199266 0.250000
    vertex -0.026221 0.199266 -0.250000
  endloop
endfacet
facet normal 0.000050 -0.000694 0.000000
  outer loop
    vertex -0.024833 0.199365 0.250000
    vertex -0.026221 0.199266 -0.250000
    vertex -0.024833 0.199365 -0.250000
  endloop
endfacet
facet normal 0.000072 -0.000893 0.000000
  outer loop
    vertex -0.026221 0.199266 0.250000
    vertex -0.028006 0.199123 0.250000
    vertex -0.028006 0.199123 -0.250000
  endloop
endfacet
facet normal 0.000072 -0.000893 0.000000
  outer loop
    vertex -0.026221 0.199266 0.250000
    vertex -0.028006 0.199123 -0.250000
    vertex -0.026221 0.199266 -0.250000
  endloop
endfacet
facet normal 0.000075 -0.000845 0.000000
  outer loop
    vertex -0.028006 0.199123 0.250000
    vertex -0.029695 0.198973 0.250000
    vertex -0.029695 0.198973 -0.250000
  endloop
endfacet
facet normal 0.000075 -0.000845 0.000000
  outer loop
    vertex -0.028006 0.199123 0.250000
    vertex -0.029695 0.198973 -0.250000
    vertex -0.028006 0.199123 -0.250000
  endloop
endfacet
facet normal 0.000069 -0.000707 0.000000
  outer loop
    vertex -0.029695 0.198973 0.250000
    vertex -0.031110 0.198834 0.250000
    vertex -0.031110 0.198834 -0.250000
  endloop
endfacet
facet normal 0.000069 -0.000707 0.000000
  outer loop
    vertex -0.029695 0.198973 0.250000
    vertex -0.031110 0.198834 -0.250000
    vertex -0.029695 0.198973 -0.250000
  endloop
endfacet
facet normal 0.000154 -0.001368 0.000000
  outer loop
    vertex -0.031110 0.198834 0.250000
    vertex -0.033846 0.198527 0.250000
    vertex -0.033846 0.198527 -0.250000
  endloop
endfacet
facet normal 0.000154 -0.001368 0.000000
  outer loop
    vertex -0.031110 0.198834 0.250000
    vertex -0.033846 0.198527 -0.250000
    vertex -0.031110 0.198834 -0.250000
  endloop
endfacet
facet normal -0.000051 0.000429 0.000000
  outer loop
    vertex -0.033846 0.198527 0.250000
    vertex -0.032987 0.198629 0.250000
    vertex -0.032987 0.198629 -0.250000
  endloop
endfacet
facet normal -0.000051 0.000429 0.000000
  outer loop
    vertex -0.033846 0.198527 0.250000
    vertex -0.032987 0.198629 -0.250000
    vertex -0.033846 0.198527 -0.250000
  endloop
endfacet
facet normal 0.000105 -0.000857 0.000000
  outer loop
    vertex -0.032987 0.198629 0.250000
    vertex -0.034700 0.198419 0.250000
    vertex -0.034700 0.198419 -0.250000
  endloop
endfacet
facet normal 0.000105 -0.000857 0.000000
  outer loop
    vertex -0.032987 0.198629 0.250000
    vertex -0.034700 0.198419 -0.250000
    vertex -0.032987 0.198629 -0.250000
  endloop
endfacet
facet normal 0.000125 -0.000901 0.000000
  outer loop
    vertex -0.034700 0.198419 0.250000
    vertex -0.036503 0.198169 0.250000
    vertex -0.036503 0.198169 -0.250000
  endloop
endfacet
facet normal 0.000125 -0.000901 0.000000
  outer loop
    vertex -0.034700 0.198419 0.250000
    vertex -0.036503 0.198169 -0.250000
    vertex -0.034700 0.198419 -0.250000
  endloop
endfacet
facet normal 0.000137 -0.000875 0.000000
  outer loop
    vertex -0.036503 0.198169 0.250000
    vertex -0.038253 0.197895 0.250000
    vertex -0.038253 0.197895 -0.250000
  endloop
endfacet
facet normal 0.000137 -0.000875 0.000000
  outer loop
    vertex -0.036503 0.198169 0.250000
    vertex -0.038253 0.197895 -0.250000
    vertex -0.036503 0.198169 -0.250000
  endloop
endfacet
facet normal 0.000151 -0.000855 0.000000
  outer loop
    vertex -0.038253 0.197895 0.250000
    vertex -0.039963 0.197593 0.250000
    vertex -0.039963 0.197593 -0.250000
  endloop
endfacet
facet normal 0.000151 -0.000855 0.000000
  outer loop
    vertex -0.038253 0.197895 0.250000
    vertex -0.039963 0.197593 -0.250000
    vertex -0.038253 0.197895 -0.250000
  endloop
endfacet
facet normal 0.000193 -0.000953 0.000000
  outer loop
    vertex -0.039963 0.197593 0.250000
    vertex -0.041869 0.197207 0.250000
    vertex -0.041869 0.197207 -0.250000
  endloop
endfacet
facet normal 0.000193 -0.000953 0.000000
  outer loop
    vertex -0.039963 0.197593 0.250000
    vertex -0.041869 0.197207 -0.250000
    vertex -0.039963 0.197593 -0.250000
  endloop
endfacet
facet normal 0.000180 -0.000775 0.000000
  outer loop
    vertex -0.041869 0.197207 0.250000
    vertex -0.043420 0.196847 0.250000
    vertex -0.043420 0.196847 -0.250000
  endloop
endfacet
facet normal 0.000180 -0.000775 0.000000
  outer loop
    vertex -0.041869 0.197207 0.250000
    vertex -0.043420 0.196847 -0.250000
    vertex -0.041869 0.197207 -0.250000
  endloop
endfacet
facet normal 0.000125 -0.000486 0.000000
  outer loop
    vertex -0.043420 0.196847 0.250000
    vertex -0.044391 0.196597 0.250000
    vertex -0.044391 0.196597 -0.250000
  endloop
endfacet
facet normal 0.000125 -0.000486 0.000000
  outer loop
    vertex -0.043420 0.196847 0.250000
    vertex -0.044391 0.196597 -0.250000
    vertex -0.043420 0.196847 -0.250000
  endloop
endfacet
facet normal 0.000061 -0.000221 0.000000
  outer loop
    vertex -0.044391 0.196597 0.250000
    vertex -0.044833 0.196475 0.250000
    vertex -0.044833 0.196475 -0.250000
  endloop
endfacet
facet normal 0.000061 -0.000221 0.000000
  outer loop
    vertex -0.044391 0.196597 0.250000
    vertex -0.044833 0.196475 -0.250000
    vertex -0.044391 0.196597 -0.250000
  endloop
endfacet
facet normal 0.000106 -0.000363 0.000000
  outer loop
    vertex -0.044833 0.196475 0.250000
    vertex -0.045560 0.196264 0.250000
    vertex -0.045560 0.196264 -0.250000
  endloop
endfacet
facet normal 0.000106 -0.000363 0.000000
  outer loop
    vertex -0.044833 0.196475 0.250000
    vertex -0.045560 0.196264 -0.250000
    vertex -0.044833 0.196475 -0.250000
  endloop
endfacet
facet normal 0.000107 -0.000347 0.000000
  outer loop
    vertex -0.045560 0.196264 0.250000
    vertex -0.046254 0.196049 0.250000
    vertex -0.046254 0.196049 -0.250000
  endloop
endfacet
facet normal 0.000107 -0.000347 0.000000
  outer loop
    vertex -0.045560 0.196264 0.250000
    vertex -0.046254 0.196049 -0.250000
    vertex -0.045560 0.196264 -0.250000
  endloop
endfacet
facet normal 0.000103 -0.000308 0.000000
  outer loop
    vertex -0.046254 0.196049 0.250000
    vertex -0.046870 0.195843 0.250000
    vertex -0.046870 0.195843 -0.250000
  endloop
endfacet
facet normal 0.000103 -0.000308 0.000000
  outer loop
    vertex -0.046254 0.196049 0.250000
    vertex -0.046870 0.195843 -0.250000
    vertex -0.046254 0.196049 -0.250000
  endloop
endfacet
facet normal 0.000106 -0.000298 0.000000
  outer loop
    vertex -0.046870 0.195843 0.250000
    vertex -0.047466 0.195631 0.250000
    vertex -0.047466 0.195631 -0.250000
  endloop
endfacet
facet normal 0.000106 -0.000298 0.000000
  outer loop
    vertex -0.046870 0.195843 0.250000
    vertex -0.047466 0.195631 -0.250000
    vertex -0.046870 0.195843 -0.250000
  endloop
endfacet
facet normal -0.000256 0.000754 0.000000
  outer loop
    vertex -0.047466 0.195631 0.250000
    vertex -0.045957 0.196143 0.250000
    vertex -0.045957 0.196143 -0.250000
  endloop
endfacet
facet normal -0.000256 0.000754 0.000000
  outer loop
    vertex -0.047466 0.195631 0.250000
    vertex -0.045957 0.196143 -0.250000
    vertex -0.047466 0.195631 -0.250000
  endloop
endfacet
facet normal 0.000347 -0.000993 0.000000
  outer loop
    vertex -0.045957 0.196143 0.250000
    vertex -0.047942 0.195450 0.250000
    vertex -0.047942 0.195450 -0.250000
  endloop
endfacet
facet normal 0.000347 -0.000993 0.000000
  outer loop
    vertex -0.045957 0.196143 0.250000
    vertex -0.047942 0.195450 -0.250000
    vertex -0.045957 0.196143 -0.250000
  endloop
endfacet
facet normal 0.000096 -0.000239 0.000000
  outer loop
    vertex -0.047942 0.195450 0.250000
    vertex -0.048420 0.195257 0.250000
    vertex -0.048420 0.195257 -0.250000
  endloop
endfacet
facet normal 0.000096 -0.000239 0.000000
  outer loop
    vertex -0.047942 0.195450 0.250000
    vertex -0.048420 0.195257 -0.250000
    vertex -0.047942 0.195450 -0.250000
  endloop
endfacet
facet normal 0.000133 -0.000305 0.000000
  outer loop
    vertex -0.048420 0.195257 0.250000
    vertex -0.049031 0.194991 0.250000
    vertex -0.049031 0.194991 -0.250000
  endloop
endfacet
facet normal 0.000133 -0.000305 0.000000
  outer loop
    vertex -0.048420 0.195257 0.250000
    vertex -0.049031 0.194991 -0.250000
    vertex -0.048420 0.195257 -0.250000
  endloop
endfacet
facet normal 0.000083 -0.000176 0.000000
  outer loop
    vertex -0.049031 0.194991 0.250000
    vertex -0.049383 0.194825 0.250000
    vertex -0.049383 0.194825 -0.250000
  endloop
endfacet
facet normal 0.000083 -0.000176 0.000000
  outer loop
    vertex -0.049031 0.194991 0.250000
    vertex -0.049383 0.194825 -0.250000
    vertex -0.049031 0.194991 -0.250000
  endloop
endfacet
facet normal 0.000086 -0.000173 0.000000
  outer loop
    vertex -0.049383 0.194825 0.250000
    vertex -0.049730 0.194652 0.250000
    vertex -0.049730 0.194652 -0.250000
  endloop
endfacet
facet normal 0.000086 -0.000173 0.000000
  outer loop
    vertex -0.049383 0.194825 0.250000
    vertex -0.049730 0.194652 -0.250000
    vertex -0.049383 0.194825 -0.250000
  endloop
endfacet
facet normal 0.000098 -0.000181 0.000000
  outer loop
    vertex -0.049730 0.194652 0.250000
    vertex -0.050092 0.194457 0.250000
    vertex -0.050092 0.194457 -0.250000
  endloop
endfacet
facet normal 0.000098 -0.000181 0.000000
  outer loop
    vertex -0.049730 0.194652 0.250000
    vertex -0.050092 0.194457 -0.250000
    vertex -0.049730 0.194652 -0.250000
  endloop
endfacet
facet normal 0.000097 -0.000168 0.000000
  outer loop
    vertex -0.050092 0.194457 0.250000
    vertex -0.050428 0.194262 0.250000
    vertex -0.050428 0.194262 -0.250000
  endloop
endfacet
facet normal 0.000097 -0.000168 0.000000
  outer loop
    vertex -0.050092 0.194457 0.250000
    vertex -0.050428 0.194262 -0.250000
    vertex -0.050092 0.194457 -0.250000
  endloop
endfacet
facet normal 0.000023 -0.000037 0.000000
  outer loop
    vertex -0.050428 0.194262 0.250000
    vertex -0.050502 0.194216 0.250000
    vertex -0.050502 0.194216 -0.250000
  endloop
endfacet
facet normal 0.000023 -0.000037 0.000000
  outer loop
    vertex -0.050428 0.194262 0.250000
    vertex -0.050502 0.194216 -0.250000
    vertex -0.050428 0.194262 -0.250000
  endloop
endfacet
facet normal 0.000050 -0.000078 0.000000
  outer loop
    vertex -0.050502 0.194216 0.250000
    vertex -0.050658 0.194117 0.250000
    vertex -0.050658 0.194117 -0.250000
  endloop
endfacet
facet normal 0.000050 -0.000078 0.000000
  outer loop
    vertex -0.050502 0.194216 0.250000
    vertex -0.050658 0.194117 -0.250000
    vertex -0.050502 0.194216 -0.250000
  endloop
endfacet
facet normal -0.000023 0.000036 0.000000
  outer loop
    vertex -0.050658 0.194117 0.250000
    vertex -0.050586 0.194164 0.250000
    vertex -0.050586 0.194164 -0.250000
  endloop
endfacet
facet normal -0.000023 0.000036 0.000000
  outer loop
    vertex -0.050658 0.194117 0.250000
    vertex -0.050586 0.194164 -0.250000
    vertex -0.050658 0.194117 -0.250000
  endloop
endfacet
facet normal 0.000054 -0.000084 0.000000
  outer loop
    vertex -0.050586 0.194164 0.250000
    vertex -0.050754 0.194055 0.250000
    vertex -0.050754 0.194055 -0.250000
  endloop
endfacet
facet normal 0.000054 -0.000084 0.000000
  outer loop
    vertex -0.050586 0.194164 0.250000
    vertex -0.050754 0.194055 -0.250000
    vertex -0.050586 0.194164 -0.250000
  endloop
endfacet
facet normal 0.000044 -0.000064 0.000000
  outer loop
    vertex -0.050754 0.194055 0.250000
    vertex -0.050883 0.193968 0.250000
    vertex -0.050883 0.193968 -0.250000
  endloop
endfacet
facet normal 0.000044 -0.000064 0.000000
  outer loop
    vertex -0.050754 0.194055 0.250000
    vertex -0.050883 0.193968 -0.250000
    vertex -0.050754 0.194055 -0.250000
  endloop
endfacet
facet normal 0.000036 -0.000051 0.000000
  outer loop
    vertex -0.050883 0.193968 0.250000
    vertex -0.050985 0.193896 0.250000
    vertex -0.050985 0.193896 -0.250000
  endloop
endfacet
facet normal 0.000036 -0.000051 0.000000
  outer loop
    vertex -0.050883 0.193968 0.250000
    vertex -0.050985 0.193896 -0.250000
    vertex -0.050883 0.193968 -0.250000
  endloop
endfacet
facet normal 0.000035 -0.000049 0.000000
  outer loop
    vertex -0.050985 0.193896 0.250000
    vertex -0.051083 0.193826 0.250000
    vertex -0.051083 0.193826 -0.250000
  endloop
endfacet
facet normal 0.000035 -0.000049 0.000000
  outer loop
    vertex -0.050985 0.193896 0.250000
    vertex -0.051083 0.193826 -0.250000
    vertex -0.050985 0.193896 -0.250000
  endloop
endfacet
facet normal 0.000035 -0.000046 0.000000
  outer loop
    vertex -0.051083 0.193826 0.250000
    vertex -0.051175 0.193756 0.250000
    vertex -0.051175 0.193756 -0.250000
  endloop
endfacet
facet normal 0.000035 -0.000046 0.000000
  outer loop
    vertex -0.051083 0.193826 0.250000
    vertex -0.051175 0.193756 -0.250000
    vertex -0.051083 0.193826 -0.250000
  endloop
endfacet
facet normal 0.000028 -0.000037 0.000000
  outer loop
    vertex -0.051175 0.193756 0.250000
    vertex -0.051248 0.193700 0.250000
    vertex -0.051248 0.193700 -0.250000
  endloop
endfacet
facet normal 0.000028 -0.000037 0.000000
  outer loop
    vertex -0.051175 0.193756 0.250000
    vertex -0.051248 0.193700 -0.250000
    vertex -0.051175 0.193756 -0.250000
  endloop
endfacet
facet normal 0.000036 -0.000045 0.000000
  outer loop
    vertex -0.051248 0.193700 0.250000
    vertex -0.051337 0.193629 0.250000
    vertex -0.051337 0.193629 -0.250000
  endloop
endfacet
facet normal 0.000036 -0.000045 0.000000
  outer loop
    vertex -0.051248 0.193700 0.250000
    vertex -0.051337 0.193629 -0.250000
    vertex -0.051248 0.193700 -0.250000
  endloop
endfacet
facet normal 0.000044 -0.000054 0.000000
  outer loop
    vertex -0.051337 0.193629 0.250000
    vertex -0.051444 0.193541 0.250000
    vertex -0.051444 0.193541 -0.250000
  endloop
endfacet
facet normal 0.000044 -0.000054 0.000000
  outer loop
    vertex -0.051337 0.193629 0.250000
    vertex -0.051444 0.193541 -0.250000
    vertex -0.051337 0.193629 -0.250000
  endloop
endfacet
facet normal 0.000059 -0.000067 0.000000
  outer loop
    vertex -0.051444 0.193541 0.250000
    vertex -0.051578 0.193424 0.250000
    vertex -0.051578 0.193424 -0.250000
  endloop
endfacet
facet normal 0.000059 -0.000067 0.000000
  outer loop
    vertex -0.051444 0.193541 0.250000
    vertex -0.051578 0.193424 -0.250000
    vertex -0.051444 0.193541 -0.250000
  endloop
endfacet
facet normal 0.000042 -0.000045 0.000000
  outer loop
    vertex -0.051578 0.193424 0.250000
    vertex -0.051668 0.193339 0.250000
    vertex -0.051668 0.193339 -0.250000
  endloop
endfacet
facet normal 0.000042 -0.000045 0.000000
  outer loop
    vertex -0.051578 0.193424 0.250000
    vertex -0.051668 0.193339 -0.250000
    vertex -0.051578 0.193424 -0.250000
  endloop
endfacet
facet normal 0.000073 -0.000071 0.000000
  outer loop
    vertex -0.051668 0.193339 0.250000
    vertex -0.051809 0.193194 0.250000
    vertex -0.051809 0.193194 -0.250000
  endloop
endfacet
facet normal 0.000073 -0.000071 0.000000
  outer loop
    vertex -0.051668 0.193339 0.250000
    vertex -0.051809 0.193194 -0.250000
    vertex -0.051668 0.193339 -0.250000
  endloop
endfacet
facet normal 0.000071 -0.000060 0.000000
  outer loop
    vertex -0.051809 0.193194 0.250000
    vertex -0.051930 0.193052 0.250000
    vertex -0.051930 0.193052 -0.250000
  endloop
endfacet
facet normal 0.000071 -0.000060 0.000000
  outer loop
    vertex -0.051809 0.193194 0.250000
    vertex -0.051930 0.193052 -0.250000
    vertex -0.051809 0.193194 -0.250000
  endloop
endfacet
facet normal 0.000073 -0.000054 0.000000
  outer loop
    vertex -0.051930 0.193052 0.250000
    vertex -0.052038 0.192906 0.250000
    vertex -0.052038 0.192906 -0.250000
  endloop
endfacet
facet normal 0.000073 -0.000054 0.000000
  outer loop
    vertex -0.051930 0.193052 0.250000
    vertex -0.052038 0.192906 -0.250000
    vertex -0.051930 0.193052 -0.250000
  endloop
endfacet
facet normal 0.000103 -0.000063 0.000000
  outer loop
    vertex -0.052038 0.192906 0.250000
    vertex -0.052163 0.192701 0.250000
    vertex -0.052163 0.192701 -0.250000
  endloop
endfacet
facet normal 0.000103 -0.000063 0.000000
  outer loop
    vertex -0.052038 0.192906 0.250000
    vertex -0.052163 0.192701 -0.250000
    vertex -0.052038 0.192906 -0.250000
  endloop
endfacet
facet normal -0.000039 0.000022 0.000000
  outer loop
    vertex -0.052163 0.192701 0.250000
    vertex -0.052120 0.192778 0.250000
    vertex -0.052120 0.192778 -0.250000
  endloop
endfacet
facet normal -0.000039 0.000022 0.000000
  outer loop
    vertex -0.052163 0.192701 0.250000
    vertex -0.052120 0.192778 -0.250000
    vertex -0.052163 0.192701 -0.250000
  endloop
endfacet
facet normal 0.000102 -0.000054 0.000000
  outer loop
    vertex -0.052120 0.192778 0.250000
    vertex -0.052228 0.192574 0.250000
    vertex -0.052228 0.192574 -0.250000
  endloop
endfacet
facet normal 0.000102 -0.000054 0.000000
  outer loop
    vertex -0.052120 0.192778 0.250000
    vertex -0.052228 0.192574 -0.250000
    vertex -0.052120 0.192778 -0.250000
  endloop
endfacet
facet normal 0.000039 -0.000017 0.000000
  outer loop
    vertex -0.052228 0.192574 0.250000
    vertex -0.052263 0.192495 0.250000
    vertex -0.052263 0.192495 -0.250000
  endloop
endfacet
facet normal 0.000039 -0.000017 0.000000
  outer loop
    vertex -0.052228 0.192574 0.250000
    vertex -0.052263 0.192495 -0.250000
    vertex -0.052228 0.192574 -0.250000
  endloop
endfacet
facet normal 0.000049 -0.000019 0.000000
  outer loop
    vertex -0.052263 0.192495 0.250000
    vertex -0.052301 0.192397 0.250000
    vertex -0.052301 0.192397 -0.250000
  endloop
endfacet
facet normal 0.000049 -0.000019 0.000000
  outer loop
    vertex -0.052263 0.192495 0.250000
    vertex -0.052301 0.192397 -0.250000
    vertex -0.052263 0.192495 -0.250000
  endloop
endfacet
facet normal 0.000037 -0.000012 0.000000
  outer loop
    vertex -0.052301 0.192397 0.250000
    vertex -0.052325 0.192323 0.250000
    vertex -0.052325 0.192323 -0.250000
  endloop
endfacet
facet normal 0.000037 -0.000012 0.000000
  outer loop
    vertex -0.052301 0.192397 0.250000
    vertex -0.052325 0.192323 -0.250000
    vertex -0.052301 0.192397 -0.250000
  endloop
endfacet
facet normal 0.000091 -0.000022 0.000000
  outer loop
    vertex -0.052325 0.192323 0.250000
    vertex -0.052369 0.192142 0.250000
    vertex -0.052369 0.192142 -0.250000
  endloop
endfacet
facet normal 0.000091 -0.000022 0.000000
  outer loop
    vertex -0.052325 0.192323 0.250000
    vertex -0.052369 0.192142 -0.250000
    vertex -0.052325 0.192323 -0.250000
  endloop
endfacet
facet normal 0.000094 -0.000010 0.000000
  outer loop
    vertex -0.052369 0.192142 0.250000
    vertex -0.052388 0.191954 0.250000
    vertex -0.052388 0.191954 -0.250000
  endloop
endfacet
facet normal 0.000094 -0.000010 0.000000
  outer loop
    vertex -0.052369 0.192142 0.250000
    vertex -0.052388 0.191954 -0.250000
    vertex -0.052369 0.192142 -0.250000
  endloop
endfacet
facet normal -0.000034 0.000002 0.000000
  outer loop
    vertex -0.052388 0.191954 0.250000
    vertex -0.052384 0.192023 0.250000
    vertex -0.052384 0.192023 -0.250000
  endloop
endfacet
facet normal -0.000034 0.000002 0.000000
  outer loop
    vertex -0.052388 0.191954 0.250000
    vertex -0.052384 0.192023 -0.250000
    vertex -0.052388 0.191954 -0.250000
  endloop
endfacet
facet normal 0.000081 -0.000001 0.000000
  outer loop
    vertex -0.052384 0.192023 0.250000
    vertex -0.052386 0.191860 0.250000
    vertex -0.052386 0.191860 -0.250000
  endloop
endfacet
facet normal 0.000081 -0.000001 0.000000
  outer loop
    vertex -0.052384 0.192023 0.250000
    vertex -0.052386 0.191860 -0.250000
    vertex -0.052384 0.192023 -0.250000
  endloop
endfacet
facet normal 0.000067 0.000009 0.000000
  outer loop
    vertex -0.052386 0.191860 0.250000
    vertex -0.052369 0.191726 0.250000
    vertex -0.052369 0.191726 -0.250000
  endloop
endfacet
facet normal 0.000067 0.000009 0.000000
  outer loop
    vertex -0.052386 0.191860 0.250000
    vertex -0.052369 0.191726 -0.250000
    vertex -0.052386 0.191860 -0.250000
  endloop
endfacet
facet normal 0.000046 0.000011 0.000000
  outer loop
    vertex -0.052369 0.191726 0.250000
    vertex -0.052347 0.191634 0.250000
    vertex -0.052347 0.191634 -0.250000
  endloop
endfacet
facet normal 0.000046 0.000011 0.000000
  outer loop
    vertex -0.052369 0.191726 0.250000
    vertex -0.052347 0.191634 -0.250000
    vertex -0.052369 0.191726 -0.250000
  endloop
endfacet
facet normal 0.000178 0.000085 0.000000
  outer loop
    vertex -0.052347 0.191634 0.250000
    vertex -0.052177 0.191278 0.250000
    vertex -0.052177 0.191278 -0.250000
  endloop
endfacet
facet normal 0.000178 0.000085 0.000000
  outer loop
    vertex -0.052347 0.191634 0.250000
    vertex -0.052177 0.191278 -0.250000
    vertex -0.052347 0.191634 -0.250000
  endloop
endfacet
facet normal 0.000157 0.000133 0.000000
  outer loop
    vertex -0.052177 0.191278 0.250000
    vertex -0.051910 0.190964 0.250000
    vertex -0.051910 0.190964 -0.250000
  endloop
endfacet
facet normal 0.000157 0.000133 0.000000
  outer loop
    vertex -0.052177 0.191278 0.250000
    vertex -0.051910 0.190964 -0.250000
    vertex -0.052177 0.191278 -0.250000
  endloop
endfacet
facet normal -0.000302 -0.000207 0.000000
  outer loop
    vertex -0.051910 0.190964 0.250000
    vertex -0.052325 0.191568 0.250000
    vertex -0.052325 0.191568 -0.250000
  endloop
endfacet
facet normal -0.000302 -0.000207 -0.000000
  outer loop
    vertex -0.051910 0.190964 0.250000
    vertex -0.052325 0.191568 -0.250000
    vertex -0.051910 0.190964 -0.250000
  endloop
endfacet
facet normal 0.000036 0.000014 0.000000
  outer loop
    vertex -0.052325 0.191568 0.250000
    vertex -0.052297 0.191496 0.250000
    vertex -0.052297 0.191496 -0.250000
  endloop
endfacet
facet normal 0.000036 0.000014 0.000000
  outer loop
    vertex -0.052325 0.191568 0.250000
    vertex -0.052297 0.191496 -0.250000
    vertex -0.052325 0.191568 -0.250000
  endloop
endfacet
facet normal 0.000042 0.000021 0.000000
  outer loop
    vertex -0.052297 0.191496 0.250000
    vertex -0.052256 0.191412 0.250000
    vertex -0.052256 0.191412 -0.250000
  endloop
endfacet
facet normal 0.000042 0.000021 0.000000
  outer loop
    vertex -0.052297 0.191496 0.250000
    vertex -0.052256 0.191412 -0.250000
    vertex -0.052297 0.191496 -0.250000
  endloop
endfacet
facet normal 0.000136 0.000091 0.000000
  outer loop
    vertex -0.052256 0.191412 0.250000
    vertex -0.052074 0.191140 0.250000
    vertex -0.052074 0.191140 -0.250000
  endloop
endfacet
facet normal 0.000136 0.000091 0.000000
  outer loop
    vertex -0.052256 0.191412 0.250000
    vertex -0.052074 0.191140 -0.250000
    vertex -0.052256 0.191412 -0.250000
  endloop
endfacet
facet normal 0.000040 0.000035 0.000000
  outer loop
    vertex -0.052074 0.191140 0.250000
    vertex -0.052004 0.191060 0.250000
    vertex -0.052004 0.191060 -0.250000
  endloop
endfacet
facet normal 0.000040 0.000035 0.000000
  outer loop
    vertex -0.052074 0.191140 0.250000
    vertex -0.052004 0.191060 -0.250000
    vertex -0.052074 0.191140 -0.250000
  endloop
endfacet
facet normal 0.000097 0.000102 0.000000
  outer loop
    vertex -0.052004 0.191060 0.250000
    vertex -0.051800 0.190866 0.250000
    vertex -0.051800 0.190866 -0.250000
  endloop
endfacet
facet normal 0.000097 0.000102 0.000000
  outer loop
    vertex -0.052004 0.191060 0.250000
    vertex -0.051800 0.190866 -0.250000
    vertex -0.052004 0.191060 -0.250000
  endloop
endfacet
facet normal 0.000092 0.000123 0.000000
  outer loop
    vertex -0.051800 0.190866 0.250000
    vertex -0.051555 0.190682 0.250000
    vertex -0.051555 0.190682 -0.250000
  endloop
endfacet
facet normal 0.000092 0.000123 0.000000
  outer loop
    vertex -0.051800 0.190866 0.250000
    vertex -0.051555 0.190682 -0.250000
    vertex -0.051800 0.190866 -0.250000
  endloop
endfacet
facet normal -0.000045 -0.000063 0.000000
  outer loop
    vertex -0.051555 0.190682 0.250000
    vertex -0.051681 0.190771 0.250000
    vertex -0.051681 0.190771 -0.250000
  endloop
endfacet
facet normal -0.000045 -0.000063 -0.000000
  outer loop
    vertex -0.051555 0.190682 0.250000
    vertex -0.051681 0.190771 -0.250000
    vertex -0.051555 0.190682 -0.250000
  endloop
endfacet
facet normal 0.000088 0.000135 0.000000
  outer loop
    vertex -0.051681 0.190771 0.250000
    vertex -0.051411 0.190594 0.250000
    vertex -0.051411 0.190594 -0.250000
  endloop
endfacet
facet normal 0.000088 0.000135 0.000000
  outer loop
    vertex -0.051681 0.190771 0.250000
    vertex -0.051411 0.190594 -0.250000
    vertex -0.051681 0.190771 -0.250000
  endloop
endfacet
facet normal 0.000046 0.000088 0.000000
  outer loop
    vertex -0.051411 0.190594 0.250000
    vertex -0.051235 0.190501 0.250000
    vertex -0.051235 0.190501 -0.250000
  endloop
endfacet
facet normal 0.000046 0.000088 0.000000
  outer loop
    vertex -0.051411 0.190594 0.250000
    vertex -0.051235 0.190501 -0.250000
    vertex -0.051411 0.190594 -0.250000
  endloop
endfacet
facet normal 0.000027 0.000057 0.000000
  outer loop
    vertex -0.051235 0.190501 0.250000
    vertex -0.051120 0.190448 0.250000
    vertex -0.051120 0.190448 -0.250000
  endloop
endfacet
facet normal 0.000027 0.000057 0.000000
  outer loop
    vertex -0.051235 0.190501 0.250000
    vertex -0.051120 0.190448 -0.250000
    vertex -0.051235 0.190501 -0.250000
  endloop
endfacet
facet normal 0.000032 0.000075 0.000000
  outer loop
    vertex -0.051120 0.190448 0.250000
    vertex -0.050970 0.190384 0.250000
    vertex -0.050970 0.190384 -0.250000
  endloop
endfacet
facet normal 0.000032 0.000075 0.000000
  outer loop
    vertex -0.051120 0.190448 0.250000
    vertex -0.050970 0.190384 -0.250000
    vertex -0.051120 0.190448 -0.250000
  endloop
endfacet
facet normal 0.000028 0.000071 0.000000
  outer loop
    vertex -0.050970 0.190384 0.250000
    vertex -0.050827 0.190329 0.250000
    vertex -0.050827 0.190329 -0.250000
  endloop
endfacet
facet normal 0.000028 0.000071 0.000000
  outer loop
    vertex -0.050970 0.190384 0.250000
    vertex -0.050827 0.190329 -0.250000
    vertex -0.050970 0.190384 -0.250000
  endloop
endfacet
facet normal 0.000031 0.000085 0.000000
  outer loop
    vertex -0.050827 0.190329 0.250000
    vertex -0.050658 0.190268 0.250000
    vertex -0.050658 0.190268 -0.250000
  endloop
endfacet
facet normal 0.000031 0.000085 0.000000
  outer loop
    vertex -0.050827 0.190329 0.250000
    vertex -0.050658 0.190268 -0.250000
    vertex -0.050827 0.190329 -0.250000
  endloop
endfacet
facet normal 0.000023 0.000068 0.000000
  outer loop
    vertex -0.050658 0.190268 0.250000
    vertex -0.050522 0.190223 0.250000
    vertex -0.050522 0.190223 -0.250000
  endloop
endfacet
facet normal 0.000023 0.000068 0.000000
  outer loop
    vertex -0.050658 0.190268 0.250000
    vertex -0.050522 0.190223 -0.250000
    vertex -0.050658 0.190268 -0.250000
  endloop
endfacet
facet normal 0.000023 0.000076 0.000000
  outer loop
    vertex -0.050522 0.190223 0.250000
    vertex -0.050371 0.190176 0.250000
    vertex -0.050371 0.190176 -0.250000
  endloop
endfacet
facet normal 0.000023 0.000076 0.000000
  outer loop
    vertex -0.050522 0.190223 0.250000
    vertex -0.050371 0.190176 -0.250000
    vertex -0.050522 0.190223 -0.250000
  endloop
endfacet
facet normal 0.000023 0.000080 0.000000
  outer loop
    vertex -0.050371 0.190176 0.250000
    vertex -0.050211 0.190129 0.250000
    vertex -0.050211 0.190129 -0.250000
  endloop
endfacet
facet normal 0.000023 0.000080 0.000000
  outer loop
    vertex -0.050371 0.190176 0.250000
    vertex -0.050211 0.190129 -0.250000
    vertex -0.050371 0.190176 -0.250000
  endloop
endfacet
facet normal 0.000021 0.000080 0.000000
  outer loop
    vertex -0.050211 0.190129 0.250000
    vertex -0.050050 0.190087 0.250000
    vertex -0.050050 0.190087 -0.250000
  endloop
endfacet
facet normal 0.000021 0.000080 0.000000
  outer loop
    vertex -0.050211 0.190129 0.250000
    vertex -0.050050 0.190087 -0.250000
    vertex -0.050211 0.190129 -0.250000
  endloop
endfacet
facet normal 0.000023 0.000091 0.000000
  outer loop
    vertex -0.050050 0.190087 0.250000
    vertex -0.049869 0.190042 0.250000
    vertex -0.049869 0.190042 -0.250000
  endloop
endfacet
facet normal 0.000023 0.000091 0.000000
  outer loop
    vertex -0.050050 0.190087 0.250000
    vertex -0.049869 0.190042 -0.250000
    vertex -0.050050 0.190087 -0.250000
  endloop
endfacet
facet normal 0.000018 0.000077 0.000000
  outer loop
    vertex -0.049869 0.190042 0.250000
    vertex -0.049715 0.190007 0.250000
    vertex -0.049715 0.190007 -0.250000
  endloop
endfacet
facet normal 0.000018 0.000077 0.000000
  outer loop
    vertex -0.049869 0.190042 0.250000
    vertex -0.049715 0.190007 -0.250000
    vertex -0.049869 0.190042 -0.250000
  endloop
endfacet
facet normal 0.000014 0.000067 0.000000
  outer loop
    vertex -0.049715 0.190007 0.250000
    vertex -0.049581 0.189978 0.250000
    vertex -0.049581 0.189978 -0.250000
  endloop
endfacet
facet normal 0.000014 0.000067 0.000000
  outer loop
    vertex -0.049715 0.190007 0.250000
    vertex -0.049581 0.189978 -0.250000
    vertex -0.049715 0.190007 -0.250000
  endloop
endfacet
facet normal 0.000010 0.000051 0.000000
  outer loop
    vertex -0.049581 0.189978 0.250000
    vertex -0.049480 0.189958 0.250000
    vertex -0.049480 0.189958 -0.250000
  endloop
endfacet
facet normal 0.000010 0.000051 0.000000
  outer loop
    vertex -0.049581 0.189978 0.250000
    vertex -0.049480 0.189958 -0.250000
    vertex -0.049581 0.189978 -0.250000
  endloop
endfacet
facet normal 0.000015 0.000075 0.000000
  outer loop
    vertex -0.049480 0.189958 0.250000
    vertex -0.049329 0.189929 0.250000
    vertex -0.049329 0.189929 -0.250000
  endloop
endfacet
facet normal 0.000015 0.000075 0.000000
  outer loop
    vertex -0.049480 0.189958 0.250000
    vertex -0.049329 0.189929 -0.250000
    vertex -0.049480 0.189958 -0.250000
  endloop
endfacet
facet normal 0.000014 0.000078 0.000000
  outer loop
    vertex -0.049329 0.189929 0.250000
    vertex -0.049174 0.189902 0.250000
    vertex -0.049174 0.189902 -0.250000
  endloop
endfacet
facet normal 0.000014 0.000078 0.000000
  outer loop
    vertex -0.049329 0.189929 0.250000
    vertex -0.049174 0.189902 -0.250000
    vertex -0.049329 0.189929 -0.250000
  endloop
endfacet
facet normal 0.000010 0.000063 0.000000
  outer loop
    vertex -0.049174 0.189902 0.250000
    vertex -0.049048 0.189881 0.250000
    vertex -0.049048 0.189881 -0.250000
  endloop
endfacet
facet normal 0.000010 0.000063 0.000000
  outer loop
    vertex -0.049174 0.189902 0.250000
    vertex -0.049048 0.189881 -0.250000
    vertex -0.049174 0.189902 -0.250000
  endloop
endfacet
facet normal 0.000012 0.000082 0.000000
  outer loop
    vertex -0.049048 0.189881 0.250000
    vertex -0.048885 0.189857 0.250000
    vertex -0.048885 0.189857 -0.250000
  endloop
endfacet
facet normal 0.000012 0.000082 0.000000
  outer loop
    vertex -0.049048 0.189881 0.250000
    vertex -0.048885 0.189857 -0.250000
    vertex -0.049048 0.189881 -0.250000
  endloop
endfacet
facet normal 0.000013 0.000087 0.000000
  outer loop
    vertex -0.048885 0.189857 0.250000
    vertex -0.048711 0.189832 0.250000
    vertex -0.048711 0.189832 -0.250000
  endloop
endfacet
facet normal 0.000013 0.000087 0.000000
  outer loop
    vertex -0.048885 0.189857 0.250000
    vertex -0.048711 0.189832 -0.250000
    vertex -0.048885 0.189857 -0.250000
  endloop
endfacet
facet normal 0.000013 0.000098 0.000000
  outer loop
    vertex -0.048711 0.189832 0.250000
    vertex -0.048515 0.189807 0.250000
    vertex -0.048515 0.189807 -0.250000
  endloop
endfacet
facet normal 0.000013 0.000098 0.000000
  outer loop
    vertex -0.048711 0.189832 0.250000
    vertex -0.048515 0.189807 -0.250000
    vertex -0.048711 0.189832 -0.250000
  endloop
endfacet
facet normal 0.000024 0.000226 0.000000
  outer loop
    vertex -0.048515 0.189807 0.250000
    vertex -0.048062 0.189759 0.250000
    vertex -0.048062 0.189759 -0.250000
  endloop
endfacet
facet normal 0.000024 0.000226 0.000000
  outer loop
    vertex -0.048515 0.189807 0.250000
    vertex -0.048062 0.189759 -0.250000
    vertex -0.048515 0.189807 -0.250000
  endloop
endfacet
facet normal -0.000014 -0.000135 0.000000
  outer loop
    vertex -0.048062 0.189759 0.250000
    vertex -0.048332 0.189786 0.250000
    vertex -0.048332 0.189786 -0.250000
  endloop
endfacet
facet normal -0.000014 -0.000135 -0.000000
  outer loop
    vertex -0.048062 0.189759 0.250000
    vertex -0.048332 0.189786 -0.250000
    vertex -0.048062 0.189759 -0.250000
  endloop
endfacet
facet normal 0.000027 0.000291 0.000000
  outer loop
    vertex -0.048332 0.189786 0.250000
    vertex -0.047749 0.189732 0.250000
    vertex -0.047749 0.189732 -0.250000
  endloop
endfacet
facet normal 0.000027 0.000291 0.000000
  outer loop
    vertex -0.048332 0.189786 0.250000
    vertex -0.047749 0.189732 -0.250000
    vertex -0.048332 0.189786 -0.250000
  endloop
endfacet
facet normal 0.000009 0.000128 0.000000
  outer loop
    vertex -0.047749 0.189732 0.250000
    vertex -0.047493 0.189713 0.250000
    vertex -0.047493 0.189713 -0.250000
  endloop
endfacet
facet normal 0.000009 0.000128 0.000000
  outer loop
    vertex -0.047749 0.189732 0.250000
    vertex -0.047493 0.189713 -0.250000
    vertex -0.047749 0.189732 -0.250000
  endloop
endfacet
facet normal 0.000006 0.000096 0.000000
  outer loop
    vertex -0.047493 0.189713 0.250000
    vertex -0.047300 0.189701 0.250000
    vertex -0.047300 0.189701 -0.250000
  endloop
endfacet
facet normal 0.000006 0.000096 0.000000
  outer loop
    vertex -0.047493 0.189713 0.250000
    vertex -0.047300 0.189701 -0.250000
    vertex -0.047493 0.189713 -0.250000
  endloop
endfacet
facet normal 0.000005 0.000087 0.000000
  outer loop
    vertex -0.047300 0.189701 0.250000
    vertex -0.047125 0.189691 0.250000
    vertex -0.047125 0.189691 -0.250000
  endloop
endfacet
facet normal 0.000005 0.000087 0.000000
  outer loop
    vertex -0.047300 0.189701 0.250000
    vertex -0.047125 0.189691 -0.250000
    vertex -0.047300 0.189701 -0.250000
  endloop
endfacet
facet normal 0.000005 0.000112 0.000000
  outer loop
    vertex -0.047125 0.189691 0.250000
    vertex -0.046901 0.189681 0.250000
    vertex -0.046901 0.189681 -0.250000
  endloop
endfacet
facet normal 0.000005 0.000112 0.000000
  outer loop
    vertex -0.047125 0.189691 0.250000
    vertex -0.046901 0.189681 -0.250000
    vertex -0.047125 0.189691 -0.250000
  endloop
endfacet
facet normal 0.000003 0.000078 0.000000
  outer loop
    vertex -0.046901 0.189681 0.250000
    vertex -0.046744 0.189675 0.250000
    vertex -0.046744 0.189675 -0.250000
  endloop
endfacet
facet normal 0.000003 0.000078 0.000000
  outer loop
    vertex -0.046901 0.189681 0.250000
    vertex -0.046744 0.189675 -0.250000
    vertex -0.046901 0.189681 -0.250000
  endloop
endfacet
facet normal 0.000002 0.000064 0.000000
  outer loop
    vertex -0.046744 0.189675 0.250000
    vertex -0.046615 0.189671 0.250000
    vertex -0.046615 0.189671 -0.250000
  endloop
endfacet
facet normal 0.000002 0.000064 0.000000
  outer loop
    vertex -0.046744 0.189675 0.250000
    vertex -0.046615 0.189671 -0.250000
    vertex -0.046744 0.189675 -0.250000
  endloop
endfacet
facet normal 0.000002 0.000067 0.000000
  outer loop
    vertex -0.046615 0.189671 0.250000
    vertex -0.046481 0.189667 0.250000
    vertex -0.046481 0.189667 -0.250000
  endloop
endfacet
facet normal 0.000002 0.000067 0.000000
  outer loop
    vertex -0.046615 0.189671 0.250000
    vertex -0.046481 0.189667 -0.250000
    vertex -0.046615 0.189671 -0.250000
  endloop
endfacet
facet normal 0.000002 0.000090 0.000000
  outer loop
    vertex -0.046481 0.189667 0.250000
    vertex -0.046301 0.189663 0.250000
    vertex -0.046301 0.189663 -0.250000
  endloop
endfacet
facet normal 0.000002 0.000090 0.000000
  outer loop
    vertex -0.046481 0.189667 0.250000
    vertex -0.046301 0.189663 -0.250000
    vertex -0.046481 0.189667 -0.250000
  endloop
endfacet
facet normal 0.000001 0.000067 0.000000
  outer loop
    vertex -0.046301 0.189663 0.250000
    vertex -0.046167 0.189661 0.250000
    vertex -0.046167 0.189661 -0.250000
  endloop
endfacet
facet normal 0.000001 0.000067 0.000000
  outer loop
    vertex -0.046301 0.189663 0.250000
    vertex -0.046167 0.189661 -0.250000
    vertex -0.046301 0.189663 -0.250000
  endloop
endfacet
facet normal 0.000001 0.000134 0.000000
  outer loop
    vertex -0.046167 0.189661 0.250000
    vertex -0.045899 0.189658 0.250000
    vertex -0.045899 0.189658 -0.250000
  endloop
endfacet
facet normal 0.000001 0.000134 0.000000
  outer loop
    vertex -0.046167 0.189661 0.250000
    vertex -0.045899 0.189658 -0.250000
    vertex -0.046167 0.189661 -0.250000
  endloop
endfacet
facet normal -0.000000 0.000187 0.000000
  outer loop
    vertex -0.045899 0.189658 0.250000
    vertex -0.045525 0.189658 0.250000
    vertex -0.045525 0.189658 -0.250000
  endloop
endfacet
facet normal 0.000000 0.000187 0.000000
  outer loop
    vertex -0.045899 0.189658 0.250000
    vertex -0.045525 0.189658 -0.250000
    vertex -0.045899 0.189658 -0.250000
  endloop
endfacet
facet normal -0.000004 0.000246 0.000000
  outer loop
    vertex -0.045525 0.189658 0.250000
    vertex -0.045033 0.189665 0.250000
    vertex -0.045033 0.189665 -0.250000
  endloop
endfacet
facet normal -0.000004 0.000246 0.000000
  outer loop
    vertex -0.045525 0.189658 0.250000
    vertex -0.045033 0.189665 -0.250000
    vertex -0.045525 0.189658 -0.250000
  endloop
endfacet
facet normal -0.000009 0.000287 0.000000
  outer loop
    vertex -0.045033 0.189665 0.250000
    vertex -0.044460 0.189682 0.250000
    vertex -0.044460 0.189682 -0.250000
  endloop
endfacet
facet normal -0.000009 0.000287 0.000000
  outer loop
    vertex -0.045033 0.189665 0.250000
    vertex -0.044460 0.189682 -0.250000
    vertex -0.045033 0.189665 -0.250000
  endloop
endfacet
facet normal -0.000006 0.000156 0.000000
  outer loop
    vertex -0.044460 0.189682 0.250000
    vertex -0.044147 0.189695 0.250000
    vertex -0.044147 0.189695 -0.250000
  endloop
endfacet
facet normal -0.000006 0.000156 0.000000
  outer loop
    vertex -0.044460 0.189682 0.250000
    vertex -0.044147 0.189695 -0.250000
    vertex -0.044460 0.189682 -0.250000
  endloop
endfacet
facet normal -0.000017 0.000328 0.000000
  outer loop
    vertex -0.044147 0.189695 0.250000
    vertex -0.043490 0.189729 0.250000
    vertex -0.043490 0.189729 -0.250000
  endloop
endfacet
facet normal -0.000017 0.000328 0.000000
  outer loop
    vertex -0.044147 0.189695 0.250000
    vertex -0.043490 0.189729 -0.250000
    vertex -0.044147 0.189695 -0.250000
  endloop
endfacet
facet normal -0.000018 0.000274 0.000000
  outer loop
    vertex -0.043490 0.189729 0.250000
    vertex -0.042941 0.189766 0.250000
    vertex -0.042941 0.189766 -0.250000
  endloop
endfacet
facet normal -0.000018 0.000274 0.000000
  outer loop
    vertex -0.043490 0.189729 0.250000
    vertex -0.042941 0.189766 -0.250000
    vertex -0.043490 0.189729 -0.250000
  endloop
endfacet
facet normal -0.000021 0.000274 0.000000
  outer loop
    vertex -0.042941 0.189766 0.250000
    vertex -0.042393 0.189808 0.250000
    vertex -0.042393 0.189808 -0.250000
  endloop
endfacet
facet normal -0.000021 0.000274 0.000000
  outer loop
    vertex -0.042941 0.189766 0.250000
    vertex -0.042393 0.189808 -0.250000
    vertex -0.042941 0.189766 -0.250000
  endloop
endfacet
facet normal -0.000017 0.000188 0.000000
  outer loop
    vertex -0.042393 0.189808 0.250000
    vertex -0.042016 0.189841 0.250000
    vertex -0.042016 0.189841 -0.250000
  endloop
endfacet
facet normal -0.000017 0.000188 0.000000
  outer loop
    vertex -0.042393 0.189808 0.250000
    vertex -0.042016 0.189841 -0.250000
    vertex -0.042393 0.189808 -0.250000
  endloop
endfacet
facet normal -0.000018 0.000192 0.000000
  outer loop
    vertex -0.042016 0.189841 0.250000
    vertex -0.041632 0.189877 0.250000
    vertex -0.041632 0.189877 -0.250000
  endloop
endfacet
facet normal -0.000018 0.000192 0.000000
  outer loop
    vertex -0.042016 0.189841 0.250000
    vertex -0.041632 0.189877 -0.250000
    vertex -0.042016 0.189841 -0.250000
  endloop
endfacet
facet normal -0.000023 0.000230 0.000000
  outer loop
    vertex -0.041632 0.189877 0.250000
    vertex -0.041173 0.189924 0.250000
    vertex -0.041173 0.189924 -0.250000
  endloop
endfacet
facet normal -0.000023 0.000230 0.000000
  outer loop
    vertex -0.041632 0.189877 0.250000
    vertex -0.041173 0.189924 -0.250000
    vertex -0.041632 0.189877 -0.250000
  endloop
endfacet
facet normal -0.000023 0.000218 0.000000
  outer loop
    vertex -0.041173 0.189924 0.250000
    vertex -0.040737 0.189971 0.250000
    vertex -0.040737 0.189971 -0.250000
  endloop
endfacet
facet normal -0.000023 0.000218 0.000000
  outer loop
    vertex -0.041173 0.189924 0.250000
    vertex -0.040737 0.189971 -0.250000
    vertex -0.041173 0.189924 -0.250000
  endloop
endfacet
facet normal -0.000029 0.000252 0.000000
  outer loop
    vertex -0.040737 0.189971 0.250000
    vertex -0.040233 0.190030 0.250000
    vertex -0.040233 0.190030 -0.250000
  endloop
endfacet
facet normal -0.000029 0.000252 0.000000
  outer loop
    vertex -0.040737 0.189971 0.250000
    vertex -0.040233 0.190030 -0.250000
    vertex -0.040737 0.189971 -0.250000
  endloop
endfacet
facet normal -0.000036 0.000285 0.000000
  outer loop
    vertex -0.040233 0.190030 0.250000
    vertex -0.039664 0.190102 0.250000
    vertex -0.039664 0.190102 -0.250000
  endloop
endfacet
facet normal -0.000036 0.000285 0.000000
  outer loop
    vertex -0.040233 0.190030 0.250000
    vertex -0.039664 0.190102 -0.250000
    vertex -0.040233 0.190030 -0.250000
  endloop
endfacet
facet normal -0.000042 0.000314 0.000000
  outer loop
    vertex -0.039664 0.190102 0.250000
    vertex -0.039036 0.190186 0.250000
    vertex -0.039036 0.190186 -0.250000
  endloop
endfacet
facet normal -0.000042 0.000314 0.000000
  outer loop
    vertex -0.039664 0.190102 0.250000
    vertex -0.039036 0.190186 -0.250000
    vertex -0.039664 0.190102 -0.250000
  endloop
endfacet
facet normal -0.000028 0.000196 0.000000
  outer loop
    vertex -0.039036 0.190186 0.250000
    vertex -0.038644 0.190242 0.250000
    vertex -0.038644 0.190242 -0.250000
  endloop
endfacet
facet normal -0.000028 0.000196 0.000000
  outer loop
    vertex -0.039036 0.190186 0.250000
    vertex -0.038644 0.190242 -0.250000
    vertex -0.039036 0.190186 -0.250000
  endloop
endfacet
facet normal -0.000032 0.000221 0.000000
  outer loop
    vertex -0.038644 0.190242 0.250000
    vertex -0.038202 0.190307 0.250000
    vertex -0.038202 0.190307 -0.250000
  endloop
endfacet
facet normal -0.000032 0.000221 0.000000
  outer loop
    vertex -0.038644 0.190242 0.250000
    vertex -0.038202 0.190307 -0.250000
    vertex -0.038644 0.190242 -0.250000
  endloop
endfacet
facet normal -0.000034 0.000220 0.000000
  outer loop
    vertex -0.038202 0.190307 0.250000
    vertex -0.037761 0.190375 0.250000
    vertex -0.037761 0.190375 -0.250000
  endloop
endfacet
facet normal -0.000034 0.000220 0.000000
  outer loop
    vertex -0.038202 0.190307 0.250000
    vertex -0.037761 0.190375 -0.250000
    vertex -0.038202 0.190307 -0.250000
  endloop
endfacet
facet normal -0.000037 0.000237 0.000000
  outer loop
    vertex -0.037761 0.190375 0.250000
    vertex -0.037287 0.190450 0.250000
    vertex -0.037287 0.190450 -0.250000
  endloop
endfacet
facet normal -0.000037 0.000237 0.000000
  outer loop
    vertex -0.037761 0.190375 0.250000
    vertex -0.037287 0.190450 -0.250000
    vertex -0.037761 0.190375 -0.250000
  endloop
endfacet
facet normal -0.000059 0.000352 0.000000
  outer loop
    vertex -0.037287 0.190450 0.250000
    vertex -0.036583 0.190567 0.250000
    vertex -0.036583 0.190567 -0.250000
  endloop
endfacet
facet normal -0.000059 0.000352 0.000000
  outer loop
    vertex -0.037287 0.190450 0.250000
    vertex -0.036583 0.190567 -0.250000
    vertex -0.037287 0.190450 -0.250000
  endloop
endfacet
facet normal -0.000044 0.000255 0.000000
  outer loop
    vertex -0.036583 0.190567 0.250000
    vertex -0.036073 0.190655 0.250000
    vertex -0.036073 0.190655 -0.250000
  endloop
endfacet
facet normal -0.000044 0.000255 0.000000
  outer loop
    vertex -0.036583 0.190567 0.250000
    vertex -0.036073 0.190655 -0.250000
    vertex -0.036583 0.190567 -0.250000
  endloop
endfacet
facet normal -0.000022 0.000124 0.000000
  outer loop
    vertex -0.036073 0.190655 0.250000
    vertex -0.035824 0.190699 0.250000
    vertex -0.035824 0.190699 -0.250000
  endloop
endfacet
facet normal -0.000022 0.000124 0.000000
  outer loop
    vertex -0.036073 0.190655 0.250000
    vertex -0.035824 0.190699 -0.250000
    vertex -0.036073 0.190655 -0.250000
  endloop
endfacet
facet normal -0.000029 0.000162 0.000000
  outer loop
    vertex -0.035824 0.190699 0.250000
    vertex -0.035501 0.190757 0.250000
    vertex -0.035501 0.190757 -0.250000
  endloop
endfacet
facet normal -0.000029 0.000162 0.000000
  outer loop
    vertex -0.035824 0.190699 0.250000
    vertex -0.035501 0.190757 -0.250000
    vertex -0.035824 0.190699 -0.250000
  endloop
endfacet
facet normal -0.000025 0.000137 0.000000
  outer loop
    vertex -0.035501 0.190757 0.250000
    vertex -0.035227 0.190807 0.250000
    vertex -0.035227 0.190807 -0.250000
  endloop
endfacet
facet normal -0.000025 0.000137 0.000000
  outer loop
    vertex -0.035501 0.190757 0.250000
    vertex -0.035227 0.190807 -0.250000
    vertex -0.035501 0.190757 -0.250000
  endloop
endfacet
facet normal -0.000058 0.000304 0.000000
  outer loop
    vertex -0.035227 0.190807 0.250000
    vertex -0.034618 0.190922 0.250000
    vertex -0.034618 0.190922 -0.250000
  endloop
endfacet
facet normal -0.000058 0.000304 0.000000
  outer loop
    vertex -0.035227 0.190807 0.250000
    vertex -0.034618 0.190922 -0.250000
    vertex -0.035227 0.190807 -0.250000
  endloop
endfacet
facet normal -0.000084 0.000433 0.000000
  outer loop
    vertex -0.034618 0.190922 0.250000
    vertex -0.033753 0.191090 0.250000
    vertex -0.033753 0.191090 -0.250000
  endloop
endfacet
facet normal -0.000084 0.000433 0.000000
  outer loop
    vertex -0.034618 0.190922 0.250000
    vertex -0.033753 0.191090 -0.250000
    vertex -0.034618 0.190922 -0.250000
  endloop
endfacet
facet normal -0.000197 0.000948 0.000000
  outer loop
    vertex -0.033753 0.191090 0.250000
    vertex -0.031856 0.191484 0.250000
    vertex -0.031856 0.191484 -0.250000
  endloop
endfacet
facet normal -0.000197 0.000948 0.000000
  outer loop
    vertex -0.033753 0.191090 0.250000
    vertex -0.031856 0.191484 -0.250000
    vertex -0.033753 0.191090 -0.250000
  endloop
endfacet
facet normal -0.000158 0.000716 0.000000
  outer loop
    vertex -0.031856 0.191484 0.250000
    vertex -0.030423 0.191800 0.250000
    vertex -0.030423 0.191800 -0.250000
  endloop
endfacet
facet normal -0.000158 0.000716 0.000000
  outer loop
    vertex -0.031856 0.191484 0.250000
    vertex -0.030423 0.191800 -0.250000
    vertex -0.031856 0.191484 -0.250000
  endloop
endfacet
facet normal -0.000199 0.000857 0.000000
  outer loop
    vertex -0.030423 0.191800 0.250000
    vertex -0.028710 0.192198 0.250000
    vertex -0.028710 0.192198 -0.250000
  endloop
endfacet
facet normal -0.000199 0.000857 0.000000
  outer loop
    vertex -0.030423 0.191800 0.250000
    vertex -0.028710 0.192198 -0.250000
    vertex -0.030423 0.191800 -0.250000
  endloop
endfacet
facet normal -0.000391 0.001577 0.000000
  outer loop
    vertex -0.028710 0.192198 0.250000
    vertex -0.025556 0.192980 0.250000
    vertex -0.025556 0.192980 -0.250000
  endloop
endfacet
facet normal -0.000391 0.001577 0.000000
  outer loop
    vertex -0.028710 0.192198 0.250000
    vertex -0.025556 0.192980 -0.250000
    vertex -0.028710 0.192198 -0.250000
  endloop
endfacet
facet normal 0.000170 -0.000669 0.000000
  outer loop
    vertex -0.025556 0.192980 0.250000
    vertex -0.026894 0.192641 0.250000
    vertex -0.026894 0.192641 -0.250000
  endloop
endfacet
facet normal 0.000170 -0.000669 0.000000
  outer loop
    vertex -0.025556 0.192980 0.250000
    vertex -0.026894 0.192641 -0.250000
    vertex -0.025556 0.192980 -0.250000
  endloop
endfacet
facet normal -0.000398 0.001546 0.000000
  outer loop
    vertex -0.026894 0.192641 0.250000
    vertex -0.023803 0.193438 0.250000
    vertex -0.023803 0.193438 -0.250000
  endloop
endfacet
facet normal -0.000398 0.001546 0.000000
  outer loop
    vertex -0.026894 0.192641 0.250000
    vertex -0.023803 0.193438 -0.250000
    vertex -0.026894 0.192641 -0.250000
  endloop
endfacet
facet normal -0.000213 0.000790 0.000000
  outer loop
    vertex -0.023803 0.193438 0.250000
    vertex -0.022223 0.193864 0.250000
    vertex -0.022223 0.193864 -0.250000
  endloop
endfacet
facet normal -0.000213 0.000790 0.000000
  outer loop
    vertex -0.023803 0.193438 0.250000
    vertex -0.022223 0.193864 -0.250000
    vertex -0.023803 0.193438 -0.250000
  endloop
endfacet
facet normal -0.000255 0.000922 0.000000
  outer loop
    vertex -0.022223 0.193864 0.250000
    vertex -0.020379 0.194375 0.250000
    vertex -0.020379 0.194375 -0.250000
  endloop
endfacet
facet normal -0.000255 0.000922 0.000000
  outer loop
    vertex -0.022223 0.193864 0.250000
    vertex -0.020379 0.194375 -0.250000
    vertex -0.022223 0.193864 -0.250000
  endloop
endfacet
facet normal -0.000321 0.001122 0.000000
  outer loop
    vertex -0.020379 0.194375 0.250000
    vertex -0.018134 0.195017 0.250000
    vertex -0.018134 0.195017 -0.250000
  endloop
endfacet
facet normal -0.000321 0.001122 0.000000
  outer loop
    vertex -0.020379 0.194375 0.250000
    vertex -0.018134 0.195017 -0.250000
    vertex -0.020379 0.194375 -0.250000
  endloop
endfacet
facet normal -0.000337 0.001144 0.000000
  outer loop
    vertex -0.018134 0.195017 0.250000
    vertex -0.015847 0.195691 0.250000
    vertex -0.015847 0.195691 -0.250000
  endloop
endfacet
facet normal -0.000337 0.001144 0.000000
  outer loop
    vertex -0.018134 0.195017 0.250000
    vertex -0.015847 0.195691 -0.250000
    vertex -0.018134 0.195017 -0.250000
  endloop
endfacet
facet normal -0.000276 0.000911 0.000000
  outer loop
    vertex -0.015847 0.195691 0.250000
    vertex -0.014024 0.196243 0.250000
    vertex -0.014024 0.196243 -0.250000
  endloop
endfacet
facet normal -0.000276 0.000911 0.000000
  outer loop
    vertex -0.015847 0.195691 0.250000
    vertex -0.014024 0.196243 -0.250000
    vertex -0.015847 0.195691 -0.250000
  endloop
endfacet
facet normal -0.000173 0.000561 0.000000
  outer loop
    vertex -0.014024 0.196243 0.250000
    vertex -0.012901 0.196589 0.250000
    vertex -0.012901 0.196589 -0.250000
  endloop
endfacet
facet normal -0.000173 0.000561 0.000000
  outer loop
    vertex -0.014024 0.196243 0.250000
    vertex -0.012901 0.196589 -0.250000
    vertex -0.014024 0.196243 -0.250000
  endloop
endfacet
facet normal -0.000175 0.000561 0.000000
  outer loop
    vertex -0.012901 0.196589 0.250000
    vertex -0.011779 0.196939 0.250000
    vertex -0.011779 0.196939 -0.250000
  endloop
endfacet
facet normal -0.000175 0.000561 0.000000
  outer loop
    vertex -0.012901 0.196589 0.250000
    vertex -0.011779 0.196939 -0.250000
    vertex -0.012901 0.196589 -0.250000
  endloop
endfacet
facet normal -0.000201 0.000634 0.000000
  outer loop
    vertex -0.011779 0.196939 0.250000
    vertex -0.010512 0.197341 0.250000
    vertex -0.010512 0.197341 -0.250000
  endloop
endfacet
facet normal -0.000201 0.000634 0.000000
  outer loop
    vertex -0.011779 0.196939 0.250000
    vertex -0.010512 0.197341 -0.250000
    vertex -0.011779 0.196939 -0.250000
  endloop
endfacet
facet normal -0.000268 0.000832 0.000000
  outer loop
    vertex -0.010512 0.197341 0.250000
    vertex -0.008848 0.197877 0.250000
    vertex -0.008848 0.197877 -0.250000
  endloop
endfacet
facet normal -0.000268 0.000832 0.000000
  outer loop
    vertex -0.010512 0.197341 0.250000
    vertex -0.008848 0.197877 -0.250000
    vertex -0.010512 0.197341 -0.250000
  endloop
endfacet
facet normal -0.000267 0.000814 0.000000
  outer loop
    vertex -0.008848 0.197877 0.250000
    vertex -0.007221 0.198411 0.250000
    vertex -0.007221 0.198411 -0.250000
  endloop
endfacet
facet normal -0.000267 0.000814 0.000000
  outer loop
    vertex -0.008848 0.197877 0.250000
    vertex -0.007221 0.198411 -0.250000
    vertex -0.008848 0.197877 -0.250000
  endloop
endfacet
facet normal -0.000275 0.000818 0.000000
  outer loop
    vertex -0.007221 0.198411 0.250000
    vertex -0.005584 0.198961 0.250000
    vertex -0.005584 0.198961 -0.250000
  endloop
endfacet
facet normal -0.000275 0.000818 0.000000
  outer loop
    vertex -0.007221 0.198411 0.250000
    vertex -0.005584 0.198961 -0.250000
    vertex -0.007221 0.198411 -0.250000
  endloop
endfacet
facet normal -0.000149 0.000437 0.000000
  outer loop
    vertex -0.005584 0.198961 0.250000
    vertex -0.004711 0.199260 0.250000
    vertex -0.004711 0.199260 -0.250000
  endloop
endfacet
facet normal -0.000149 0.000437 0.000000
  outer loop
    vertex -0.005584 0.198961 0.250000
    vertex -0.004711 0.199260 -0.250000
    vertex -0.005584 0.198961 -0.250000
  endloop
endfacet
facet normal -0.000089 0.000257 0.000000
  outer loop
    vertex -0.004711 0.199260 0.250000
    vertex -0.004196 0.199438 0.250000
    vertex -0.004196 0.199438 -0.250000
  endloop
endfacet
facet normal -0.000089 0.000257 0.000000
  outer loop
    vertex -0.004711 0.199260 0.250000
    vertex -0.004196 0.199438 -0.250000
    vertex -0.004711 0.199260 -0.250000
  endloop
endfacet
facet normal -0.000074 0.000214 0.000000
  outer loop
    vertex -0.004196 0.199438 0.250000
    vertex -0.003768 0.199586 0.250000
    vertex -0.003768 0.199586 -0.250000
  endloop
endfacet
facet normal -0.000074 0.000214 0.000000
  outer loop
    vertex -0.004196 0.199438 0.250000
    vertex -0.003768 0.199586 -0.250000
    vertex -0.004196 0.199438 -0.250000
  endloop
endfacet
facet normal -0.000057 0.000166 0.000000
  outer loop
    vertex -0.003768 0.199586 0.250000
    vertex -0.003436 0.199701 0.250000
    vertex -0.003436 0.199701 -0.250000
  endloop
endfacet
facet normal -0.000057 0.000166 0.000000
  outer loop
    vertex -0.003768 0.199586 0.250000
    vertex -0.003436 0.199701 -0.250000
    vertex -0.003768 0.199586 -0.250000
  endloop
endfacet
facet normal -0.000057 0.000164 0.000000
  outer loop
    vertex -0.003436 0.199701 0.250000
    vertex -0.003109 0.199815 0.250000
    vertex -0.003109 0.199815 -0.250000
  endloop
endfacet
facet normal -0.000057 0.000164 0.000000
  outer loop
    vertex -0.003436 0.199701 0.250000
    vertex -0.003109 0.199815 -0.250000
    vertex -0.003436 0.199701 -0.250000
  endloop
endfacet
facet normal -0.000413 -0.000688 0.000000
  outer loop
    vertex 0.049647 0.181851 0.250000
    vertex 0.048272 0.182677 0.250000
    vertex 0.048272 0.182677 -0.250000
  endloop
endfacet
facet normal -0.000413 -0.000688 -0.000000
  outer loop
    vertex 0.049647 0.181851 0.250000
    vertex 0.048272 0.182677 -0.250000
    vertex 0.049647 0.181851 -0.250000
  endloop
endfacet
facet normal -0.000399 -0.000671 0.000000
  outer loop
    vertex 0.048272 0.182677 0.250000
    vertex 0.046931 0.183475 0.250000
    vertex 0.046931 0.183475 -0.250000
  endloop
endfacet
facet normal -0.000399 -0.000671 -0.000000
  outer loop
    vertex 0.048272 0.182677 0.250000
    vertex 0.046931 0.183475 -0.250000
    vertex 0.048272 0.182677 -0.250000
  endloop
endfacet
facet normal -0.000385 -0.000658 0.000000
  outer loop
    vertex 0.046931 0.183475 0.250000
    vertex 0.045615 0.184245 0.250000
    vertex 0.045615 0.184245 -0.250000
  endloop
endfacet
facet normal -0.000385 -0.000658 -0.000000
  outer loop
    vertex 0.046931 0.183475 0.250000
    vertex 0.045615 0.184245 -0.250000
    vertex 0.046931 0.183475 -0.250000
  endloop
endfacet
facet normal -0.000395 -0.000683 0.000000
  outer loop
    vertex 0.045615 0.184245 0.250000
    vertex 0.044248 0.185036 0.250000
    vertex 0.044248 0.185036 -0.250000
  endloop
endfacet
facet normal -0.000395 -0.000683 -0.000000
  outer loop
    vertex 0.045615 0.184245 0.250000
    vertex 0.044248 0.185036 -0.250000
    vertex 0.045615 0.184245 -0.250000
  endloop
endfacet
facet normal -0.000541 -0.000949 0.000000
  outer loop
    vertex 0.044248 0.185036 0.250000
    vertex 0.042350 0.186118 0.250000
    vertex 0.042350 0.186118 -0.250000
  endloop
endfacet
facet normal -0.000541 -0.000949 -0.000000
  outer loop
    vertex 0.044248 0.185036 0.250000
    vertex 0.042350 0.186118 -0.250000
    vertex 0.044248 0.185036 -0.250000
  endloop
endfacet
facet normal -0.000392 -0.000698 0.000000
  outer loop
    vertex 0.042350 0.186118 0.250000
    vertex 0.040954 0.186902 0.250000
    vertex 0.040954 0.186902 -0.250000
  endloop
endfacet
facet normal -0.000392 -0.000698 -0.000000
  outer loop
    vertex 0.042350 0.186118 0.250000
    vertex 0.040954 0.186902 -0.250000
    vertex 0.042350 0.186118 -0.250000
  endloop
endfacet
facet normal -0.000450 -0.000812 0.000000
  outer loop
    vertex 0.040954 0.186902 0.250000
    vertex 0.039331 0.187802 0.250000
    vertex 0.039331 0.187802 -0.250000
  endloop
endfacet
facet normal -0.000450 -0.000812 -0.000000
  outer loop
    vertex 0.040954 0.186902 0.250000
    vertex 0.039331 0.187802 -0.250000
    vertex 0.040954 0.186902 -0.250000
  endloop
endfacet
facet normal -0.000340 -0.000620 0.000000
  outer loop
    vertex 0.039331 0.187802 0.250000
    vertex 0.038090 0.188481 0.250000
    vertex 0.038090 0.188481 -0.250000
  endloop
endfacet
facet normal -0.000340 -0.000620 -0.000000
  outer loop
    vertex 0.039331 0.187802 0.250000
    vertex 0.038090 0.188481 -0.250000
    vertex 0.039331 0.187802 -0.250000
  endloop
endfacet
facet normal -0.000202 -0.000373 0.000000
  outer loop
    vertex 0.038090 0.188481 0.250000
    vertex 0.037345 0.188885 0.250000
    vertex 0.037345 0.188885 -0.250000
  endloop
endfacet
facet normal -0.000202 -0.000373 -0.000000
  outer loop
    vertex 0.038090 0.188481 0.250000
    vertex 0.037345 0.188885 -0.250000
    vertex 0.038090 0.188481 -0.250000
  endloop
endfacet
facet normal -0.000550 -0.001026 0.000000
  outer loop
    vertex 0.037345 0.188885 0.250000
    vertex 0.035293 0.189985 0.250000
    vertex 0.035293 0.189985 -0.250000
  endloop
endfacet
facet normal -0.000550 -0.001026 -0.000000
  outer loop
    vertex 0.037345 0.188885 0.250000
    vertex 0.035293 0.189985 -0.250000
    vertex 0.037345 0.188885 -0.250000
  endloop
endfacet
facet normal -0.000353 -0.000670 0.000000
  outer loop
    vertex 0.035293 0.189985 0.250000
    vertex 0.033953 0.190691 0.250000
    vertex 0.033953 0.190691 -0.250000
  endloop
endfacet
facet normal -0.000353 -0.000670 -0.000000
  outer loop
    vertex 0.035293 0.189985 0.250000
    vertex 0.033953 0.190691 -0.250000
    vertex 0.035293 0.189985 -0.250000
  endloop
endfacet
facet normal -0.000186 -0.000356 0.000000
  outer loop
    vertex 0.033953 0.190691 0.250000
    vertex 0.033240 0.191063 0.250000
    vertex 0.033240 0.191063 -0.250000
  endloop
endfacet
facet normal -0.000186 -0.000356 -0.000000
  outer loop
    vertex 0.033953 0.190691 0.250000
    vertex 0.033240 0.191063 -0.250000
    vertex 0.033953 0.190691 -0.250000
  endloop
endfacet
facet normal -0.000165 -0.000318 0.000000
  outer loop
    vertex 0.033240 0.191063 0.250000
    vertex 0.032605 0.191392 0.250000
    vertex 0.032605 0.191392 -0.250000
  endloop
endfacet
facet normal -0.000165 -0.000318 -0.000000
  outer loop
    vertex 0.033240 0.191063 0.250000
    vertex 0.032605 0.191392 -0.250000
    vertex 0.033240 0.191063 -0.250000
  endloop
endfacet
facet normal -0.000368 -0.000719 0.000000
  outer loop
    vertex 0.032605 0.191392 0.250000
    vertex 0.031166 0.192128 0.250000
    vertex 0.031166 0.192128 -0.250000
  endloop
endfacet
facet normal -0.000368 -0.000719 -0.000000
  outer loop
    vertex 0.032605 0.191392 0.250000
    vertex 0.031166 0.192128 -0.250000
    vertex 0.032605 0.191392 -0.250000
  endloop
endfacet
facet normal -0.000350 -0.000696 0.000000
  outer loop
    vertex 0.031166 0.192128 0.250000
    vertex 0.029774 0.192829 0.250000
    vertex 0.029774 0.192829 -0.250000
  endloop
endfacet
facet normal -0.000350 -0.000696 -0.000000
  outer loop
    vertex 0.031166 0.192128 0.250000
    vertex 0.029774 0.192829 -0.250000
    vertex 0.031166 0.192128 -0.250000
  endloop
endfacet
facet normal -0.000306 -0.000618 0.000000
  outer loop
    vertex 0.029774 0.192829 0.250000
    vertex 0.028539 0.193440 0.250000
    vertex 0.028539 0.193440 -0.250000
  endloop
endfacet
facet normal -0.000306 -0.000618 -0.000000
  outer loop
    vertex 0.029774 0.192829 0.250000
    vertex 0.028539 0.193440 -0.250000
    vertex 0.029774 0.192829 -0.250000
  endloop
endfacet
facet normal -0.000302 -0.000622 0.000000
  outer loop
    vertex 0.028539 0.193440 0.250000
    vertex 0.027296 0.194044 0.250000
    vertex 0.027296 0.194044 -0.250000
  endloop
endfacet
facet normal -0.000302 -0.000622 -0.000000
  outer loop
    vertex 0.028539 0.193440 0.250000
    vertex 0.027296 0.194044 -0.250000
    vertex 0.028539 0.193440 -0.250000
  endloop
endfacet
facet normal -0.000306 -0.000642 0.000000
  outer loop
    vertex 0.027296 0.194044 0.250000
    vertex 0.026012 0.194656 0.250000
    vertex 0.026012 0.194656 -0.250000
  endloop
endfacet
facet normal -0.000306 -0.000642 -0.000000
  outer loop
    vertex 0.027296 0.194044 0.250000
    vertex 0.026012 0.194656 -0.250000
    vertex 0.027296 0.194044 -0.250000
  endloop
endfacet
facet normal -0.000309 -0.000663 0.000000
  outer loop
    vertex 0.026012 0.194656 0.250000
    vertex 0.024687 0.195274 0.250000
    vertex 0.024687 0.195274 -0.250000
  endloop
endfacet
facet normal -0.000309 -0.000663 -0.000000
  outer loop
    vertex 0.026012 0.194656 0.250000
    vertex 0.024687 0.195274 -0.250000
    vertex 0.026012 0.194656 -0.250000
  endloop
endfacet
facet normal -0.000285 -0.000628 0.000000
  outer loop
    vertex 0.024687 0.195274 0.250000
    vertex 0.023431 0.195844 0.250000
    vertex 0.023431 0.195844 -0.250000
  endloop
endfacet
facet normal -0.000285 -0.000628 -0.000000
  outer loop
    vertex 0.024687 0.195274 0.250000
    vertex 0.023431 0.195844 -0.250000
    vertex 0.024687 0.195274 -0.250000
  endloop
endfacet
facet normal -0.000270 -0.000609 0.000000
  outer loop
    vertex 0.023431 0.195844 0.250000
    vertex 0.022213 0.196384 0.250000
    vertex 0.022213 0.196384 -0.250000
  endloop
endfacet
facet normal -0.000270 -0.000609 -0.000000
  outer loop
    vertex 0.023431 0.195844 0.250000
    vertex 0.022213 0.196384 -0.250000
    vertex 0.023431 0.195844 -0.250000
  endloop
endfacet
facet normal -0.000342 -0.000799 0.000000
  outer loop
    vertex 0.022213 0.196384 0.250000
    vertex 0.020615 0.197067 0.250000
    vertex 0.020615 0.197067 -0.250000
  endloop
endfacet
facet normal -0.000342 -0.000799 -0.000000
  outer loop
    vertex 0.022213 0.196384 0.250000
    vertex 0.020615 0.197067 -0.250000
    vertex 0.022213 0.196384 -0.250000
  endloop
endfacet
facet normal -0.000616 -0.001545 0.000000
  outer loop
    vertex 0.020615 0.197067 0.250000
    vertex 0.017525 0.198299 0.250000
    vertex 0.017525 0.198299 -0.250000
  endloop
endfacet
facet normal -0.000616 -0.001545 -0.000000
  outer loop
    vertex 0.020615 0.197067 0.250000
    vertex 0.017525 0.198299 -0.250000
    vertex 0.020615 0.197067 -0.250000
  endloop
endfacet
facet normal -0.000325 -0.000895 0.000000
  outer loop
    vertex 0.017525 0.198299 0.250000
    vertex 0.015735 0.198950 0.250000
    vertex 0.015735 0.198950 -0.250000
  endloop
endfacet
facet normal -0.000325 -0.000895 -0.000000
  outer loop
    vertex 0.017525 0.198299 0.250000
    vertex 0.015735 0.198950 -0.250000
    vertex 0.017525 0.198299 -0.250000
  endloop
endfacet
facet normal -0.000302 -0.000908 0.000000
  outer loop
    vertex 0.015735 0.198950 0.250000
    vertex 0.013920 0.199553 0.250000
    vertex 0.013920 0.199553 -0.250000
  endloop
endfacet
facet normal -0.000302 -0.000908 -0.000000
  outer loop
    vertex 0.015735 0.198950 0.250000
    vertex 0.013920 0.199553 -0.250000
    vertex 0.015735 0.198950 -0.250000
  endloop
endfacet
facet normal -0.000252 -0.000851 0.000000
  outer loop
    vertex 0.013920 0.199553 0.250000
    vertex 0.012218 0.200056 0.250000
    vertex 0.012218 0.200056 -0.250000
  endloop
endfacet
facet normal -0.000252 -0.000851 -0.000000
  outer loop
    vertex 0.013920 0.199553 0.250000
    vertex 0.012218 0.200056 -0.250000
    vertex 0.013920 0.199553 -0.250000
  endloop
endfacet
facet normal -0.000121 -0.000457 0.000000
  outer loop
    vertex 0.012218 0.200056 0.250000
    vertex 0.011305 0.200298 0.250000
    vertex 0.011305 0.200298 -0.250000
  endloop
endfacet
facet normal -0.000121 -0.000457 -0.000000
  outer loop
    vertex 0.012218 0.200056 0.250000
    vertex 0.011305 0.200298 -0.250000
    vertex 0.012218 0.200056 -0.250000
  endloop
endfacet
facet normal -0.000092 -0.000384 0.000000
  outer loop
    vertex 0.011305 0.200298 0.250000
    vertex 0.010537 0.200483 0.250000
    vertex 0.010537 0.200483 -0.250000
  endloop
endfacet
facet normal -0.000092 -0.000384 -0.000000
  outer loop
    vertex 0.011305 0.200298 0.250000
    vertex 0.010537 0.200483 -0.250000
    vertex 0.011305 0.200298 -0.250000
  endloop
endfacet
facet normal -0.000110 -0.000521 0.000000
  outer loop
    vertex 0.010537 0.200483 0.250000
    vertex 0.009496 0.200704 0.250000
    vertex 0.009496 0.200704 -0.250000
  endloop
endfacet
facet normal -0.000110 -0.000521 -0.000000
  outer loop
    vertex 0.010537 0.200483 0.250000
    vertex 0.009496 0.200704 -0.250000
    vertex 0.010537 0.200483 -0.250000
  endloop
endfacet
facet normal -0.000081 -0.000459 0.000000
  outer loop
    vertex 0.009496 0.200704 0.250000
    vertex 0.008578 0.200866 0.250000
    vertex 0.008578 0.200866 -0.250000
  endloop
endfacet
facet normal -0.000081 -0.000459 -0.000000
  outer loop
    vertex 0.009496 0.200704 0.250000
    vertex 0.008578 0.200866 -0.250000
    vertex 0.009496 0.200704 -0.250000
  endloop
endfacet
facet normal -0.000036 -0.000242 0.000000
  outer loop
    vertex 0.008578 0.200866 0.250000
    vertex 0.008093 0.200938 0.250000
    vertex 0.008093 0.200938 -0.250000
  endloop
endfacet
facet normal -0.000036 -0.000242 -0.000000
  outer loop
    vertex 0.008578 0.200866 0.250000
    vertex 0.008093 0.200938 -0.250000
    vertex 0.008578 0.200866 -0.250000
  endloop
endfacet
facet normal -0.000036 -0.000301 0.000000
  outer loop
    vertex 0.008093 0.200938 0.250000
    vertex 0.007491 0.201010 0.250000
    vertex 0.007491 0.201010 -0.250000
  endloop
endfacet
facet normal -0.000036 -0.000301 -0.000000
  outer loop
    vertex 0.008093 0.200938 0.250000
    vertex 0.007491 0.201010 -0.250000
    vertex 0.008093 0.200938 -0.250000
  endloop
endfacet
facet normal -0.000028 -0.000324 0.000000
  outer loop
    vertex 0.007491 0.201010 0.250000
    vertex 0.006844 0.201065 0.250000
    vertex 0.006844 0.201065 -0.250000
  endloop
endfacet
facet normal -0.000028 -0.000324 -0.000000
  outer loop
    vertex 0.007491 0.201010 0.250000
    vertex 0.006844 0.201065 -0.250000
    vertex 0.007491 0.201010 -0.250000
  endloop
endfacet
facet normal -0.000012 -0.000327 0.000000
  outer loop
    vertex 0.006844 0.201065 0.250000
    vertex 0.006190 0.201090 0.250000
    vertex 0.006190 0.201090 -0.250000
  endloop
endfacet
facet normal -0.000012 -0.000327 -0.000000
  outer loop
    vertex 0.006844 0.201065 0.250000
    vertex 0.006190 0.201090 -0.250000
    vertex 0.006844 0.201065 -0.250000
  endloop
endfacet
facet normal 0.000002 -0.000230 0.000000
  outer loop
    vertex 0.006190 0.201090 0.250000
    vertex 0.005730 0.201085 0.250000
    vertex 0.005730 0.201085 -0.250000
  endloop
endfacet
facet normal 0.000002 -0.000230 0.000000
  outer loop
    vertex 0.006190 0.201090 0.250000
    vertex 0.005730 0.201085 -0.250000
    vertex 0.006190 0.201090 -0.250000
  endloop
endfacet
facet normal 0.000014 -0.000226 0.000000
  outer loop
    vertex 0.005730 0.201085 0.250000
    vertex 0.005278 0.201058 0.250000
    vertex 0.005278 0.201058 -0.250000
  endloop
endfacet
facet normal 0.000014 -0.000226 0.000000
  outer loop
    vertex 0.005730 0.201085 0.250000
    vertex 0.005278 0.201058 -0.250000
    vertex 0.005730 0.201085 -0.250000
  endloop
endfacet
facet normal 0.000032 -0.000254 0.000000
  outer loop
    vertex 0.005278 0.201058 0.250000
    vertex 0.004769 0.200995 0.250000
    vertex 0.004769 0.200995 -0.250000
  endloop
endfacet
facet normal 0.000032 -0.000254 0.000000
  outer loop
    vertex 0.005278 0.201058 0.250000
    vertex 0.004769 0.200995 -0.250000
    vertex 0.005278 0.201058 -0.250000
  endloop
endfacet
facet normal 0.000051 -0.000236 0.000000
  outer loop
    vertex 0.004769 0.200995 0.250000
    vertex 0.004297 0.200894 0.250000
    vertex 0.004297 0.200894 -0.250000
  endloop
endfacet
facet normal 0.000051 -0.000236 0.000000
  outer loop
    vertex 0.004769 0.200995 0.250000
    vertex 0.004297 0.200894 -0.250000
    vertex 0.004769 0.200995 -0.250000
  endloop
endfacet
facet normal 0.000073 -0.000196 0.000000
  outer loop
    vertex 0.004297 0.200894 0.250000
    vertex 0.003904 0.200749 0.250000
    vertex 0.003904 0.200749 -0.250000
  endloop
endfacet
facet normal 0.000073 -0.000196 0.000000
  outer loop
    vertex 0.004297 0.200894 0.250000
    vertex 0.003904 0.200749 -0.250000
    vertex 0.004297 0.200894 -0.250000
  endloop
endfacet
facet normal 0.000159 -0.000254 0.000000
  outer loop
    vertex 0.003904 0.200749 0.250000
    vertex 0.003396 0.200431 0.250000
    vertex 0.003396 0.200431 -0.250000
  endloop
endfacet
facet normal 0.000159 -0.000254 0.000000
  outer loop
    vertex 0.003904 0.200749 0.250000
    vertex 0.003396 0.200431 -0.250000
    vertex 0.003904 0.200749 -0.250000
  endloop
endfacet
facet normal 0.000100 -0.000098 0.000000
  outer loop
    vertex 0.003396 0.200431 0.250000
    vertex 0.003200 0.200232 0.250000
    vertex 0.003200 0.200232 -0.250000
  endloop
endfacet
facet normal 0.000100 -0.000098 0.000000
  outer loop
    vertex 0.003396 0.200431 0.250000
    vertex 0.003200 0.200232 -0.250000
    vertex 0.003396 0.200431 -0.250000
  endloop
endfacet
facet normal 0.000116 -0.000075 0.000000
  outer loop
    vertex 0.003200 0.200232 0.250000
    vertex 0.003050 0.200000 0.250000
    vertex 0.003050 0.200000 -0.250000
  endloop
endfacet
facet normal 0.000116 -0.000075 0.000000
  outer loop
    vertex 0.003200 0.200232 0.250000
    vertex 0.003050 0.200000 -0.250000
    vertex 0.003200 0.200232 -0.250000
  endloop
endfacet
facet normal 0.000215 -0.000052 0.000000
  outer loop
    vertex 0.003050 0.200000 0.250000
    vertex 0.002946 0.199571 0.250000
    vertex 0.002946 0.199571 -0.250000
  endloop
endfacet
facet normal 0.000215 -0.000052 0.000000
  outer loop
    vertex 0.003050 0.200000 0.250000
    vertex 0.002946 0.199571 -0.250000
    vertex 0.003050 0.200000 -0.250000
  endloop
endfacet
facet normal 0.000188 0.000013 0.000000
  outer loop
    vertex 0.002946 0.199571 0.250000
    vertex 0.002973 0.199194 0.250000
    vertex 0.002973 0.199194 -0.250000
  endloop
endfacet
facet normal 0.000188 0.000013 0.000000
  outer loop
    vertex 0.002946 0.199571 0.250000
    vertex 0.002973 0.199194 -0.250000
    vertex 0.002946 0.199571 -0.250000
  endloop
endfacet
facet normal 0.000235 0.000071 0.000000
  outer loop
    vertex 0.002973 0.199194 0.250000
    vertex 0.003115 0.198723 0.250000
    vertex 0.003115 0.198723 -0.250000
  endloop
endfacet
facet normal 0.000235 0.000071 0.000000
  outer loop
    vertex 0.002973 0.199194 0.250000
    vertex 0.003115 0.198723 -0.250000
    vertex 0.002973 0.199194 -0.250000
  endloop
endfacet
facet normal 0.000186 0.000096 0.000000
  outer loop
    vertex 0.003115 0.198723 0.250000
    vertex 0.003307 0.198351 0.250000
    vertex 0.003307 0.198351 -0.250000
  endloop
endfacet
facet normal 0.000186 0.000096 0.000000
  outer loop
    vertex 0.003115 0.198723 0.250000
    vertex 0.003307 0.198351 -0.250000
    vertex 0.003115 0.198723 -0.250000
  endloop
endfacet
facet normal 0.000392 0.000305 0.000000
  outer loop
    vertex 0.003307 0.198351 0.250000
    vertex 0.003918 0.197567 0.250000
    vertex 0.003918 0.197567 -0.250000
  endloop
endfacet
facet normal 0.000392 0.000305 0.000000
  outer loop
    vertex 0.003307 0.198351 0.250000
    vertex 0.003918 0.197567 -0.250000
    vertex 0.003307 0.198351 -0.250000
  endloop
endfacet
facet normal -0.000195 -0.000166 0.000000
  outer loop
    vertex 0.003918 0.197567 0.250000
    vertex 0.003586 0.197957 0.250000
    vertex 0.003586 0.197957 -0.250000
  endloop
endfacet
facet normal -0.000195 -0.000166 -0.000000
  outer loop
    vertex 0.003918 0.197567 0.250000
    vertex 0.003586 0.197957 -0.250000
    vertex 0.003918 0.197567 -0.250000
  endloop
endfacet
facet normal 0.000515 0.000491 0.000000
  outer loop
    vertex 0.003586 0.197957 0.250000
    vertex 0.004568 0.196926 0.250000
    vertex 0.004568 0.196926 -0.250000
  endloop
endfacet
facet normal 0.000515 0.000491 0.000000
  outer loop
    vertex 0.003586 0.197957 0.250000
    vertex 0.004568 0.196926 -0.250000
    vertex 0.003586 0.197957 -0.250000
  endloop
endfacet
facet normal 0.000212 0.000250 0.000000
  outer loop
    vertex 0.004568 0.196926 0.250000
    vertex 0.005067 0.196502 0.250000
    vertex 0.005067 0.196502 -0.250000
  endloop
endfacet
facet normal 0.000212 0.000250 0.000000
  outer loop
    vertex 0.004568 0.196926 0.250000
    vertex 0.005067 0.196502 -0.250000
    vertex 0.004568 0.196926 -0.250000
  endloop
endfacet
facet normal 0.000198 0.000257 0.000000
  outer loop
    vertex 0.005067 0.196502 0.250000
    vertex 0.005581 0.196105 0.250000
    vertex 0.005581 0.196105 -0.250000
  endloop
endfacet
facet normal 0.000198 0.000257 0.000000
  outer loop
    vertex 0.005067 0.196502 0.250000
    vertex 0.005581 0.196105 -0.250000
    vertex 0.005067 0.196502 -0.250000
  endloop
endfacet
facet normal 0.000177 0.000246 0.000000
  outer loop
    vertex 0.005581 0.196105 0.250000
    vertex 0.006073 0.195751 0.250000
    vertex 0.006073 0.195751 -0.250000
  endloop
endfacet
facet normal 0.000177 0.000246 0.000000
  outer loop
    vertex 0.005581 0.196105 0.250000
    vertex 0.006073 0.195751 -0.250000
    vertex 0.005581 0.196105 -0.250000
  endloop
endfacet
facet normal 0.000138 0.000203 0.000000
  outer loop
    vertex 0.006073 0.195751 0.250000
    vertex 0.006479 0.195476 0.250000
    vertex 0.006479 0.195476 -0.250000
  endloop
endfacet
facet normal 0.000138 0.000203 0.000000
  outer loop
    vertex 0.006073 0.195751 0.250000
    vertex 0.006479 0.195476 -0.250000
    vertex 0.006073 0.195751 -0.250000
  endloop
endfacet
facet normal 0.000251 0.000392 0.000000
  outer loop
    vertex 0.006479 0.195476 0.250000
    vertex 0.007264 0.194974 0.250000
    vertex 0.007264 0.194974 -0.250000
  endloop
endfacet
facet normal 0.000251 0.000392 0.000000
  outer loop
    vertex 0.006479 0.195476 0.250000
    vertex 0.007264 0.194974 -0.250000
    vertex 0.006479 0.195476 -0.250000
  endloop
endfacet
facet normal 0.000152 0.000252 0.000000
  outer loop
    vertex 0.007264 0.194974 0.250000
    vertex 0.007768 0.194671 0.250000
    vertex 0.007768 0.194671 -0.250000
  endloop
endfacet
facet normal 0.000152 0.000252 0.000000
  outer loop
    vertex 0.007264 0.194974 0.250000
    vertex 0.007768 0.194671 -0.250000
    vertex 0.007264 0.194974 -0.250000
  endloop
endfacet
facet normal 0.000119 0.000206 0.000000
  outer loop
    vertex 0.007768 0.194671 0.250000
    vertex 0.008180 0.194433 0.250000
    vertex 0.008180 0.194433 -0.250000
  endloop
endfacet
facet normal 0.000119 0.000206 0.000000
  outer loop
    vertex 0.007768 0.194671 0.250000
    vertex 0.008180 0.194433 -0.250000
    vertex 0.007768 0.194671 -0.250000
  endloop
endfacet
facet normal 0.000192 0.000346 0.000000
  outer loop
    vertex 0.008180 0.194433 0.250000
    vertex 0.008871 0.194050 0.250000
    vertex 0.008871 0.194050 -0.250000
  endloop
endfacet
facet normal 0.000192 0.000346 0.000000
  outer loop
    vertex 0.008180 0.194433 0.250000
    vertex 0.008871 0.194050 -0.250000
    vertex 0.008180 0.194433 -0.250000
  endloop
endfacet
facet normal 0.000220 0.000419 0.000000
  outer loop
    vertex 0.008871 0.194050 0.250000
    vertex 0.009708 0.193610 0.250000
    vertex 0.009708 0.193610 -0.250000
  endloop
endfacet
facet normal 0.000220 0.000419 0.000000
  outer loop
    vertex 0.008871 0.194050 0.250000
    vertex 0.009708 0.193610 -0.250000
    vertex 0.008871 0.194050 -0.250000
  endloop
endfacet
facet normal 0.000390 0.000797 0.000000
  outer loop
    vertex 0.009708 0.193610 0.250000
    vertex 0.011302 0.192831 0.250000
    vertex 0.011302 0.192831 -0.250000
  endloop
endfacet
facet normal 0.000390 0.000797 0.000000
  outer loop
    vertex 0.009708 0.193610 0.250000
    vertex 0.011302 0.192831 -0.250000
    vertex 0.009708 0.193610 -0.250000
  endloop
endfacet
facet normal 0.000392 0.000873 0.000000
  outer loop
    vertex 0.011302 0.192831 0.250000
    vertex 0.013047 0.192047 0.250000
    vertex 0.013047 0.192047 -0.250000
  endloop
endfacet
facet normal 0.000392 0.000873 0.000000
  outer loop
    vertex 0.011302 0.192831 0.250000
    vertex 0.013047 0.192047 -0.250000
    vertex 0.011302 0.192831 -0.250000
  endloop
endfacet
facet normal 0.000366 0.000879 0.000000
  outer loop
    vertex 0.013047 0.192047 0.250000
    vertex 0.014805 0.191315 0.250000
    vertex 0.014805 0.191315 -0.250000
  endloop
endfacet
facet normal 0.000366 0.000879 0.000000
  outer loop
    vertex 0.013047 0.192047 0.250000
    vertex 0.014805 0.191315 -0.250000
    vertex 0.013047 0.192047 -0.250000
  endloop
endfacet
facet normal 0.000275 0.000703 0.000000
  outer loop
    vertex 0.014805 0.191315 0.250000
    vertex 0.016211 0.190765 0.250000
    vertex 0.016211 0.190765 -0.250000
  endloop
endfacet
facet normal 0.000275 0.000703 0.000000
  outer loop
    vertex 0.014805 0.191315 0.250000
    vertex 0.016211 0.190765 -0.250000
    vertex 0.014805 0.191315 -0.250000
  endloop
endfacet
facet normal 0.000316 0.000852 0.000000
  outer loop
    vertex 0.016211 0.190765 0.250000
    vertex 0.017915 0.190133 0.250000
    vertex 0.017915 0.190133 -0.250000
  endloop
endfacet
facet normal 0.000316 0.000852 0.000000
  outer loop
    vertex 0.016211 0.190765 0.250000
    vertex 0.017915 0.190133 -0.250000
    vertex 0.016211 0.190765 -0.250000
  endloop
endfacet
facet normal 0.000289 0.000819 0.000000
  outer loop
    vertex 0.017915 0.190133 0.250000
    vertex 0.019553 0.189556 0.250000
    vertex 0.019553 0.189556 -0.250000
  endloop
endfacet
facet normal 0.000289 0.000819 0.000000
  outer loop
    vertex 0.017915 0.190133 0.250000
    vertex 0.019553 0.189556 -0.250000
    vertex 0.017915 0.190133 -0.250000
  endloop
endfacet
facet normal 0.000214 0.000632 0.000000
  outer loop
    vertex 0.019553 0.189556 0.250000
    vertex 0.020816 0.189129 0.250000
    vertex 0.020816 0.189129 -0.250000
  endloop
endfacet
facet normal 0.000214 0.000632 0.000000
  outer loop
    vertex 0.019553 0.189556 0.250000
    vertex 0.020816 0.189129 -0.250000
    vertex 0.019553 0.189556 -0.250000
  endloop
endfacet
facet normal 0.000214 0.000655 0.000000
  outer loop
    vertex 0.020816 0.189129 0.250000
    vertex 0.022126 0.188700 0.250000
    vertex 0.022126 0.188700 -0.250000
  endloop
endfacet
facet normal 0.000214 0.000655 0.000000
  outer loop
    vertex 0.020816 0.189129 0.250000
    vertex 0.022126 0.188700 -0.250000
    vertex 0.020816 0.189129 -0.250000
  endloop
endfacet
facet normal 0.000221 0.000697 0.000000
  outer loop
    vertex 0.022126 0.188700 0.250000
    vertex 0.023520 0.188258 0.250000
    vertex 0.023520 0.188258 -0.250000
  endloop
endfacet
facet normal 0.000221 0.000697 0.000000
  outer loop
    vertex 0.022126 0.188700 0.250000
    vertex 0.023520 0.188258 -0.250000
    vertex 0.022126 0.188700 -0.250000
  endloop
endfacet
facet normal 0.000599 0.002004 0.000000
  outer loop
    vertex 0.023520 0.188258 0.250000
    vertex 0.027527 0.187060 0.250000
    vertex 0.027527 0.187060 -0.250000
  endloop
endfacet
facet normal 0.000599 0.002004 0.000000
  outer loop
    vertex 0.023520 0.188258 0.250000
    vertex 0.027527 0.187060 -0.250000
    vertex 0.023520 0.188258 -0.250000
  endloop
endfacet
facet normal 0.000213 0.000749 0.000000
  outer loop
    vertex 0.027527 0.187060 0.250000
    vertex 0.029026 0.186634 0.250000
    vertex 0.029026 0.186634 -0.250000
  endloop
endfacet
facet normal 0.000213 0.000749 0.000000
  outer loop
    vertex 0.027527 0.187060 0.250000
    vertex 0.029026 0.186634 -0.250000
    vertex 0.027527 0.187060 -0.250000
  endloop
endfacet
facet normal 0.000215 0.000779 0.000000
  outer loop
    vertex 0.029026 0.186634 0.250000
    vertex 0.030584 0.186204 0.250000
    vertex 0.030584 0.186204 -0.250000
  endloop
endfacet
facet normal 0.000215 0.000779 0.000000
  outer loop
    vertex 0.029026 0.186634 0.250000
    vertex 0.030584 0.186204 -0.250000
    vertex 0.029026 0.186634 -0.250000
  endloop
endfacet
facet normal 0.000094 0.000346 0.000000
  outer loop
    vertex 0.030584 0.186204 0.250000
    vertex 0.031275 0.186016 0.250000
    vertex 0.031275 0.186016 -0.250000
  endloop
endfacet
facet normal 0.000094 0.000346 0.000000
  outer loop
    vertex 0.030584 0.186204 0.250000
    vertex 0.031275 0.186016 -0.250000
    vertex 0.030584 0.186204 -0.250000
  endloop
endfacet
facet normal 0.000104 0.000388 0.000000
  outer loop
    vertex 0.031275 0.186016 0.250000
    vertex 0.032051 0.185808 0.250000
    vertex 0.032051 0.185808 -0.250000
  endloop
endfacet
facet normal 0.000104 0.000388 0.000000
  outer loop
    vertex 0.031275 0.186016 0.250000
    vertex 0.032051 0.185808 -0.250000
    vertex 0.031275 0.186016 -0.250000
  endloop
endfacet
facet normal 0.000482 0.001860 0.000000
  outer loop
    vertex 0.032051 0.185808 0.250000
    vertex 0.035771 0.184843 0.250000
    vertex 0.035771 0.184843 -0.250000
  endloop
endfacet
facet normal 0.000482 0.001860 0.000000
  outer loop
    vertex 0.032051 0.185808 0.250000
    vertex 0.035771 0.184843 -0.250000
    vertex 0.032051 0.185808 -0.250000
  endloop
endfacet
facet normal -0.000289 -0.001128 0.000000
  outer loop
    vertex 0.035771 0.184843 0.250000
    vertex 0.033515 0.185422 0.250000
    vertex 0.033515 0.185422 -0.250000
  endloop
endfacet
facet normal -0.000289 -0.001128 -0.000000
  outer loop
    vertex 0.035771 0.184843 0.250000
    vertex 0.033515 0.185422 -0.250000
    vertex 0.035771 0.184843 -0.250000
  endloop
endfacet
facet normal 0.000289 0.001128 0.000000
  outer loop
    vertex 0.033515 0.185422 0.250000
    vertex 0.035771 0.184843 0.250000
    vertex 0.035771 0.184843 -0.250000
  endloop
endfacet
facet normal 0.000289 0.001128 0.000000
  outer loop
    vertex 0.033515 0.185422 0.250000
    vertex 0.035771 0.184843 -0.250000
    vertex 0.033515 0.185422 -0.250000
  endloop
endfacet
facet normal 0.000103 0.000411 0.000000
  outer loop
    vertex 0.035771 0.184843 0.250000
    vertex 0.036593 0.184637 0.250000
    vertex 0.036593 0.184637 -0.250000
  endloop
endfacet
facet normal 0.000103 0.000411 0.000000
  outer loop
    vertex 0.035771 0.184843 0.250000
    vertex 0.036593 0.184637 -0.250000
    vertex 0.035771 0.184843 -0.250000
  endloop
endfacet
facet normal 0.000169 0.000687 0.000000
  outer loop
    vertex 0.036593 0.184637 0.250000
    vertex 0.037966 0.184299 0.250000
    vertex 0.037966 0.184299 -0.250000
  endloop
endfacet
facet normal 0.000169 0.000687 0.000000
  outer loop
    vertex 0.036593 0.184637 0.250000
    vertex 0.037966 0.184299 -0.250000
    vertex 0.036593 0.184637 -0.250000
  endloop
endfacet
facet normal -0.000000 0.000000 0.000000
  outer loop
    vertex 0.037966 0.184299 0.250000
    vertex 0.037966 0.184299 0.250000
    vertex 0.037966 0.184299 -0.250000
  endloop
endfacet
facet normal 0.000000 0.000000 0.000000
  outer loop
    vertex 0.037966 0.184299 0.250000
    vertex 0.037966 0.184299 -0.250000
    vertex 0.037966 0.184299 -0.250000
  endloop
endfacet
facet normal 0.000218 0.000903 0.000000
  outer loop
    vertex 0.037966 0.184299 0.250000
    vertex 0.039771 0.183864 0.250000
    vertex 0.039771 0.183864 -0.250000
  endloop
endfacet
facet normal 0.000218 0.000903 0.000000
  outer loop
    vertex 0.037966 0.184299 0.250000
    vertex 0.039771 0.183864 -0.250000
    vertex 0.037966 0.184299 -0.250000
  endloop
endfacet
facet normal 0.000184 0.000779 0.000000
  outer loop
    vertex 0.039771 0.183864 0.250000
    vertex 0.041329 0.183497 0.250000
    vertex 0.041329 0.183497 -0.250000
  endloop
endfacet
facet normal 0.000184 0.000779 0.000000
  outer loop
    vertex 0.039771 0.183864 0.250000
    vertex 0.041329 0.183497 -0.250000
    vertex 0.039771 0.183864 -0.250000
  endloop
endfacet
facet normal 0.000243 0.001065 0.000000
  outer loop
    vertex 0.041329 0.183497 0.250000
    vertex 0.043459 0.183010 0.250000
    vertex 0.043459 0.183010 -0.250000
  endloop
endfacet
facet normal 0.000243 0.001065 0.000000
  outer loop
    vertex 0.041329 0.183497 0.250000
    vertex 0.043459 0.183010 -0.250000
    vertex 0.041329 0.183497 -0.250000
  endloop
endfacet
facet normal 0.000171 0.000771 0.000000
  outer loop
    vertex 0.043459 0.183010 0.250000
    vertex 0.045001 0.182667 0.250000
    vertex 0.045001 0.182667 -0.250000
  endloop
endfacet
facet normal 0.000171 0.000771 0.000000
  outer loop
    vertex 0.043459 0.183010 0.250000
    vertex 0.045001 0.182667 -0.250000
    vertex 0.043459 0.183010 -0.250000
  endloop
endfacet
facet normal 0.000161 0.000745 0.000000
  outer loop
    vertex 0.045001 0.182667 0.250000
    vertex 0.046491 0.182345 0.250000
    vertex 0.046491 0.182345 -0.250000
  endloop
endfacet
facet normal 0.000161 0.000745 0.000000
  outer loop
    vertex 0.045001 0.182667 0.250000
    vertex 0.046491 0.182345 -0.250000
    vertex 0.045001 0.182667 -0.250000
  endloop
endfacet
facet normal 0.000160 0.000764 0.000000
  outer loop
    vertex 0.046491 0.182345 0.250000
    vertex 0.048018 0.182025 0.250000
    vertex 0.048018 0.182025 -0.250000
  endloop
endfacet
facet normal 0.000160 0.000764 0.000000
  outer loop
    vertex 0.046491 0.182345 0.250000
    vertex 0.048018 0.182025 -0.250000
    vertex 0.046491 0.182345 -0.250000
  endloop
endfacet
facet normal 0.000087 0.000814 0.000000
  outer loop
    vertex 0.048018 0.182025 0.250000
    vertex 0.049647 0.181851 0.250000
    vertex 0.049647 0.181851 -0.250000
  endloop
endfacet
facet normal 0.000087 0.000814 0.000000
  outer loop
    vertex 0.048018 0.182025 0.250000
    vertex 0.049647 0.181851 -0.250000
    vertex 0.048018 0.182025 -0.250000
  endloop
endfacet
endsolid /home/fmg/OpenFOAM/VAWT/cfd/cfdopenfoam/constant/triSurface/VAWT1.stl
