solid /home/fmg/OpenFOAM/VAWT/cfd/cfdopenfoam/constant/triSurface/VAWT3.stl
facet normal 0.000021 -0.000095 0.000000
  outer loop
    vertex -0.171490 -0.102600 0.250000
    vertex -0.171680 -0.102641 0.250000
    vertex -0.171680 -0.102641 -0.250000
  endloop
endfacet
facet normal 0.000021 -0.000095 0.000000
  outer loop
    vertex -0.171490 -0.102600 0.250000
    vertex -0.171680 -0.102641 -0.250000
    vertex -0.171490 -0.102600 -0.250000
  endloop
endfacet
facet normal 0.000689 0.000392 0.000000
  outer loop
    vertex -0.171680 -0.102641 0.250000
    vertex -0.170895 -0.104019 0.250000
    vertex -0.170895 -0.104019 -0.250000
  endloop
endfacet
facet normal 0.000689 0.000392 0.000000
  outer loop
    vertex -0.171680 -0.102641 0.250000
    vertex -0.170895 -0.104019 -0.250000
    vertex -0.171680 -0.102641 -0.250000
  endloop
endfacet
facet normal 0.000489 0.000281 0.000000
  outer loop
    vertex -0.170895 -0.104019 0.250000
    vertex -0.170333 -0.104996 0.250000
    vertex -0.170333 -0.104996 -0.250000
  endloop
endfacet
facet normal 0.000489 0.000281 0.000000
  outer loop
    vertex -0.170895 -0.104019 0.250000
    vertex -0.170333 -0.104996 -0.250000
    vertex -0.170895 -0.104019 -0.250000
  endloop
endfacet
facet normal 0.000560 0.000326 0.000000
  outer loop
    vertex -0.170333 -0.104996 0.250000
    vertex -0.169682 -0.106117 0.250000
    vertex -0.169682 -0.106117 -0.250000
  endloop
endfacet
facet normal 0.000560 0.000326 0.000000
  outer loop
    vertex -0.170333 -0.104996 0.250000
    vertex -0.169682 -0.106117 -0.250000
    vertex -0.170333 -0.104996 -0.250000
  endloop
endfacet
facet normal 0.000678 0.000400 0.000000
  outer loop
    vertex -0.169682 -0.106117 0.250000
    vertex -0.168883 -0.107473 0.250000
    vertex -0.168883 -0.107473 -0.250000
  endloop
endfacet
facet normal 0.000678 0.000400 0.000000
  outer loop
    vertex -0.169682 -0.106117 0.250000
    vertex -0.168883 -0.107473 -0.250000
    vertex -0.169682 -0.106117 -0.250000
  endloop
endfacet
facet normal 0.000692 0.000413 0.000000
  outer loop
    vertex -0.168883 -0.107473 0.250000
    vertex -0.168057 -0.108857 0.250000
    vertex -0.168057 -0.108857 -0.250000
  endloop
endfacet
facet normal 0.000692 0.000413 0.000000
  outer loop
    vertex -0.168883 -0.107473 0.250000
    vertex -0.168057 -0.108857 -0.250000
    vertex -0.168883 -0.107473 -0.250000
  endloop
endfacet
facet normal 0.000719 0.000434 0.000000
  outer loop
    vertex -0.168057 -0.108857 0.250000
    vertex -0.167189 -0.110295 0.250000
    vertex -0.167189 -0.110295 -0.250000
  endloop
endfacet
facet normal 0.000719 0.000434 0.000000
  outer loop
    vertex -0.168057 -0.108857 0.250000
    vertex -0.167189 -0.110295 -0.250000
    vertex -0.168057 -0.108857 -0.250000
  endloop
endfacet
facet normal 0.000738 0.000451 0.000000
  outer loop
    vertex -0.167189 -0.110295 0.250000
    vertex -0.166286 -0.111770 0.250000
    vertex -0.166286 -0.111770 -0.250000
  endloop
endfacet
facet normal 0.000738 0.000451 0.000000
  outer loop
    vertex -0.167189 -0.110295 0.250000
    vertex -0.166286 -0.111770 -0.250000
    vertex -0.167189 -0.110295 -0.250000
  endloop
endfacet
facet normal 0.000754 0.000466 0.000000
  outer loop
    vertex -0.166286 -0.111770 0.250000
    vertex -0.165353 -0.113278 0.250000
    vertex -0.165353 -0.113278 -0.250000
  endloop
endfacet
facet normal 0.000754 0.000466 0.000000
  outer loop
    vertex -0.166286 -0.111770 0.250000
    vertex -0.165353 -0.113278 -0.250000
    vertex -0.166286 -0.111770 -0.250000
  endloop
endfacet
facet normal 0.000943 0.000593 0.000000
  outer loop
    vertex -0.165353 -0.113278 0.250000
    vertex -0.164167 -0.115165 0.250000
    vertex -0.164167 -0.115165 -0.250000
  endloop
endfacet
facet normal 0.000943 0.000593 0.000000
  outer loop
    vertex -0.165353 -0.113278 0.250000
    vertex -0.164167 -0.115165 -0.250000
    vertex -0.165353 -0.113278 -0.250000
  endloop
endfacet
facet normal 0.000924 0.000590 0.000000
  outer loop
    vertex -0.164167 -0.115165 0.250000
    vertex -0.162987 -0.117013 0.250000
    vertex -0.162987 -0.117013 -0.250000
  endloop
endfacet
facet normal 0.000924 0.000590 0.000000
  outer loop
    vertex -0.164167 -0.115165 0.250000
    vertex -0.162987 -0.117013 -0.250000
    vertex -0.164167 -0.115165 -0.250000
  endloop
endfacet
facet normal 0.000756 0.000491 0.000000
  outer loop
    vertex -0.162987 -0.117013 0.250000
    vertex -0.162005 -0.118526 0.250000
    vertex -0.162005 -0.118526 -0.250000
  endloop
endfacet
facet normal 0.000756 0.000491 0.000000
  outer loop
    vertex -0.162987 -0.117013 0.250000
    vertex -0.162005 -0.118526 -0.250000
    vertex -0.162987 -0.117013 -0.250000
  endloop
endfacet
facet normal 0.000647 0.000426 0.000000
  outer loop
    vertex -0.162005 -0.118526 0.250000
    vertex -0.161153 -0.119819 0.250000
    vertex -0.161153 -0.119819 -0.250000
  endloop
endfacet
facet normal 0.000647 0.000426 0.000000
  outer loop
    vertex -0.162005 -0.118526 0.250000
    vertex -0.161153 -0.119819 -0.250000
    vertex -0.162005 -0.118526 -0.250000
  endloop
endfacet
facet normal 0.000685 0.000457 0.000000
  outer loop
    vertex -0.161153 -0.119819 0.250000
    vertex -0.160239 -0.121189 0.250000
    vertex -0.160239 -0.121189 -0.250000
  endloop
endfacet
facet normal 0.000685 0.000457 0.000000
  outer loop
    vertex -0.161153 -0.119819 0.250000
    vertex -0.160239 -0.121189 -0.250000
    vertex -0.161153 -0.119819 -0.250000
  endloop
endfacet
facet normal 0.000576 0.000390 0.000000
  outer loop
    vertex -0.160239 -0.121189 0.250000
    vertex -0.159459 -0.122341 0.250000
    vertex -0.159459 -0.122341 -0.250000
  endloop
endfacet
facet normal 0.000576 0.000390 0.000000
  outer loop
    vertex -0.160239 -0.121189 0.250000
    vertex -0.159459 -0.122341 -0.250000
    vertex -0.160239 -0.121189 -0.250000
  endloop
endfacet
facet normal 0.000737 0.000508 0.000000
  outer loop
    vertex -0.159459 -0.122341 0.250000
    vertex -0.158443 -0.123815 0.250000
    vertex -0.158443 -0.123815 -0.250000
  endloop
endfacet
facet normal 0.000737 0.000508 0.000000
  outer loop
    vertex -0.159459 -0.122341 0.250000
    vertex -0.158443 -0.123815 -0.250000
    vertex -0.159459 -0.122341 -0.250000
  endloop
endfacet
facet normal 0.000694 0.000487 0.000000
  outer loop
    vertex -0.158443 -0.123815 0.250000
    vertex -0.157468 -0.125203 0.250000
    vertex -0.157468 -0.125203 -0.250000
  endloop
endfacet
facet normal 0.000694 0.000487 0.000000
  outer loop
    vertex -0.158443 -0.123815 0.250000
    vertex -0.157468 -0.125203 -0.250000
    vertex -0.158443 -0.123815 -0.250000
  endloop
endfacet
facet normal 0.000578 0.000414 0.000000
  outer loop
    vertex -0.157468 -0.125203 0.250000
    vertex -0.156640 -0.126359 0.250000
    vertex -0.156640 -0.126359 -0.250000
  endloop
endfacet
facet normal 0.000578 0.000414 0.000000
  outer loop
    vertex -0.157468 -0.125203 0.250000
    vertex -0.156640 -0.126359 -0.250000
    vertex -0.157468 -0.125203 -0.250000
  endloop
endfacet
facet normal 0.001108 0.000817 0.000000
  outer loop
    vertex -0.156640 -0.126359 0.250000
    vertex -0.155006 -0.128575 0.250000
    vertex -0.155006 -0.128575 -0.250000
  endloop
endfacet
facet normal 0.001108 0.000817 0.000000
  outer loop
    vertex -0.156640 -0.126359 0.250000
    vertex -0.155006 -0.128575 -0.250000
    vertex -0.156640 -0.126359 -0.250000
  endloop
endfacet
facet normal -0.000346 -0.000259 0.000000
  outer loop
    vertex -0.155006 -0.128575 0.250000
    vertex -0.155524 -0.127882 0.250000
    vertex -0.155524 -0.127882 -0.250000
  endloop
endfacet
facet normal -0.000346 -0.000259 -0.000000
  outer loop
    vertex -0.155006 -0.128575 0.250000
    vertex -0.155524 -0.127882 -0.250000
    vertex -0.155006 -0.128575 -0.250000
  endloop
endfacet
facet normal 0.000689 0.000519 0.000000
  outer loop
    vertex -0.155524 -0.127882 0.250000
    vertex -0.154486 -0.129261 0.250000
    vertex -0.154486 -0.129261 -0.250000
  endloop
endfacet
facet normal 0.000689 0.000519 0.000000
  outer loop
    vertex -0.155524 -0.127882 0.250000
    vertex -0.154486 -0.129261 -0.250000
    vertex -0.155524 -0.127882 -0.250000
  endloop
endfacet
facet normal 0.000718 0.000559 0.000000
  outer loop
    vertex -0.154486 -0.129261 0.250000
    vertex -0.153368 -0.130697 0.250000
    vertex -0.153368 -0.130697 -0.250000
  endloop
endfacet
facet normal 0.000718 0.000559 0.000000
  outer loop
    vertex -0.154486 -0.129261 0.250000
    vertex -0.153368 -0.130697 -0.250000
    vertex -0.154486 -0.129261 -0.250000
  endloop
endfacet
facet normal 0.000689 0.000556 0.000000
  outer loop
    vertex -0.153368 -0.130697 0.250000
    vertex -0.152256 -0.132076 0.250000
    vertex -0.152256 -0.132076 -0.250000
  endloop
endfacet
facet normal 0.000689 0.000556 0.000000
  outer loop
    vertex -0.153368 -0.130697 0.250000
    vertex -0.152256 -0.132076 -0.250000
    vertex -0.153368 -0.130697 -0.250000
  endloop
endfacet
facet normal 0.000665 0.000558 0.000000
  outer loop
    vertex -0.152256 -0.132076 0.250000
    vertex -0.151139 -0.133405 0.250000
    vertex -0.151139 -0.133405 -0.250000
  endloop
endfacet
facet normal 0.000665 0.000558 0.000000
  outer loop
    vertex -0.152256 -0.132076 0.250000
    vertex -0.151139 -0.133405 -0.250000
    vertex -0.152256 -0.132076 -0.250000
  endloop
endfacet
facet normal 0.000729 0.000644 0.000000
  outer loop
    vertex -0.151139 -0.133405 0.250000
    vertex -0.149852 -0.134863 0.250000
    vertex -0.149852 -0.134863 -0.250000
  endloop
endfacet
facet normal 0.000729 0.000644 0.000000
  outer loop
    vertex -0.151139 -0.133405 0.250000
    vertex -0.149852 -0.134863 -0.250000
    vertex -0.151139 -0.133405 -0.250000
  endloop
endfacet
facet normal 0.000582 0.000544 0.000000
  outer loop
    vertex -0.149852 -0.134863 0.250000
    vertex -0.148765 -0.136026 0.250000
    vertex -0.148765 -0.136026 -0.250000
  endloop
endfacet
facet normal 0.000582 0.000544 0.000000
  outer loop
    vertex -0.149852 -0.134863 0.250000
    vertex -0.148765 -0.136026 -0.250000
    vertex -0.149852 -0.134863 -0.250000
  endloop
endfacet
facet normal 0.000358 0.000351 0.000000
  outer loop
    vertex -0.148765 -0.136026 0.250000
    vertex -0.148062 -0.136742 0.250000
    vertex -0.148062 -0.136742 -0.250000
  endloop
endfacet
facet normal 0.000358 0.000351 0.000000
  outer loop
    vertex -0.148765 -0.136026 0.250000
    vertex -0.148062 -0.136742 -0.250000
    vertex -0.148765 -0.136026 -0.250000
  endloop
endfacet
facet normal 0.000161 0.000163 0.000000
  outer loop
    vertex -0.148062 -0.136742 0.250000
    vertex -0.147736 -0.137064 0.250000
    vertex -0.147736 -0.137064 -0.250000
  endloop
endfacet
facet normal 0.000161 0.000163 0.000000
  outer loop
    vertex -0.148062 -0.136742 0.250000
    vertex -0.147736 -0.137064 -0.250000
    vertex -0.148062 -0.136742 -0.250000
  endloop
endfacet
facet normal 0.000262 0.000273 0.000000
  outer loop
    vertex -0.147736 -0.137064 0.250000
    vertex -0.147190 -0.137588 0.250000
    vertex -0.147190 -0.137588 -0.250000
  endloop
endfacet
facet normal 0.000262 0.000273 0.000000
  outer loop
    vertex -0.147736 -0.137064 0.250000
    vertex -0.147190 -0.137588 -0.250000
    vertex -0.147736 -0.137064 -0.250000
  endloop
endfacet
facet normal 0.000247 0.000267 0.000000
  outer loop
    vertex -0.147190 -0.137588 0.250000
    vertex -0.146656 -0.138082 0.250000
    vertex -0.146656 -0.138082 -0.250000
  endloop
endfacet
facet normal 0.000247 0.000267 0.000000
  outer loop
    vertex -0.147190 -0.137588 0.250000
    vertex -0.146656 -0.138082 -0.250000
    vertex -0.147190 -0.137588 -0.250000
  endloop
endfacet
facet normal 0.000215 0.000243 0.000000
  outer loop
    vertex -0.146656 -0.138082 0.250000
    vertex -0.146170 -0.138512 0.250000
    vertex -0.146170 -0.138512 -0.250000
  endloop
endfacet
facet normal 0.000215 0.000243 0.000000
  outer loop
    vertex -0.146656 -0.138082 0.250000
    vertex -0.146170 -0.138512 -0.250000
    vertex -0.146656 -0.138082 -0.250000
  endloop
endfacet
facet normal 0.000205 0.000241 0.000000
  outer loop
    vertex -0.146170 -0.138512 0.250000
    vertex -0.145688 -0.138922 0.250000
    vertex -0.145688 -0.138922 -0.250000
  endloop
endfacet
facet normal 0.000205 0.000241 0.000000
  outer loop
    vertex -0.146170 -0.138512 0.250000
    vertex -0.145688 -0.138922 -0.250000
    vertex -0.146170 -0.138512 -0.250000
  endloop
endfacet
facet normal -0.000525 -0.000599 0.000000
  outer loop
    vertex -0.145688 -0.138922 0.250000
    vertex -0.146886 -0.137871 0.250000
    vertex -0.146886 -0.137871 -0.250000
  endloop
endfacet
facet normal -0.000525 -0.000599 -0.000000
  outer loop
    vertex -0.145688 -0.138922 0.250000
    vertex -0.146886 -0.137871 -0.250000
    vertex -0.145688 -0.138922 -0.250000
  endloop
endfacet
facet normal 0.000686 0.000796 0.000000
  outer loop
    vertex -0.146886 -0.137871 0.250000
    vertex -0.145294 -0.139244 0.250000
    vertex -0.145294 -0.139244 -0.250000
  endloop
endfacet
facet normal 0.000686 0.000796 0.000000
  outer loop
    vertex -0.146886 -0.137871 0.250000
    vertex -0.145294 -0.139244 -0.250000
    vertex -0.146886 -0.137871 -0.250000
  endloop
endfacet
facet normal 0.000159 0.000203 0.000000
  outer loop
    vertex -0.145294 -0.139244 0.250000
    vertex -0.144888 -0.139561 0.250000
    vertex -0.144888 -0.139561 -0.250000
  endloop
endfacet
facet normal 0.000159 0.000203 0.000000
  outer loop
    vertex -0.145294 -0.139244 0.250000
    vertex -0.144888 -0.139561 -0.250000
    vertex -0.145294 -0.139244 -0.250000
  endloop
endfacet
facet normal 0.000198 0.000268 0.000000
  outer loop
    vertex -0.144888 -0.139561 0.250000
    vertex -0.144352 -0.139958 0.250000
    vertex -0.144352 -0.139958 -0.250000
  endloop
endfacet
facet normal 0.000198 0.000268 0.000000
  outer loop
    vertex -0.144888 -0.139561 0.250000
    vertex -0.144352 -0.139958 -0.250000
    vertex -0.144888 -0.139561 -0.250000
  endloop
endfacet
facet normal 0.000111 0.000160 0.000000
  outer loop
    vertex -0.144352 -0.139958 0.250000
    vertex -0.144032 -0.140179 0.250000
    vertex -0.144032 -0.140179 -0.250000
  endloop
endfacet
facet normal 0.000111 0.000160 0.000000
  outer loop
    vertex -0.144352 -0.139958 0.250000
    vertex -0.144032 -0.140179 -0.250000
    vertex -0.144352 -0.139958 -0.250000
  endloop
endfacet
facet normal 0.000107 0.000162 0.000000
  outer loop
    vertex -0.144032 -0.140179 0.250000
    vertex -0.143709 -0.140393 0.250000
    vertex -0.143709 -0.140393 -0.250000
  endloop
endfacet
facet normal 0.000107 0.000162 0.000000
  outer loop
    vertex -0.144032 -0.140179 0.250000
    vertex -0.143709 -0.140393 -0.250000
    vertex -0.144032 -0.140179 -0.250000
  endloop
endfacet
facet normal 0.000108 0.000175 0.000000
  outer loop
    vertex -0.143709 -0.140393 0.250000
    vertex -0.143359 -0.140609 0.250000
    vertex -0.143359 -0.140609 -0.250000
  endloop
endfacet
facet normal 0.000108 0.000175 0.000000
  outer loop
    vertex -0.143709 -0.140393 0.250000
    vertex -0.143359 -0.140609 -0.250000
    vertex -0.143709 -0.140393 -0.250000
  endloop
endfacet
facet normal 0.000097 0.000168 0.000000
  outer loop
    vertex -0.143359 -0.140609 0.250000
    vertex -0.143022 -0.140803 0.250000
    vertex -0.143022 -0.140803 -0.250000
  endloop
endfacet
facet normal 0.000097 0.000168 0.000000
  outer loop
    vertex -0.143359 -0.140609 0.250000
    vertex -0.143022 -0.140803 -0.250000
    vertex -0.143359 -0.140609 -0.250000
  endloop
endfacet
facet normal 0.000021 0.000038 0.000000
  outer loop
    vertex -0.143022 -0.140803 0.250000
    vertex -0.142945 -0.140844 0.250000
    vertex -0.142945 -0.140844 -0.250000
  endloop
endfacet
facet normal 0.000021 0.000038 0.000000
  outer loop
    vertex -0.143022 -0.140803 0.250000
    vertex -0.142945 -0.140844 -0.250000
    vertex -0.143022 -0.140803 -0.250000
  endloop
endfacet
facet normal 0.000043 0.000082 0.000000
  outer loop
    vertex -0.142945 -0.140844 0.250000
    vertex -0.142781 -0.140930 0.250000
    vertex -0.142781 -0.140930 -0.250000
  endloop
endfacet
facet normal 0.000043 0.000082 0.000000
  outer loop
    vertex -0.142945 -0.140844 0.250000
    vertex -0.142781 -0.140930 -0.250000
    vertex -0.142945 -0.140844 -0.250000
  endloop
endfacet
facet normal -0.000019 -0.000038 0.000000
  outer loop
    vertex -0.142781 -0.140930 0.250000
    vertex -0.142858 -0.140891 0.250000
    vertex -0.142858 -0.140891 -0.250000
  endloop
endfacet
facet normal -0.000019 -0.000038 -0.000000
  outer loop
    vertex -0.142781 -0.140930 0.250000
    vertex -0.142858 -0.140891 -0.250000
    vertex -0.142781 -0.140930 -0.250000
  endloop
endfacet
facet normal 0.000045 0.000089 0.000000
  outer loop
    vertex -0.142858 -0.140891 0.250000
    vertex -0.142680 -0.140982 0.250000
    vertex -0.142680 -0.140982 -0.250000
  endloop
endfacet
facet normal 0.000045 0.000089 0.000000
  outer loop
    vertex -0.142858 -0.140891 0.250000
    vertex -0.142680 -0.140982 -0.250000
    vertex -0.142858 -0.140891 -0.250000
  endloop
endfacet
facet normal 0.000034 0.000070 0.000000
  outer loop
    vertex -0.142680 -0.140982 0.250000
    vertex -0.142540 -0.141050 0.250000
    vertex -0.142540 -0.141050 -0.250000
  endloop
endfacet
facet normal 0.000034 0.000070 0.000000
  outer loop
    vertex -0.142680 -0.140982 0.250000
    vertex -0.142540 -0.141050 -0.250000
    vertex -0.142680 -0.140982 -0.250000
  endloop
endfacet
facet normal 0.000026 0.000057 0.000000
  outer loop
    vertex -0.142540 -0.141050 0.250000
    vertex -0.142426 -0.141102 0.250000
    vertex -0.142426 -0.141102 -0.250000
  endloop
endfacet
facet normal 0.000026 0.000057 0.000000
  outer loop
    vertex -0.142540 -0.141050 0.250000
    vertex -0.142426 -0.141102 -0.250000
    vertex -0.142540 -0.141050 -0.250000
  endloop
endfacet
facet normal 0.000025 0.000055 0.000000
  outer loop
    vertex -0.142426 -0.141102 0.250000
    vertex -0.142317 -0.141152 0.250000
    vertex -0.142317 -0.141152 -0.250000
  endloop
endfacet
facet normal 0.000025 0.000055 0.000000
  outer loop
    vertex -0.142426 -0.141102 0.250000
    vertex -0.142317 -0.141152 -0.250000
    vertex -0.142426 -0.141102 -0.250000
  endloop
endfacet
facet normal 0.000022 0.000053 0.000000
  outer loop
    vertex -0.142317 -0.141152 0.250000
    vertex -0.142210 -0.141197 0.250000
    vertex -0.142210 -0.141197 -0.250000
  endloop
endfacet
facet normal 0.000022 0.000053 0.000000
  outer loop
    vertex -0.142317 -0.141152 0.250000
    vertex -0.142210 -0.141197 -0.250000
    vertex -0.142317 -0.141152 -0.250000
  endloop
endfacet
facet normal 0.000018 0.000042 0.000000
  outer loop
    vertex -0.142210 -0.141197 0.250000
    vertex -0.142125 -0.141232 0.250000
    vertex -0.142125 -0.141232 -0.250000
  endloop
endfacet
facet normal 0.000018 0.000042 0.000000
  outer loop
    vertex -0.142210 -0.141197 0.250000
    vertex -0.142125 -0.141232 -0.250000
    vertex -0.142210 -0.141197 -0.250000
  endloop
endfacet
facet normal 0.000021 0.000053 0.000000
  outer loop
    vertex -0.142125 -0.141232 0.250000
    vertex -0.142019 -0.141274 0.250000
    vertex -0.142019 -0.141274 -0.250000
  endloop
endfacet
facet normal 0.000021 0.000053 0.000000
  outer loop
    vertex -0.142125 -0.141232 0.250000
    vertex -0.142019 -0.141274 -0.250000
    vertex -0.142125 -0.141232 -0.250000
  endloop
endfacet
facet normal 0.000024 0.000065 0.000000
  outer loop
    vertex -0.142019 -0.141274 0.250000
    vertex -0.141889 -0.141322 0.250000
    vertex -0.141889 -0.141322 -0.250000
  endloop
endfacet
facet normal 0.000024 0.000065 0.000000
  outer loop
    vertex -0.142019 -0.141274 0.250000
    vertex -0.141889 -0.141322 -0.250000
    vertex -0.142019 -0.141274 -0.250000
  endloop
endfacet
facet normal 0.000029 0.000084 0.000000
  outer loop
    vertex -0.141889 -0.141322 0.250000
    vertex -0.141721 -0.141380 0.250000
    vertex -0.141721 -0.141380 -0.250000
  endloop
endfacet
facet normal 0.000029 0.000084 0.000000
  outer loop
    vertex -0.141889 -0.141322 0.250000
    vertex -0.141721 -0.141380 -0.250000
    vertex -0.141889 -0.141322 -0.250000
  endloop
endfacet
facet normal 0.000018 0.000059 0.000000
  outer loop
    vertex -0.141721 -0.141380 0.250000
    vertex -0.141602 -0.141415 0.250000
    vertex -0.141602 -0.141415 -0.250000
  endloop
endfacet
facet normal 0.000018 0.000059 0.000000
  outer loop
    vertex -0.141721 -0.141380 0.250000
    vertex -0.141602 -0.141415 -0.250000
    vertex -0.141721 -0.141380 -0.250000
  endloop
endfacet
facet normal 0.000025 0.000098 0.000000
  outer loop
    vertex -0.141602 -0.141415 0.250000
    vertex -0.141406 -0.141465 0.250000
    vertex -0.141406 -0.141465 -0.250000
  endloop
endfacet
facet normal 0.000025 0.000098 0.000000
  outer loop
    vertex -0.141602 -0.141415 0.250000
    vertex -0.141406 -0.141465 -0.250000
    vertex -0.141602 -0.141415 -0.250000
  endloop
endfacet
facet normal 0.000017 0.000092 0.000000
  outer loop
    vertex -0.141406 -0.141465 0.250000
    vertex -0.141223 -0.141499 0.250000
    vertex -0.141223 -0.141499 -0.250000
  endloop
endfacet
facet normal 0.000017 0.000092 0.000000
  outer loop
    vertex -0.141406 -0.141465 0.250000
    vertex -0.141223 -0.141499 -0.250000
    vertex -0.141406 -0.141465 -0.250000
  endloop
endfacet
facet normal 0.000010 0.000090 0.000000
  outer loop
    vertex -0.141223 -0.141499 0.250000
    vertex -0.141043 -0.141519 0.250000
    vertex -0.141043 -0.141519 -0.250000
  endloop
endfacet
facet normal 0.000010 0.000090 0.000000
  outer loop
    vertex -0.141223 -0.141499 0.250000
    vertex -0.141043 -0.141519 -0.250000
    vertex -0.141223 -0.141499 -0.250000
  endloop
endfacet
facet normal 0.000003 0.000120 0.000000
  outer loop
    vertex -0.141043 -0.141519 0.250000
    vertex -0.140802 -0.141525 0.250000
    vertex -0.140802 -0.141525 -0.250000
  endloop
endfacet
facet normal 0.000003 0.000120 0.000000
  outer loop
    vertex -0.141043 -0.141519 0.250000
    vertex -0.140802 -0.141525 -0.250000
    vertex -0.141043 -0.141519 -0.250000
  endloop
endfacet
facet normal 0.000001 -0.000044 0.000000
  outer loop
    vertex -0.140802 -0.141525 0.250000
    vertex -0.140891 -0.141526 0.250000
    vertex -0.140891 -0.141526 -0.250000
  endloop
endfacet
facet normal 0.000001 -0.000044 0.000000
  outer loop
    vertex -0.140802 -0.141525 0.250000
    vertex -0.140891 -0.141526 -0.250000
    vertex -0.140802 -0.141525 -0.250000
  endloop
endfacet
facet normal -0.000004 0.000115 0.000000
  outer loop
    vertex -0.140891 -0.141526 0.250000
    vertex -0.140660 -0.141518 0.250000
    vertex -0.140660 -0.141518 -0.250000
  endloop
endfacet
facet normal -0.000004 0.000115 0.000000
  outer loop
    vertex -0.140891 -0.141526 0.250000
    vertex -0.140660 -0.141518 -0.250000
    vertex -0.140891 -0.141526 -0.250000
  endloop
endfacet
facet normal -0.000005 0.000043 0.000000
  outer loop
    vertex -0.140660 -0.141518 0.250000
    vertex -0.140574 -0.141509 0.250000
    vertex -0.140574 -0.141509 -0.250000
  endloop
endfacet
facet normal -0.000005 0.000043 0.000000
  outer loop
    vertex -0.140660 -0.141518 0.250000
    vertex -0.140574 -0.141509 -0.250000
    vertex -0.140660 -0.141518 -0.250000
  endloop
endfacet
facet normal -0.000008 0.000052 0.000000
  outer loop
    vertex -0.140574 -0.141509 0.250000
    vertex -0.140470 -0.141493 0.250000
    vertex -0.140470 -0.141493 -0.250000
  endloop
endfacet
facet normal -0.000008 0.000052 0.000000
  outer loop
    vertex -0.140574 -0.141509 0.250000
    vertex -0.140470 -0.141493 -0.250000
    vertex -0.140574 -0.141509 -0.250000
  endloop
endfacet
facet normal -0.000008 0.000038 0.000000
  outer loop
    vertex -0.140470 -0.141493 0.250000
    vertex -0.140394 -0.141476 0.250000
    vertex -0.140394 -0.141476 -0.250000
  endloop
endfacet
facet normal -0.000008 0.000038 0.000000
  outer loop
    vertex -0.140470 -0.141493 0.250000
    vertex -0.140394 -0.141476 -0.250000
    vertex -0.140470 -0.141493 -0.250000
  endloop
endfacet
facet normal -0.000026 0.000089 0.000000
  outer loop
    vertex -0.140394 -0.141476 0.250000
    vertex -0.140215 -0.141424 0.250000
    vertex -0.140215 -0.141424 -0.250000
  endloop
endfacet
facet normal -0.000026 0.000089 0.000000
  outer loop
    vertex -0.140394 -0.141476 0.250000
    vertex -0.140215 -0.141424 -0.250000
    vertex -0.140394 -0.141476 -0.250000
  endloop
endfacet
facet normal -0.000039 0.000086 0.000000
  outer loop
    vertex -0.140215 -0.141424 0.250000
    vertex -0.140043 -0.141346 0.250000
    vertex -0.140043 -0.141346 -0.250000
  endloop
endfacet
facet normal -0.000039 0.000086 0.000000
  outer loop
    vertex -0.140215 -0.141424 0.250000
    vertex -0.140043 -0.141346 -0.250000
    vertex -0.140215 -0.141424 -0.250000
  endloop
endfacet
facet normal 0.000016 -0.000031 0.000000
  outer loop
    vertex -0.140043 -0.141346 0.250000
    vertex -0.140105 -0.141377 0.250000
    vertex -0.140105 -0.141377 -0.250000
  endloop
endfacet
facet normal 0.000016 -0.000031 0.000000
  outer loop
    vertex -0.140043 -0.141346 0.250000
    vertex -0.140105 -0.141377 -0.250000
    vertex -0.140043 -0.141346 -0.250000
  endloop
endfacet
facet normal -0.000040 0.000071 0.000000
  outer loop
    vertex -0.140105 -0.141377 0.250000
    vertex -0.139963 -0.141298 0.250000
    vertex -0.139963 -0.141298 -0.250000
  endloop
endfacet
facet normal -0.000040 0.000071 0.000000
  outer loop
    vertex -0.140105 -0.141377 0.250000
    vertex -0.139963 -0.141298 -0.250000
    vertex -0.140105 -0.141377 -0.250000
  endloop
endfacet
facet normal -0.000041 0.000054 0.000000
  outer loop
    vertex -0.139963 -0.141298 0.250000
    vertex -0.139855 -0.141216 0.250000
    vertex -0.139855 -0.141216 -0.250000
  endloop
endfacet
facet normal -0.000041 0.000054 0.000000
  outer loop
    vertex -0.139963 -0.141298 0.250000
    vertex -0.139855 -0.141216 -0.250000
    vertex -0.139963 -0.141298 -0.250000
  endloop
endfacet
facet normal -0.000033 0.000034 0.000000
  outer loop
    vertex -0.139855 -0.141216 0.250000
    vertex -0.139786 -0.141151 0.250000
    vertex -0.139786 -0.141151 -0.250000
  endloop
endfacet
facet normal -0.000033 0.000034 0.000000
  outer loop
    vertex -0.139855 -0.141216 0.250000
    vertex -0.139786 -0.141151 -0.250000
    vertex -0.139855 -0.141216 -0.250000
  endloop
endfacet
facet normal -0.000163 0.000112 0.000000
  outer loop
    vertex -0.139786 -0.141151 0.250000
    vertex -0.139563 -0.140826 0.250000
    vertex -0.139563 -0.140826 -0.250000
  endloop
endfacet
facet normal -0.000163 0.000112 0.000000
  outer loop
    vertex -0.139786 -0.141151 0.250000
    vertex -0.139563 -0.140826 -0.250000
    vertex -0.139786 -0.141151 -0.250000
  endloop
endfacet
facet normal -0.000194 0.000069 0.000000
  outer loop
    vertex -0.139563 -0.140826 0.250000
    vertex -0.139425 -0.140437 0.250000
    vertex -0.139425 -0.140437 -0.250000
  endloop
endfacet
facet normal -0.000194 0.000069 0.000000
  outer loop
    vertex -0.139563 -0.140826 0.250000
    vertex -0.139425 -0.140437 -0.250000
    vertex -0.139563 -0.140826 -0.250000
  endloop
endfacet
facet normal 0.000331 -0.000158 0.000000
  outer loop
    vertex -0.139425 -0.140437 0.250000
    vertex -0.139740 -0.141099 0.250000
    vertex -0.139740 -0.141099 -0.250000
  endloop
endfacet
facet normal 0.000331 -0.000158 0.000000
  outer loop
    vertex -0.139425 -0.140437 0.250000
    vertex -0.139740 -0.141099 -0.250000
    vertex -0.139425 -0.140437 -0.250000
  endloop
endfacet
facet normal -0.000030 0.000024 0.000000
  outer loop
    vertex -0.139740 -0.141099 0.250000
    vertex -0.139692 -0.141039 0.250000
    vertex -0.139692 -0.141039 -0.250000
  endloop
endfacet
facet normal -0.000030 0.000024 0.000000
  outer loop
    vertex -0.139740 -0.141099 0.250000
    vertex -0.139692 -0.141039 -0.250000
    vertex -0.139740 -0.141099 -0.250000
  endloop
endfacet
facet normal -0.000039 0.000026 0.000000
  outer loop
    vertex -0.139692 -0.141039 0.250000
    vertex -0.139640 -0.140961 0.250000
    vertex -0.139640 -0.140961 -0.250000
  endloop
endfacet
facet normal -0.000039 0.000026 0.000000
  outer loop
    vertex -0.139692 -0.141039 0.250000
    vertex -0.139640 -0.140961 -0.250000
    vertex -0.139692 -0.141039 -0.250000
  endloop
endfacet
facet normal -0.000147 0.000072 0.000000
  outer loop
    vertex -0.139640 -0.140961 0.250000
    vertex -0.139495 -0.140667 0.250000
    vertex -0.139495 -0.140667 -0.250000
  endloop
endfacet
facet normal -0.000147 0.000072 0.000000
  outer loop
    vertex -0.139640 -0.140961 0.250000
    vertex -0.139495 -0.140667 -0.250000
    vertex -0.139640 -0.140961 -0.250000
  endloop
endfacet
facet normal -0.000050 0.000017 0.000000
  outer loop
    vertex -0.139495 -0.140667 0.250000
    vertex -0.139461 -0.140567 0.250000
    vertex -0.139461 -0.140567 -0.250000
  endloop
endfacet
facet normal -0.000050 0.000017 0.000000
  outer loop
    vertex -0.139495 -0.140667 0.250000
    vertex -0.139461 -0.140567 -0.250000
    vertex -0.139495 -0.140667 -0.250000
  endloop
endfacet
facet normal -0.000137 0.000033 0.000000
  outer loop
    vertex -0.139461 -0.140567 0.250000
    vertex -0.139395 -0.140293 0.250000
    vertex -0.139395 -0.140293 -0.250000
  endloop
endfacet
facet normal -0.000137 0.000033 0.000000
  outer loop
    vertex -0.139461 -0.140567 0.250000
    vertex -0.139395 -0.140293 -0.250000
    vertex -0.139461 -0.140567 -0.250000
  endloop
endfacet
facet normal -0.000152 0.000018 0.000000
  outer loop
    vertex -0.139395 -0.140293 0.250000
    vertex -0.139358 -0.139989 0.250000
    vertex -0.139358 -0.139989 -0.250000
  endloop
endfacet
facet normal -0.000152 0.000018 0.000000
  outer loop
    vertex -0.139395 -0.140293 0.250000
    vertex -0.139358 -0.139989 -0.250000
    vertex -0.139395 -0.140293 -0.250000
  endloop
endfacet
facet normal 0.000077 -0.000007 0.000000
  outer loop
    vertex -0.139358 -0.139989 0.250000
    vertex -0.139372 -0.140143 0.250000
    vertex -0.139372 -0.140143 -0.250000
  endloop
endfacet
facet normal 0.000077 -0.000007 0.000000
  outer loop
    vertex -0.139358 -0.139989 0.250000
    vertex -0.139372 -0.140143 -0.250000
    vertex -0.139358 -0.139989 -0.250000
  endloop
endfacet
facet normal -0.000161 0.000009 0.000000
  outer loop
    vertex -0.139372 -0.140143 0.250000
    vertex -0.139354 -0.139820 0.250000
    vertex -0.139354 -0.139820 -0.250000
  endloop
endfacet
facet normal -0.000161 0.000009 0.000000
  outer loop
    vertex -0.139372 -0.140143 0.250000
    vertex -0.139354 -0.139820 -0.250000
    vertex -0.139372 -0.140143 -0.250000
  endloop
endfacet
facet normal -0.000099 -0.000004 0.000000
  outer loop
    vertex -0.139354 -0.139820 0.250000
    vertex -0.139361 -0.139621 0.250000
    vertex -0.139361 -0.139621 -0.250000
  endloop
endfacet
facet normal -0.000099 -0.000004 -0.000000
  outer loop
    vertex -0.139354 -0.139820 0.250000
    vertex -0.139361 -0.139621 -0.250000
    vertex -0.139354 -0.139820 -0.250000
  endloop
endfacet
facet normal -0.000063 -0.000006 0.000000
  outer loop
    vertex -0.139361 -0.139621 0.250000
    vertex -0.139373 -0.139495 0.250000
    vertex -0.139373 -0.139495 -0.250000
  endloop
endfacet
facet normal -0.000063 -0.000006 -0.000000
  outer loop
    vertex -0.139361 -0.139621 0.250000
    vertex -0.139373 -0.139495 -0.250000
    vertex -0.139361 -0.139621 -0.250000
  endloop
endfacet
facet normal -0.000081 -0.000010 0.000000
  outer loop
    vertex -0.139373 -0.139495 0.250000
    vertex -0.139392 -0.139333 0.250000
    vertex -0.139392 -0.139333 -0.250000
  endloop
endfacet
facet normal -0.000081 -0.000010 -0.000000
  outer loop
    vertex -0.139373 -0.139495 0.250000
    vertex -0.139392 -0.139333 -0.250000
    vertex -0.139373 -0.139495 -0.250000
  endloop
endfacet
facet normal -0.000076 -0.000012 0.000000
  outer loop
    vertex -0.139392 -0.139333 0.250000
    vertex -0.139416 -0.139182 0.250000
    vertex -0.139416 -0.139182 -0.250000
  endloop
endfacet
facet normal -0.000076 -0.000012 -0.000000
  outer loop
    vertex -0.139392 -0.139333 0.250000
    vertex -0.139416 -0.139182 -0.250000
    vertex -0.139392 -0.139333 -0.250000
  endloop
endfacet
facet normal -0.000088 -0.000016 0.000000
  outer loop
    vertex -0.139416 -0.139182 0.250000
    vertex -0.139448 -0.139005 0.250000
    vertex -0.139448 -0.139005 -0.250000
  endloop
endfacet
facet normal -0.000088 -0.000016 -0.000000
  outer loop
    vertex -0.139416 -0.139182 0.250000
    vertex -0.139448 -0.139005 -0.250000
    vertex -0.139416 -0.139182 -0.250000
  endloop
endfacet
facet normal -0.000070 -0.000015 0.000000
  outer loop
    vertex -0.139448 -0.139005 0.250000
    vertex -0.139477 -0.138865 0.250000
    vertex -0.139477 -0.138865 -0.250000
  endloop
endfacet
facet normal -0.000070 -0.000015 -0.000000
  outer loop
    vertex -0.139448 -0.139005 0.250000
    vertex -0.139477 -0.138865 -0.250000
    vertex -0.139448 -0.139005 -0.250000
  endloop
endfacet
facet normal -0.000077 -0.000017 0.000000
  outer loop
    vertex -0.139477 -0.138865 0.250000
    vertex -0.139512 -0.138711 0.250000
    vertex -0.139512 -0.138711 -0.250000
  endloop
endfacet
facet normal -0.000077 -0.000017 -0.000000
  outer loop
    vertex -0.139477 -0.138865 0.250000
    vertex -0.139512 -0.138711 -0.250000
    vertex -0.139477 -0.138865 -0.250000
  endloop
endfacet
facet normal -0.000081 -0.000020 0.000000
  outer loop
    vertex -0.139512 -0.138711 0.250000
    vertex -0.139551 -0.138549 0.250000
    vertex -0.139551 -0.138549 -0.250000
  endloop
endfacet
facet normal -0.000081 -0.000020 -0.000000
  outer loop
    vertex -0.139512 -0.138711 0.250000
    vertex -0.139551 -0.138549 -0.250000
    vertex -0.139512 -0.138711 -0.250000
  endloop
endfacet
facet normal -0.000080 -0.000022 0.000000
  outer loop
    vertex -0.139551 -0.138549 0.250000
    vertex -0.139595 -0.138388 0.250000
    vertex -0.139595 -0.138388 -0.250000
  endloop
endfacet
facet normal -0.000080 -0.000022 -0.000000
  outer loop
    vertex -0.139551 -0.138549 0.250000
    vertex -0.139595 -0.138388 -0.250000
    vertex -0.139551 -0.138549 -0.250000
  endloop
endfacet
facet normal -0.000090 -0.000026 0.000000
  outer loop
    vertex -0.139595 -0.138388 0.250000
    vertex -0.139647 -0.138209 0.250000
    vertex -0.139647 -0.138209 -0.250000
  endloop
endfacet
facet normal -0.000090 -0.000026 -0.000000
  outer loop
    vertex -0.139595 -0.138388 0.250000
    vertex -0.139647 -0.138209 -0.250000
    vertex -0.139595 -0.138388 -0.250000
  endloop
endfacet
facet normal -0.000075 -0.000023 0.000000
  outer loop
    vertex -0.139647 -0.138209 0.250000
    vertex -0.139693 -0.138058 0.250000
    vertex -0.139693 -0.138058 -0.250000
  endloop
endfacet
facet normal -0.000075 -0.000023 -0.000000
  outer loop
    vertex -0.139647 -0.138209 0.250000
    vertex -0.139693 -0.138058 -0.250000
    vertex -0.139647 -0.138209 -0.250000
  endloop
endfacet
facet normal -0.000065 -0.000021 0.000000
  outer loop
    vertex -0.139693 -0.138058 0.250000
    vertex -0.139735 -0.137927 0.250000
    vertex -0.139735 -0.137927 -0.250000
  endloop
endfacet
facet normal -0.000065 -0.000021 -0.000000
  outer loop
    vertex -0.139693 -0.138058 0.250000
    vertex -0.139735 -0.137927 -0.250000
    vertex -0.139693 -0.138058 -0.250000
  endloop
endfacet
facet normal -0.000049 -0.000017 0.000000
  outer loop
    vertex -0.139735 -0.137927 0.250000
    vertex -0.139768 -0.137830 0.250000
    vertex -0.139768 -0.137830 -0.250000
  endloop
endfacet
facet normal -0.000049 -0.000017 -0.000000
  outer loop
    vertex -0.139735 -0.137927 0.250000
    vertex -0.139768 -0.137830 -0.250000
    vertex -0.139735 -0.137927 -0.250000
  endloop
endfacet
facet normal -0.000073 -0.000025 0.000000
  outer loop
    vertex -0.139768 -0.137830 0.250000
    vertex -0.139819 -0.137685 0.250000
    vertex -0.139819 -0.137685 -0.250000
  endloop
endfacet
facet normal -0.000073 -0.000025 -0.000000
  outer loop
    vertex -0.139768 -0.137830 0.250000
    vertex -0.139819 -0.137685 -0.250000
    vertex -0.139768 -0.137830 -0.250000
  endloop
endfacet
facet normal -0.000074 -0.000027 0.000000
  outer loop
    vertex -0.139819 -0.137685 0.250000
    vertex -0.139873 -0.137537 0.250000
    vertex -0.139873 -0.137537 -0.250000
  endloop
endfacet
facet normal -0.000074 -0.000027 -0.000000
  outer loop
    vertex -0.139819 -0.137685 0.250000
    vertex -0.139873 -0.137537 -0.250000
    vertex -0.139819 -0.137685 -0.250000
  endloop
endfacet
facet normal -0.000060 -0.000022 0.000000
  outer loop
    vertex -0.139873 -0.137537 0.250000
    vertex -0.139918 -0.137417 0.250000
    vertex -0.139918 -0.137417 -0.250000
  endloop
endfacet
facet normal -0.000060 -0.000022 -0.000000
  outer loop
    vertex -0.139873 -0.137537 0.250000
    vertex -0.139918 -0.137417 -0.250000
    vertex -0.139873 -0.137537 -0.250000
  endloop
endfacet
facet normal -0.000077 -0.000030 0.000000
  outer loop
    vertex -0.139918 -0.137417 0.250000
    vertex -0.139978 -0.137264 0.250000
    vertex -0.139978 -0.137264 -0.250000
  endloop
endfacet
facet normal -0.000077 -0.000030 -0.000000
  outer loop
    vertex -0.139918 -0.137417 0.250000
    vertex -0.139978 -0.137264 -0.250000
    vertex -0.139918 -0.137417 -0.250000
  endloop
endfacet
facet normal -0.000082 -0.000033 0.000000
  outer loop
    vertex -0.139978 -0.137264 0.250000
    vertex -0.140044 -0.137101 0.250000
    vertex -0.140044 -0.137101 -0.250000
  endloop
endfacet
facet normal -0.000082 -0.000033 -0.000000
  outer loop
    vertex -0.139978 -0.137264 0.250000
    vertex -0.140044 -0.137101 -0.250000
    vertex -0.139978 -0.137264 -0.250000
  endloop
endfacet
facet normal -0.000091 -0.000038 0.000000
  outer loop
    vertex -0.140044 -0.137101 0.250000
    vertex -0.140120 -0.136919 0.250000
    vertex -0.140120 -0.136919 -0.250000
  endloop
endfacet
facet normal -0.000091 -0.000038 -0.000000
  outer loop
    vertex -0.140044 -0.137101 0.250000
    vertex -0.140120 -0.136919 -0.250000
    vertex -0.140044 -0.137101 -0.250000
  endloop
endfacet
facet normal -0.000208 -0.000092 0.000000
  outer loop
    vertex -0.140120 -0.136919 0.250000
    vertex -0.140305 -0.136502 0.250000
    vertex -0.140305 -0.136502 -0.250000
  endloop
endfacet
facet normal -0.000208 -0.000092 -0.000000
  outer loop
    vertex -0.140120 -0.136919 0.250000
    vertex -0.140305 -0.136502 -0.250000
    vertex -0.140120 -0.136919 -0.250000
  endloop
endfacet
facet normal 0.000124 0.000056 0.000000
  outer loop
    vertex -0.140305 -0.136502 0.250000
    vertex -0.140194 -0.136750 0.250000
    vertex -0.140194 -0.136750 -0.250000
  endloop
endfacet
facet normal 0.000124 0.000056 0.000000
  outer loop
    vertex -0.140305 -0.136502 0.250000
    vertex -0.140194 -0.136750 -0.250000
    vertex -0.140305 -0.136502 -0.250000
  endloop
endfacet
facet normal -0.000266 -0.000122 0.000000
  outer loop
    vertex -0.140194 -0.136750 0.250000
    vertex -0.140438 -0.136218 0.250000
    vertex -0.140438 -0.136218 -0.250000
  endloop
endfacet
facet normal -0.000266 -0.000122 -0.000000
  outer loop
    vertex -0.140194 -0.136750 0.250000
    vertex -0.140438 -0.136218 -0.250000
    vertex -0.140194 -0.136750 -0.250000
  endloop
endfacet
facet normal -0.000116 -0.000056 0.000000
  outer loop
    vertex -0.140438 -0.136218 0.250000
    vertex -0.140550 -0.135987 0.250000
    vertex -0.140550 -0.135987 -0.250000
  endloop
endfacet
facet normal -0.000116 -0.000056 -0.000000
  outer loop
    vertex -0.140438 -0.136218 0.250000
    vertex -0.140550 -0.135987 -0.250000
    vertex -0.140438 -0.136218 -0.250000
  endloop
endfacet
facet normal -0.000087 -0.000043 0.000000
  outer loop
    vertex -0.140550 -0.135987 0.250000
    vertex -0.140636 -0.135814 0.250000
    vertex -0.140636 -0.135814 -0.250000
  endloop
endfacet
facet normal -0.000087 -0.000043 -0.000000
  outer loop
    vertex -0.140550 -0.135987 0.250000
    vertex -0.140636 -0.135814 -0.250000
    vertex -0.140550 -0.135987 -0.250000
  endloop
endfacet
facet normal -0.000078 -0.000039 0.000000
  outer loop
    vertex -0.140636 -0.135814 0.250000
    vertex -0.140715 -0.135657 0.250000
    vertex -0.140715 -0.135657 -0.250000
  endloop
endfacet
facet normal -0.000078 -0.000039 -0.000000
  outer loop
    vertex -0.140636 -0.135814 0.250000
    vertex -0.140715 -0.135657 -0.250000
    vertex -0.140636 -0.135814 -0.250000
  endloop
endfacet
facet normal -0.000100 -0.000052 0.000000
  outer loop
    vertex -0.140715 -0.135657 0.250000
    vertex -0.140818 -0.135458 0.250000
    vertex -0.140818 -0.135458 -0.250000
  endloop
endfacet
facet normal -0.000100 -0.000052 -0.000000
  outer loop
    vertex -0.140715 -0.135657 0.250000
    vertex -0.140818 -0.135458 -0.250000
    vertex -0.140715 -0.135657 -0.250000
  endloop
endfacet
facet normal -0.000069 -0.000037 0.000000
  outer loop
    vertex -0.140818 -0.135458 0.250000
    vertex -0.140891 -0.135319 0.250000
    vertex -0.140891 -0.135319 -0.250000
  endloop
endfacet
facet normal -0.000069 -0.000037 -0.000000
  outer loop
    vertex -0.140818 -0.135458 0.250000
    vertex -0.140891 -0.135319 -0.250000
    vertex -0.140818 -0.135458 -0.250000
  endloop
endfacet
facet normal -0.000057 -0.000031 0.000000
  outer loop
    vertex -0.140891 -0.135319 0.250000
    vertex -0.140952 -0.135205 0.250000
    vertex -0.140952 -0.135205 -0.250000
  endloop
endfacet
facet normal -0.000057 -0.000031 -0.000000
  outer loop
    vertex -0.140891 -0.135319 0.250000
    vertex -0.140952 -0.135205 -0.250000
    vertex -0.140891 -0.135319 -0.250000
  endloop
endfacet
facet normal -0.000059 -0.000032 0.000000
  outer loop
    vertex -0.140952 -0.135205 0.250000
    vertex -0.141016 -0.135087 0.250000
    vertex -0.141016 -0.135087 -0.250000
  endloop
endfacet
facet normal -0.000059 -0.000032 -0.000000
  outer loop
    vertex -0.140952 -0.135205 0.250000
    vertex -0.141016 -0.135087 -0.250000
    vertex -0.140952 -0.135205 -0.250000
  endloop
endfacet
facet normal -0.000079 -0.000043 0.000000
  outer loop
    vertex -0.141016 -0.135087 0.250000
    vertex -0.141102 -0.134929 0.250000
    vertex -0.141102 -0.134929 -0.250000
  endloop
endfacet
facet normal -0.000079 -0.000043 -0.000000
  outer loop
    vertex -0.141016 -0.135087 0.250000
    vertex -0.141102 -0.134929 -0.250000
    vertex -0.141016 -0.135087 -0.250000
  endloop
endfacet
facet normal -0.000059 -0.000033 0.000000
  outer loop
    vertex -0.141102 -0.134929 0.250000
    vertex -0.141168 -0.134812 0.250000
    vertex -0.141168 -0.134812 -0.250000
  endloop
endfacet
facet normal -0.000059 -0.000033 -0.000000
  outer loop
    vertex -0.141102 -0.134929 0.250000
    vertex -0.141168 -0.134812 -0.250000
    vertex -0.141102 -0.134929 -0.250000
  endloop
endfacet
facet normal -0.000117 -0.000066 0.000000
  outer loop
    vertex -0.141168 -0.134812 0.250000
    vertex -0.141299 -0.134579 0.250000
    vertex -0.141299 -0.134579 -0.250000
  endloop
endfacet
facet normal -0.000117 -0.000066 -0.000000
  outer loop
    vertex -0.141168 -0.134812 0.250000
    vertex -0.141299 -0.134579 -0.250000
    vertex -0.141168 -0.134812 -0.250000
  endloop
endfacet
facet normal -0.000162 -0.000094 0.000000
  outer loop
    vertex -0.141299 -0.134579 0.250000
    vertex -0.141486 -0.134255 0.250000
    vertex -0.141486 -0.134255 -0.250000
  endloop
endfacet
facet normal -0.000162 -0.000094 -0.000000
  outer loop
    vertex -0.141299 -0.134579 0.250000
    vertex -0.141486 -0.134255 -0.250000
    vertex -0.141299 -0.134579 -0.250000
  endloop
endfacet
facet normal -0.000211 -0.000126 0.000000
  outer loop
    vertex -0.141486 -0.134255 0.250000
    vertex -0.141738 -0.133832 0.250000
    vertex -0.141738 -0.133832 -0.250000
  endloop
endfacet
facet normal -0.000211 -0.000126 -0.000000
  outer loop
    vertex -0.141486 -0.134255 0.250000
    vertex -0.141738 -0.133832 -0.250000
    vertex -0.141486 -0.134255 -0.250000
  endloop
endfacet
facet normal -0.000244 -0.000151 0.000000
  outer loop
    vertex -0.141738 -0.133832 0.250000
    vertex -0.142039 -0.133344 0.250000
    vertex -0.142039 -0.133344 -0.250000
  endloop
endfacet
facet normal -0.000244 -0.000151 -0.000000
  outer loop
    vertex -0.141738 -0.133832 0.250000
    vertex -0.142039 -0.133344 -0.250000
    vertex -0.141738 -0.133832 -0.250000
  endloop
endfacet
facet normal -0.000132 -0.000084 0.000000
  outer loop
    vertex -0.142039 -0.133344 0.250000
    vertex -0.142207 -0.133080 0.250000
    vertex -0.142207 -0.133080 -0.250000
  endloop
endfacet
facet normal -0.000132 -0.000084 -0.000000
  outer loop
    vertex -0.142039 -0.133344 0.250000
    vertex -0.142207 -0.133080 -0.250000
    vertex -0.142039 -0.133344 -0.250000
  endloop
endfacet
facet normal -0.000276 -0.000179 0.000000
  outer loop
    vertex -0.142207 -0.133080 0.250000
    vertex -0.142565 -0.132528 0.250000
    vertex -0.142565 -0.132528 -0.250000
  endloop
endfacet
facet normal -0.000276 -0.000179 -0.000000
  outer loop
    vertex -0.142207 -0.133080 0.250000
    vertex -0.142565 -0.132528 -0.250000
    vertex -0.142207 -0.133080 -0.250000
  endloop
endfacet
facet normal -0.000228 -0.000153 0.000000
  outer loop
    vertex -0.142565 -0.132528 0.250000
    vertex -0.142872 -0.132071 0.250000
    vertex -0.142872 -0.132071 -0.250000
  endloop
endfacet
facet normal -0.000228 -0.000153 -0.000000
  outer loop
    vertex -0.142565 -0.132528 0.250000
    vertex -0.142872 -0.132071 -0.250000
    vertex -0.142565 -0.132528 -0.250000
  endloop
endfacet
facet normal -0.000227 -0.000155 0.000000
  outer loop
    vertex -0.142872 -0.132071 0.250000
    vertex -0.143182 -0.131617 0.250000
    vertex -0.143182 -0.131617 -0.250000
  endloop
endfacet
facet normal -0.000227 -0.000155 -0.000000
  outer loop
    vertex -0.142872 -0.132071 0.250000
    vertex -0.143182 -0.131617 -0.250000
    vertex -0.142872 -0.132071 -0.250000
  endloop
endfacet
facet normal -0.000155 -0.000109 0.000000
  outer loop
    vertex -0.143182 -0.131617 0.250000
    vertex -0.143399 -0.131307 0.250000
    vertex -0.143399 -0.131307 -0.250000
  endloop
endfacet
facet normal -0.000155 -0.000109 -0.000000
  outer loop
    vertex -0.143182 -0.131617 0.250000
    vertex -0.143399 -0.131307 -0.250000
    vertex -0.143182 -0.131617 -0.250000
  endloop
endfacet
facet normal -0.000157 -0.000112 0.000000
  outer loop
    vertex -0.143399 -0.131307 0.250000
    vertex -0.143622 -0.130993 0.250000
    vertex -0.143622 -0.130993 -0.250000
  endloop
endfacet
facet normal -0.000157 -0.000112 -0.000000
  outer loop
    vertex -0.143399 -0.131307 0.250000
    vertex -0.143622 -0.130993 -0.250000
    vertex -0.143399 -0.131307 -0.250000
  endloop
endfacet
facet normal -0.000187 -0.000135 0.000000
  outer loop
    vertex -0.143622 -0.130993 0.250000
    vertex -0.143893 -0.130619 0.250000
    vertex -0.143893 -0.130619 -0.250000
  endloop
endfacet
facet normal -0.000187 -0.000135 -0.000000
  outer loop
    vertex -0.143622 -0.130993 0.250000
    vertex -0.143893 -0.130619 -0.250000
    vertex -0.143622 -0.130993 -0.250000
  endloop
endfacet
facet normal -0.000177 -0.000129 0.000000
  outer loop
    vertex -0.143893 -0.130619 0.250000
    vertex -0.144151 -0.130265 0.250000
    vertex -0.144151 -0.130265 -0.250000
  endloop
endfacet
facet normal -0.000177 -0.000129 -0.000000
  outer loop
    vertex -0.143893 -0.130619 0.250000
    vertex -0.144151 -0.130265 -0.250000
    vertex -0.143893 -0.130619 -0.250000
  endloop
endfacet
facet normal -0.000203 -0.000152 0.000000
  outer loop
    vertex -0.144151 -0.130265 0.250000
    vertex -0.144454 -0.129858 0.250000
    vertex -0.144454 -0.129858 -0.250000
  endloop
endfacet
facet normal -0.000203 -0.000152 -0.000000
  outer loop
    vertex -0.144151 -0.130265 0.250000
    vertex -0.144454 -0.129858 -0.250000
    vertex -0.144151 -0.130265 -0.250000
  endloop
endfacet
facet normal -0.000228 -0.000173 0.000000
  outer loop
    vertex -0.144454 -0.129858 0.250000
    vertex -0.144801 -0.129401 0.250000
    vertex -0.144801 -0.129401 -0.250000
  endloop
endfacet
facet normal -0.000228 -0.000173 -0.000000
  outer loop
    vertex -0.144454 -0.129858 0.250000
    vertex -0.144801 -0.129401 -0.250000
    vertex -0.144454 -0.129858 -0.250000
  endloop
endfacet
facet normal -0.000251 -0.000193 0.000000
  outer loop
    vertex -0.144801 -0.129401 0.250000
    vertex -0.145188 -0.128899 0.250000
    vertex -0.145188 -0.128899 -0.250000
  endloop
endfacet
facet normal -0.000251 -0.000193 -0.000000
  outer loop
    vertex -0.144801 -0.129401 0.250000
    vertex -0.145188 -0.128899 -0.250000
    vertex -0.144801 -0.129401 -0.250000
  endloop
endfacet
facet normal -0.000156 -0.000122 0.000000
  outer loop
    vertex -0.145188 -0.128899 0.250000
    vertex -0.145432 -0.128588 0.250000
    vertex -0.145432 -0.128588 -0.250000
  endloop
endfacet
facet normal -0.000156 -0.000122 -0.000000
  outer loop
    vertex -0.145188 -0.128899 0.250000
    vertex -0.145432 -0.128588 -0.250000
    vertex -0.145188 -0.128899 -0.250000
  endloop
endfacet
facet normal -0.000175 -0.000139 0.000000
  outer loop
    vertex -0.145432 -0.128588 0.250000
    vertex -0.145710 -0.128237 0.250000
    vertex -0.145710 -0.128237 -0.250000
  endloop
endfacet
facet normal -0.000175 -0.000139 -0.000000
  outer loop
    vertex -0.145432 -0.128588 0.250000
    vertex -0.145710 -0.128237 -0.250000
    vertex -0.145432 -0.128588 -0.250000
  endloop
endfacet
facet normal -0.000174 -0.000140 0.000000
  outer loop
    vertex -0.145710 -0.128237 0.250000
    vertex -0.145989 -0.127889 0.250000
    vertex -0.145989 -0.127889 -0.250000
  endloop
endfacet
facet normal -0.000174 -0.000140 -0.000000
  outer loop
    vertex -0.145710 -0.128237 0.250000
    vertex -0.145989 -0.127889 -0.250000
    vertex -0.145710 -0.128237 -0.250000
  endloop
endfacet
facet normal -0.000186 -0.000151 0.000000
  outer loop
    vertex -0.145989 -0.127889 0.250000
    vertex -0.146291 -0.127516 0.250000
    vertex -0.146291 -0.127516 -0.250000
  endloop
endfacet
facet normal -0.000186 -0.000151 -0.000000
  outer loop
    vertex -0.145989 -0.127889 0.250000
    vertex -0.146291 -0.127516 -0.250000
    vertex -0.145989 -0.127889 -0.250000
  endloop
endfacet
facet normal -0.000276 -0.000227 0.000000
  outer loop
    vertex -0.146291 -0.127516 0.250000
    vertex -0.146744 -0.126965 0.250000
    vertex -0.146744 -0.126965 -0.250000
  endloop
endfacet
facet normal -0.000276 -0.000227 -0.000000
  outer loop
    vertex -0.146291 -0.127516 0.250000
    vertex -0.146744 -0.126965 -0.250000
    vertex -0.146291 -0.127516 -0.250000
  endloop
endfacet
facet normal -0.000199 -0.000166 0.000000
  outer loop
    vertex -0.146744 -0.126965 0.250000
    vertex -0.147076 -0.126568 0.250000
    vertex -0.147076 -0.126568 -0.250000
  endloop
endfacet
facet normal -0.000199 -0.000166 -0.000000
  outer loop
    vertex -0.146744 -0.126965 0.250000
    vertex -0.147076 -0.126568 -0.250000
    vertex -0.146744 -0.126965 -0.250000
  endloop
endfacet
facet normal -0.000097 -0.000081 0.000000
  outer loop
    vertex -0.147076 -0.126568 0.250000
    vertex -0.147238 -0.126374 0.250000
    vertex -0.147238 -0.126374 -0.250000
  endloop
endfacet
facet normal -0.000097 -0.000081 -0.000000
  outer loop
    vertex -0.147076 -0.126568 0.250000
    vertex -0.147238 -0.126374 -0.250000
    vertex -0.147076 -0.126568 -0.250000
  endloop
endfacet
facet normal -0.000125 -0.000106 0.000000
  outer loop
    vertex -0.147238 -0.126374 0.250000
    vertex -0.147450 -0.126123 0.250000
    vertex -0.147450 -0.126123 -0.250000
  endloop
endfacet
facet normal -0.000125 -0.000106 -0.000000
  outer loop
    vertex -0.147238 -0.126374 0.250000
    vertex -0.147450 -0.126123 -0.250000
    vertex -0.147238 -0.126374 -0.250000
  endloop
endfacet
facet normal -0.000106 -0.000090 0.000000
  outer loop
    vertex -0.147450 -0.126123 0.250000
    vertex -0.147630 -0.125911 0.250000
    vertex -0.147630 -0.125911 -0.250000
  endloop
endfacet
facet normal -0.000106 -0.000090 -0.000000
  outer loop
    vertex -0.147450 -0.126123 0.250000
    vertex -0.147630 -0.125911 -0.250000
    vertex -0.147450 -0.126123 -0.250000
  endloop
endfacet
facet normal -0.000235 -0.000202 0.000000
  outer loop
    vertex -0.147630 -0.125911 0.250000
    vertex -0.148034 -0.125441 0.250000
    vertex -0.148034 -0.125441 -0.250000
  endloop
endfacet
facet normal -0.000235 -0.000202 -0.000000
  outer loop
    vertex -0.147630 -0.125911 0.250000
    vertex -0.148034 -0.125441 -0.250000
    vertex -0.147630 -0.125911 -0.250000
  endloop
endfacet
facet normal -0.000333 -0.000289 0.000000
  outer loop
    vertex -0.148034 -0.125441 0.250000
    vertex -0.148612 -0.124776 0.250000
    vertex -0.148612 -0.124776 -0.250000
  endloop
endfacet
facet normal -0.000333 -0.000289 -0.000000
  outer loop
    vertex -0.148034 -0.125441 0.250000
    vertex -0.148612 -0.124776 -0.250000
    vertex -0.148034 -0.125441 -0.250000
  endloop
endfacet
facet normal -0.000723 -0.000645 0.000000
  outer loop
    vertex -0.148612 -0.124776 0.250000
    vertex -0.149902 -0.123330 0.250000
    vertex -0.149902 -0.123330 -0.250000
  endloop
endfacet
facet normal -0.000723 -0.000645 -0.000000
  outer loop
    vertex -0.148612 -0.124776 0.250000
    vertex -0.149902 -0.123330 -0.250000
    vertex -0.148612 -0.124776 -0.250000
  endloop
endfacet
facet normal -0.000542 -0.000495 0.000000
  outer loop
    vertex -0.149902 -0.123330 0.250000
    vertex -0.150892 -0.122247 0.250000
    vertex -0.150892 -0.122247 -0.250000
  endloop
endfacet
facet normal -0.000542 -0.000495 -0.000000
  outer loop
    vertex -0.149902 -0.123330 0.250000
    vertex -0.150892 -0.122247 -0.250000
    vertex -0.149902 -0.123330 -0.250000
  endloop
endfacet
facet normal -0.000642 -0.000601 0.000000
  outer loop
    vertex -0.150892 -0.122247 0.250000
    vertex -0.152093 -0.120963 0.250000
    vertex -0.152093 -0.120963 -0.250000
  endloop
endfacet
facet normal -0.000642 -0.000601 -0.000000
  outer loop
    vertex -0.150892 -0.122247 0.250000
    vertex -0.152093 -0.120963 -0.250000
    vertex -0.150892 -0.122247 -0.250000
  endloop
endfacet
facet normal -0.001170 -0.001127 0.000000
  outer loop
    vertex -0.152093 -0.120963 0.250000
    vertex -0.154348 -0.118622 0.250000
    vertex -0.154348 -0.118622 -0.250000
  endloop
endfacet
facet normal -0.001170 -0.001127 -0.000000
  outer loop
    vertex -0.152093 -0.120963 0.250000
    vertex -0.154348 -0.118622 -0.250000
    vertex -0.152093 -0.120963 -0.250000
  endloop
endfacet
facet normal 0.000495 0.000481 0.000000
  outer loop
    vertex -0.154348 -0.118622 0.250000
    vertex -0.153385 -0.119611 0.250000
    vertex -0.153385 -0.119611 -0.250000
  endloop
endfacet
facet normal 0.000495 0.000481 0.000000
  outer loop
    vertex -0.154348 -0.118622 0.250000
    vertex -0.153385 -0.119611 -0.250000
    vertex -0.154348 -0.118622 -0.250000
  endloop
endfacet
facet normal -0.001139 -0.001118 0.000000
  outer loop
    vertex -0.153385 -0.119611 0.250000
    vertex -0.155621 -0.117333 0.250000
    vertex -0.155621 -0.117333 -0.250000
  endloop
endfacet
facet normal -0.001139 -0.001118 -0.000000
  outer loop
    vertex -0.153385 -0.119611 0.250000
    vertex -0.155621 -0.117333 -0.250000
    vertex -0.153385 -0.119611 -0.250000
  endloop
endfacet
facet normal -0.000578 -0.000579 0.000000
  outer loop
    vertex -0.155621 -0.117333 0.250000
    vertex -0.156780 -0.116178 0.250000
    vertex -0.156780 -0.116178 -0.250000
  endloop
endfacet
facet normal -0.000578 -0.000579 -0.000000
  outer loop
    vertex -0.155621 -0.117333 0.250000
    vertex -0.156780 -0.116178 -0.250000
    vertex -0.155621 -0.117333 -0.250000
  endloop
endfacet
facet normal -0.000671 -0.000682 0.000000
  outer loop
    vertex -0.156780 -0.116178 0.250000
    vertex -0.158144 -0.114836 0.250000
    vertex -0.158144 -0.114836 -0.250000
  endloop
endfacet
facet normal -0.000671 -0.000682 -0.000000
  outer loop
    vertex -0.156780 -0.116178 0.250000
    vertex -0.158144 -0.114836 -0.250000
    vertex -0.156780 -0.116178 -0.250000
  endloop
endfacet
facet normal -0.000812 -0.000839 0.000000
  outer loop
    vertex -0.158144 -0.114836 0.250000
    vertex -0.159823 -0.113213 0.250000
    vertex -0.159823 -0.113213 -0.250000
  endloop
endfacet
facet normal -0.000812 -0.000839 -0.000000
  outer loop
    vertex -0.158144 -0.114836 0.250000
    vertex -0.159823 -0.113213 -0.250000
    vertex -0.158144 -0.114836 -0.250000
  endloop
endfacet
facet normal -0.000822 -0.000864 0.000000
  outer loop
    vertex -0.159823 -0.113213 0.250000
    vertex -0.161550 -0.111569 0.250000
    vertex -0.161550 -0.111569 -0.250000
  endloop
endfacet
facet normal -0.000822 -0.000864 -0.000000
  outer loop
    vertex -0.159823 -0.113213 0.250000
    vertex -0.161550 -0.111569 -0.250000
    vertex -0.159823 -0.113213 -0.250000
  endloop
endfacet
facet normal -0.000651 -0.000695 0.000000
  outer loop
    vertex -0.161550 -0.111569 0.250000
    vertex -0.162939 -0.110267 0.250000
    vertex -0.162939 -0.110267 -0.250000
  endloop
endfacet
facet normal -0.000651 -0.000695 -0.000000
  outer loop
    vertex -0.161550 -0.111569 0.250000
    vertex -0.162939 -0.110267 -0.250000
    vertex -0.161550 -0.111569 -0.250000
  endloop
endfacet
facet normal -0.000400 -0.000431 0.000000
  outer loop
    vertex -0.162939 -0.110267 0.250000
    vertex -0.163801 -0.109467 0.250000
    vertex -0.163801 -0.109467 -0.250000
  endloop
endfacet
facet normal -0.000400 -0.000431 -0.000000
  outer loop
    vertex -0.162939 -0.110267 0.250000
    vertex -0.163801 -0.109467 -0.250000
    vertex -0.162939 -0.110267 -0.250000
  endloop
endfacet
facet normal -0.000398 -0.000432 0.000000
  outer loop
    vertex -0.163801 -0.109467 0.250000
    vertex -0.164665 -0.108670 0.250000
    vertex -0.164665 -0.108670 -0.250000
  endloop
endfacet
facet normal -0.000398 -0.000432 -0.000000
  outer loop
    vertex -0.163801 -0.109467 0.250000
    vertex -0.164665 -0.108670 -0.250000
    vertex -0.163801 -0.109467 -0.250000
  endloop
endfacet
facet normal -0.000448 -0.000491 0.000000
  outer loop
    vertex -0.164665 -0.108670 0.250000
    vertex -0.165646 -0.107774 0.250000
    vertex -0.165646 -0.107774 -0.250000
  endloop
endfacet
facet normal -0.000448 -0.000491 -0.000000
  outer loop
    vertex -0.164665 -0.108670 0.250000
    vertex -0.165646 -0.107774 -0.250000
    vertex -0.164665 -0.108670 -0.250000
  endloop
endfacet
facet normal -0.000587 -0.000648 0.000000
  outer loop
    vertex -0.165646 -0.107774 0.250000
    vertex -0.166943 -0.106601 0.250000
    vertex -0.166943 -0.106601 -0.250000
  endloop
endfacet
facet normal -0.000587 -0.000648 -0.000000
  outer loop
    vertex -0.165646 -0.107774 0.250000
    vertex -0.166943 -0.106601 -0.250000
    vertex -0.165646 -0.107774 -0.250000
  endloop
endfacet
facet normal -0.000571 -0.000638 0.000000
  outer loop
    vertex -0.166943 -0.106601 0.250000
    vertex -0.168218 -0.105459 0.250000
    vertex -0.168218 -0.105459 -0.250000
  endloop
endfacet
facet normal -0.000571 -0.000638 -0.000000
  outer loop
    vertex -0.166943 -0.106601 0.250000
    vertex -0.168218 -0.105459 -0.250000
    vertex -0.166943 -0.106601 -0.250000
  endloop
endfacet
facet normal -0.000571 -0.000647 0.000000
  outer loop
    vertex -0.168218 -0.105459 0.250000
    vertex -0.169513 -0.104316 0.250000
    vertex -0.169513 -0.104316 -0.250000
  endloop
endfacet
facet normal -0.000571 -0.000647 -0.000000
  outer loop
    vertex -0.168218 -0.105459 0.250000
    vertex -0.169513 -0.104316 -0.250000
    vertex -0.168218 -0.105459 -0.250000
  endloop
endfacet
facet normal -0.000303 -0.000348 0.000000
  outer loop
    vertex -0.169513 -0.104316 0.250000
    vertex -0.170209 -0.103710 0.250000
    vertex -0.170209 -0.103710 -0.250000
  endloop
endfacet
facet normal -0.000303 -0.000348 -0.000000
  outer loop
    vertex -0.169513 -0.104316 0.250000
    vertex -0.170209 -0.103710 -0.250000
    vertex -0.169513 -0.104316 -0.250000
  endloop
endfacet
facet normal -0.000179 -0.000206 0.000000
  outer loop
    vertex -0.170209 -0.103710 0.250000
    vertex -0.170620 -0.103353 0.250000
    vertex -0.170620 -0.103353 -0.250000
  endloop
endfacet
facet normal -0.000179 -0.000206 -0.000000
  outer loop
    vertex -0.170209 -0.103710 0.250000
    vertex -0.170620 -0.103353 -0.250000
    vertex -0.170209 -0.103710 -0.250000
  endloop
endfacet
facet normal -0.000148 -0.000171 0.000000
  outer loop
    vertex -0.170620 -0.103353 0.250000
    vertex -0.170963 -0.103056 0.250000
    vertex -0.170963 -0.103056 -0.250000
  endloop
endfacet
facet normal -0.000148 -0.000171 -0.000000
  outer loop
    vertex -0.170620 -0.103353 0.250000
    vertex -0.170963 -0.103056 -0.250000
    vertex -0.170620 -0.103353 -0.250000
  endloop
endfacet
facet normal -0.000115 -0.000133 0.000000
  outer loop
    vertex -0.170963 -0.103056 0.250000
    vertex -0.171228 -0.102826 0.250000
    vertex -0.171228 -0.102826 -0.250000
  endloop
endfacet
facet normal -0.000115 -0.000133 -0.000000
  outer loop
    vertex -0.170963 -0.103056 0.250000
    vertex -0.171228 -0.102826 -0.250000
    vertex -0.170963 -0.103056 -0.250000
  endloop
endfacet
facet normal -0.000113 -0.000131 0.000000
  outer loop
    vertex -0.171228 -0.102826 0.250000
    vertex -0.171490 -0.102600 0.250000
    vertex -0.171490 -0.102600 -0.250000
  endloop
endfacet
facet normal -0.000113 -0.000131 -0.000000
  outer loop
    vertex -0.171228 -0.102826 0.250000
    vertex -0.171490 -0.102600 -0.250000
    vertex -0.171228 -0.102826 -0.250000
  endloop
endfacet
facet normal 0.000802 -0.000014 0.000000
  outer loop
    vertex -0.182311 -0.047930 0.250000
    vertex -0.182339 -0.049534 0.250000
    vertex -0.182339 -0.049534 -0.250000
  endloop
endfacet
facet normal 0.000802 -0.000014 0.000000
  outer loop
    vertex -0.182311 -0.047930 0.250000
    vertex -0.182339 -0.049534 -0.250000
    vertex -0.182311 -0.047930 -0.250000
  endloop
endfacet
facet normal 0.000780 -0.000010 0.000000
  outer loop
    vertex -0.182339 -0.049534 0.250000
    vertex -0.182360 -0.051094 0.250000
    vertex -0.182360 -0.051094 -0.250000
  endloop
endfacet
facet normal 0.000780 -0.000010 0.000000
  outer loop
    vertex -0.182339 -0.049534 0.250000
    vertex -0.182360 -0.051094 -0.250000
    vertex -0.182339 -0.049534 -0.250000
  endloop
endfacet
facet normal 0.000762 -0.000004 0.000000
  outer loop
    vertex -0.182360 -0.051094 0.250000
    vertex -0.182368 -0.052619 0.250000
    vertex -0.182368 -0.052619 -0.250000
  endloop
endfacet
facet normal 0.000762 -0.000004 0.000000
  outer loop
    vertex -0.182360 -0.051094 0.250000
    vertex -0.182368 -0.052619 -0.250000
    vertex -0.182360 -0.051094 -0.250000
  endloop
endfacet
facet normal 0.000790 -0.000001 0.000000
  outer loop
    vertex -0.182368 -0.052619 0.250000
    vertex -0.182370 -0.054198 0.250000
    vertex -0.182370 -0.054198 -0.250000
  endloop
endfacet
facet normal 0.000790 -0.000001 0.000000
  outer loop
    vertex -0.182368 -0.052619 0.250000
    vertex -0.182370 -0.054198 -0.250000
    vertex -0.182368 -0.052619 -0.250000
  endloop
endfacet
facet normal 0.001092 0.000006 0.000000
  outer loop
    vertex -0.182370 -0.054198 0.250000
    vertex -0.182358 -0.056383 0.250000
    vertex -0.182358 -0.056383 -0.250000
  endloop
endfacet
facet normal 0.001092 0.000006 0.000000
  outer loop
    vertex -0.182370 -0.054198 0.250000
    vertex -0.182358 -0.056383 -0.250000
    vertex -0.182370 -0.054198 -0.250000
  endloop
endfacet
facet normal 0.000800 0.000010 0.000000
  outer loop
    vertex -0.182358 -0.056383 0.250000
    vertex -0.182339 -0.057984 0.250000
    vertex -0.182339 -0.057984 -0.250000
  endloop
endfacet
facet normal 0.000800 0.000010 0.000000
  outer loop
    vertex -0.182358 -0.056383 0.250000
    vertex -0.182339 -0.057984 -0.250000
    vertex -0.182358 -0.056383 -0.250000
  endloop
endfacet
facet normal 0.000928 0.000016 0.000000
  outer loop
    vertex -0.182339 -0.057984 0.250000
    vertex -0.182307 -0.059839 0.250000
    vertex -0.182307 -0.059839 -0.250000
  endloop
endfacet
facet normal 0.000928 0.000016 0.000000
  outer loop
    vertex -0.182339 -0.057984 0.250000
    vertex -0.182307 -0.059839 -0.250000
    vertex -0.182339 -0.057984 -0.250000
  endloop
endfacet
facet normal 0.000707 0.000016 0.000000
  outer loop
    vertex -0.182307 -0.059839 0.250000
    vertex -0.182274 -0.061254 0.250000
    vertex -0.182274 -0.061254 -0.250000
  endloop
endfacet
facet normal 0.000707 0.000016 0.000000
  outer loop
    vertex -0.182307 -0.059839 0.250000
    vertex -0.182274 -0.061254 -0.250000
    vertex -0.182307 -0.059839 -0.250000
  endloop
endfacet
facet normal 0.000424 0.000011 0.000000
  outer loop
    vertex -0.182274 -0.061254 0.250000
    vertex -0.182252 -0.062101 0.250000
    vertex -0.182252 -0.062101 -0.250000
  endloop
endfacet
facet normal 0.000424 0.000011 0.000000
  outer loop
    vertex -0.182274 -0.061254 0.250000
    vertex -0.182252 -0.062101 -0.250000
    vertex -0.182274 -0.061254 -0.250000
  endloop
endfacet
facet normal 0.001164 0.000037 0.000000
  outer loop
    vertex -0.182252 -0.062101 0.250000
    vertex -0.182178 -0.064428 0.250000
    vertex -0.182178 -0.064428 -0.250000
  endloop
endfacet
facet normal 0.001164 0.000037 0.000000
  outer loop
    vertex -0.182252 -0.062101 0.250000
    vertex -0.182178 -0.064428 -0.250000
    vertex -0.182252 -0.062101 -0.250000
  endloop
endfacet
facet normal 0.000757 0.000029 0.000000
  outer loop
    vertex -0.182178 -0.064428 0.250000
    vertex -0.182120 -0.065941 0.250000
    vertex -0.182120 -0.065941 -0.250000
  endloop
endfacet
facet normal 0.000757 0.000029 0.000000
  outer loop
    vertex -0.182178 -0.064428 0.250000
    vertex -0.182120 -0.065941 -0.250000
    vertex -0.182178 -0.064428 -0.250000
  endloop
endfacet
facet normal 0.000402 0.000017 0.000000
  outer loop
    vertex -0.182120 -0.065941 0.250000
    vertex -0.182085 -0.066745 0.250000
    vertex -0.182085 -0.066745 -0.250000
  endloop
endfacet
facet normal 0.000402 0.000017 0.000000
  outer loop
    vertex -0.182120 -0.065941 0.250000
    vertex -0.182085 -0.066745 -0.250000
    vertex -0.182120 -0.065941 -0.250000
  endloop
endfacet
facet normal 0.000357 0.000016 0.000000
  outer loop
    vertex -0.182085 -0.066745 0.250000
    vertex -0.182053 -0.067459 0.250000
    vertex -0.182053 -0.067459 -0.250000
  endloop
endfacet
facet normal 0.000357 0.000016 0.000000
  outer loop
    vertex -0.182085 -0.066745 0.250000
    vertex -0.182053 -0.067459 -0.250000
    vertex -0.182085 -0.066745 -0.250000
  endloop
endfacet
facet normal 0.000807 0.000041 0.000000
  outer loop
    vertex -0.182053 -0.067459 0.250000
    vertex -0.181971 -0.069073 0.250000
    vertex -0.181971 -0.069073 -0.250000
  endloop
endfacet
facet normal 0.000807 0.000041 0.000000
  outer loop
    vertex -0.182053 -0.067459 0.250000
    vertex -0.181971 -0.069073 -0.250000
    vertex -0.182053 -0.067459 -0.250000
  endloop
endfacet
facet normal 0.000778 0.000044 0.000000
  outer loop
    vertex -0.181971 -0.069073 0.250000
    vertex -0.181882 -0.070629 0.250000
    vertex -0.181882 -0.070629 -0.250000
  endloop
endfacet
facet normal 0.000778 0.000044 0.000000
  outer loop
    vertex -0.181971 -0.069073 0.250000
    vertex -0.181882 -0.070629 -0.250000
    vertex -0.181971 -0.069073 -0.250000
  endloop
endfacet
facet normal 0.000688 0.000044 0.000000
  outer loop
    vertex -0.181882 -0.070629 0.250000
    vertex -0.181793 -0.072005 0.250000
    vertex -0.181793 -0.072005 -0.250000
  endloop
endfacet
facet normal 0.000688 0.000044 0.000000
  outer loop
    vertex -0.181882 -0.070629 0.250000
    vertex -0.181793 -0.072005 -0.250000
    vertex -0.181882 -0.070629 -0.250000
  endloop
endfacet
facet normal 0.000689 0.000049 0.000000
  outer loop
    vertex -0.181793 -0.072005 0.250000
    vertex -0.181695 -0.073383 0.250000
    vertex -0.181695 -0.073383 -0.250000
  endloop
endfacet
facet normal 0.000689 0.000049 0.000000
  outer loop
    vertex -0.181793 -0.072005 0.250000
    vertex -0.181695 -0.073383 -0.250000
    vertex -0.181793 -0.072005 -0.250000
  endloop
endfacet
facet normal 0.000709 0.000056 0.000000
  outer loop
    vertex -0.181695 -0.073383 0.250000
    vertex -0.181583 -0.074801 0.250000
    vertex -0.181583 -0.074801 -0.250000
  endloop
endfacet
facet normal 0.000709 0.000056 0.000000
  outer loop
    vertex -0.181695 -0.073383 0.250000
    vertex -0.181583 -0.074801 -0.250000
    vertex -0.181695 -0.073383 -0.250000
  endloop
endfacet
facet normal 0.000728 0.000064 0.000000
  outer loop
    vertex -0.181583 -0.074801 0.250000
    vertex -0.181456 -0.076257 0.250000
    vertex -0.181456 -0.076257 -0.250000
  endloop
endfacet
facet normal 0.000728 0.000064 0.000000
  outer loop
    vertex -0.181583 -0.074801 0.250000
    vertex -0.181456 -0.076257 -0.250000
    vertex -0.181583 -0.074801 -0.250000
  endloop
endfacet
facet normal 0.000686 0.000067 0.000000
  outer loop
    vertex -0.181456 -0.076257 0.250000
    vertex -0.181321 -0.077630 0.250000
    vertex -0.181321 -0.077630 -0.250000
  endloop
endfacet
facet normal 0.000686 0.000067 0.000000
  outer loop
    vertex -0.181456 -0.076257 0.250000
    vertex -0.181321 -0.077630 -0.250000
    vertex -0.181456 -0.076257 -0.250000
  endloop
endfacet
facet normal 0.000662 0.000071 0.000000
  outer loop
    vertex -0.181321 -0.077630 0.250000
    vertex -0.181180 -0.078955 0.250000
    vertex -0.181180 -0.078955 -0.250000
  endloop
endfacet
facet normal 0.000662 0.000071 0.000000
  outer loop
    vertex -0.181321 -0.077630 0.250000
    vertex -0.181180 -0.078955 -0.250000
    vertex -0.181321 -0.077630 -0.250000
  endloop
endfacet
facet normal 0.000863 0.000104 0.000000
  outer loop
    vertex -0.181180 -0.078955 0.250000
    vertex -0.180973 -0.080680 0.250000
    vertex -0.180973 -0.080680 -0.250000
  endloop
endfacet
facet normal 0.000863 0.000104 0.000000
  outer loop
    vertex -0.181180 -0.078955 0.250000
    vertex -0.180973 -0.080680 -0.250000
    vertex -0.181180 -0.078955 -0.250000
  endloop
endfacet
facet normal 0.001646 0.000239 0.000000
  outer loop
    vertex -0.180973 -0.080680 0.250000
    vertex -0.180494 -0.083972 0.250000
    vertex -0.180494 -0.083972 -0.250000
  endloop
endfacet
facet normal 0.001646 0.000239 0.000000
  outer loop
    vertex -0.180973 -0.080680 0.250000
    vertex -0.180494 -0.083972 -0.250000
    vertex -0.180973 -0.080680 -0.250000
  endloop
endfacet
facet normal 0.000938 0.000166 0.000000
  outer loop
    vertex -0.180494 -0.083972 0.250000
    vertex -0.180163 -0.085848 0.250000
    vertex -0.180163 -0.085848 -0.250000
  endloop
endfacet
facet normal 0.000938 0.000166 0.000000
  outer loop
    vertex -0.180494 -0.083972 0.250000
    vertex -0.180163 -0.085848 -0.250000
    vertex -0.180494 -0.083972 -0.250000
  endloop
endfacet
facet normal 0.000937 0.000193 0.000000
  outer loop
    vertex -0.180163 -0.085848 0.250000
    vertex -0.179778 -0.087721 0.250000
    vertex -0.179778 -0.087721 -0.250000
  endloop
endfacet
facet normal 0.000937 0.000193 0.000000
  outer loop
    vertex -0.180163 -0.085848 0.250000
    vertex -0.179778 -0.087721 -0.250000
    vertex -0.180163 -0.085848 -0.250000
  endloop
endfacet
facet normal 0.000863 0.000208 0.000000
  outer loop
    vertex -0.179778 -0.087721 0.250000
    vertex -0.179363 -0.089447 0.250000
    vertex -0.179363 -0.089447 -0.250000
  endloop
endfacet
facet normal 0.000863 0.000208 0.000000
  outer loop
    vertex -0.179778 -0.087721 0.250000
    vertex -0.179363 -0.089447 -0.250000
    vertex -0.179778 -0.087721 -0.250000
  endloop
endfacet
facet normal 0.000456 0.000123 0.000000
  outer loop
    vertex -0.179363 -0.089447 0.250000
    vertex -0.179116 -0.090359 0.250000
    vertex -0.179116 -0.090359 -0.250000
  endloop
endfacet
facet normal 0.000456 0.000123 0.000000
  outer loop
    vertex -0.179363 -0.089447 0.250000
    vertex -0.179116 -0.090359 -0.250000
    vertex -0.179363 -0.089447 -0.250000
  endloop
endfacet
facet normal 0.000379 0.000112 0.000000
  outer loop
    vertex -0.179116 -0.090359 0.250000
    vertex -0.178892 -0.091116 0.250000
    vertex -0.178892 -0.091116 -0.250000
  endloop
endfacet
facet normal 0.000379 0.000112 0.000000
  outer loop
    vertex -0.179116 -0.090359 0.250000
    vertex -0.178892 -0.091116 -0.250000
    vertex -0.179116 -0.090359 -0.250000
  endloop
endfacet
facet normal 0.000506 0.000165 0.000000
  outer loop
    vertex -0.178892 -0.091116 0.250000
    vertex -0.178563 -0.092128 0.250000
    vertex -0.178563 -0.092128 -0.250000
  endloop
endfacet
facet normal 0.000506 0.000165 0.000000
  outer loop
    vertex -0.178892 -0.091116 0.250000
    vertex -0.178563 -0.092128 -0.250000
    vertex -0.178892 -0.091116 -0.250000
  endloop
endfacet
facet normal 0.000438 0.000159 0.000000
  outer loop
    vertex -0.178563 -0.092128 0.250000
    vertex -0.178244 -0.093004 0.250000
    vertex -0.178244 -0.093004 -0.250000
  endloop
endfacet
facet normal 0.000438 0.000159 0.000000
  outer loop
    vertex -0.178563 -0.092128 0.250000
    vertex -0.178244 -0.093004 -0.250000
    vertex -0.178563 -0.092128 -0.250000
  endloop
endfacet
facet normal 0.000228 0.000090 0.000000
  outer loop
    vertex -0.178244 -0.093004 0.250000
    vertex -0.178064 -0.093460 0.250000
    vertex -0.178064 -0.093460 -0.250000
  endloop
endfacet
facet normal 0.000228 0.000090 0.000000
  outer loop
    vertex -0.178244 -0.093004 0.250000
    vertex -0.178064 -0.093460 -0.250000
    vertex -0.178244 -0.093004 -0.250000
  endloop
endfacet
facet normal 0.000279 0.000119 0.000000
  outer loop
    vertex -0.178064 -0.093460 0.250000
    vertex -0.177825 -0.094018 0.250000
    vertex -0.177825 -0.094018 -0.250000
  endloop
endfacet
facet normal 0.000279 0.000119 0.000000
  outer loop
    vertex -0.178064 -0.093460 0.250000
    vertex -0.177825 -0.094018 -0.250000
    vertex -0.178064 -0.093460 -0.250000
  endloop
endfacet
facet normal 0.000294 0.000138 0.000000
  outer loop
    vertex -0.177825 -0.094018 0.250000
    vertex -0.177549 -0.094605 0.250000
    vertex -0.177549 -0.094605 -0.250000
  endloop
endfacet
facet normal 0.000294 0.000138 0.000000
  outer loop
    vertex -0.177825 -0.094018 0.250000
    vertex -0.177549 -0.094605 -0.250000
    vertex -0.177825 -0.094018 -0.250000
  endloop
endfacet
facet normal 0.000289 0.000153 0.000000
  outer loop
    vertex -0.177549 -0.094605 0.250000
    vertex -0.177244 -0.095184 0.250000
    vertex -0.177244 -0.095184 -0.250000
  endloop
endfacet
facet normal 0.000289 0.000153 0.000000
  outer loop
    vertex -0.177549 -0.094605 0.250000
    vertex -0.177244 -0.095184 -0.250000
    vertex -0.177549 -0.094605 -0.250000
  endloop
endfacet
facet normal 0.000198 0.000117 0.000000
  outer loop
    vertex -0.177244 -0.095184 0.250000
    vertex -0.177010 -0.095580 0.250000
    vertex -0.177010 -0.095580 -0.250000
  endloop
endfacet
facet normal 0.000198 0.000117 0.000000
  outer loop
    vertex -0.177244 -0.095184 0.250000
    vertex -0.177010 -0.095580 -0.250000
    vertex -0.177244 -0.095184 -0.250000
  endloop
endfacet
facet normal 0.000189 0.000125 0.000000
  outer loop
    vertex -0.177010 -0.095580 0.250000
    vertex -0.176760 -0.095958 0.250000
    vertex -0.176760 -0.095958 -0.250000
  endloop
endfacet
facet normal 0.000189 0.000125 0.000000
  outer loop
    vertex -0.177010 -0.095580 0.250000
    vertex -0.176760 -0.095958 -0.250000
    vertex -0.177010 -0.095580 -0.250000
  endloop
endfacet
facet normal 0.000205 0.000155 0.000000
  outer loop
    vertex -0.176760 -0.095958 0.250000
    vertex -0.176451 -0.096367 0.250000
    vertex -0.176451 -0.096367 -0.250000
  endloop
endfacet
facet normal 0.000205 0.000155 0.000000
  outer loop
    vertex -0.176760 -0.095958 0.250000
    vertex -0.176451 -0.096367 -0.250000
    vertex -0.176760 -0.095958 -0.250000
  endloop
endfacet
facet normal 0.000179 0.000162 0.000000
  outer loop
    vertex -0.176451 -0.096367 0.250000
    vertex -0.176128 -0.096726 0.250000
    vertex -0.176128 -0.096726 -0.250000
  endloop
endfacet
facet normal 0.000179 0.000162 0.000000
  outer loop
    vertex -0.176451 -0.096367 0.250000
    vertex -0.176128 -0.096726 -0.250000
    vertex -0.176451 -0.096367 -0.250000
  endloop
endfacet
facet normal 0.000134 0.000161 0.000000
  outer loop
    vertex -0.176128 -0.096726 0.250000
    vertex -0.175806 -0.096994 0.250000
    vertex -0.175806 -0.096994 -0.250000
  endloop
endfacet
facet normal 0.000134 0.000161 0.000000
  outer loop
    vertex -0.176128 -0.096726 0.250000
    vertex -0.175806 -0.096994 -0.250000
    vertex -0.176128 -0.096726 -0.250000
  endloop
endfacet
facet normal 0.000140 0.000265 0.000000
  outer loop
    vertex -0.175806 -0.096994 0.250000
    vertex -0.175276 -0.097274 0.250000
    vertex -0.175276 -0.097274 -0.250000
  endloop
endfacet
facet normal 0.000140 0.000265 0.000000
  outer loop
    vertex -0.175806 -0.096994 0.250000
    vertex -0.175276 -0.097274 -0.250000
    vertex -0.175806 -0.096994 -0.250000
  endloop
endfacet
facet normal 0.000035 0.000135 0.000000
  outer loop
    vertex -0.175276 -0.097274 0.250000
    vertex -0.175006 -0.097345 0.250000
    vertex -0.175006 -0.097345 -0.250000
  endloop
endfacet
facet normal 0.000035 0.000135 0.000000
  outer loop
    vertex -0.175276 -0.097274 0.250000
    vertex -0.175006 -0.097345 -0.250000
    vertex -0.175276 -0.097274 -0.250000
  endloop
endfacet
facet normal 0.000007 0.000138 0.000000
  outer loop
    vertex -0.175006 -0.097345 0.250000
    vertex -0.174730 -0.097359 0.250000
    vertex -0.174730 -0.097359 -0.250000
  endloop
endfacet
facet normal 0.000007 0.000138 0.000000
  outer loop
    vertex -0.175006 -0.097345 0.250000
    vertex -0.174730 -0.097359 -0.250000
    vertex -0.175006 -0.097345 -0.250000
  endloop
endfacet
facet normal -0.000062 0.000212 0.000000
  outer loop
    vertex -0.174730 -0.097359 0.250000
    vertex -0.174307 -0.097234 0.250000
    vertex -0.174307 -0.097234 -0.250000
  endloop
endfacet
facet normal -0.000062 0.000212 0.000000
  outer loop
    vertex -0.174730 -0.097359 0.250000
    vertex -0.174307 -0.097234 -0.250000
    vertex -0.174730 -0.097359 -0.250000
  endloop
endfacet
facet normal -0.000106 0.000156 0.000000
  outer loop
    vertex -0.174307 -0.097234 0.250000
    vertex -0.173994 -0.097022 0.250000
    vertex -0.173994 -0.097022 -0.250000
  endloop
endfacet
facet normal -0.000106 0.000156 0.000000
  outer loop
    vertex -0.174307 -0.097234 0.250000
    vertex -0.173994 -0.097022 -0.250000
    vertex -0.174307 -0.097234 -0.250000
  endloop
endfacet
facet normal -0.000179 0.000168 0.000000
  outer loop
    vertex -0.173994 -0.097022 0.250000
    vertex -0.173657 -0.096664 0.250000
    vertex -0.173657 -0.096664 -0.250000
  endloop
endfacet
facet normal -0.000179 0.000168 0.000000
  outer loop
    vertex -0.173994 -0.097022 0.250000
    vertex -0.173657 -0.096664 -0.250000
    vertex -0.173994 -0.097022 -0.250000
  endloop
endfacet
facet normal -0.000176 0.000113 0.000000
  outer loop
    vertex -0.173657 -0.096664 0.250000
    vertex -0.173431 -0.096312 0.250000
    vertex -0.173431 -0.096312 -0.250000
  endloop
endfacet
facet normal -0.000176 0.000113 0.000000
  outer loop
    vertex -0.173657 -0.096664 0.250000
    vertex -0.173431 -0.096312 -0.250000
    vertex -0.173657 -0.096664 -0.250000
  endloop
endfacet
facet normal -0.000461 0.000187 0.000000
  outer loop
    vertex -0.173431 -0.096312 0.250000
    vertex -0.173057 -0.095390 0.250000
    vertex -0.173057 -0.095390 -0.250000
  endloop
endfacet
facet normal -0.000461 0.000187 0.000000
  outer loop
    vertex -0.173431 -0.096312 0.250000
    vertex -0.173057 -0.095390 -0.250000
    vertex -0.173431 -0.096312 -0.250000
  endloop
endfacet
facet normal 0.000241 -0.000086 0.000000
  outer loop
    vertex -0.173057 -0.095390 0.250000
    vertex -0.173229 -0.095873 0.250000
    vertex -0.173229 -0.095873 -0.250000
  endloop
endfacet
facet normal 0.000241 -0.000086 0.000000
  outer loop
    vertex -0.173057 -0.095390 0.250000
    vertex -0.173229 -0.095873 -0.250000
    vertex -0.173057 -0.095390 -0.250000
  endloop
endfacet
facet normal -0.000683 0.000201 0.000000
  outer loop
    vertex -0.173229 -0.095873 0.250000
    vertex -0.172827 -0.094507 0.250000
    vertex -0.172827 -0.094507 -0.250000
  endloop
endfacet
facet normal -0.000683 0.000201 0.000000
  outer loop
    vertex -0.173229 -0.095873 0.250000
    vertex -0.172827 -0.094507 -0.250000
    vertex -0.173229 -0.095873 -0.250000
  endloop
endfacet
facet normal -0.000322 0.000059 0.000000
  outer loop
    vertex -0.172827 -0.094507 0.250000
    vertex -0.172709 -0.093863 0.250000
    vertex -0.172709 -0.093863 -0.250000
  endloop
endfacet
facet normal -0.000322 0.000059 0.000000
  outer loop
    vertex -0.172827 -0.094507 0.250000
    vertex -0.172709 -0.093863 -0.250000
    vertex -0.172827 -0.094507 -0.250000
  endloop
endfacet
facet normal -0.000322 0.000043 0.000000
  outer loop
    vertex -0.172709 -0.093863 0.250000
    vertex -0.172622 -0.093219 0.250000
    vertex -0.172622 -0.093219 -0.250000
  endloop
endfacet
facet normal -0.000322 0.000043 0.000000
  outer loop
    vertex -0.172709 -0.093863 0.250000
    vertex -0.172622 -0.093219 -0.250000
    vertex -0.172709 -0.093863 -0.250000
  endloop
endfacet
facet normal -0.000302 0.000030 0.000000
  outer loop
    vertex -0.172622 -0.093219 0.250000
    vertex -0.172562 -0.092616 0.250000
    vertex -0.172562 -0.092616 -0.250000
  endloop
endfacet
facet normal -0.000302 0.000030 0.000000
  outer loop
    vertex -0.172622 -0.093219 0.250000
    vertex -0.172562 -0.092616 -0.250000
    vertex -0.172622 -0.093219 -0.250000
  endloop
endfacet
facet normal -0.000245 0.000018 0.000000
  outer loop
    vertex -0.172562 -0.092616 0.250000
    vertex -0.172527 -0.092127 0.250000
    vertex -0.172527 -0.092127 -0.250000
  endloop
endfacet
facet normal -0.000245 0.000018 0.000000
  outer loop
    vertex -0.172562 -0.092616 0.250000
    vertex -0.172527 -0.092127 -0.250000
    vertex -0.172562 -0.092616 -0.250000
  endloop
endfacet
facet normal -0.000465 0.000021 0.000000
  outer loop
    vertex -0.172527 -0.092127 0.250000
    vertex -0.172484 -0.091196 0.250000
    vertex -0.172484 -0.091196 -0.250000
  endloop
endfacet
facet normal -0.000465 0.000021 0.000000
  outer loop
    vertex -0.172527 -0.092127 0.250000
    vertex -0.172484 -0.091196 -0.250000
    vertex -0.172527 -0.092127 -0.250000
  endloop
endfacet
facet normal -0.000294 0.000005 0.000000
  outer loop
    vertex -0.172484 -0.091196 0.250000
    vertex -0.172474 -0.090608 0.250000
    vertex -0.172474 -0.090608 -0.250000
  endloop
endfacet
facet normal -0.000294 0.000005 0.000000
  outer loop
    vertex -0.172484 -0.091196 0.250000
    vertex -0.172474 -0.090608 -0.250000
    vertex -0.172484 -0.091196 -0.250000
  endloop
endfacet
facet normal -0.000238 0.000000 0.000000
  outer loop
    vertex -0.172474 -0.090608 0.250000
    vertex -0.172474 -0.090132 0.250000
    vertex -0.172474 -0.090132 -0.250000
  endloop
endfacet
facet normal -0.000238 0.000000 0.000000
  outer loop
    vertex -0.172474 -0.090608 0.250000
    vertex -0.172474 -0.090132 -0.250000
    vertex -0.172474 -0.090608 -0.250000
  endloop
endfacet
facet normal -0.000395 -0.000007 0.000000
  outer loop
    vertex -0.172474 -0.090132 0.250000
    vertex -0.172488 -0.089342 0.250000
    vertex -0.172488 -0.089342 -0.250000
  endloop
endfacet
facet normal -0.000395 -0.000007 -0.000000
  outer loop
    vertex -0.172474 -0.090132 0.250000
    vertex -0.172488 -0.089342 -0.250000
    vertex -0.172474 -0.090132 -0.250000
  endloop
endfacet
facet normal -0.000472 -0.000019 0.000000
  outer loop
    vertex -0.172488 -0.089342 0.250000
    vertex -0.172525 -0.088398 0.250000
    vertex -0.172525 -0.088398 -0.250000
  endloop
endfacet
facet normal -0.000472 -0.000019 -0.000000
  outer loop
    vertex -0.172488 -0.089342 0.250000
    vertex -0.172525 -0.088398 -0.250000
    vertex -0.172488 -0.089342 -0.250000
  endloop
endfacet
facet normal -0.000885 -0.000061 0.000000
  outer loop
    vertex -0.172525 -0.088398 0.250000
    vertex -0.172648 -0.086628 0.250000
    vertex -0.172648 -0.086628 -0.250000
  endloop
endfacet
facet normal -0.000885 -0.000061 -0.000000
  outer loop
    vertex -0.172525 -0.088398 0.250000
    vertex -0.172648 -0.086628 -0.250000
    vertex -0.172525 -0.088398 -0.250000
  endloop
endfacet
facet normal -0.000952 -0.000097 0.000000
  outer loop
    vertex -0.172648 -0.086628 0.250000
    vertex -0.172841 -0.084724 0.250000
    vertex -0.172841 -0.084724 -0.250000
  endloop
endfacet
facet normal -0.000952 -0.000097 -0.000000
  outer loop
    vertex -0.172648 -0.086628 0.250000
    vertex -0.172841 -0.084724 -0.250000
    vertex -0.172648 -0.086628 -0.250000
  endloop
endfacet
facet normal -0.000944 -0.000123 0.000000
  outer loop
    vertex -0.172841 -0.084724 0.250000
    vertex -0.173086 -0.082836 0.250000
    vertex -0.173086 -0.082836 -0.250000
  endloop
endfacet
facet normal -0.000944 -0.000123 -0.000000
  outer loop
    vertex -0.172841 -0.084724 0.250000
    vertex -0.173086 -0.082836 -0.250000
    vertex -0.172841 -0.084724 -0.250000
  endloop
endfacet
facet normal -0.000746 -0.000113 0.000000
  outer loop
    vertex -0.173086 -0.082836 0.250000
    vertex -0.173313 -0.081343 0.250000
    vertex -0.173313 -0.081343 -0.250000
  endloop
endfacet
facet normal -0.000746 -0.000113 -0.000000
  outer loop
    vertex -0.173086 -0.082836 0.250000
    vertex -0.173313 -0.081343 -0.250000
    vertex -0.173086 -0.082836 -0.250000
  endloop
endfacet
facet normal -0.000896 -0.000152 0.000000
  outer loop
    vertex -0.173313 -0.081343 0.250000
    vertex -0.173618 -0.079552 0.250000
    vertex -0.173618 -0.079552 -0.250000
  endloop
endfacet
facet normal -0.000896 -0.000152 -0.000000
  outer loop
    vertex -0.173313 -0.081343 0.250000
    vertex -0.173618 -0.079552 -0.250000
    vertex -0.173313 -0.081343 -0.250000
  endloop
endfacet
facet normal -0.000854 -0.000160 0.000000
  outer loop
    vertex -0.173618 -0.079552 0.250000
    vertex -0.173937 -0.077845 0.250000
    vertex -0.173937 -0.077845 -0.250000
  endloop
endfacet
facet normal -0.000854 -0.000160 -0.000000
  outer loop
    vertex -0.173618 -0.079552 0.250000
    vertex -0.173937 -0.077845 -0.250000
    vertex -0.173618 -0.079552 -0.250000
  endloop
endfacet
facet normal -0.000654 -0.000131 0.000000
  outer loop
    vertex -0.173937 -0.077845 0.250000
    vertex -0.174199 -0.076537 0.250000
    vertex -0.174199 -0.076537 -0.250000
  endloop
endfacet
facet normal -0.000654 -0.000131 -0.000000
  outer loop
    vertex -0.173937 -0.077845 0.250000
    vertex -0.174199 -0.076537 -0.250000
    vertex -0.173937 -0.077845 -0.250000
  endloop
endfacet
facet normal -0.000674 -0.000142 0.000000
  outer loop
    vertex -0.174199 -0.076537 0.250000
    vertex -0.174482 -0.075188 0.250000
    vertex -0.174482 -0.075188 -0.250000
  endloop
endfacet
facet normal -0.000674 -0.000142 -0.000000
  outer loop
    vertex -0.174199 -0.076537 0.250000
    vertex -0.174482 -0.075188 -0.250000
    vertex -0.174199 -0.076537 -0.250000
  endloop
endfacet
facet normal -0.000714 -0.000157 0.000000
  outer loop
    vertex -0.174482 -0.075188 0.250000
    vertex -0.174796 -0.073760 0.250000
    vertex -0.174796 -0.073760 -0.250000
  endloop
endfacet
facet normal -0.000714 -0.000157 -0.000000
  outer loop
    vertex -0.174482 -0.075188 0.250000
    vertex -0.174796 -0.073760 -0.250000
    vertex -0.174482 -0.075188 -0.250000
  endloop
endfacet
facet normal -0.002035 -0.000483 0.000000
  outer loop
    vertex -0.174796 -0.073760 0.250000
    vertex -0.175762 -0.069691 0.250000
    vertex -0.175762 -0.069691 -0.250000
  endloop
endfacet
facet normal -0.002035 -0.000483 -0.000000
  outer loop
    vertex -0.174796 -0.073760 0.250000
    vertex -0.175762 -0.069691 -0.250000
    vertex -0.174796 -0.073760 -0.250000
  endloop
endfacet
facet normal -0.000756 -0.000190 0.000000
  outer loop
    vertex -0.175762 -0.069691 0.250000
    vertex -0.176143 -0.068180 0.250000
    vertex -0.176143 -0.068180 -0.250000
  endloop
endfacet
facet normal -0.000756 -0.000190 -0.000000
  outer loop
    vertex -0.175762 -0.069691 0.250000
    vertex -0.176143 -0.068180 -0.250000
    vertex -0.175762 -0.069691 -0.250000
  endloop
endfacet
facet normal -0.000782 -0.000203 0.000000
  outer loop
    vertex -0.176143 -0.068180 0.250000
    vertex -0.176549 -0.066615 0.250000
    vertex -0.176549 -0.066615 -0.250000
  endloop
endfacet
facet normal -0.000782 -0.000203 -0.000000
  outer loop
    vertex -0.176143 -0.068180 0.250000
    vertex -0.176549 -0.066615 -0.250000
    vertex -0.176143 -0.068180 -0.250000
  endloop
endfacet
facet normal -0.000346 -0.000091 0.000000
  outer loop
    vertex -0.176549 -0.066615 0.250000
    vertex -0.176732 -0.065923 0.250000
    vertex -0.176732 -0.065923 -0.250000
  endloop
endfacet
facet normal -0.000346 -0.000091 -0.000000
  outer loop
    vertex -0.176549 -0.066615 0.250000
    vertex -0.176732 -0.065923 -0.250000
    vertex -0.176549 -0.066615 -0.250000
  endloop
endfacet
facet normal -0.000388 -0.000104 0.000000
  outer loop
    vertex -0.176732 -0.065923 0.250000
    vertex -0.176940 -0.065147 0.250000
    vertex -0.176940 -0.065147 -0.250000
  endloop
endfacet
facet normal -0.000388 -0.000104 -0.000000
  outer loop
    vertex -0.176732 -0.065923 0.250000
    vertex -0.176940 -0.065147 -0.250000
    vertex -0.176732 -0.065923 -0.250000
  endloop
endfacet
facet normal -0.001852 -0.000512 0.000000
  outer loop
    vertex -0.176940 -0.065147 0.250000
    vertex -0.177964 -0.061443 0.250000
    vertex -0.177964 -0.061443 -0.250000
  endloop
endfacet
facet normal -0.001852 -0.000512 -0.000000
  outer loop
    vertex -0.176940 -0.065147 0.250000
    vertex -0.177964 -0.061443 -0.250000
    vertex -0.176940 -0.065147 -0.250000
  endloop
endfacet
facet normal 0.001122 0.000313 0.000000
  outer loop
    vertex -0.177964 -0.061443 0.250000
    vertex -0.177338 -0.063686 0.250000
    vertex -0.177338 -0.063686 -0.250000
  endloop
endfacet
facet normal 0.001122 0.000313 0.000000
  outer loop
    vertex -0.177964 -0.061443 0.250000
    vertex -0.177338 -0.063686 -0.250000
    vertex -0.177964 -0.061443 -0.250000
  endloop
endfacet
facet normal -0.001122 -0.000313 0.000000
  outer loop
    vertex -0.177338 -0.063686 0.250000
    vertex -0.177964 -0.061443 0.250000
    vertex -0.177964 -0.061443 -0.250000
  endloop
endfacet
facet normal -0.001122 -0.000313 -0.000000
  outer loop
    vertex -0.177338 -0.063686 0.250000
    vertex -0.177964 -0.061443 -0.250000
    vertex -0.177338 -0.063686 -0.250000
  endloop
endfacet
facet normal -0.000407 -0.000116 0.000000
  outer loop
    vertex -0.177964 -0.061443 0.250000
    vertex -0.178197 -0.060628 0.250000
    vertex -0.178197 -0.060628 -0.250000
  endloop
endfacet
facet normal -0.000407 -0.000116 -0.000000
  outer loop
    vertex -0.177964 -0.061443 0.250000
    vertex -0.178197 -0.060628 -0.250000
    vertex -0.177964 -0.061443 -0.250000
  endloop
endfacet
facet normal -0.000679 -0.000197 0.000000
  outer loop
    vertex -0.178197 -0.060628 0.250000
    vertex -0.178591 -0.059270 0.250000
    vertex -0.178591 -0.059270 -0.250000
  endloop
endfacet
facet normal -0.000679 -0.000197 -0.000000
  outer loop
    vertex -0.178197 -0.060628 0.250000
    vertex -0.178591 -0.059270 -0.250000
    vertex -0.178197 -0.060628 -0.250000
  endloop
endfacet
facet normal -0.000000 0.000000 0.000000
  outer loop
    vertex -0.178591 -0.059270 0.250000
    vertex -0.178591 -0.059270 0.250000
    vertex -0.178591 -0.059270 -0.250000
  endloop
endfacet
facet normal 0.000000 0.000000 0.000000
  outer loop
    vertex -0.178591 -0.059270 0.250000
    vertex -0.178591 -0.059270 -0.250000
    vertex -0.178591 -0.059270 -0.250000
  endloop
endfacet
facet normal -0.000890 -0.000263 0.000000
  outer loop
    vertex -0.178591 -0.059270 0.250000
    vertex -0.179116 -0.057489 0.250000
    vertex -0.179116 -0.057489 -0.250000
  endloop
endfacet
facet normal -0.000890 -0.000263 -0.000000
  outer loop
    vertex -0.178591 -0.059270 0.250000
    vertex -0.179116 -0.057489 -0.250000
    vertex -0.178591 -0.059270 -0.250000
  endloop
endfacet
facet normal -0.000766 -0.000231 0.000000
  outer loop
    vertex -0.179116 -0.057489 0.250000
    vertex -0.179578 -0.055957 0.250000
    vertex -0.179578 -0.055957 -0.250000
  endloop
endfacet
facet normal -0.000766 -0.000231 -0.000000
  outer loop
    vertex -0.179116 -0.057489 0.250000
    vertex -0.179578 -0.055957 -0.250000
    vertex -0.179116 -0.057489 -0.250000
  endloop
endfacet
facet normal -0.001044 -0.000322 0.000000
  outer loop
    vertex -0.179578 -0.055957 0.250000
    vertex -0.180221 -0.053868 0.250000
    vertex -0.180221 -0.053868 -0.250000
  endloop
endfacet
facet normal -0.001044 -0.000322 -0.000000
  outer loop
    vertex -0.179578 -0.055957 0.250000
    vertex -0.180221 -0.053868 -0.250000
    vertex -0.179578 -0.055957 -0.250000
  endloop
endfacet
facet normal -0.000753 -0.000237 0.000000
  outer loop
    vertex -0.180221 -0.053868 0.250000
    vertex -0.180695 -0.052361 0.250000
    vertex -0.180695 -0.052361 -0.250000
  endloop
endfacet
facet normal -0.000753 -0.000237 -0.000000
  outer loop
    vertex -0.180221 -0.053868 0.250000
    vertex -0.180695 -0.052361 -0.250000
    vertex -0.180221 -0.053868 -0.250000
  endloop
endfacet
facet normal -0.000726 -0.000233 0.000000
  outer loop
    vertex -0.180695 -0.052361 0.250000
    vertex -0.181161 -0.050910 0.250000
    vertex -0.181161 -0.050910 -0.250000
  endloop
endfacet
facet normal -0.000726 -0.000233 -0.000000
  outer loop
    vertex -0.180695 -0.052361 0.250000
    vertex -0.181161 -0.050910 -0.250000
    vertex -0.180695 -0.052361 -0.250000
  endloop
endfacet
facet normal -0.000741 -0.000243 0.000000
  outer loop
    vertex -0.181161 -0.050910 0.250000
    vertex -0.181647 -0.049428 0.250000
    vertex -0.181647 -0.049428 -0.250000
  endloop
endfacet
facet normal -0.000741 -0.000243 -0.000000
  outer loop
    vertex -0.181161 -0.050910 0.250000
    vertex -0.181647 -0.049428 -0.250000
    vertex -0.181161 -0.050910 -0.250000
  endloop
endfacet
facet normal -0.000749 -0.000332 0.000000
  outer loop
    vertex -0.181647 -0.049428 0.250000
    vertex -0.182311 -0.047930 0.250000
    vertex -0.182311 -0.047930 -0.250000
  endloop
endfacet
facet normal -0.000749 -0.000332 -0.000000
  outer loop
    vertex -0.181647 -0.049428 0.250000
    vertex -0.182311 -0.047930 -0.250000
    vertex -0.181647 -0.049428 -0.250000
  endloop
endfacet
endsolid /home/fmg/OpenFOAM/VAWT/cfd/cfdopenfoam/constant/triSurface/VAWT3.stl
