solid /home/fmg/OpenFOAM/VAWT/cfd/cfdopenfoam/constant/triSurface/VAWT2.stl
facet normal 0.000072 0.000065 0.000000
  outer loop
    vertex 0.174599 -0.097215 0.250000
    vertex 0.174730 -0.097359 0.250000
    vertex 0.174730 -0.097359 -0.250000
  endloop
endfacet
facet normal 0.000072 0.000065 0.000000
  outer loop
    vertex 0.174599 -0.097215 0.250000
    vertex 0.174730 -0.097359 -0.250000
    vertex 0.174599 -0.097215 -0.250000
  endloop
endfacet
facet normal -0.000684 0.000400 0.000000
  outer loop
    vertex 0.174730 -0.097359 0.250000
    vertex 0.175530 -0.095990 0.250000
    vertex 0.175530 -0.095990 -0.250000
  endloop
endfacet
facet normal -0.000684 0.000400 0.000000
  outer loop
    vertex 0.174730 -0.097359 0.250000
    vertex 0.175530 -0.095990 -0.250000
    vertex 0.174730 -0.097359 -0.250000
  endloop
endfacet
facet normal -0.000488 0.000283 0.000000
  outer loop
    vertex 0.175530 -0.095990 0.250000
    vertex 0.176096 -0.095015 0.250000
    vertex 0.176096 -0.095015 -0.250000
  endloop
endfacet
facet normal -0.000488 0.000283 0.000000
  outer loop
    vertex 0.175530 -0.095990 0.250000
    vertex 0.176096 -0.095015 -0.250000
    vertex 0.175530 -0.095990 -0.250000
  endloop
endfacet
facet normal -0.000562 0.000322 0.000000
  outer loop
    vertex 0.176096 -0.095015 0.250000
    vertex 0.176741 -0.093890 0.250000
    vertex 0.176741 -0.093890 -0.250000
  endloop
endfacet
facet normal -0.000562 0.000322 0.000000
  outer loop
    vertex 0.176096 -0.095015 0.250000
    vertex 0.176741 -0.093890 -0.250000
    vertex 0.176096 -0.095015 -0.250000
  endloop
endfacet
facet normal -0.000685 0.000387 0.000000
  outer loop
    vertex 0.176741 -0.093890 0.250000
    vertex 0.177516 -0.092520 0.250000
    vertex 0.177516 -0.092520 -0.250000
  endloop
endfacet
facet normal -0.000685 0.000387 0.000000
  outer loop
    vertex 0.176741 -0.093890 0.250000
    vertex 0.177516 -0.092520 -0.250000
    vertex 0.176741 -0.093890 -0.250000
  endloop
endfacet
facet normal -0.000703 0.000393 0.000000
  outer loop
    vertex 0.177516 -0.092520 0.250000
    vertex 0.178301 -0.091113 0.250000
    vertex 0.178301 -0.091113 -0.250000
  endloop
endfacet
facet normal -0.000703 0.000393 0.000000
  outer loop
    vertex 0.177516 -0.092520 0.250000
    vertex 0.178301 -0.091113 -0.250000
    vertex 0.177516 -0.092520 -0.250000
  endloop
endfacet
facet normal -0.000736 0.000406 0.000000
  outer loop
    vertex 0.178301 -0.091113 0.250000
    vertex 0.179113 -0.089642 0.250000
    vertex 0.179113 -0.089642 -0.250000
  endloop
endfacet
facet normal -0.000736 0.000406 0.000000
  outer loop
    vertex 0.178301 -0.091113 0.250000
    vertex 0.179113 -0.089642 -0.250000
    vertex 0.178301 -0.091113 -0.250000
  endloop
endfacet
facet normal -0.000760 0.000413 0.000000
  outer loop
    vertex 0.179113 -0.089642 0.250000
    vertex 0.179939 -0.088123 0.250000
    vertex 0.179939 -0.088123 -0.250000
  endloop
endfacet
facet normal -0.000760 0.000413 0.000000
  outer loop
    vertex 0.179113 -0.089642 0.250000
    vertex 0.179939 -0.088123 -0.250000
    vertex 0.179113 -0.089642 -0.250000
  endloop
endfacet
facet normal -0.000781 0.000420 0.000000
  outer loop
    vertex 0.179939 -0.088123 0.250000
    vertex 0.180778 -0.086561 0.250000
    vertex 0.180778 -0.086561 -0.250000
  endloop
endfacet
facet normal -0.000781 0.000420 0.000000
  outer loop
    vertex 0.179939 -0.088123 0.250000
    vertex 0.180778 -0.086561 -0.250000
    vertex 0.179939 -0.088123 -0.250000
  endloop
endfacet
facet normal -0.000985 0.000520 0.000000
  outer loop
    vertex 0.180778 -0.086561 0.250000
    vertex 0.181819 -0.084590 0.250000
    vertex 0.181819 -0.084590 -0.250000
  endloop
endfacet
facet normal -0.000985 0.000520 0.000000
  outer loop
    vertex 0.180778 -0.086561 0.250000
    vertex 0.181819 -0.084590 -0.250000
    vertex 0.180778 -0.086561 -0.250000
  endloop
endfacet
facet normal -0.000973 0.000505 0.000000
  outer loop
    vertex 0.181819 -0.084590 0.250000
    vertex 0.182830 -0.082644 0.250000
    vertex 0.182830 -0.082644 -0.250000
  endloop
endfacet
facet normal -0.000973 0.000505 0.000000
  outer loop
    vertex 0.181819 -0.084590 0.250000
    vertex 0.182830 -0.082644 -0.250000
    vertex 0.181819 -0.084590 -0.250000
  endloop
endfacet
facet normal -0.000803 0.000410 0.000000
  outer loop
    vertex 0.182830 -0.082644 0.250000
    vertex 0.183649 -0.081037 0.250000
    vertex 0.183649 -0.081037 -0.250000
  endloop
endfacet
facet normal -0.000803 0.000410 0.000000
  outer loop
    vertex 0.182830 -0.082644 0.250000
    vertex 0.183649 -0.081037 -0.250000
    vertex 0.182830 -0.082644 -0.250000
  endloop
endfacet
facet normal -0.000692 0.000347 0.000000
  outer loop
    vertex 0.183649 -0.081037 0.250000
    vertex 0.184343 -0.079653 0.250000
    vertex 0.184343 -0.079653 -0.250000
  endloop
endfacet
facet normal -0.000692 0.000347 0.000000
  outer loop
    vertex 0.183649 -0.081037 0.250000
    vertex 0.184343 -0.079653 -0.250000
    vertex 0.183649 -0.081037 -0.250000
  endloop
endfacet
facet normal -0.000738 0.000364 0.000000
  outer loop
    vertex 0.184343 -0.079653 0.250000
    vertex 0.185072 -0.078176 0.250000
    vertex 0.185072 -0.078176 -0.250000
  endloop
endfacet
facet normal -0.000738 0.000364 0.000000
  outer loop
    vertex 0.184343 -0.079653 0.250000
    vertex 0.185072 -0.078176 -0.250000
    vertex 0.184343 -0.079653 -0.250000
  endloop
endfacet
facet normal -0.000626 0.000304 0.000000
  outer loop
    vertex 0.185072 -0.078176 0.250000
    vertex 0.185680 -0.076925 0.250000
    vertex 0.185680 -0.076925 -0.250000
  endloop
endfacet
facet normal -0.000626 0.000304 0.000000
  outer loop
    vertex 0.185072 -0.078176 0.250000
    vertex 0.185680 -0.076925 -0.250000
    vertex 0.185072 -0.078176 -0.250000
  endloop
endfacet
facet normal -0.000809 0.000384 0.000000
  outer loop
    vertex 0.185680 -0.076925 0.250000
    vertex 0.186449 -0.075308 0.250000
    vertex 0.186449 -0.075308 -0.250000
  endloop
endfacet
facet normal -0.000809 0.000384 0.000000
  outer loop
    vertex 0.185680 -0.076925 0.250000
    vertex 0.186449 -0.075308 -0.250000
    vertex 0.185680 -0.076925 -0.250000
  endloop
endfacet
facet normal -0.000769 0.000357 0.000000
  outer loop
    vertex 0.186449 -0.075308 0.250000
    vertex 0.187163 -0.073770 0.250000
    vertex 0.187163 -0.073770 -0.250000
  endloop
endfacet
facet normal -0.000769 0.000357 0.000000
  outer loop
    vertex 0.186449 -0.075308 0.250000
    vertex 0.187163 -0.073770 -0.250000
    vertex 0.186449 -0.075308 -0.250000
  endloop
endfacet
facet normal -0.000647 0.000294 0.000000
  outer loop
    vertex 0.187163 -0.073770 0.250000
    vertex 0.187750 -0.072475 0.250000
    vertex 0.187750 -0.072475 -0.250000
  endloop
endfacet
facet normal -0.000647 0.000294 0.000000
  outer loop
    vertex 0.187163 -0.073770 0.250000
    vertex 0.187750 -0.072475 -0.250000
    vertex 0.187163 -0.073770 -0.250000
  endloop
endfacet
facet normal -0.001261 0.000551 0.000000
  outer loop
    vertex 0.187750 -0.072475 0.250000
    vertex 0.188852 -0.069952 0.250000
    vertex 0.188852 -0.069952 -0.250000
  endloop
endfacet
facet normal -0.001261 0.000551 0.000000
  outer loop
    vertex 0.187750 -0.072475 0.250000
    vertex 0.188852 -0.069952 -0.250000
    vertex 0.187750 -0.072475 -0.250000
  endloop
endfacet
facet normal 0.000397 -0.000171 0.000000
  outer loop
    vertex 0.188852 -0.069952 0.250000
    vertex 0.188511 -0.070747 0.250000
    vertex 0.188511 -0.070747 -0.250000
  endloop
endfacet
facet normal 0.000397 -0.000171 0.000000
  outer loop
    vertex 0.188852 -0.069952 0.250000
    vertex 0.188511 -0.070747 -0.250000
    vertex 0.188852 -0.069952 -0.250000
  endloop
endfacet
facet normal -0.000794 0.000337 0.000000
  outer loop
    vertex 0.188511 -0.070747 0.250000
    vertex 0.189186 -0.069158 0.250000
    vertex 0.189186 -0.069158 -0.250000
  endloop
endfacet
facet normal -0.000794 0.000337 0.000000
  outer loop
    vertex 0.188511 -0.070747 0.250000
    vertex 0.189186 -0.069158 -0.250000
    vertex 0.188511 -0.070747 -0.250000
  endloop
endfacet
facet normal -0.000843 0.000342 0.000000
  outer loop
    vertex 0.189186 -0.069158 0.250000
    vertex 0.189871 -0.067472 0.250000
    vertex 0.189871 -0.067472 -0.250000
  endloop
endfacet
facet normal -0.000843 0.000342 0.000000
  outer loop
    vertex 0.189186 -0.069158 0.250000
    vertex 0.189871 -0.067472 -0.250000
    vertex 0.189186 -0.069158 -0.250000
  endloop
endfacet
facet normal -0.000826 0.000319 0.000000
  outer loop
    vertex 0.189871 -0.067472 0.250000
    vertex 0.190509 -0.065819 0.250000
    vertex 0.190509 -0.065819 -0.250000
  endloop
endfacet
facet normal -0.000826 0.000319 0.000000
  outer loop
    vertex 0.189871 -0.067472 0.250000
    vertex 0.190509 -0.065819 -0.250000
    vertex 0.189871 -0.067472 -0.250000
  endloop
endfacet
facet normal -0.000816 0.000297 0.000000
  outer loop
    vertex 0.190509 -0.065819 0.250000
    vertex 0.191102 -0.064188 0.250000
    vertex 0.191102 -0.064188 -0.250000
  endloop
endfacet
facet normal -0.000816 0.000297 0.000000
  outer loop
    vertex 0.190509 -0.065819 0.250000
    vertex 0.191102 -0.064188 -0.250000
    vertex 0.190509 -0.065819 -0.250000
  endloop
endfacet
facet normal -0.000922 0.000309 0.000000
  outer loop
    vertex 0.191102 -0.064188 0.250000
    vertex 0.191721 -0.062344 0.250000
    vertex 0.191721 -0.062344 -0.250000
  endloop
endfacet
facet normal -0.000922 0.000309 0.000000
  outer loop
    vertex 0.191102 -0.064188 0.250000
    vertex 0.191721 -0.062344 -0.250000
    vertex 0.191102 -0.064188 -0.250000
  endloop
endfacet
facet normal -0.000762 0.000232 0.000000
  outer loop
    vertex 0.191721 -0.062344 0.250000
    vertex 0.192185 -0.060821 0.250000
    vertex 0.192185 -0.060821 -0.250000
  endloop
endfacet
facet normal -0.000762 0.000232 0.000000
  outer loop
    vertex 0.191721 -0.062344 0.250000
    vertex 0.192185 -0.060821 -0.250000
    vertex 0.191721 -0.062344 -0.250000
  endloop
endfacet
facet normal -0.000483 0.000134 0.000000
  outer loop
    vertex 0.192185 -0.060821 0.250000
    vertex 0.192453 -0.059855 0.250000
    vertex 0.192453 -0.059855 -0.250000
  endloop
endfacet
facet normal -0.000483 0.000134 0.000000
  outer loop
    vertex 0.192185 -0.060821 0.250000
    vertex 0.192453 -0.059855 -0.250000
    vertex 0.192185 -0.060821 -0.250000
  endloop
endfacet
facet normal -0.000222 0.000058 0.000000
  outer loop
    vertex 0.192453 -0.059855 0.250000
    vertex 0.192569 -0.059411 0.250000
    vertex 0.192569 -0.059411 -0.250000
  endloop
endfacet
facet normal -0.000222 0.000058 0.000000
  outer loop
    vertex 0.192453 -0.059855 0.250000
    vertex 0.192569 -0.059411 -0.250000
    vertex 0.192453 -0.059855 -0.250000
  endloop
endfacet
facet normal -0.000368 0.000090 0.000000
  outer loop
    vertex 0.192569 -0.059411 0.250000
    vertex 0.192750 -0.058676 0.250000
    vertex 0.192750 -0.058676 -0.250000
  endloop
endfacet
facet normal -0.000368 0.000090 0.000000
  outer loop
    vertex 0.192569 -0.059411 0.250000
    vertex 0.192750 -0.058676 -0.250000
    vertex 0.192569 -0.059411 -0.250000
  endloop
endfacet
facet normal -0.000354 0.000080 0.000000
  outer loop
    vertex 0.192750 -0.058676 0.250000
    vertex 0.192910 -0.057967 0.250000
    vertex 0.192910 -0.057967 -0.250000
  endloop
endfacet
facet normal -0.000354 0.000080 0.000000
  outer loop
    vertex 0.192750 -0.058676 0.250000
    vertex 0.192910 -0.057967 -0.250000
    vertex 0.192750 -0.058676 -0.250000
  endloop
endfacet
facet normal -0.000318 0.000065 0.000000
  outer loop
    vertex 0.192910 -0.057967 0.250000
    vertex 0.193040 -0.057331 0.250000
    vertex 0.193040 -0.057331 -0.250000
  endloop
endfacet
facet normal -0.000318 0.000065 0.000000
  outer loop
    vertex 0.192910 -0.057967 0.250000
    vertex 0.193040 -0.057331 -0.250000
    vertex 0.192910 -0.057967 -0.250000
  endloop
endfacet
facet normal -0.000311 0.000057 0.000000
  outer loop
    vertex 0.193040 -0.057331 0.250000
    vertex 0.193154 -0.056709 0.250000
    vertex 0.193154 -0.056709 -0.250000
  endloop
endfacet
facet normal -0.000311 0.000057 0.000000
  outer loop
    vertex 0.193040 -0.057331 0.250000
    vertex 0.193154 -0.056709 -0.250000
    vertex 0.193040 -0.057331 -0.250000
  endloop
endfacet
facet normal 0.000781 -0.000156 0.000000
  outer loop
    vertex 0.193154 -0.056709 0.250000
    vertex 0.192843 -0.058272 0.250000
    vertex 0.192843 -0.058272 -0.250000
  endloop
endfacet
facet normal 0.000781 -0.000156 0.000000
  outer loop
    vertex 0.193154 -0.056709 0.250000
    vertex 0.192843 -0.058272 -0.250000
    vertex 0.193154 -0.056709 -0.250000
  endloop
endfacet
facet normal -0.001033 0.000196 0.000000
  outer loop
    vertex 0.192843 -0.058272 0.250000
    vertex 0.193236 -0.056206 0.250000
    vertex 0.193236 -0.056206 -0.250000
  endloop
endfacet
facet normal -0.001033 0.000196 0.000000
  outer loop
    vertex 0.192843 -0.058272 0.250000
    vertex 0.193236 -0.056206 -0.250000
    vertex 0.192843 -0.058272 -0.250000
  endloop
endfacet
facet normal -0.000255 0.000036 0.000000
  outer loop
    vertex 0.193236 -0.056206 0.250000
    vertex 0.193308 -0.055696 0.250000
    vertex 0.193308 -0.055696 -0.250000
  endloop
endfacet
facet normal -0.000255 0.000036 0.000000
  outer loop
    vertex 0.193236 -0.056206 0.250000
    vertex 0.193308 -0.055696 -0.250000
    vertex 0.193236 -0.056206 -0.250000
  endloop
endfacet
facet normal -0.000331 0.000038 0.000000
  outer loop
    vertex 0.193308 -0.055696 0.250000
    vertex 0.193383 -0.055033 0.250000
    vertex 0.193383 -0.055033 -0.250000
  endloop
endfacet
facet normal -0.000331 0.000038 0.000000
  outer loop
    vertex 0.193308 -0.055696 0.250000
    vertex 0.193383 -0.055033 -0.250000
    vertex 0.193308 -0.055696 -0.250000
  endloop
endfacet
facet normal -0.000194 0.000016 0.000000
  outer loop
    vertex 0.193383 -0.055033 0.250000
    vertex 0.193415 -0.054646 0.250000
    vertex 0.193415 -0.054646 -0.250000
  endloop
endfacet
facet normal -0.000194 0.000016 0.000000
  outer loop
    vertex 0.193383 -0.055033 0.250000
    vertex 0.193415 -0.054646 -0.250000
    vertex 0.193383 -0.055033 -0.250000
  endloop
endfacet
facet normal -0.000194 0.000012 0.000000
  outer loop
    vertex 0.193415 -0.054646 0.250000
    vertex 0.193439 -0.054259 0.250000
    vertex 0.193439 -0.054259 -0.250000
  endloop
endfacet
facet normal -0.000194 0.000012 0.000000
  outer loop
    vertex 0.193415 -0.054646 0.250000
    vertex 0.193439 -0.054259 -0.250000
    vertex 0.193415 -0.054646 -0.250000
  endloop
endfacet
facet normal -0.000206 0.000006 0.000000
  outer loop
    vertex 0.193439 -0.054259 0.250000
    vertex 0.193451 -0.053848 0.250000
    vertex 0.193451 -0.053848 -0.250000
  endloop
endfacet
facet normal -0.000206 0.000006 0.000000
  outer loop
    vertex 0.193439 -0.054259 0.250000
    vertex 0.193451 -0.053848 -0.250000
    vertex 0.193439 -0.054259 -0.250000
  endloop
endfacet
facet normal -0.000194 -0.000000 0.000000
  outer loop
    vertex 0.193451 -0.053848 0.250000
    vertex 0.193450 -0.053459 0.250000
    vertex 0.193450 -0.053459 -0.250000
  endloop
endfacet
facet normal -0.000194 -0.000000 -0.000000
  outer loop
    vertex 0.193451 -0.053848 0.250000
    vertex 0.193450 -0.053459 -0.250000
    vertex 0.193451 -0.053848 -0.250000
  endloop
endfacet
facet normal -0.000044 -0.000001 0.000000
  outer loop
    vertex 0.193450 -0.053459 0.250000
    vertex 0.193447 -0.053372 0.250000
    vertex 0.193447 -0.053372 -0.250000
  endloop
endfacet
facet normal -0.000044 -0.000001 -0.000000
  outer loop
    vertex 0.193450 -0.053459 0.250000
    vertex 0.193447 -0.053372 -0.250000
    vertex 0.193450 -0.053459 -0.250000
  endloop
endfacet
facet normal -0.000092 -0.000004 0.000000
  outer loop
    vertex 0.193447 -0.053372 0.250000
    vertex 0.193439 -0.053187 0.250000
    vertex 0.193439 -0.053187 -0.250000
  endloop
endfacet
facet normal -0.000092 -0.000004 -0.000000
  outer loop
    vertex 0.193447 -0.053372 0.250000
    vertex 0.193439 -0.053187 -0.250000
    vertex 0.193447 -0.053372 -0.250000
  endloop
endfacet
facet normal 0.000043 0.000002 0.000000
  outer loop
    vertex 0.193439 -0.053187 0.250000
    vertex 0.193444 -0.053273 0.250000
    vertex 0.193444 -0.053273 -0.250000
  endloop
endfacet
facet normal 0.000043 0.000002 0.000000
  outer loop
    vertex 0.193439 -0.053187 0.250000
    vertex 0.193444 -0.053273 -0.250000
    vertex 0.193439 -0.053187 -0.250000
  endloop
endfacet
facet normal -0.000100 -0.000005 0.000000
  outer loop
    vertex 0.193444 -0.053273 0.250000
    vertex 0.193434 -0.053073 0.250000
    vertex 0.193434 -0.053073 -0.250000
  endloop
endfacet
facet normal -0.000100 -0.000005 -0.000000
  outer loop
    vertex 0.193444 -0.053273 0.250000
    vertex 0.193434 -0.053073 -0.250000
    vertex 0.193444 -0.053273 -0.250000
  endloop
endfacet
facet normal -0.000078 -0.000005 0.000000
  outer loop
    vertex 0.193434 -0.053073 0.250000
    vertex 0.193423 -0.052918 0.250000
    vertex 0.193423 -0.052918 -0.250000
  endloop
endfacet
facet normal -0.000078 -0.000005 -0.000000
  outer loop
    vertex 0.193434 -0.053073 0.250000
    vertex 0.193423 -0.052918 -0.250000
    vertex 0.193434 -0.053073 -0.250000
  endloop
endfacet
facet normal -0.000062 -0.000006 0.000000
  outer loop
    vertex 0.193423 -0.052918 0.250000
    vertex 0.193411 -0.052794 0.250000
    vertex 0.193411 -0.052794 -0.250000
  endloop
endfacet
facet normal -0.000062 -0.000006 -0.000000
  outer loop
    vertex 0.193423 -0.052918 0.250000
    vertex 0.193411 -0.052794 -0.250000
    vertex 0.193423 -0.052918 -0.250000
  endloop
endfacet
facet normal -0.000060 -0.000006 0.000000
  outer loop
    vertex 0.193411 -0.052794 0.250000
    vertex 0.193400 -0.052674 0.250000
    vertex 0.193400 -0.052674 -0.250000
  endloop
endfacet
facet normal -0.000060 -0.000006 -0.000000
  outer loop
    vertex 0.193411 -0.052794 0.250000
    vertex 0.193400 -0.052674 -0.250000
    vertex 0.193411 -0.052794 -0.250000
  endloop
endfacet
facet normal -0.000057 -0.000007 0.000000
  outer loop
    vertex 0.193400 -0.052674 0.250000
    vertex 0.193385 -0.052559 0.250000
    vertex 0.193385 -0.052559 -0.250000
  endloop
endfacet
facet normal -0.000057 -0.000007 -0.000000
  outer loop
    vertex 0.193400 -0.052674 0.250000
    vertex 0.193385 -0.052559 -0.250000
    vertex 0.193400 -0.052674 -0.250000
  endloop
endfacet
facet normal -0.000046 -0.000006 0.000000
  outer loop
    vertex 0.193385 -0.052559 0.250000
    vertex 0.193373 -0.052468 0.250000
    vertex 0.193373 -0.052468 -0.250000
  endloop
endfacet
facet normal -0.000046 -0.000006 -0.000000
  outer loop
    vertex 0.193385 -0.052559 0.250000
    vertex 0.193373 -0.052468 -0.250000
    vertex 0.193385 -0.052559 -0.250000
  endloop
endfacet
facet normal -0.000056 -0.000008 0.000000
  outer loop
    vertex 0.193373 -0.052468 0.250000
    vertex 0.193356 -0.052355 0.250000
    vertex 0.193356 -0.052355 -0.250000
  endloop
endfacet
facet normal -0.000056 -0.000008 -0.000000
  outer loop
    vertex 0.193373 -0.052468 0.250000
    vertex 0.193356 -0.052355 -0.250000
    vertex 0.193373 -0.052468 -0.250000
  endloop
endfacet
facet normal -0.000068 -0.000011 0.000000
  outer loop
    vertex 0.193356 -0.052355 0.250000
    vertex 0.193333 -0.052219 0.250000
    vertex 0.193333 -0.052219 -0.250000
  endloop
endfacet
facet normal -0.000068 -0.000011 -0.000000
  outer loop
    vertex 0.193356 -0.052355 0.250000
    vertex 0.193333 -0.052219 -0.250000
    vertex 0.193356 -0.052355 -0.250000
  endloop
endfacet
facet normal -0.000087 -0.000017 0.000000
  outer loop
    vertex 0.193333 -0.052219 0.250000
    vertex 0.193299 -0.052044 0.250000
    vertex 0.193299 -0.052044 -0.250000
  endloop
endfacet
facet normal -0.000087 -0.000017 -0.000000
  outer loop
    vertex 0.193333 -0.052219 0.250000
    vertex 0.193299 -0.052044 -0.250000
    vertex 0.193333 -0.052219 -0.250000
  endloop
endfacet
facet normal -0.000060 -0.000014 0.000000
  outer loop
    vertex 0.193299 -0.052044 0.250000
    vertex 0.193270 -0.051924 0.250000
    vertex 0.193270 -0.051924 -0.250000
  endloop
endfacet
facet normal -0.000060 -0.000014 -0.000000
  outer loop
    vertex 0.193299 -0.052044 0.250000
    vertex 0.193270 -0.051924 -0.250000
    vertex 0.193299 -0.052044 -0.250000
  endloop
endfacet
facet normal -0.000097 -0.000028 0.000000
  outer loop
    vertex 0.193270 -0.051924 0.250000
    vertex 0.193215 -0.051729 0.250000
    vertex 0.193215 -0.051729 -0.250000
  endloop
endfacet
facet normal -0.000097 -0.000028 -0.000000
  outer loop
    vertex 0.193270 -0.051924 0.250000
    vertex 0.193215 -0.051729 -0.250000
    vertex 0.193270 -0.051924 -0.250000
  endloop
endfacet
facet normal -0.000088 -0.000031 0.000000
  outer loop
    vertex 0.193215 -0.051729 0.250000
    vertex 0.193153 -0.051553 0.250000
    vertex 0.193153 -0.051553 -0.250000
  endloop
endfacet
facet normal -0.000088 -0.000031 -0.000000
  outer loop
    vertex 0.193215 -0.051729 0.250000
    vertex 0.193153 -0.051553 -0.250000
    vertex 0.193215 -0.051729 -0.250000
  endloop
endfacet
facet normal -0.000083 -0.000036 0.000000
  outer loop
    vertex 0.193153 -0.051553 0.250000
    vertex 0.193080 -0.051387 0.250000
    vertex 0.193080 -0.051387 -0.250000
  endloop
endfacet
facet normal -0.000083 -0.000036 -0.000000
  outer loop
    vertex 0.193153 -0.051553 0.250000
    vertex 0.193080 -0.051387 -0.250000
    vertex 0.193153 -0.051553 -0.250000
  endloop
endfacet
facet normal -0.000105 -0.000058 0.000000
  outer loop
    vertex 0.193080 -0.051387 0.250000
    vertex 0.192965 -0.051176 0.250000
    vertex 0.192965 -0.051176 -0.250000
  endloop
endfacet
facet normal -0.000105 -0.000058 -0.000000
  outer loop
    vertex 0.193080 -0.051387 0.250000
    vertex 0.192965 -0.051176 -0.250000
    vertex 0.193080 -0.051387 -0.250000
  endloop
endfacet
facet normal 0.000038 0.000023 0.000000
  outer loop
    vertex 0.192965 -0.051176 0.250000
    vertex 0.193011 -0.051252 0.250000
    vertex 0.193011 -0.051252 -0.250000
  endloop
endfacet
facet normal 0.000038 0.000023 0.000000
  outer loop
    vertex 0.192965 -0.051176 0.250000
    vertex 0.193011 -0.051252 -0.250000
    vertex 0.192965 -0.051176 -0.250000
  endloop
endfacet
facet normal -0.000098 -0.000061 0.000000
  outer loop
    vertex 0.193011 -0.051252 0.250000
    vertex 0.192888 -0.051056 0.250000
    vertex 0.192888 -0.051056 -0.250000
  endloop
endfacet
facet normal -0.000098 -0.000061 -0.000000
  outer loop
    vertex 0.193011 -0.051252 0.250000
    vertex 0.192888 -0.051056 -0.250000
    vertex 0.193011 -0.051252 -0.250000
  endloop
endfacet
facet normal -0.000035 -0.000025 0.000000
  outer loop
    vertex 0.192888 -0.051056 0.250000
    vertex 0.192837 -0.050986 0.250000
    vertex 0.192837 -0.050986 -0.250000
  endloop
endfacet
facet normal -0.000035 -0.000025 -0.000000
  outer loop
    vertex 0.192888 -0.051056 0.250000
    vertex 0.192837 -0.050986 -0.250000
    vertex 0.192888 -0.051056 -0.250000
  endloop
endfacet
facet normal -0.000041 -0.000033 0.000000
  outer loop
    vertex 0.192837 -0.050986 0.250000
    vertex 0.192771 -0.050905 0.250000
    vertex 0.192771 -0.050905 -0.250000
  endloop
endfacet
facet normal -0.000041 -0.000033 -0.000000
  outer loop
    vertex 0.192837 -0.050986 0.250000
    vertex 0.192771 -0.050905 -0.250000
    vertex 0.192837 -0.050986 -0.250000
  endloop
endfacet
facet normal -0.000029 -0.000026 0.000000
  outer loop
    vertex 0.192771 -0.050905 0.250000
    vertex 0.192719 -0.050847 0.250000
    vertex 0.192719 -0.050847 -0.250000
  endloop
endfacet
facet normal -0.000029 -0.000026 -0.000000
  outer loop
    vertex 0.192771 -0.050905 0.250000
    vertex 0.192719 -0.050847 -0.250000
    vertex 0.192771 -0.050905 -0.250000
  endloop
endfacet
facet normal -0.000064 -0.000067 0.000000
  outer loop
    vertex 0.192719 -0.050847 0.250000
    vertex 0.192584 -0.050718 0.250000
    vertex 0.192584 -0.050718 -0.250000
  endloop
endfacet
facet normal -0.000064 -0.000067 -0.000000
  outer loop
    vertex 0.192719 -0.050847 0.250000
    vertex 0.192584 -0.050718 -0.250000
    vertex 0.192719 -0.050847 -0.250000
  endloop
endfacet
facet normal -0.000055 -0.000077 0.000000
  outer loop
    vertex 0.192584 -0.050718 0.250000
    vertex 0.192431 -0.050608 0.250000
    vertex 0.192431 -0.050608 -0.250000
  endloop
endfacet
facet normal -0.000055 -0.000077 -0.000000
  outer loop
    vertex 0.192584 -0.050718 0.250000
    vertex 0.192431 -0.050608 -0.250000
    vertex 0.192584 -0.050718 -0.250000
  endloop
endfacet
facet normal 0.000019 0.000029 0.000000
  outer loop
    vertex 0.192431 -0.050608 0.250000
    vertex 0.192489 -0.050646 0.250000
    vertex 0.192489 -0.050646 -0.250000
  endloop
endfacet
facet normal 0.000019 0.000029 0.000000
  outer loop
    vertex 0.192431 -0.050608 0.250000
    vertex 0.192489 -0.050646 -0.250000
    vertex 0.192431 -0.050608 -0.250000
  endloop
endfacet
facet normal -0.000042 -0.000070 0.000000
  outer loop
    vertex 0.192489 -0.050646 0.250000
    vertex 0.192349 -0.050562 0.250000
    vertex 0.192349 -0.050562 -0.250000
  endloop
endfacet
facet normal -0.000042 -0.000070 -0.000000
  outer loop
    vertex 0.192489 -0.050646 0.250000
    vertex 0.192349 -0.050562 -0.250000
    vertex 0.192489 -0.050646 -0.250000
  endloop
endfacet
facet normal -0.000026 -0.000062 0.000000
  outer loop
    vertex 0.192349 -0.050562 0.250000
    vertex 0.192224 -0.050510 0.250000
    vertex 0.192224 -0.050510 -0.250000
  endloop
endfacet
facet normal -0.000026 -0.000062 -0.000000
  outer loop
    vertex 0.192349 -0.050562 0.250000
    vertex 0.192224 -0.050510 -0.250000
    vertex 0.192349 -0.050562 -0.250000
  endloop
endfacet
facet normal -0.000013 -0.000045 0.000000
  outer loop
    vertex 0.192224 -0.050510 0.250000
    vertex 0.192133 -0.050483 0.250000
    vertex 0.192133 -0.050483 -0.250000
  endloop
endfacet
facet normal -0.000013 -0.000045 -0.000000
  outer loop
    vertex 0.192224 -0.050510 0.250000
    vertex 0.192133 -0.050483 -0.250000
    vertex 0.192224 -0.050510 -0.250000
  endloop
endfacet
facet normal -0.000015 -0.000197 0.000000
  outer loop
    vertex 0.192133 -0.050483 0.250000
    vertex 0.191740 -0.050452 0.250000
    vertex 0.191740 -0.050452 -0.250000
  endloop
endfacet
facet normal -0.000015 -0.000197 -0.000000
  outer loop
    vertex 0.192133 -0.050483 0.250000
    vertex 0.191740 -0.050452 -0.250000
    vertex 0.192133 -0.050483 -0.250000
  endloop
endfacet
facet normal 0.000037 -0.000203 0.000000
  outer loop
    vertex 0.191740 -0.050452 0.250000
    vertex 0.191335 -0.050527 0.250000
    vertex 0.191335 -0.050527 -0.250000
  endloop
endfacet
facet normal 0.000037 -0.000203 0.000000
  outer loop
    vertex 0.191740 -0.050452 0.250000
    vertex 0.191335 -0.050527 -0.250000
    vertex 0.191740 -0.050452 -0.250000
  endloop
endfacet
facet normal -0.000029 0.000365 0.000000
  outer loop
    vertex 0.191335 -0.050527 0.250000
    vertex 0.192065 -0.050469 0.250000
    vertex 0.192065 -0.050469 -0.250000
  endloop
endfacet
facet normal -0.000029 0.000365 0.000000
  outer loop
    vertex 0.191335 -0.050527 0.250000
    vertex 0.192065 -0.050469 -0.250000
    vertex 0.191335 -0.050527 -0.250000
  endloop
endfacet
facet normal -0.000006 -0.000038 0.000000
  outer loop
    vertex 0.192065 -0.050469 0.250000
    vertex 0.191989 -0.050457 0.250000
    vertex 0.191989 -0.050457 -0.250000
  endloop
endfacet
facet normal -0.000006 -0.000038 -0.000000
  outer loop
    vertex 0.192065 -0.050469 0.250000
    vertex 0.191989 -0.050457 -0.250000
    vertex 0.192065 -0.050469 -0.250000
  endloop
endfacet
facet normal -0.000003 -0.000047 0.000000
  outer loop
    vertex 0.191989 -0.050457 0.250000
    vertex 0.191896 -0.050451 0.250000
    vertex 0.191896 -0.050451 -0.250000
  endloop
endfacet
facet normal -0.000003 -0.000047 -0.000000
  outer loop
    vertex 0.191989 -0.050457 0.250000
    vertex 0.191896 -0.050451 -0.250000
    vertex 0.191989 -0.050457 -0.250000
  endloop
endfacet
facet normal 0.000011 -0.000163 0.000000
  outer loop
    vertex 0.191896 -0.050451 0.250000
    vertex 0.191569 -0.050473 0.250000
    vertex 0.191569 -0.050473 -0.250000
  endloop
endfacet
facet normal 0.000011 -0.000163 0.000000
  outer loop
    vertex 0.191896 -0.050451 0.250000
    vertex 0.191569 -0.050473 -0.250000
    vertex 0.191896 -0.050451 -0.250000
  endloop
endfacet
facet normal 0.000010 -0.000052 0.000000
  outer loop
    vertex 0.191569 -0.050473 0.250000
    vertex 0.191465 -0.050493 0.250000
    vertex 0.191465 -0.050493 -0.250000
  endloop
endfacet
facet normal 0.000010 -0.000052 0.000000
  outer loop
    vertex 0.191569 -0.050473 0.250000
    vertex 0.191465 -0.050493 -0.250000
    vertex 0.191569 -0.050473 -0.250000
  endloop
endfacet
facet normal 0.000040 -0.000135 0.000000
  outer loop
    vertex 0.191465 -0.050493 0.250000
    vertex 0.191195 -0.050573 0.250000
    vertex 0.191195 -0.050573 -0.250000
  endloop
endfacet
facet normal 0.000040 -0.000135 0.000000
  outer loop
    vertex 0.191465 -0.050493 0.250000
    vertex 0.191195 -0.050573 -0.250000
    vertex 0.191465 -0.050493 -0.250000
  endloop
endfacet
facet normal 0.000060 -0.000141 0.000000
  outer loop
    vertex 0.191195 -0.050573 0.250000
    vertex 0.190913 -0.050693 0.250000
    vertex 0.190913 -0.050693 -0.250000
  endloop
endfacet
facet normal 0.000060 -0.000141 0.000000
  outer loop
    vertex 0.191195 -0.050573 0.250000
    vertex 0.190913 -0.050693 -0.250000
    vertex 0.191195 -0.050573 -0.250000
  endloop
endfacet
facet normal -0.000032 0.000070 0.000000
  outer loop
    vertex 0.190913 -0.050693 0.250000
    vertex 0.191053 -0.050628 0.250000
    vertex 0.191053 -0.050628 -0.250000
  endloop
endfacet
facet normal -0.000032 0.000070 0.000000
  outer loop
    vertex 0.190913 -0.050693 0.250000
    vertex 0.191053 -0.050628 -0.250000
    vertex 0.190913 -0.050693 -0.250000
  endloop
endfacet
facet normal 0.000073 -0.000144 0.000000
  outer loop
    vertex 0.191053 -0.050628 0.250000
    vertex 0.190765 -0.050774 0.250000
    vertex 0.190765 -0.050774 -0.250000
  endloop
endfacet
facet normal 0.000073 -0.000144 0.000000
  outer loop
    vertex 0.191053 -0.050628 0.250000
    vertex 0.190765 -0.050774 -0.250000
    vertex 0.191053 -0.050628 -0.250000
  endloop
endfacet
facet normal 0.000053 -0.000084 0.000000
  outer loop
    vertex 0.190765 -0.050774 0.250000
    vertex 0.190596 -0.050880 0.250000
    vertex 0.190596 -0.050880 -0.250000
  endloop
endfacet
facet normal 0.000053 -0.000084 0.000000
  outer loop
    vertex 0.190765 -0.050774 0.250000
    vertex 0.190596 -0.050880 -0.250000
    vertex 0.190765 -0.050774 -0.250000
  endloop
endfacet
facet normal 0.000037 -0.000052 0.000000
  outer loop
    vertex 0.190596 -0.050880 0.250000
    vertex 0.190493 -0.050953 0.250000
    vertex 0.190493 -0.050953 -0.250000
  endloop
endfacet
facet normal 0.000037 -0.000052 0.000000
  outer loop
    vertex 0.190596 -0.050880 0.250000
    vertex 0.190493 -0.050953 -0.250000
    vertex 0.190596 -0.050880 -0.250000
  endloop
endfacet
facet normal 0.000049 -0.000065 0.000000
  outer loop
    vertex 0.190493 -0.050953 0.250000
    vertex 0.190362 -0.051051 0.250000
    vertex 0.190362 -0.051051 -0.250000
  endloop
endfacet
facet normal 0.000049 -0.000065 0.000000
  outer loop
    vertex 0.190493 -0.050953 0.250000
    vertex 0.190362 -0.051051 -0.250000
    vertex 0.190493 -0.050953 -0.250000
  endloop
endfacet
facet normal 0.000048 -0.000060 0.000000
  outer loop
    vertex 0.190362 -0.051051 0.250000
    vertex 0.190243 -0.051147 0.250000
    vertex 0.190243 -0.051147 -0.250000
  endloop
endfacet
facet normal 0.000048 -0.000060 0.000000
  outer loop
    vertex 0.190362 -0.051051 0.250000
    vertex 0.190243 -0.051147 -0.250000
    vertex 0.190362 -0.051051 -0.250000
  endloop
endfacet
facet normal 0.000058 -0.000069 0.000000
  outer loop
    vertex 0.190243 -0.051147 0.250000
    vertex 0.190106 -0.051263 0.250000
    vertex 0.190106 -0.051263 -0.250000
  endloop
endfacet
facet normal 0.000058 -0.000069 0.000000
  outer loop
    vertex 0.190243 -0.051147 0.250000
    vertex 0.190106 -0.051263 -0.250000
    vertex 0.190243 -0.051147 -0.250000
  endloop
endfacet
facet normal 0.000048 -0.000053 0.000000
  outer loop
    vertex 0.190106 -0.051263 0.250000
    vertex 0.189999 -0.051358 0.250000
    vertex 0.189999 -0.051358 -0.250000
  endloop
endfacet
facet normal 0.000048 -0.000053 0.000000
  outer loop
    vertex 0.190106 -0.051263 0.250000
    vertex 0.189999 -0.051358 -0.250000
    vertex 0.190106 -0.051263 -0.250000
  endloop
endfacet
facet normal 0.000054 -0.000058 0.000000
  outer loop
    vertex 0.189999 -0.051358 0.250000
    vertex 0.189883 -0.051465 0.250000
    vertex 0.189883 -0.051465 -0.250000
  endloop
endfacet
facet normal 0.000054 -0.000058 0.000000
  outer loop
    vertex 0.189999 -0.051358 0.250000
    vertex 0.189883 -0.051465 -0.250000
    vertex 0.189999 -0.051358 -0.250000
  endloop
endfacet
facet normal 0.000058 -0.000060 0.000000
  outer loop
    vertex 0.189883 -0.051465 0.250000
    vertex 0.189762 -0.051580 0.250000
    vertex 0.189762 -0.051580 -0.250000
  endloop
endfacet
facet normal 0.000058 -0.000060 0.000000
  outer loop
    vertex 0.189883 -0.051465 0.250000
    vertex 0.189762 -0.051580 -0.250000
    vertex 0.189883 -0.051465 -0.250000
  endloop
endfacet
facet normal 0.000059 -0.000058 0.000000
  outer loop
    vertex 0.189762 -0.051580 0.250000
    vertex 0.189645 -0.051699 0.250000
    vertex 0.189645 -0.051699 -0.250000
  endloop
endfacet
facet normal 0.000059 -0.000058 0.000000
  outer loop
    vertex 0.189762 -0.051580 0.250000
    vertex 0.189645 -0.051699 -0.250000
    vertex 0.189762 -0.051580 -0.250000
  endloop
endfacet
facet normal 0.000067 -0.000065 0.000000
  outer loop
    vertex 0.189645 -0.051699 0.250000
    vertex 0.189516 -0.051833 0.250000
    vertex 0.189516 -0.051833 -0.250000
  endloop
endfacet
facet normal 0.000067 -0.000065 0.000000
  outer loop
    vertex 0.189645 -0.051699 0.250000
    vertex 0.189516 -0.051833 -0.250000
    vertex 0.189645 -0.051699 -0.250000
  endloop
endfacet
facet normal 0.000058 -0.000054 0.000000
  outer loop
    vertex 0.189516 -0.051833 0.250000
    vertex 0.189408 -0.051949 0.250000
    vertex 0.189408 -0.051949 -0.250000
  endloop
endfacet
facet normal 0.000058 -0.000054 0.000000
  outer loop
    vertex 0.189516 -0.051833 0.250000
    vertex 0.189408 -0.051949 -0.250000
    vertex 0.189516 -0.051833 -0.250000
  endloop
endfacet
facet normal 0.000051 -0.000046 0.000000
  outer loop
    vertex 0.189408 -0.051949 0.250000
    vertex 0.189316 -0.052051 0.250000
    vertex 0.189316 -0.052051 -0.250000
  endloop
endfacet
facet normal 0.000051 -0.000046 0.000000
  outer loop
    vertex 0.189408 -0.051949 0.250000
    vertex 0.189316 -0.052051 -0.250000
    vertex 0.189408 -0.051949 -0.250000
  endloop
endfacet
facet normal 0.000039 -0.000034 0.000000
  outer loop
    vertex 0.189316 -0.052051 0.250000
    vertex 0.189248 -0.052128 0.250000
    vertex 0.189248 -0.052128 -0.250000
  endloop
endfacet
facet normal 0.000039 -0.000034 0.000000
  outer loop
    vertex 0.189316 -0.052051 0.250000
    vertex 0.189248 -0.052128 -0.250000
    vertex 0.189316 -0.052051 -0.250000
  endloop
endfacet
facet normal 0.000058 -0.000050 0.000000
  outer loop
    vertex 0.189248 -0.052128 0.250000
    vertex 0.189148 -0.052244 0.250000
    vertex 0.189148 -0.052244 -0.250000
  endloop
endfacet
facet normal 0.000058 -0.000050 0.000000
  outer loop
    vertex 0.189248 -0.052128 0.250000
    vertex 0.189148 -0.052244 -0.250000
    vertex 0.189248 -0.052128 -0.250000
  endloop
endfacet
facet normal 0.000060 -0.000050 0.000000
  outer loop
    vertex 0.189148 -0.052244 0.250000
    vertex 0.189047 -0.052365 0.250000
    vertex 0.189047 -0.052365 -0.250000
  endloop
endfacet
facet normal 0.000060 -0.000050 0.000000
  outer loop
    vertex 0.189148 -0.052244 0.250000
    vertex 0.189047 -0.052365 -0.250000
    vertex 0.189148 -0.052244 -0.250000
  endloop
endfacet
facet normal 0.000049 -0.000041 0.000000
  outer loop
    vertex 0.189047 -0.052365 0.250000
    vertex 0.188966 -0.052464 0.250000
    vertex 0.188966 -0.052464 -0.250000
  endloop
endfacet
facet normal 0.000049 -0.000041 0.000000
  outer loop
    vertex 0.189047 -0.052365 0.250000
    vertex 0.188966 -0.052464 -0.250000
    vertex 0.189047 -0.052365 -0.250000
  endloop
endfacet
facet normal 0.000065 -0.000051 0.000000
  outer loop
    vertex 0.188966 -0.052464 0.250000
    vertex 0.188863 -0.052593 0.250000
    vertex 0.188863 -0.052593 -0.250000
  endloop
endfacet
facet normal 0.000065 -0.000051 0.000000
  outer loop
    vertex 0.188966 -0.052464 0.250000
    vertex 0.188863 -0.052593 -0.250000
    vertex 0.188966 -0.052464 -0.250000
  endloop
endfacet
facet normal 0.000069 -0.000054 0.000000
  outer loop
    vertex 0.188863 -0.052593 0.250000
    vertex 0.188755 -0.052731 0.250000
    vertex 0.188755 -0.052731 -0.250000
  endloop
endfacet
facet normal 0.000069 -0.000054 0.000000
  outer loop
    vertex 0.188863 -0.052593 0.250000
    vertex 0.188755 -0.052731 -0.250000
    vertex 0.188863 -0.052593 -0.250000
  endloop
endfacet
facet normal 0.000079 -0.000060 0.000000
  outer loop
    vertex 0.188755 -0.052731 0.250000
    vertex 0.188635 -0.052888 0.250000
    vertex 0.188635 -0.052888 -0.250000
  endloop
endfacet
facet normal 0.000079 -0.000060 0.000000
  outer loop
    vertex 0.188755 -0.052731 0.250000
    vertex 0.188635 -0.052888 -0.250000
    vertex 0.188755 -0.052731 -0.250000
  endloop
endfacet
facet normal 0.000184 -0.000134 0.000000
  outer loop
    vertex 0.188635 -0.052888 0.250000
    vertex 0.188367 -0.053257 0.250000
    vertex 0.188367 -0.053257 -0.250000
  endloop
endfacet
facet normal 0.000184 -0.000134 0.000000
  outer loop
    vertex 0.188635 -0.052888 0.250000
    vertex 0.188367 -0.053257 -0.250000
    vertex 0.188635 -0.052888 -0.250000
  endloop
endfacet
facet normal -0.000110 0.000079 0.000000
  outer loop
    vertex 0.188367 -0.053257 0.250000
    vertex 0.188525 -0.053036 0.250000
    vertex 0.188525 -0.053036 -0.250000
  endloop
endfacet
facet normal -0.000110 0.000079 0.000000
  outer loop
    vertex 0.188367 -0.053257 0.250000
    vertex 0.188525 -0.053036 -0.250000
    vertex 0.188367 -0.053257 -0.250000
  endloop
endfacet
facet normal 0.000239 -0.000169 0.000000
  outer loop
    vertex 0.188525 -0.053036 0.250000
    vertex 0.188187 -0.053514 0.250000
    vertex 0.188187 -0.053514 -0.250000
  endloop
endfacet
facet normal 0.000239 -0.000169 0.000000
  outer loop
    vertex 0.188525 -0.053036 0.250000
    vertex 0.188187 -0.053514 -0.250000
    vertex 0.188525 -0.053036 -0.250000
  endloop
endfacet
facet normal 0.000106 -0.000072 0.000000
  outer loop
    vertex 0.188187 -0.053514 0.250000
    vertex 0.188043 -0.053726 0.250000
    vertex 0.188043 -0.053726 -0.250000
  endloop
endfacet
facet normal 0.000106 -0.000072 0.000000
  outer loop
    vertex 0.188187 -0.053514 0.250000
    vertex 0.188043 -0.053726 -0.250000
    vertex 0.188187 -0.053514 -0.250000
  endloop
endfacet
facet normal 0.000081 -0.000053 0.000000
  outer loop
    vertex 0.188043 -0.053726 0.250000
    vertex 0.187936 -0.053888 0.250000
    vertex 0.187936 -0.053888 -0.250000
  endloop
endfacet
facet normal 0.000081 -0.000053 0.000000
  outer loop
    vertex 0.188043 -0.053726 0.250000
    vertex 0.187936 -0.053888 -0.250000
    vertex 0.188043 -0.053726 -0.250000
  endloop
endfacet
facet normal 0.000073 -0.000048 0.000000
  outer loop
    vertex 0.187936 -0.053888 0.250000
    vertex 0.187840 -0.054034 0.250000
    vertex 0.187840 -0.054034 -0.250000
  endloop
endfacet
facet normal 0.000073 -0.000048 0.000000
  outer loop
    vertex 0.187936 -0.053888 0.250000
    vertex 0.187840 -0.054034 -0.250000
    vertex 0.187936 -0.053888 -0.250000
  endloop
endfacet
facet normal 0.000094 -0.000060 0.000000
  outer loop
    vertex 0.187840 -0.054034 0.250000
    vertex 0.187719 -0.054223 0.250000
    vertex 0.187719 -0.054223 -0.250000
  endloop
endfacet
facet normal 0.000094 -0.000060 0.000000
  outer loop
    vertex 0.187840 -0.054034 0.250000
    vertex 0.187719 -0.054223 -0.250000
    vertex 0.187840 -0.054034 -0.250000
  endloop
endfacet
facet normal 0.000066 -0.000042 0.000000
  outer loop
    vertex 0.187719 -0.054223 0.250000
    vertex 0.187635 -0.054356 0.250000
    vertex 0.187635 -0.054356 -0.250000
  endloop
endfacet
facet normal 0.000066 -0.000042 0.000000
  outer loop
    vertex 0.187719 -0.054223 0.250000
    vertex 0.187635 -0.054356 -0.250000
    vertex 0.187719 -0.054223 -0.250000
  endloop
endfacet
facet normal 0.000055 -0.000034 0.000000
  outer loop
    vertex 0.187635 -0.054356 0.250000
    vertex 0.187567 -0.054466 0.250000
    vertex 0.187567 -0.054466 -0.250000
  endloop
endfacet
facet normal 0.000055 -0.000034 0.000000
  outer loop
    vertex 0.187635 -0.054356 0.250000
    vertex 0.187567 -0.054466 -0.250000
    vertex 0.187635 -0.054356 -0.250000
  endloop
endfacet
facet normal 0.000057 -0.000035 0.000000
  outer loop
    vertex 0.187567 -0.054466 0.250000
    vertex 0.187497 -0.054580 0.250000
    vertex 0.187497 -0.054580 -0.250000
  endloop
endfacet
facet normal 0.000057 -0.000035 0.000000
  outer loop
    vertex 0.187567 -0.054466 0.250000
    vertex 0.187497 -0.054580 -0.250000
    vertex 0.187567 -0.054466 -0.250000
  endloop
endfacet
facet normal 0.000077 -0.000047 0.000000
  outer loop
    vertex 0.187497 -0.054580 0.250000
    vertex 0.187403 -0.054734 0.250000
    vertex 0.187403 -0.054734 -0.250000
  endloop
endfacet
facet normal 0.000077 -0.000047 0.000000
  outer loop
    vertex 0.187497 -0.054580 0.250000
    vertex 0.187403 -0.054734 -0.250000
    vertex 0.187497 -0.054580 -0.250000
  endloop
endfacet
facet normal 0.000058 -0.000034 0.000000
  outer loop
    vertex 0.187403 -0.054734 0.250000
    vertex 0.187335 -0.054849 0.250000
    vertex 0.187335 -0.054849 -0.250000
  endloop
endfacet
facet normal 0.000058 -0.000034 0.000000
  outer loop
    vertex 0.187403 -0.054734 0.250000
    vertex 0.187335 -0.054849 -0.250000
    vertex 0.187403 -0.054734 -0.250000
  endloop
endfacet
facet normal 0.000115 -0.000068 0.000000
  outer loop
    vertex 0.187335 -0.054849 0.250000
    vertex 0.187198 -0.055079 0.250000
    vertex 0.187198 -0.055079 -0.250000
  endloop
endfacet
facet normal 0.000115 -0.000068 0.000000
  outer loop
    vertex 0.187335 -0.054849 0.250000
    vertex 0.187198 -0.055079 -0.250000
    vertex 0.187335 -0.054849 -0.250000
  endloop
endfacet
facet normal 0.000162 -0.000093 0.000000
  outer loop
    vertex 0.187198 -0.055079 0.250000
    vertex 0.187011 -0.055403 0.250000
    vertex 0.187011 -0.055403 -0.250000
  endloop
endfacet
facet normal 0.000162 -0.000093 0.000000
  outer loop
    vertex 0.187198 -0.055079 0.250000
    vertex 0.187011 -0.055403 -0.250000
    vertex 0.187198 -0.055079 -0.250000
  endloop
endfacet
facet normal 0.000215 -0.000120 0.000000
  outer loop
    vertex 0.187011 -0.055403 0.250000
    vertex 0.186771 -0.055833 0.250000
    vertex 0.186771 -0.055833 -0.250000
  endloop
endfacet
facet normal 0.000215 -0.000120 0.000000
  outer loop
    vertex 0.187011 -0.055403 0.250000
    vertex 0.186771 -0.055833 -0.250000
    vertex 0.187011 -0.055403 -0.250000
  endloop
endfacet
facet normal 0.000252 -0.000136 0.000000
  outer loop
    vertex 0.186771 -0.055833 0.250000
    vertex 0.186499 -0.056338 0.250000
    vertex 0.186499 -0.056338 -0.250000
  endloop
endfacet
facet normal 0.000252 -0.000136 0.000000
  outer loop
    vertex 0.186771 -0.055833 0.250000
    vertex 0.186499 -0.056338 -0.250000
    vertex 0.186771 -0.055833 -0.250000
  endloop
endfacet
facet normal 0.000139 -0.000073 0.000000
  outer loop
    vertex 0.186499 -0.056338 0.250000
    vertex 0.186354 -0.056615 0.250000
    vertex 0.186354 -0.056615 -0.250000
  endloop
endfacet
facet normal 0.000139 -0.000073 0.000000
  outer loop
    vertex 0.186499 -0.056338 0.250000
    vertex 0.186354 -0.056615 -0.250000
    vertex 0.186499 -0.056338 -0.250000
  endloop
endfacet
facet normal 0.000293 -0.000150 0.000000
  outer loop
    vertex 0.186354 -0.056615 0.250000
    vertex 0.186055 -0.057201 0.250000
    vertex 0.186055 -0.057201 -0.250000
  endloop
endfacet
facet normal 0.000293 -0.000150 0.000000
  outer loop
    vertex 0.186354 -0.056615 0.250000
    vertex 0.186055 -0.057201 -0.250000
    vertex 0.186354 -0.056615 -0.250000
  endloop
endfacet
facet normal 0.000247 -0.000121 0.000000
  outer loop
    vertex 0.186055 -0.057201 0.250000
    vertex 0.185813 -0.057695 0.250000
    vertex 0.185813 -0.057695 -0.250000
  endloop
endfacet
facet normal 0.000247 -0.000121 0.000000
  outer loop
    vertex 0.186055 -0.057201 0.250000
    vertex 0.185813 -0.057695 -0.250000
    vertex 0.186055 -0.057201 -0.250000
  endloop
endfacet
facet normal 0.000248 -0.000119 0.000000
  outer loop
    vertex 0.185813 -0.057695 0.250000
    vertex 0.185575 -0.058191 0.250000
    vertex 0.185575 -0.058191 -0.250000
  endloop
endfacet
facet normal 0.000248 -0.000119 0.000000
  outer loop
    vertex 0.185813 -0.057695 0.250000
    vertex 0.185575 -0.058191 -0.250000
    vertex 0.185813 -0.057695 -0.250000
  endloop
endfacet
facet normal 0.000171 -0.000080 0.000000
  outer loop
    vertex 0.185575 -0.058191 0.250000
    vertex 0.185415 -0.058534 0.250000
    vertex 0.185415 -0.058534 -0.250000
  endloop
endfacet
facet normal 0.000171 -0.000080 0.000000
  outer loop
    vertex 0.185575 -0.058191 0.250000
    vertex 0.185415 -0.058534 -0.250000
    vertex 0.185575 -0.058191 -0.250000
  endloop
endfacet
facet normal 0.000175 -0.000080 0.000000
  outer loop
    vertex 0.185415 -0.058534 0.250000
    vertex 0.185254 -0.058884 0.250000
    vertex 0.185254 -0.058884 -0.250000
  endloop
endfacet
facet normal 0.000175 -0.000080 0.000000
  outer loop
    vertex 0.185415 -0.058534 0.250000
    vertex 0.185254 -0.058884 -0.250000
    vertex 0.185415 -0.058534 -0.250000
  endloop
endfacet
facet normal 0.000211 -0.000094 0.000000
  outer loop
    vertex 0.185254 -0.058884 0.250000
    vertex 0.185066 -0.059305 0.250000
    vertex 0.185066 -0.059305 -0.250000
  endloop
endfacet
facet normal 0.000211 -0.000094 0.000000
  outer loop
    vertex 0.185254 -0.058884 0.250000
    vertex 0.185066 -0.059305 -0.250000
    vertex 0.185254 -0.058884 -0.250000
  endloop
endfacet
facet normal 0.000201 -0.000089 0.000000
  outer loop
    vertex 0.185066 -0.059305 0.250000
    vertex 0.184888 -0.059706 0.250000
    vertex 0.184888 -0.059706 -0.250000
  endloop
endfacet
facet normal 0.000201 -0.000089 0.000000
  outer loop
    vertex 0.185066 -0.059305 0.250000
    vertex 0.184888 -0.059706 -0.250000
    vertex 0.185066 -0.059305 -0.250000
  endloop
endfacet
facet normal 0.000233 -0.000100 0.000000
  outer loop
    vertex 0.184888 -0.059706 0.250000
    vertex 0.184687 -0.060172 0.250000
    vertex 0.184687 -0.060172 -0.250000
  endloop
endfacet
facet normal 0.000233 -0.000100 0.000000
  outer loop
    vertex 0.184888 -0.059706 0.250000
    vertex 0.184687 -0.060172 -0.250000
    vertex 0.184888 -0.059706 -0.250000
  endloop
endfacet
facet normal 0.000264 -0.000111 0.000000
  outer loop
    vertex 0.184687 -0.060172 0.250000
    vertex 0.184465 -0.060701 0.250000
    vertex 0.184465 -0.060701 -0.250000
  endloop
endfacet
facet normal 0.000264 -0.000111 0.000000
  outer loop
    vertex 0.184687 -0.060172 0.250000
    vertex 0.184465 -0.060701 -0.250000
    vertex 0.184687 -0.060172 -0.250000
  endloop
endfacet
facet normal 0.000293 -0.000121 0.000000
  outer loop
    vertex 0.184465 -0.060701 0.250000
    vertex 0.184224 -0.061287 0.250000
    vertex 0.184224 -0.061287 -0.250000
  endloop
endfacet
facet normal 0.000293 -0.000121 0.000000
  outer loop
    vertex 0.184465 -0.060701 0.250000
    vertex 0.184224 -0.061287 -0.250000
    vertex 0.184465 -0.060701 -0.250000
  endloop
endfacet
facet normal 0.000184 -0.000074 0.000000
  outer loop
    vertex 0.184224 -0.061287 0.250000
    vertex 0.184076 -0.061654 0.250000
    vertex 0.184076 -0.061654 -0.250000
  endloop
endfacet
facet normal 0.000184 -0.000074 0.000000
  outer loop
    vertex 0.184224 -0.061287 0.250000
    vertex 0.184076 -0.061654 -0.250000
    vertex 0.184224 -0.061287 -0.250000
  endloop
endfacet
facet normal 0.000208 -0.000082 0.000000
  outer loop
    vertex 0.184076 -0.061654 0.250000
    vertex 0.183912 -0.062070 0.250000
    vertex 0.183912 -0.062070 -0.250000
  endloop
endfacet
facet normal 0.000208 -0.000082 0.000000
  outer loop
    vertex 0.184076 -0.061654 0.250000
    vertex 0.183912 -0.062070 -0.250000
    vertex 0.184076 -0.061654 -0.250000
  endloop
endfacet
facet normal 0.000208 -0.000081 0.000000
  outer loop
    vertex 0.183912 -0.062070 0.250000
    vertex 0.183750 -0.062486 0.250000
    vertex 0.183750 -0.062486 -0.250000
  endloop
endfacet
facet normal 0.000208 -0.000081 0.000000
  outer loop
    vertex 0.183912 -0.062070 0.250000
    vertex 0.183750 -0.062486 -0.250000
    vertex 0.183912 -0.062070 -0.250000
  endloop
endfacet
facet normal 0.000224 -0.000086 0.000000
  outer loop
    vertex 0.183750 -0.062486 0.250000
    vertex 0.183578 -0.062934 0.250000
    vertex 0.183578 -0.062934 -0.250000
  endloop
endfacet
facet normal 0.000224 -0.000086 0.000000
  outer loop
    vertex 0.183750 -0.062486 0.250000
    vertex 0.183578 -0.062934 -0.250000
    vertex 0.183750 -0.062486 -0.250000
  endloop
endfacet
facet normal 0.000334 -0.000125 0.000000
  outer loop
    vertex 0.183578 -0.062934 0.250000
    vertex 0.183327 -0.063602 0.250000
    vertex 0.183327 -0.063602 -0.250000
  endloop
endfacet
facet normal 0.000334 -0.000125 0.000000
  outer loop
    vertex 0.183578 -0.062934 0.250000
    vertex 0.183327 -0.063602 -0.250000
    vertex 0.183578 -0.062934 -0.250000
  endloop
endfacet
facet normal 0.000243 -0.000089 0.000000
  outer loop
    vertex 0.183327 -0.063602 0.250000
    vertex 0.183149 -0.064087 0.250000
    vertex 0.183149 -0.064087 -0.250000
  endloop
endfacet
facet normal 0.000243 -0.000089 0.000000
  outer loop
    vertex 0.183327 -0.063602 0.250000
    vertex 0.183149 -0.064087 -0.250000
    vertex 0.183327 -0.063602 -0.250000
  endloop
endfacet
facet normal 0.000119 -0.000043 0.000000
  outer loop
    vertex 0.183149 -0.064087 0.250000
    vertex 0.183062 -0.064325 0.250000
    vertex 0.183062 -0.064325 -0.250000
  endloop
endfacet
facet normal 0.000119 -0.000043 0.000000
  outer loop
    vertex 0.183149 -0.064087 0.250000
    vertex 0.183062 -0.064325 -0.250000
    vertex 0.183149 -0.064087 -0.250000
  endloop
endfacet
facet normal 0.000154 -0.000056 0.000000
  outer loop
    vertex 0.183062 -0.064325 0.250000
    vertex 0.182951 -0.064634 0.250000
    vertex 0.182951 -0.064634 -0.250000
  endloop
endfacet
facet normal 0.000154 -0.000056 0.000000
  outer loop
    vertex 0.183062 -0.064325 0.250000
    vertex 0.182951 -0.064634 -0.250000
    vertex 0.183062 -0.064325 -0.250000
  endloop
endfacet
facet normal 0.000131 -0.000047 0.000000
  outer loop
    vertex 0.182951 -0.064634 0.250000
    vertex 0.182857 -0.064896 0.250000
    vertex 0.182857 -0.064896 -0.250000
  endloop
endfacet
facet normal 0.000131 -0.000047 0.000000
  outer loop
    vertex 0.182951 -0.064634 0.250000
    vertex 0.182857 -0.064896 -0.250000
    vertex 0.182951 -0.064634 -0.250000
  endloop
endfacet
facet normal 0.000292 -0.000102 0.000000
  outer loop
    vertex 0.182857 -0.064896 0.250000
    vertex 0.182652 -0.065481 0.250000
    vertex 0.182652 -0.065481 -0.250000
  endloop
endfacet
facet normal 0.000292 -0.000102 0.000000
  outer loop
    vertex 0.182857 -0.064896 0.250000
    vertex 0.182652 -0.065481 -0.250000
    vertex 0.182857 -0.064896 -0.250000
  endloop
endfacet
facet normal 0.000417 -0.000144 0.000000
  outer loop
    vertex 0.182652 -0.065481 0.250000
    vertex 0.182365 -0.066314 0.250000
    vertex 0.182365 -0.066314 -0.250000
  endloop
endfacet
facet normal 0.000417 -0.000144 0.000000
  outer loop
    vertex 0.182652 -0.065481 0.250000
    vertex 0.182365 -0.066314 -0.250000
    vertex 0.182652 -0.065481 -0.250000
  endloop
endfacet
facet normal 0.000920 -0.000304 0.000000
  outer loop
    vertex 0.182365 -0.066314 0.250000
    vertex 0.181758 -0.068154 0.250000
    vertex 0.181758 -0.068154 -0.250000
  endloop
endfacet
facet normal 0.000920 -0.000304 0.000000
  outer loop
    vertex 0.182365 -0.066314 0.250000
    vertex 0.181758 -0.068154 -0.250000
    vertex 0.182365 -0.066314 -0.250000
  endloop
endfacet
facet normal 0.000700 -0.000221 0.000000
  outer loop
    vertex 0.181758 -0.068154 0.250000
    vertex 0.181315 -0.069553 0.250000
    vertex 0.181315 -0.069553 -0.250000
  endloop
endfacet
facet normal 0.000700 -0.000221 0.000000
  outer loop
    vertex 0.181758 -0.068154 0.250000
    vertex 0.181315 -0.069553 -0.250000
    vertex 0.181758 -0.068154 -0.250000
  endloop
endfacet
facet normal 0.000841 -0.000256 0.000000
  outer loop
    vertex 0.181315 -0.069553 0.250000
    vertex 0.180803 -0.071235 0.250000
    vertex 0.180803 -0.071235 -0.250000
  endloop
endfacet
facet normal 0.000841 -0.000256 0.000000
  outer loop
    vertex 0.181315 -0.069553 0.250000
    vertex 0.180803 -0.071235 -0.250000
    vertex 0.181315 -0.069553 -0.250000
  endloop
endfacet
facet normal 0.001561 -0.000450 0.000000
  outer loop
    vertex 0.180803 -0.071235 0.250000
    vertex 0.179904 -0.074358 0.250000
    vertex 0.179904 -0.074358 -0.250000
  endloop
endfacet
facet normal 0.001561 -0.000450 0.000000
  outer loop
    vertex 0.180803 -0.071235 0.250000
    vertex 0.179904 -0.074358 -0.250000
    vertex 0.180803 -0.071235 -0.250000
  endloop
endfacet
facet normal -0.000664 0.000188 0.000000
  outer loop
    vertex 0.179904 -0.074358 0.250000
    vertex 0.180279 -0.073030 0.250000
    vertex 0.180279 -0.073030 -0.250000
  endloop
endfacet
facet normal -0.000664 0.000188 0.000000
  outer loop
    vertex 0.179904 -0.074358 0.250000
    vertex 0.180279 -0.073030 -0.250000
    vertex 0.179904 -0.074358 -0.250000
  endloop
endfacet
facet normal 0.001538 -0.000428 0.000000
  outer loop
    vertex 0.180279 -0.073030 0.250000
    vertex 0.179424 -0.076105 0.250000
    vertex 0.179424 -0.076105 -0.250000
  endloop
endfacet
facet normal 0.001538 -0.000428 0.000000
  outer loop
    vertex 0.180279 -0.073030 0.250000
    vertex 0.179424 -0.076105 -0.250000
    vertex 0.180279 -0.073030 -0.250000
  endloop
endfacet
facet normal 0.000791 -0.000211 0.000000
  outer loop
    vertex 0.179424 -0.076105 0.250000
    vertex 0.179003 -0.077686 0.250000
    vertex 0.179003 -0.077686 -0.250000
  endloop
endfacet
facet normal 0.000791 -0.000211 0.000000
  outer loop
    vertex 0.179424 -0.076105 0.250000
    vertex 0.179003 -0.077686 -0.250000
    vertex 0.179424 -0.076105 -0.250000
  endloop
endfacet
facet normal 0.000926 -0.000240 0.000000
  outer loop
    vertex 0.179003 -0.077686 0.250000
    vertex 0.178523 -0.079539 0.250000
    vertex 0.178523 -0.079539 -0.250000
  endloop
endfacet
facet normal 0.000926 -0.000240 0.000000
  outer loop
    vertex 0.179003 -0.077686 0.250000
    vertex 0.178523 -0.079539 -0.250000
    vertex 0.179003 -0.077686 -0.250000
  endloop
endfacet
facet normal 0.001133 -0.000283 0.000000
  outer loop
    vertex 0.178523 -0.079539 0.250000
    vertex 0.177957 -0.081804 0.250000
    vertex 0.177957 -0.081804 -0.250000
  endloop
endfacet
facet normal 0.001133 -0.000283 0.000000
  outer loop
    vertex 0.178523 -0.079539 0.250000
    vertex 0.177957 -0.081804 -0.250000
    vertex 0.178523 -0.079539 -0.250000
  endloop
endfacet
facet normal 0.001159 -0.000280 0.000000
  outer loop
    vertex 0.177957 -0.081804 0.250000
    vertex 0.177397 -0.084122 0.250000
    vertex 0.177397 -0.084122 -0.250000
  endloop
endfacet
facet normal 0.001159 -0.000280 0.000000
  outer loop
    vertex 0.177957 -0.081804 0.250000
    vertex 0.177397 -0.084122 -0.250000
    vertex 0.177957 -0.081804 -0.250000
  endloop
endfacet
facet normal 0.000927 -0.000217 0.000000
  outer loop
    vertex 0.177397 -0.084122 0.250000
    vertex 0.176963 -0.085976 0.250000
    vertex 0.176963 -0.085976 -0.250000
  endloop
endfacet
facet normal 0.000927 -0.000217 0.000000
  outer loop
    vertex 0.177397 -0.084122 0.250000
    vertex 0.176963 -0.085976 -0.250000
    vertex 0.177397 -0.084122 -0.250000
  endloop
endfacet
facet normal 0.000573 -0.000131 0.000000
  outer loop
    vertex 0.176963 -0.085976 0.250000
    vertex 0.176702 -0.087122 0.250000
    vertex 0.176702 -0.087122 -0.250000
  endloop
endfacet
facet normal 0.000573 -0.000131 0.000000
  outer loop
    vertex 0.176963 -0.085976 0.250000
    vertex 0.176702 -0.087122 -0.250000
    vertex 0.176963 -0.085976 -0.250000
  endloop
endfacet
facet normal 0.000573 -0.000129 0.000000
  outer loop
    vertex 0.176702 -0.087122 0.250000
    vertex 0.176444 -0.088269 0.250000
    vertex 0.176444 -0.088269 -0.250000
  endloop
endfacet
facet normal 0.000573 -0.000129 0.000000
  outer loop
    vertex 0.176702 -0.087122 0.250000
    vertex 0.176444 -0.088269 -0.250000
    vertex 0.176702 -0.087122 -0.250000
  endloop
endfacet
facet normal 0.000649 -0.000143 0.000000
  outer loop
    vertex 0.176444 -0.088269 0.250000
    vertex 0.176158 -0.089567 0.250000
    vertex 0.176158 -0.089567 -0.250000
  endloop
endfacet
facet normal 0.000649 -0.000143 0.000000
  outer loop
    vertex 0.176444 -0.088269 0.250000
    vertex 0.176158 -0.089567 -0.250000
    vertex 0.176444 -0.088269 -0.250000
  endloop
endfacet
facet normal 0.000855 -0.000184 0.000000
  outer loop
    vertex 0.176158 -0.089567 0.250000
    vertex 0.175791 -0.091276 0.250000
    vertex 0.175791 -0.091276 -0.250000
  endloop
endfacet
facet normal 0.000855 -0.000184 0.000000
  outer loop
    vertex 0.176158 -0.089567 0.250000
    vertex 0.175791 -0.091276 -0.250000
    vertex 0.176158 -0.089567 -0.250000
  endloop
endfacet
facet normal 0.000838 -0.000176 0.000000
  outer loop
    vertex 0.175791 -0.091276 0.250000
    vertex 0.175439 -0.092952 0.250000
    vertex 0.175439 -0.092952 -0.250000
  endloop
endfacet
facet normal 0.000838 -0.000176 0.000000
  outer loop
    vertex 0.175791 -0.091276 0.250000
    vertex 0.175439 -0.092952 -0.250000
    vertex 0.175791 -0.091276 -0.250000
  endloop
endfacet
facet normal 0.000846 -0.000171 0.000000
  outer loop
    vertex 0.175439 -0.092952 0.250000
    vertex 0.175097 -0.094645 0.250000
    vertex 0.175097 -0.094645 -0.250000
  endloop
endfacet
facet normal 0.000846 -0.000171 0.000000
  outer loop
    vertex 0.175439 -0.092952 0.250000
    vertex 0.175097 -0.094645 -0.250000
    vertex 0.175439 -0.092952 -0.250000
  endloop
endfacet
facet normal 0.000453 -0.000089 0.000000
  outer loop
    vertex 0.175097 -0.094645 0.250000
    vertex 0.174920 -0.095550 0.250000
    vertex 0.174920 -0.095550 -0.250000
  endloop
endfacet
facet normal 0.000453 -0.000089 0.000000
  outer loop
    vertex 0.175097 -0.094645 0.250000
    vertex 0.174920 -0.095550 -0.250000
    vertex 0.175097 -0.094645 -0.250000
  endloop
endfacet
facet normal 0.000268 -0.000052 0.000000
  outer loop
    vertex 0.174920 -0.095550 0.250000
    vertex 0.174816 -0.096085 0.250000
    vertex 0.174816 -0.096085 -0.250000
  endloop
endfacet
facet normal 0.000268 -0.000052 0.000000
  outer loop
    vertex 0.174920 -0.095550 0.250000
    vertex 0.174816 -0.096085 -0.250000
    vertex 0.174920 -0.095550 -0.250000
  endloop
endfacet
facet normal 0.000222 -0.000043 0.000000
  outer loop
    vertex 0.174816 -0.096085 0.250000
    vertex 0.174731 -0.096530 0.250000
    vertex 0.174731 -0.096530 -0.250000
  endloop
endfacet
facet normal 0.000222 -0.000043 0.000000
  outer loop
    vertex 0.174816 -0.096085 0.250000
    vertex 0.174731 -0.096530 -0.250000
    vertex 0.174816 -0.096085 -0.250000
  endloop
endfacet
facet normal 0.000173 -0.000033 0.000000
  outer loop
    vertex 0.174731 -0.096530 0.250000
    vertex 0.174664 -0.096875 0.250000
    vertex 0.174664 -0.096875 -0.250000
  endloop
endfacet
facet normal 0.000173 -0.000033 0.000000
  outer loop
    vertex 0.174731 -0.096530 0.250000
    vertex 0.174664 -0.096875 -0.250000
    vertex 0.174731 -0.096530 -0.250000
  endloop
endfacet
facet normal 0.000170 -0.000032 0.000000
  outer loop
    vertex 0.174664 -0.096875 0.250000
    vertex 0.174599 -0.097215 0.250000
    vertex 0.174599 -0.097215 -0.250000
  endloop
endfacet
facet normal 0.000170 -0.000032 0.000000
  outer loop
    vertex 0.174664 -0.096875 0.250000
    vertex 0.174599 -0.097215 -0.250000
    vertex 0.174664 -0.096875 -0.250000
  endloop
endfacet
facet normal -0.000389 0.000701 0.000000
  outer loop
    vertex 0.132664 -0.133921 0.250000
    vertex 0.134067 -0.133143 0.250000
    vertex 0.134067 -0.133143 -0.250000
  endloop
endfacet
facet normal -0.000389 0.000701 0.000000
  outer loop
    vertex 0.132664 -0.133921 0.250000
    vertex 0.134067 -0.133143 -0.250000
    vertex 0.132664 -0.133921 -0.250000
  endloop
endfacet
facet normal -0.000381 0.000681 0.000000
  outer loop
    vertex 0.134067 -0.133143 0.250000
    vertex 0.135429 -0.132381 0.250000
    vertex 0.135429 -0.132381 -0.250000
  endloop
endfacet
facet normal -0.000381 0.000681 0.000000
  outer loop
    vertex 0.134067 -0.133143 0.250000
    vertex 0.135429 -0.132381 -0.250000
    vertex 0.134067 -0.133143 -0.250000
  endloop
endfacet
facet normal -0.000377 0.000662 0.000000
  outer loop
    vertex 0.135429 -0.132381 0.250000
    vertex 0.136753 -0.131626 0.250000
    vertex 0.136753 -0.131626 -0.250000
  endloop
endfacet
facet normal -0.000377 0.000662 0.000000
  outer loop
    vertex 0.135429 -0.132381 0.250000
    vertex 0.136753 -0.131626 -0.250000
    vertex 0.135429 -0.132381 -0.250000
  endloop
endfacet
facet normal -0.000394 0.000684 0.000000
  outer loop
    vertex 0.136753 -0.131626 0.250000
    vertex 0.138122 -0.130838 0.250000
    vertex 0.138122 -0.130838 -0.250000
  endloop
endfacet
facet normal -0.000394 0.000684 0.000000
  outer loop
    vertex 0.136753 -0.131626 0.250000
    vertex 0.138122 -0.130838 -0.250000
    vertex 0.136753 -0.131626 -0.250000
  endloop
endfacet
facet normal -0.000551 0.000943 0.000000
  outer loop
    vertex 0.138122 -0.130838 0.250000
    vertex 0.140008 -0.129735 0.250000
    vertex 0.140008 -0.129735 -0.250000
  endloop
endfacet
facet normal -0.000551 0.000943 0.000000
  outer loop
    vertex 0.138122 -0.130838 0.250000
    vertex 0.140008 -0.129735 -0.250000
    vertex 0.138122 -0.130838 -0.250000
  endloop
endfacet
facet normal -0.000408 0.000688 0.000000
  outer loop
    vertex 0.140008 -0.129735 0.250000
    vertex 0.141385 -0.128918 0.250000
    vertex 0.141385 -0.128918 -0.250000
  endloop
endfacet
facet normal -0.000408 0.000688 0.000000
  outer loop
    vertex 0.140008 -0.129735 0.250000
    vertex 0.141385 -0.128918 -0.250000
    vertex 0.140008 -0.129735 -0.250000
  endloop
endfacet
facet normal -0.000478 0.000795 0.000000
  outer loop
    vertex 0.141385 -0.128918 0.250000
    vertex 0.142976 -0.127963 0.250000
    vertex 0.142976 -0.127963 -0.250000
  endloop
endfacet
facet normal -0.000478 0.000795 0.000000
  outer loop
    vertex 0.141385 -0.128918 0.250000
    vertex 0.142976 -0.127963 -0.250000
    vertex 0.141385 -0.128918 -0.250000
  endloop
endfacet
facet normal -0.000368 0.000604 0.000000
  outer loop
    vertex 0.142976 -0.127963 0.250000
    vertex 0.144184 -0.127227 0.250000
    vertex 0.144184 -0.127227 -0.250000
  endloop
endfacet
facet normal -0.000368 0.000604 0.000000
  outer loop
    vertex 0.142976 -0.127963 0.250000
    vertex 0.144184 -0.127227 -0.250000
    vertex 0.142976 -0.127963 -0.250000
  endloop
endfacet
facet normal -0.000222 0.000361 0.000000
  outer loop
    vertex 0.144184 -0.127227 0.250000
    vertex 0.144907 -0.126784 0.250000
    vertex 0.144907 -0.126784 -0.250000
  endloop
endfacet
facet normal -0.000222 0.000361 0.000000
  outer loop
    vertex 0.144184 -0.127227 0.250000
    vertex 0.144907 -0.126784 -0.250000
    vertex 0.144184 -0.127227 -0.250000
  endloop
endfacet
facet normal -0.000614 0.000989 0.000000
  outer loop
    vertex 0.144907 -0.126784 0.250000
    vertex 0.146885 -0.125557 0.250000
    vertex 0.146885 -0.125557 -0.250000
  endloop
endfacet
facet normal -0.000614 0.000989 0.000000
  outer loop
    vertex 0.144907 -0.126784 0.250000
    vertex 0.146885 -0.125557 -0.250000
    vertex 0.144907 -0.126784 -0.250000
  endloop
endfacet
facet normal -0.000404 0.000641 0.000000
  outer loop
    vertex 0.146885 -0.125557 0.250000
    vertex 0.148167 -0.124750 0.250000
    vertex 0.148167 -0.124750 -0.250000
  endloop
endfacet
facet normal -0.000404 0.000641 0.000000
  outer loop
    vertex 0.146885 -0.125557 0.250000
    vertex 0.148167 -0.124750 -0.250000
    vertex 0.146885 -0.125557 -0.250000
  endloop
endfacet
facet normal -0.000216 0.000339 0.000000
  outer loop
    vertex 0.148167 -0.124750 0.250000
    vertex 0.148845 -0.124318 0.250000
    vertex 0.148845 -0.124318 -0.250000
  endloop
endfacet
facet normal -0.000216 0.000339 0.000000
  outer loop
    vertex 0.148167 -0.124750 0.250000
    vertex 0.148845 -0.124318 -0.250000
    vertex 0.148167 -0.124750 -0.250000
  endloop
endfacet
facet normal -0.000193 0.000301 0.000000
  outer loop
    vertex 0.148845 -0.124318 0.250000
    vertex 0.149448 -0.123933 0.250000
    vertex 0.149448 -0.123933 -0.250000
  endloop
endfacet
facet normal -0.000193 0.000301 0.000000
  outer loop
    vertex 0.148845 -0.124318 0.250000
    vertex 0.149448 -0.123933 -0.250000
    vertex 0.148845 -0.124318 -0.250000
  endloop
endfacet
facet normal -0.000439 0.000678 0.000000
  outer loop
    vertex 0.149448 -0.123933 0.250000
    vertex 0.150805 -0.123055 0.250000
    vertex 0.150805 -0.123055 -0.250000
  endloop
endfacet
facet normal -0.000439 0.000678 0.000000
  outer loop
    vertex 0.149448 -0.123933 0.250000
    vertex 0.150805 -0.123055 -0.250000
    vertex 0.149448 -0.123933 -0.250000
  endloop
endfacet
facet normal -0.000428 0.000652 0.000000
  outer loop
    vertex 0.150805 -0.123055 0.250000
    vertex 0.152108 -0.122200 0.250000
    vertex 0.152108 -0.122200 -0.250000
  endloop
endfacet
facet normal -0.000428 0.000652 0.000000
  outer loop
    vertex 0.150805 -0.123055 0.250000
    vertex 0.152108 -0.122200 -0.250000
    vertex 0.150805 -0.123055 -0.250000
  endloop
endfacet
facet normal -0.000382 0.000573 0.000000
  outer loop
    vertex 0.152108 -0.122200 0.250000
    vertex 0.153254 -0.121436 0.250000
    vertex 0.153254 -0.121436 -0.250000
  endloop
endfacet
facet normal -0.000382 0.000573 0.000000
  outer loop
    vertex 0.152108 -0.122200 0.250000
    vertex 0.153254 -0.121436 -0.250000
    vertex 0.152108 -0.122200 -0.250000
  endloop
endfacet
facet normal -0.000387 0.000572 0.000000
  outer loop
    vertex 0.153254 -0.121436 0.250000
    vertex 0.154399 -0.120661 0.250000
    vertex 0.154399 -0.120661 -0.250000
  endloop
endfacet
facet normal -0.000387 0.000572 0.000000
  outer loop
    vertex 0.153254 -0.121436 0.250000
    vertex 0.154399 -0.120661 -0.250000
    vertex 0.153254 -0.121436 -0.250000
  endloop
endfacet
facet normal -0.000403 0.000586 0.000000
  outer loop
    vertex 0.154399 -0.120661 0.250000
    vertex 0.155571 -0.119855 0.250000
    vertex 0.155571 -0.119855 -0.250000
  endloop
endfacet
facet normal -0.000403 0.000586 0.000000
  outer loop
    vertex 0.154399 -0.120661 0.250000
    vertex 0.155571 -0.119855 -0.250000
    vertex 0.154399 -0.120661 -0.250000
  endloop
endfacet
facet normal -0.000419 0.000599 0.000000
  outer loop
    vertex 0.155571 -0.119855 0.250000
    vertex 0.156769 -0.119017 0.250000
    vertex 0.156769 -0.119017 -0.250000
  endloop
endfacet
facet normal -0.000419 0.000599 0.000000
  outer loop
    vertex 0.155571 -0.119855 0.250000
    vertex 0.156769 -0.119017 -0.250000
    vertex 0.155571 -0.119855 -0.250000
  endloop
endfacet
facet normal -0.000401 0.000561 0.000000
  outer loop
    vertex 0.156769 -0.119017 0.250000
    vertex 0.157890 -0.118214 0.250000
    vertex 0.157890 -0.118214 -0.250000
  endloop
endfacet
facet normal -0.000401 0.000561 0.000000
  outer loop
    vertex 0.156769 -0.119017 0.250000
    vertex 0.157890 -0.118214 -0.250000
    vertex 0.156769 -0.119017 -0.250000
  endloop
endfacet
facet normal -0.000392 0.000538 0.000000
  outer loop
    vertex 0.157890 -0.118214 0.250000
    vertex 0.158967 -0.117429 0.250000
    vertex 0.158967 -0.117429 -0.250000
  endloop
endfacet
facet normal -0.000392 0.000538 0.000000
  outer loop
    vertex 0.157890 -0.118214 0.250000
    vertex 0.158967 -0.117429 -0.250000
    vertex 0.157890 -0.118214 -0.250000
  endloop
endfacet
facet normal -0.000521 0.000695 0.000000
  outer loop
    vertex 0.158967 -0.117429 0.250000
    vertex 0.160358 -0.116387 0.250000
    vertex 0.160358 -0.116387 -0.250000
  endloop
endfacet
facet normal -0.000521 0.000695 0.000000
  outer loop
    vertex 0.158967 -0.117429 0.250000
    vertex 0.160358 -0.116387 -0.250000
    vertex 0.158967 -0.117429 -0.250000
  endloop
endfacet
facet normal -0.001030 0.001306 0.000000
  outer loop
    vertex 0.160358 -0.116387 0.250000
    vertex 0.162969 -0.114327 0.250000
    vertex 0.162969 -0.114327 -0.250000
  endloop
endfacet
facet normal -0.001030 0.001306 0.000000
  outer loop
    vertex 0.160358 -0.116387 0.250000
    vertex 0.162969 -0.114327 -0.250000
    vertex 0.160358 -0.116387 -0.250000
  endloop
endfacet
facet normal -0.000612 0.000729 0.000000
  outer loop
    vertex 0.162969 -0.114327 0.250000
    vertex 0.164428 -0.113102 0.250000
    vertex 0.164428 -0.113102 -0.250000
  endloop
endfacet
facet normal -0.000612 0.000729 0.000000
  outer loop
    vertex 0.162969 -0.114327 0.250000
    vertex 0.164428 -0.113102 -0.250000
    vertex 0.162969 -0.114327 -0.250000
  endloop
endfacet
facet normal -0.000635 0.000715 0.000000
  outer loop
    vertex 0.164428 -0.113102 0.250000
    vertex 0.165858 -0.111832 0.250000
    vertex 0.165858 -0.111832 -0.250000
  endloop
endfacet
facet normal -0.000635 0.000715 0.000000
  outer loop
    vertex 0.164428 -0.113102 0.250000
    vertex 0.165858 -0.111832 -0.250000
    vertex 0.164428 -0.113102 -0.250000
  endloop
endfacet
facet normal -0.000611 0.000643 0.000000
  outer loop
    vertex 0.165858 -0.111832 0.250000
    vertex 0.167145 -0.110609 0.250000
    vertex 0.167145 -0.110609 -0.250000
  endloop
endfacet
facet normal -0.000611 0.000643 0.000000
  outer loop
    vertex 0.165858 -0.111832 0.250000
    vertex 0.167145 -0.110609 -0.250000
    vertex 0.165858 -0.111832 -0.250000
  endloop
endfacet
facet normal -0.000335 0.000333 0.000000
  outer loop
    vertex 0.167145 -0.110609 0.250000
    vertex 0.167811 -0.109939 0.250000
    vertex 0.167811 -0.109939 -0.250000
  endloop
endfacet
facet normal -0.000335 0.000333 0.000000
  outer loop
    vertex 0.167145 -0.110609 0.250000
    vertex 0.167811 -0.109939 -0.250000
    vertex 0.167145 -0.110609 -0.250000
  endloop
endfacet
facet normal -0.000286 0.000272 0.000000
  outer loop
    vertex 0.167811 -0.109939 0.250000
    vertex 0.168355 -0.109367 0.250000
    vertex 0.168355 -0.109367 -0.250000
  endloop
endfacet
facet normal -0.000286 0.000272 0.000000
  outer loop
    vertex 0.167811 -0.109939 0.250000
    vertex 0.168355 -0.109367 -0.250000
    vertex 0.167811 -0.109939 -0.250000
  endloop
endfacet
facet normal -0.000396 0.000356 0.000000
  outer loop
    vertex 0.168355 -0.109367 0.250000
    vertex 0.169067 -0.108576 0.250000
    vertex 0.169067 -0.108576 -0.250000
  endloop
endfacet
facet normal -0.000396 0.000356 0.000000
  outer loop
    vertex 0.168355 -0.109367 0.250000
    vertex 0.169067 -0.108576 -0.250000
    vertex 0.168355 -0.109367 -0.250000
  endloop
endfacet
facet normal -0.000357 0.000300 0.000000
  outer loop
    vertex 0.169067 -0.108576 0.250000
    vertex 0.169666 -0.107862 0.250000
    vertex 0.169666 -0.107862 -0.250000
  endloop
endfacet
facet normal -0.000357 0.000300 0.000000
  outer loop
    vertex 0.169067 -0.108576 0.250000
    vertex 0.169666 -0.107862 -0.250000
    vertex 0.169067 -0.108576 -0.250000
  endloop
endfacet
facet normal -0.000192 0.000152 0.000000
  outer loop
    vertex 0.169666 -0.107862 0.250000
    vertex 0.169971 -0.107478 0.250000
    vertex 0.169971 -0.107478 -0.250000
  endloop
endfacet
facet normal -0.000192 0.000152 0.000000
  outer loop
    vertex 0.169666 -0.107862 0.250000
    vertex 0.169971 -0.107478 -0.250000
    vertex 0.169666 -0.107862 -0.250000
  endloop
endfacet
facet normal -0.000243 0.000182 0.000000
  outer loop
    vertex 0.169971 -0.107478 0.250000
    vertex 0.170334 -0.106992 0.250000
    vertex 0.170334 -0.106992 -0.250000
  endloop
endfacet
facet normal -0.000243 0.000182 0.000000
  outer loop
    vertex 0.169971 -0.107478 0.250000
    vertex 0.170334 -0.106992 -0.250000
    vertex 0.169971 -0.107478 -0.250000
  endloop
endfacet
facet normal -0.000266 0.000186 0.000000
  outer loop
    vertex 0.170334 -0.106992 0.250000
    vertex 0.170705 -0.106460 0.250000
    vertex 0.170705 -0.106460 -0.250000
  endloop
endfacet
facet normal -0.000266 0.000186 0.000000
  outer loop
    vertex 0.170334 -0.106992 0.250000
    vertex 0.170705 -0.106460 -0.250000
    vertex 0.170334 -0.106992 -0.250000
  endloop
endfacet
facet normal -0.000277 0.000174 0.000000
  outer loop
    vertex 0.170705 -0.106460 0.250000
    vertex 0.171054 -0.105906 0.250000
    vertex 0.171054 -0.105906 -0.250000
  endloop
endfacet
facet normal -0.000277 0.000174 0.000000
  outer loop
    vertex 0.170705 -0.106460 0.250000
    vertex 0.171054 -0.105906 -0.250000
    vertex 0.170705 -0.106460 -0.250000
  endloop
endfacet
facet normal -0.000200 0.000113 0.000000
  outer loop
    vertex 0.171054 -0.105906 0.250000
    vertex 0.171280 -0.105505 0.250000
    vertex 0.171280 -0.105505 -0.250000
  endloop
endfacet
facet normal -0.000200 0.000113 0.000000
  outer loop
    vertex 0.171054 -0.105906 0.250000
    vertex 0.171280 -0.105505 -0.250000
    vertex 0.171054 -0.105906 -0.250000
  endloop
endfacet
facet normal -0.000202 0.000101 0.000000
  outer loop
    vertex 0.171280 -0.105505 0.250000
    vertex 0.171482 -0.105100 0.250000
    vertex 0.171482 -0.105100 -0.250000
  endloop
endfacet
facet normal -0.000202 0.000101 0.000000
  outer loop
    vertex 0.171280 -0.105505 0.250000
    vertex 0.171482 -0.105100 -0.250000
    vertex 0.171280 -0.105505 -0.250000
  endloop
endfacet
facet normal -0.000236 0.000100 0.000000
  outer loop
    vertex 0.171482 -0.105100 0.250000
    vertex 0.171682 -0.104628 0.250000
    vertex 0.171682 -0.104628 -0.250000
  endloop
endfacet
facet normal -0.000236 0.000100 0.000000
  outer loop
    vertex 0.171482 -0.105100 0.250000
    vertex 0.171682 -0.104628 -0.250000
    vertex 0.171482 -0.105100 -0.250000
  endloop
endfacet
facet normal -0.000230 0.000074 0.000000
  outer loop
    vertex 0.171682 -0.104628 0.250000
    vertex 0.171831 -0.104168 0.250000
    vertex 0.171831 -0.104168 -0.250000
  endloop
endfacet
facet normal -0.000230 0.000074 0.000000
  outer loop
    vertex 0.171682 -0.104628 0.250000
    vertex 0.171831 -0.104168 -0.250000
    vertex 0.171682 -0.104628 -0.250000
  endloop
endfacet
facet normal -0.000206 0.000035 0.000000
  outer loop
    vertex 0.171831 -0.104168 0.250000
    vertex 0.171902 -0.103755 0.250000
    vertex 0.171902 -0.103755 -0.250000
  endloop
endfacet
facet normal -0.000206 0.000035 0.000000
  outer loop
    vertex 0.171831 -0.104168 0.250000
    vertex 0.171902 -0.103755 -0.250000
    vertex 0.171831 -0.104168 -0.250000
  endloop
endfacet
facet normal -0.000299 -0.000011 0.000000
  outer loop
    vertex 0.171902 -0.103755 0.250000
    vertex 0.171880 -0.103157 0.250000
    vertex 0.171880 -0.103157 -0.250000
  endloop
endfacet
facet normal -0.000299 -0.000011 -0.000000
  outer loop
    vertex 0.171902 -0.103755 0.250000
    vertex 0.171880 -0.103157 -0.250000
    vertex 0.171902 -0.103755 -0.250000
  endloop
endfacet
facet normal -0.000135 -0.000037 0.000000
  outer loop
    vertex 0.171880 -0.103157 0.250000
    vertex 0.171806 -0.102887 0.250000
    vertex 0.171806 -0.102887 -0.250000
  endloop
endfacet
facet normal -0.000135 -0.000037 -0.000000
  outer loop
    vertex 0.171880 -0.103157 0.250000
    vertex 0.171806 -0.102887 -0.250000
    vertex 0.171880 -0.103157 -0.250000
  endloop
endfacet
facet normal -0.000123 -0.000063 0.000000
  outer loop
    vertex 0.171806 -0.102887 0.250000
    vertex 0.171680 -0.102641 0.250000
    vertex 0.171680 -0.102641 -0.250000
  endloop
endfacet
facet normal -0.000123 -0.000063 -0.000000
  outer loop
    vertex 0.171806 -0.102887 0.250000
    vertex 0.171680 -0.102641 -0.250000
    vertex 0.171806 -0.102887 -0.250000
  endloop
endfacet
facet normal -0.000152 -0.000160 0.000000
  outer loop
    vertex 0.171680 -0.102641 0.250000
    vertex 0.171361 -0.102337 0.250000
    vertex 0.171361 -0.102337 -0.250000
  endloop
endfacet
facet normal -0.000152 -0.000160 -0.000000
  outer loop
    vertex 0.171680 -0.102641 0.250000
    vertex 0.171361 -0.102337 -0.250000
    vertex 0.171680 -0.102641 -0.250000
  endloop
endfacet
facet normal -0.000083 -0.000170 0.000000
  outer loop
    vertex 0.171361 -0.102337 0.250000
    vertex 0.171021 -0.102172 0.250000
    vertex 0.171021 -0.102172 -0.250000
  endloop
endfacet
facet normal -0.000083 -0.000170 -0.000000
  outer loop
    vertex 0.171361 -0.102337 0.250000
    vertex 0.171021 -0.102172 -0.250000
    vertex 0.171361 -0.102337 -0.250000
  endloop
endfacet
facet normal -0.000056 -0.000239 0.000000
  outer loop
    vertex 0.171021 -0.102172 0.250000
    vertex 0.170542 -0.102059 0.250000
    vertex 0.170542 -0.102059 -0.250000
  endloop
endfacet
facet normal -0.000056 -0.000239 -0.000000
  outer loop
    vertex 0.171021 -0.102172 0.250000
    vertex 0.170542 -0.102059 -0.250000
    vertex 0.171021 -0.102172 -0.250000
  endloop
endfacet
facet normal -0.000010 -0.000209 0.000000
  outer loop
    vertex 0.170542 -0.102059 0.250000
    vertex 0.170124 -0.102039 0.250000
    vertex 0.170124 -0.102039 -0.250000
  endloop
endfacet
facet normal -0.000010 -0.000209 -0.000000
  outer loop
    vertex 0.170542 -0.102059 0.250000
    vertex 0.170124 -0.102039 -0.250000
    vertex 0.170542 -0.102059 -0.250000
  endloop
endfacet
facet normal 0.000069 -0.000492 0.000000
  outer loop
    vertex 0.170124 -0.102039 0.250000
    vertex 0.169139 -0.102177 0.250000
    vertex 0.169139 -0.102177 -0.250000
  endloop
endfacet
facet normal 0.000069 -0.000492 0.000000
  outer loop
    vertex 0.170124 -0.102039 0.250000
    vertex 0.169139 -0.102177 -0.250000
    vertex 0.170124 -0.102039 -0.250000
  endloop
endfacet
facet normal -0.000046 0.000252 0.000000
  outer loop
    vertex 0.169139 -0.102177 0.250000
    vertex 0.169643 -0.102084 0.250000
    vertex 0.169643 -0.102084 -0.250000
  endloop
endfacet
facet normal -0.000046 0.000252 0.000000
  outer loop
    vertex 0.169139 -0.102177 0.250000
    vertex 0.169643 -0.102084 -0.250000
    vertex 0.169139 -0.102177 -0.250000
  endloop
endfacet
facet normal 0.000167 -0.000692 0.000000
  outer loop
    vertex 0.169643 -0.102084 0.250000
    vertex 0.168259 -0.102419 0.250000
    vertex 0.168259 -0.102419 -0.250000
  endloop
endfacet
facet normal 0.000167 -0.000692 0.000000
  outer loop
    vertex 0.169643 -0.102084 0.250000
    vertex 0.168259 -0.102419 -0.250000
    vertex 0.169643 -0.102084 -0.250000
  endloop
endfacet
facet normal 0.000110 -0.000308 0.000000
  outer loop
    vertex 0.168259 -0.102419 0.250000
    vertex 0.167642 -0.102639 0.250000
    vertex 0.167642 -0.102639 -0.250000
  endloop
endfacet
facet normal 0.000110 -0.000308 0.000000
  outer loop
    vertex 0.168259 -0.102419 0.250000
    vertex 0.167642 -0.102639 -0.250000
    vertex 0.168259 -0.102419 -0.250000
  endloop
endfacet
facet normal 0.000123 -0.000300 0.000000
  outer loop
    vertex 0.167642 -0.102639 0.250000
    vertex 0.167041 -0.102886 0.250000
    vertex 0.167041 -0.102886 -0.250000
  endloop
endfacet
facet normal 0.000123 -0.000300 0.000000
  outer loop
    vertex 0.167642 -0.102639 0.250000
    vertex 0.167041 -0.102886 -0.250000
    vertex 0.167642 -0.102639 -0.250000
  endloop
endfacet
facet normal 0.000125 -0.000276 0.000000
  outer loop
    vertex 0.167041 -0.102886 0.250000
    vertex 0.166489 -0.103135 0.250000
    vertex 0.166489 -0.103135 -0.250000
  endloop
endfacet
facet normal 0.000125 -0.000276 0.000000
  outer loop
    vertex 0.167041 -0.102886 0.250000
    vertex 0.166489 -0.103135 -0.250000
    vertex 0.167041 -0.102886 -0.250000
  endloop
endfacet
facet normal 0.000107 -0.000221 0.000000
  outer loop
    vertex 0.166489 -0.103135 0.250000
    vertex 0.166048 -0.103349 0.250000
    vertex 0.166048 -0.103349 -0.250000
  endloop
endfacet
facet normal 0.000107 -0.000221 0.000000
  outer loop
    vertex 0.166489 -0.103135 0.250000
    vertex 0.166048 -0.103349 -0.250000
    vertex 0.166489 -0.103135 -0.250000
  endloop
endfacet
facet normal 0.000214 -0.000414 0.000000
  outer loop
    vertex 0.166048 -0.103349 0.250000
    vertex 0.165220 -0.103778 0.250000
    vertex 0.165220 -0.103778 -0.250000
  endloop
endfacet
facet normal 0.000214 -0.000414 0.000000
  outer loop
    vertex 0.166048 -0.103349 0.250000
    vertex 0.165220 -0.103778 -0.250000
    vertex 0.166048 -0.103349 -0.250000
  endloop
endfacet
facet normal 0.000142 -0.000257 0.000000
  outer loop
    vertex 0.165220 -0.103778 0.250000
    vertex 0.164706 -0.104063 0.250000
    vertex 0.164706 -0.104063 -0.250000
  endloop
endfacet
facet normal 0.000142 -0.000257 0.000000
  outer loop
    vertex 0.165220 -0.103778 0.250000
    vertex 0.164706 -0.104063 -0.250000
    vertex 0.165220 -0.103778 -0.250000
  endloop
endfacet
facet normal 0.000119 -0.000206 0.000000
  outer loop
    vertex 0.164706 -0.104063 0.250000
    vertex 0.164294 -0.104301 0.250000
    vertex 0.164294 -0.104301 -0.250000
  endloop
endfacet
facet normal 0.000119 -0.000206 0.000000
  outer loop
    vertex 0.164706 -0.104063 0.250000
    vertex 0.164294 -0.104301 -0.250000
    vertex 0.164706 -0.104063 -0.250000
  endloop
endfacet
facet normal 0.000203 -0.000339 0.000000
  outer loop
    vertex 0.164294 -0.104301 0.250000
    vertex 0.163617 -0.104708 0.250000
    vertex 0.163617 -0.104708 -0.250000
  endloop
endfacet
facet normal 0.000203 -0.000339 0.000000
  outer loop
    vertex 0.164294 -0.104301 0.250000
    vertex 0.163617 -0.104708 -0.250000
    vertex 0.164294 -0.104301 -0.250000
  endloop
endfacet
facet normal 0.000252 -0.000400 0.000000
  outer loop
    vertex 0.163617 -0.104708 0.250000
    vertex 0.162817 -0.105212 0.250000
    vertex 0.162817 -0.105212 -0.250000
  endloop
endfacet
facet normal 0.000252 -0.000400 0.000000
  outer loop
    vertex 0.163617 -0.104708 0.250000
    vertex 0.162817 -0.105212 -0.250000
    vertex 0.163617 -0.104708 -0.250000
  endloop
endfacet
facet normal 0.000495 -0.000736 0.000000
  outer loop
    vertex 0.162817 -0.105212 0.250000
    vertex 0.161346 -0.106203 0.250000
    vertex 0.161346 -0.106203 -0.250000
  endloop
endfacet
facet normal 0.000495 -0.000736 0.000000
  outer loop
    vertex 0.162817 -0.105212 0.250000
    vertex 0.161346 -0.106203 -0.250000
    vertex 0.162817 -0.105212 -0.250000
  endloop
endfacet
facet normal 0.000560 -0.000776 0.000000
  outer loop
    vertex 0.161346 -0.106203 0.250000
    vertex 0.159794 -0.107323 0.250000
    vertex 0.159794 -0.107323 -0.250000
  endloop
endfacet
facet normal 0.000560 -0.000776 0.000000
  outer loop
    vertex 0.161346 -0.106203 0.250000
    vertex 0.159794 -0.107323 -0.250000
    vertex 0.161346 -0.106203 -0.250000
  endloop
endfacet
facet normal 0.000578 -0.000756 0.000000
  outer loop
    vertex 0.159794 -0.107323 0.250000
    vertex 0.158281 -0.108479 0.250000
    vertex 0.158281 -0.108479 -0.250000
  endloop
endfacet
facet normal 0.000578 -0.000756 0.000000
  outer loop
    vertex 0.159794 -0.107323 0.250000
    vertex 0.158281 -0.108479 -0.250000
    vertex 0.159794 -0.107323 -0.250000
  endloop
endfacet
facet normal 0.000471 -0.000590 0.000000
  outer loop
    vertex 0.158281 -0.108479 0.250000
    vertex 0.157102 -0.109422 0.250000
    vertex 0.157102 -0.109422 -0.250000
  endloop
endfacet
facet normal 0.000471 -0.000590 0.000000
  outer loop
    vertex 0.158281 -0.108479 0.250000
    vertex 0.157102 -0.109422 -0.250000
    vertex 0.158281 -0.108479 -0.250000
  endloop
endfacet
facet normal 0.000580 -0.000700 0.000000
  outer loop
    vertex 0.157102 -0.109422 0.250000
    vertex 0.155703 -0.110581 0.250000
    vertex 0.155703 -0.110581 -0.250000
  endloop
endfacet
facet normal 0.000580 -0.000700 0.000000
  outer loop
    vertex 0.157102 -0.109422 0.250000
    vertex 0.155703 -0.110581 -0.250000
    vertex 0.157102 -0.109422 -0.250000
  endloop
endfacet
facet normal 0.000565 -0.000659 0.000000
  outer loop
    vertex 0.155703 -0.110581 0.250000
    vertex 0.154384 -0.111711 0.250000
    vertex 0.154384 -0.111711 -0.250000
  endloop
endfacet
facet normal 0.000565 -0.000659 0.000000
  outer loop
    vertex 0.155703 -0.110581 0.250000
    vertex 0.154384 -0.111711 -0.250000
    vertex 0.155703 -0.110581 -0.250000
  endloop
endfacet
facet normal 0.000440 -0.000501 0.000000
  outer loop
    vertex 0.154384 -0.111711 0.250000
    vertex 0.153383 -0.112592 0.250000
    vertex 0.153383 -0.112592 -0.250000
  endloop
endfacet
facet normal 0.000440 -0.000501 0.000000
  outer loop
    vertex 0.154384 -0.111711 0.250000
    vertex 0.153383 -0.112592 -0.250000
    vertex 0.154384 -0.111711 -0.250000
  endloop
endfacet
facet normal 0.000460 -0.000513 0.000000
  outer loop
    vertex 0.153383 -0.112592 0.250000
    vertex 0.152356 -0.113512 0.250000
    vertex 0.152356 -0.113512 -0.250000
  endloop
endfacet
facet normal 0.000460 -0.000513 0.000000
  outer loop
    vertex 0.153383 -0.112592 0.250000
    vertex 0.152356 -0.113512 -0.250000
    vertex 0.153383 -0.112592 -0.250000
  endloop
endfacet
facet normal 0.000493 -0.000540 0.000000
  outer loop
    vertex 0.152356 -0.113512 0.250000
    vertex 0.151276 -0.114498 0.250000
    vertex 0.151276 -0.114498 -0.250000
  endloop
endfacet
facet normal 0.000493 -0.000540 0.000000
  outer loop
    vertex 0.152356 -0.113512 0.250000
    vertex 0.151276 -0.114498 -0.250000
    vertex 0.152356 -0.113512 -0.250000
  endloop
endfacet
facet normal 0.001436 -0.001520 0.000000
  outer loop
    vertex 0.151276 -0.114498 0.250000
    vertex 0.148235 -0.117369 0.250000
    vertex 0.148235 -0.117369 -0.250000
  endloop
endfacet
facet normal 0.001436 -0.001520 0.000000
  outer loop
    vertex 0.151276 -0.114498 0.250000
    vertex 0.148235 -0.117369 -0.250000
    vertex 0.151276 -0.114498 -0.250000
  endloop
endfacet
facet normal 0.000543 -0.000559 0.000000
  outer loop
    vertex 0.148235 -0.117369 0.250000
    vertex 0.147117 -0.118454 0.250000
    vertex 0.147117 -0.118454 -0.250000
  endloop
endfacet
facet normal 0.000543 -0.000559 0.000000
  outer loop
    vertex 0.148235 -0.117369 0.250000
    vertex 0.147117 -0.118454 -0.250000
    vertex 0.148235 -0.117369 -0.250000
  endloop
endfacet
facet normal 0.000567 -0.000576 0.000000
  outer loop
    vertex 0.147117 -0.118454 0.250000
    vertex 0.145965 -0.119589 0.250000
    vertex 0.145965 -0.119589 -0.250000
  endloop
endfacet
facet normal 0.000567 -0.000576 0.000000
  outer loop
    vertex 0.147117 -0.118454 0.250000
    vertex 0.145965 -0.119589 -0.250000
    vertex 0.147117 -0.118454 -0.250000
  endloop
endfacet
facet normal 0.000252 -0.000254 0.000000
  outer loop
    vertex 0.145965 -0.119589 0.250000
    vertex 0.145457 -0.120093 0.250000
    vertex 0.145457 -0.120093 -0.250000
  endloop
endfacet
facet normal 0.000252 -0.000254 0.000000
  outer loop
    vertex 0.145965 -0.119589 0.250000
    vertex 0.145457 -0.120093 -0.250000
    vertex 0.145965 -0.119589 -0.250000
  endloop
endfacet
facet normal 0.000284 -0.000284 0.000000
  outer loop
    vertex 0.145457 -0.120093 0.250000
    vertex 0.144889 -0.120661 0.250000
    vertex 0.144889 -0.120661 -0.250000
  endloop
endfacet
facet normal 0.000284 -0.000284 0.000000
  outer loop
    vertex 0.145457 -0.120093 0.250000
    vertex 0.144889 -0.120661 -0.250000
    vertex 0.145457 -0.120093 -0.250000
  endloop
endfacet
facet normal 0.001370 -0.001348 0.000000
  outer loop
    vertex 0.144889 -0.120661 0.250000
    vertex 0.142193 -0.123400 0.250000
    vertex 0.142193 -0.123400 -0.250000
  endloop
endfacet
facet normal 0.001370 -0.001348 0.000000
  outer loop
    vertex 0.144889 -0.120661 0.250000
    vertex 0.142193 -0.123400 -0.250000
    vertex 0.144889 -0.120661 -0.250000
  endloop
endfacet
facet normal -0.000832 0.000815 0.000000
  outer loop
    vertex 0.142193 -0.123400 0.250000
    vertex 0.143823 -0.121736 0.250000
    vertex 0.143823 -0.121736 -0.250000
  endloop
endfacet
facet normal -0.000832 0.000815 0.000000
  outer loop
    vertex 0.142193 -0.123400 0.250000
    vertex 0.143823 -0.121736 -0.250000
    vertex 0.142193 -0.123400 -0.250000
  endloop
endfacet
facet normal 0.000832 -0.000815 0.000000
  outer loop
    vertex 0.143823 -0.121736 0.250000
    vertex 0.142193 -0.123400 0.250000
    vertex 0.142193 -0.123400 -0.250000
  endloop
endfacet
facet normal 0.000832 -0.000815 0.000000
  outer loop
    vertex 0.143823 -0.121736 0.250000
    vertex 0.142193 -0.123400 -0.250000
    vertex 0.143823 -0.121736 -0.250000
  endloop
endfacet
facet normal 0.000304 -0.000295 0.000000
  outer loop
    vertex 0.142193 -0.123400 0.250000
    vertex 0.141604 -0.124009 0.250000
    vertex 0.141604 -0.124009 -0.250000
  endloop
endfacet
facet normal 0.000304 -0.000295 0.000000
  outer loop
    vertex 0.142193 -0.123400 0.250000
    vertex 0.141604 -0.124009 -0.250000
    vertex 0.142193 -0.123400 -0.250000
  endloop
endfacet
facet normal 0.000510 -0.000490 0.000000
  outer loop
    vertex 0.141604 -0.124009 0.250000
    vertex 0.140625 -0.125029 0.250000
    vertex 0.140625 -0.125029 -0.250000
  endloop
endfacet
facet normal 0.000510 -0.000490 0.000000
  outer loop
    vertex 0.141604 -0.124009 0.250000
    vertex 0.140625 -0.125029 -0.250000
    vertex 0.141604 -0.124009 -0.250000
  endloop
endfacet
facet normal -0.000000 0.000000 0.000000
  outer loop
    vertex 0.140625 -0.125029 0.250000
    vertex 0.140625 -0.125029 0.250000
    vertex 0.140625 -0.125029 -0.250000
  endloop
endfacet
facet normal 0.000000 0.000000 0.000000
  outer loop
    vertex 0.140625 -0.125029 0.250000
    vertex 0.140625 -0.125029 -0.250000
    vertex 0.140625 -0.125029 -0.250000
  endloop
endfacet
facet normal 0.000673 -0.000640 0.000000
  outer loop
    vertex 0.140625 -0.125029 0.250000
    vertex 0.139345 -0.126375 0.250000
    vertex 0.139345 -0.126375 -0.250000
  endloop
endfacet
facet normal 0.000673 -0.000640 0.000000
  outer loop
    vertex 0.140625 -0.125029 0.250000
    vertex 0.139345 -0.126375 -0.250000
    vertex 0.140625 -0.125029 -0.250000
  endloop
endfacet
facet normal 0.000583 -0.000548 0.000000
  outer loop
    vertex 0.139345 -0.126375 0.250000
    vertex 0.138249 -0.127540 0.250000
    vertex 0.138249 -0.127540 -0.250000
  endloop
endfacet
facet normal 0.000583 -0.000548 0.000000
  outer loop
    vertex 0.139345 -0.126375 0.250000
    vertex 0.138249 -0.127540 -0.250000
    vertex 0.139345 -0.126375 -0.250000
  endloop
endfacet
facet normal 0.000801 -0.000743 0.000000
  outer loop
    vertex 0.138249 -0.127540 0.250000
    vertex 0.136762 -0.129142 0.250000
    vertex 0.136762 -0.129142 -0.250000
  endloop
endfacet
facet normal 0.000801 -0.000743 0.000000
  outer loop
    vertex 0.138249 -0.127540 0.250000
    vertex 0.136762 -0.129142 -0.250000
    vertex 0.138249 -0.127540 -0.250000
  endloop
endfacet
facet normal 0.000582 -0.000534 0.000000
  outer loop
    vertex 0.136762 -0.129142 0.250000
    vertex 0.135694 -0.130306 0.250000
    vertex 0.135694 -0.130306 -0.250000
  endloop
endfacet
facet normal 0.000582 -0.000534 0.000000
  outer loop
    vertex 0.136762 -0.129142 0.250000
    vertex 0.135694 -0.130306 -0.250000
    vertex 0.136762 -0.129142 -0.250000
  endloop
endfacet
facet normal 0.000565 -0.000512 0.000000
  outer loop
    vertex 0.135694 -0.130306 0.250000
    vertex 0.134670 -0.131435 0.250000
    vertex 0.134670 -0.131435 -0.250000
  endloop
endfacet
facet normal 0.000565 -0.000512 0.000000
  outer loop
    vertex 0.135694 -0.130306 0.250000
    vertex 0.134670 -0.131435 -0.250000
    vertex 0.135694 -0.130306 -0.250000
  endloop
endfacet
facet normal 0.000581 -0.000520 0.000000
  outer loop
    vertex 0.134670 -0.131435 0.250000
    vertex 0.133629 -0.132597 0.250000
    vertex 0.133629 -0.132597 -0.250000
  endloop
endfacet
facet normal 0.000581 -0.000520 0.000000
  outer loop
    vertex 0.134670 -0.131435 0.250000
    vertex 0.133629 -0.132597 -0.250000
    vertex 0.134670 -0.131435 -0.250000
  endloop
endfacet
facet normal 0.000662 -0.000483 0.000000
  outer loop
    vertex 0.133629 -0.132597 0.250000
    vertex 0.132664 -0.133921 0.250000
    vertex 0.132664 -0.133921 -0.250000
  endloop
endfacet
facet normal 0.000662 -0.000483 0.000000
  outer loop
    vertex 0.133629 -0.132597 0.250000
    vertex 0.132664 -0.133921 -0.250000
    vertex 0.133629 -0.132597 -0.250000
  endloop
endfacet
endsolid /home/fmg/OpenFOAM/VAWT/cfd/cfdopenfoam/constant/triSurface/VAWT2.stl
