solid turbine1.stl
facet normal -0.000093 0.000029 0.000000
  outer loop
    vertex -0.003109 0.199815 0.250000
    vertex -0.003050 0.200000 0.250000
    vertex -0.003050 0.200000 -0.250000
  endloop
endfacet
facet normal -0.000093 0.000029 0.000000
  outer loop
    vertex -0.003109 0.199815 0.250000
    vertex -0.003050 0.200000 -0.250000
    vertex -0.003109 0.199815 -0.250000
  endloop
endfacet
facet normal -0.000004 -0.000792 0.000000
  outer loop
    vertex -0.003050 0.200000 0.250000
    vertex -0.004635 0.200009 0.250000
    vertex -0.004635 0.200009 -0.250000
  endloop
endfacet
facet normal -0.000004 -0.000792 -0.000000
  outer loop
    vertex -0.003050 0.200000 0.250000
    vertex -0.004635 0.200009 -0.250000
    vertex -0.003050 0.200000 -0.250000
  endloop
endfacet
facet normal -0.000001 -0.000564 0.000000
  outer loop
    vertex -0.004635 0.200009 0.250000
    vertex -0.005763 0.200011 0.250000
    vertex -0.005763 0.200011 -0.250000
  endloop
endfacet
facet normal -0.000001 -0.000564 -0.000000
  outer loop
    vertex -0.004635 0.200009 0.250000
    vertex -0.005763 0.200011 -0.250000
    vertex -0.004635 0.200009 -0.250000
  endloop
endfacet
facet normal 0.000002 -0.000648 0.000000
  outer loop
    vertex -0.005763 0.200011 0.250000
    vertex -0.007059 0.200007 0.250000
    vertex -0.007059 0.200007 -0.250000
  endloop
endfacet
facet normal 0.000002 -0.000648 0.000000
  outer loop
    vertex -0.005763 0.200011 0.250000
    vertex -0.007059 0.200007 -0.250000
    vertex -0.005763 0.200011 -0.250000
  endloop
endfacet
facet normal 0.000007 -0.000787 0.000000
  outer loop
    vertex -0.007059 0.200007 0.250000
    vertex -0.008633 0.199993 0.250000
    vertex -0.008633 0.199993 -0.250000
  endloop
endfacet
facet normal 0.000007 -0.000787 0.000000
  outer loop
    vertex -0.007059 0.200007 0.250000
    vertex -0.008633 0.199993 -0.250000
    vertex -0.007059 0.200007 -0.250000
  endloop
endfacet
facet normal 0.000011 -0.000806 0.000000
  outer loop
    vertex -0.008633 0.199993 0.250000
    vertex -0.010244 0.199970 0.250000
    vertex -0.010244 0.199970 -0.250000
  endloop
endfacet
facet normal 0.000011 -0.000806 0.000000
  outer loop
    vertex -0.008633 0.199993 0.250000
    vertex -0.010244 0.199970 -0.250000
    vertex -0.008633 0.199993 -0.250000
  endloop
endfacet
facet normal 0.000017 -0.000840 0.000000
  outer loop
    vertex -0.010244 0.199970 0.250000
    vertex -0.011924 0.199937 0.250000
    vertex -0.011924 0.199937 -0.250000
  endloop
endfacet
facet normal 0.000017 -0.000840 0.000000
  outer loop
    vertex -0.010244 0.199970 0.250000
    vertex -0.011924 0.199937 -0.250000
    vertex -0.010244 0.199970 -0.250000
  endloop
endfacet
facet normal 0.000022 -0.000865 0.000000
  outer loop
    vertex -0.011924 0.199937 0.250000
    vertex -0.013653 0.199893 0.250000
    vertex -0.013653 0.199893 -0.250000
  endloop
endfacet
facet normal 0.000022 -0.000865 0.000000
  outer loop
    vertex -0.011924 0.199937 0.250000
    vertex -0.013653 0.199893 -0.250000
    vertex -0.011924 0.199937 -0.250000
  endloop
endfacet
facet normal 0.000027 -0.000886 0.000000
  outer loop
    vertex -0.013653 0.199893 0.250000
    vertex -0.015425 0.199839 0.250000
    vertex -0.015425 0.199839 -0.250000
  endloop
endfacet
facet normal 0.000027 -0.000886 0.000000
  outer loop
    vertex -0.013653 0.199893 0.250000
    vertex -0.015425 0.199839 -0.250000
    vertex -0.013653 0.199893 -0.250000
  endloop
endfacet
facet normal 0.000042 -0.001113 0.000000
  outer loop
    vertex -0.015425 0.199839 0.250000
    vertex -0.017652 0.199755 0.250000
    vertex -0.017652 0.199755 -0.250000
  endloop
endfacet
facet normal 0.000042 -0.001113 0.000000
  outer loop
    vertex -0.015425 0.199839 0.250000
    vertex -0.017652 0.199755 -0.250000
    vertex -0.015425 0.199839 -0.250000
  endloop
endfacet
facet normal 0.000049 -0.001095 0.000000
  outer loop
    vertex -0.017652 0.199755 0.250000
    vertex -0.019843 0.199657 0.250000
    vertex -0.019843 0.199657 -0.250000
  endloop
endfacet
facet normal 0.000049 -0.001095 0.000000
  outer loop
    vertex -0.017652 0.199755 0.250000
    vertex -0.019843 0.199657 -0.250000
    vertex -0.017652 0.199755 -0.250000
  endloop
endfacet
facet normal 0.000047 -0.000900 0.000000
  outer loop
    vertex -0.019843 0.199657 0.250000
    vertex -0.021644 0.199563 0.250000
    vertex -0.021644 0.199563 -0.250000
  endloop
endfacet
facet normal 0.000047 -0.000900 0.000000
  outer loop
    vertex -0.019843 0.199657 0.250000
    vertex -0.021644 0.199563 -0.250000
    vertex -0.019843 0.199657 -0.250000
  endloop
endfacet
facet normal 0.000045 -0.000773 0.000000
  outer loop
    vertex -0.021644 0.199563 0.250000
    vertex -0.023190 0.199472 0.250000
    vertex -0.023190 0.199472 -0.250000
  endloop
endfacet
facet normal 0.000045 -0.000773 0.000000
  outer loop
    vertex -0.021644 0.199563 0.250000
    vertex -0.023190 0.199472 -0.250000
    vertex -0.021644 0.199563 -0.250000
  endloop
endfacet
facet normal 0.000054 -0.000822 0.000000
  outer loop
    vertex -0.023190 0.199472 0.250000
    vertex -0.024833 0.199365 0.250000
    vertex -0.024833 0.199365 -0.250000
  endloop
endfacet
facet normal 0.000054 -0.000822 0.000000
  outer loop
    vertex -0.023190 0.199472 0.250000
    vertex -0.024833 0.199365 -0.250000
    vertex -0.023190 0.199472 -0.250000
  endloop
endfacet
facet normal 0.000050 -0.000694 0.000000
  outer loop
    vertex -0.024833 0.199365 0.250000
    vertex -0.026221 0.199266 0.250000
    vertex -0.026221 0.199266 -0.250000
  endloop
endfacet
facet normal 0.000050 -0.000694 0.000000
  outer loop
    vertex -0.024833 0.199365 0.250000
    vertex -0.026221 0.199266 -0.250000
    vertex -0.024833 0.199365 -0.250000
  endloop
endfacet
facet normal 0.000071 -0.000893 0.000000
  outer loop
    vertex -0.026221 0.199266 0.250000
    vertex -0.028006 0.199123 0.250000
    vertex -0.028006 0.199123 -0.250000
  endloop
endfacet
facet normal 0.000071 -0.000893 0.000000
  outer loop
    vertex -0.026221 0.199266 0.250000
    vertex -0.028006 0.199123 -0.250000
    vertex -0.026221 0.199266 -0.250000
  endloop
endfacet
facet normal 0.000075 -0.000844 0.000000
  outer loop
    vertex -0.028006 0.199123 0.250000
    vertex -0.029695 0.198973 0.250000
    vertex -0.029695 0.198973 -0.250000
  endloop
endfacet
facet normal 0.000075 -0.000844 0.000000
  outer loop
    vertex -0.028006 0.199123 0.250000
    vertex -0.029695 0.198973 -0.250000
    vertex -0.028006 0.199123 -0.250000
  endloop
endfacet
facet normal 0.000069 -0.000707 0.000000
  outer loop
    vertex -0.029695 0.198973 0.250000
    vertex -0.031110 0.198834 0.250000
    vertex -0.031110 0.198834 -0.250000
  endloop
endfacet
facet normal 0.000069 -0.000707 0.000000
  outer loop
    vertex -0.029695 0.198973 0.250000
    vertex -0.031110 0.198834 -0.250000
    vertex -0.029695 0.198973 -0.250000
  endloop
endfacet
facet normal 0.000154 -0.001368 0.000000
  outer loop
    vertex -0.031110 0.198834 0.250000
    vertex -0.033846 0.198527 0.250000
    vertex -0.033846 0.198527 -0.250000
  endloop
endfacet
facet normal 0.000154 -0.001368 0.000000
  outer loop
    vertex -0.031110 0.198834 0.250000
    vertex -0.033846 0.198527 -0.250000
    vertex -0.031110 0.198834 -0.250000
  endloop
endfacet
facet normal -0.000051 0.000429 0.000000
  outer loop
    vertex -0.033846 0.198527 0.250000
    vertex -0.032987 0.198629 0.250000
    vertex -0.032987 0.198629 -0.250000
  endloop
endfacet
facet normal -0.000051 0.000429 0.000000
  outer loop
    vertex -0.033846 0.198527 0.250000
    vertex -0.032987 0.198629 -0.250000
    vertex -0.033846 0.198527 -0.250000
  endloop
endfacet
facet normal 0.000105 -0.000856 0.000000
  outer loop
    vertex -0.032987 0.198629 0.250000
    vertex -0.034700 0.198419 0.250000
    vertex -0.034700 0.198419 -0.250000
  endloop
endfacet
facet normal 0.000105 -0.000856 0.000000
  outer loop
    vertex -0.032987 0.198629 0.250000
    vertex -0.034700 0.198419 -0.250000
    vertex -0.032987 0.198629 -0.250000
  endloop
endfacet
facet normal 0.000125 -0.000901 0.000000
  outer loop
    vertex -0.034700 0.198419 0.250000
    vertex -0.036503 0.198169 0.250000
    vertex -0.036503 0.198169 -0.250000
  endloop
endfacet
facet normal 0.000125 -0.000901 0.000000
  outer loop
    vertex -0.034700 0.198419 0.250000
    vertex -0.036503 0.198169 -0.250000
    vertex -0.034700 0.198419 -0.250000
  endloop
endfacet
facet normal 0.000137 -0.000875 0.000000
  outer loop
    vertex -0.036503 0.198169 0.250000
    vertex -0.038253 0.197895 0.250000
    vertex -0.038253 0.197895 -0.250000
  endloop
endfacet
facet normal 0.000137 -0.000875 0.000000
  outer loop
    vertex -0.036503 0.198169 0.250000
    vertex -0.038253 0.197895 -0.250000
    vertex -0.036503 0.198169 -0.250000
  endloop
endfacet
facet normal 0.000151 -0.000855 0.000000
  outer loop
    vertex -0.038253 0.197895 0.250000
    vertex -0.039963 0.197593 0.250000
    vertex -0.039963 0.197593 -0.250000
  endloop
endfacet
facet normal 0.000151 -0.000855 0.000000
  outer loop
    vertex -0.038253 0.197895 0.250000
    vertex -0.039963 0.197593 -0.250000
    vertex -0.038253 0.197895 -0.250000
  endloop
endfacet
facet normal 0.000193 -0.000953 0.000000
  outer loop
    vertex -0.039963 0.197593 0.250000
    vertex -0.041869 0.197207 0.250000
    vertex -0.041869 0.197207 -0.250000
  endloop
endfacet
facet normal 0.000193 -0.000953 0.000000
  outer loop
    vertex -0.039963 0.197593 0.250000
    vertex -0.041869 0.197207 -0.250000
    vertex -0.039963 0.197593 -0.250000
  endloop
endfacet
facet normal 0.000180 -0.000776 0.000000
  outer loop
    vertex -0.041869 0.197207 0.250000
    vertex -0.043420 0.196847 0.250000
    vertex -0.043420 0.196847 -0.250000
  endloop
endfacet
facet normal 0.000180 -0.000776 0.000000
  outer loop
    vertex -0.041869 0.197207 0.250000
    vertex -0.043420 0.196847 -0.250000
    vertex -0.041869 0.197207 -0.250000
  endloop
endfacet
facet normal 0.000125 -0.000485 0.000000
  outer loop
    vertex -0.043420 0.196847 0.250000
    vertex -0.044391 0.196597 0.250000
    vertex -0.044391 0.196597 -0.250000
  endloop
endfacet
facet normal 0.000125 -0.000485 0.000000
  outer loop
    vertex -0.043420 0.196847 0.250000
    vertex -0.044391 0.196597 -0.250000
    vertex -0.043420 0.196847 -0.250000
  endloop
endfacet
facet normal 0.000061 -0.000221 0.000000
  outer loop
    vertex -0.044391 0.196597 0.250000
    vertex -0.044833 0.196475 0.250000
    vertex -0.044833 0.196475 -0.250000
  endloop
endfacet
facet normal 0.000061 -0.000221 0.000000
  outer loop
    vertex -0.044391 0.196597 0.250000
    vertex -0.044833 0.196475 -0.250000
    vertex -0.044391 0.196597 -0.250000
  endloop
endfacet
facet normal 0.000105 -0.000364 0.000000
  outer loop
    vertex -0.044833 0.196475 0.250000
    vertex -0.045560 0.196264 0.250000
    vertex -0.045560 0.196264 -0.250000
  endloop
endfacet
facet normal 0.000105 -0.000364 0.000000
  outer loop
    vertex -0.044833 0.196475 0.250000
    vertex -0.045560 0.196264 -0.250000
    vertex -0.044833 0.196475 -0.250000
  endloop
endfacet
facet normal 0.000108 -0.000347 0.000000
  outer loop
    vertex -0.045560 0.196264 0.250000
    vertex -0.046254 0.196049 0.250000
    vertex -0.046254 0.196049 -0.250000
  endloop
endfacet
facet normal 0.000108 -0.000347 0.000000
  outer loop
    vertex -0.045560 0.196264 0.250000
    vertex -0.046254 0.196049 -0.250000
    vertex -0.045560 0.196264 -0.250000
  endloop
endfacet
facet normal 0.000103 -0.000308 0.000000
  outer loop
    vertex -0.046254 0.196049 0.250000
    vertex -0.046870 0.195843 0.250000
    vertex -0.046870 0.195843 -0.250000
  endloop
endfacet
facet normal 0.000103 -0.000308 0.000000
  outer loop
    vertex -0.046254 0.196049 0.250000
    vertex -0.046870 0.195843 -0.250000
    vertex -0.046254 0.196049 -0.250000
  endloop
endfacet
facet normal 0.000106 -0.000298 0.000000
  outer loop
    vertex -0.046870 0.195843 0.250000
    vertex -0.047466 0.195631 0.250000
    vertex -0.047466 0.195631 -0.250000
  endloop
endfacet
facet normal 0.000106 -0.000298 0.000000
  outer loop
    vertex -0.046870 0.195843 0.250000
    vertex -0.047466 0.195631 -0.250000
    vertex -0.046870 0.195843 -0.250000
  endloop
endfacet
facet normal -0.000256 0.000754 0.000000
  outer loop
    vertex -0.047466 0.195631 0.250000
    vertex -0.045957 0.196143 0.250000
    vertex -0.045957 0.196143 -0.250000
  endloop
endfacet
facet normal -0.000256 0.000754 0.000000
  outer loop
    vertex -0.047466 0.195631 0.250000
    vertex -0.045957 0.196143 -0.250000
    vertex -0.047466 0.195631 -0.250000
  endloop
endfacet
facet normal 0.000346 -0.000992 0.000000
  outer loop
    vertex -0.045957 0.196143 0.250000
    vertex -0.047942 0.195450 0.250000
    vertex -0.047942 0.195450 -0.250000
  endloop
endfacet
facet normal 0.000346 -0.000992 0.000000
  outer loop
    vertex -0.045957 0.196143 0.250000
    vertex -0.047942 0.195450 -0.250000
    vertex -0.045957 0.196143 -0.250000
  endloop
endfacet
facet normal 0.000097 -0.000239 0.000000
  outer loop
    vertex -0.047942 0.195450 0.250000
    vertex -0.048420 0.195257 0.250000
    vertex -0.048420 0.195257 -0.250000
  endloop
endfacet
facet normal 0.000097 -0.000239 0.000000
  outer loop
    vertex -0.047942 0.195450 0.250000
    vertex -0.048420 0.195257 -0.250000
    vertex -0.047942 0.195450 -0.250000
  endloop
endfacet
facet normal 0.000133 -0.000305 0.000000
  outer loop
    vertex -0.048420 0.195257 0.250000
    vertex -0.049031 0.194991 0.250000
    vertex -0.049031 0.194991 -0.250000
  endloop
endfacet
facet normal 0.000133 -0.000305 0.000000
  outer loop
    vertex -0.048420 0.195257 0.250000
    vertex -0.049031 0.194991 -0.250000
    vertex -0.048420 0.195257 -0.250000
  endloop
endfacet
facet normal 0.000083 -0.000176 0.000000
  outer loop
    vertex -0.049031 0.194991 0.250000
    vertex -0.049383 0.194825 0.250000
    vertex -0.049383 0.194825 -0.250000
  endloop
endfacet
facet normal 0.000083 -0.000176 0.000000
  outer loop
    vertex -0.049031 0.194991 0.250000
    vertex -0.049383 0.194825 -0.250000
    vertex -0.049031 0.194991 -0.250000
  endloop
endfacet
facet normal 0.000087 -0.000173 0.000000
  outer loop
    vertex -0.049383 0.194825 0.250000
    vertex -0.049730 0.194652 0.250000
    vertex -0.049730 0.194652 -0.250000
  endloop
endfacet
facet normal 0.000087 -0.000173 0.000000
  outer loop
    vertex -0.049383 0.194825 0.250000
    vertex -0.049730 0.194652 -0.250000
    vertex -0.049383 0.194825 -0.250000
  endloop
endfacet
facet normal 0.000097 -0.000181 0.000000
  outer loop
    vertex -0.049730 0.194652 0.250000
    vertex -0.050092 0.194457 0.250000
    vertex -0.050092 0.194457 -0.250000
  endloop
endfacet
facet normal 0.000097 -0.000181 0.000000
  outer loop
    vertex -0.049730 0.194652 0.250000
    vertex -0.050092 0.194457 -0.250000
    vertex -0.049730 0.194652 -0.250000
  endloop
endfacet
facet normal 0.000098 -0.000168 0.000000
  outer loop
    vertex -0.050092 0.194457 0.250000
    vertex -0.050428 0.194262 0.250000
    vertex -0.050428 0.194262 -0.250000
  endloop
endfacet
facet normal 0.000098 -0.000168 0.000000
  outer loop
    vertex -0.050092 0.194457 0.250000
    vertex -0.050428 0.194262 -0.250000
    vertex -0.050092 0.194457 -0.250000
  endloop
endfacet
facet normal 0.000023 -0.000037 0.000000
  outer loop
    vertex -0.050428 0.194262 0.250000
    vertex -0.050502 0.194216 0.250000
    vertex -0.050502 0.194216 -0.250000
  endloop
endfacet
facet normal 0.000023 -0.000037 0.000000
  outer loop
    vertex -0.050428 0.194262 0.250000
    vertex -0.050502 0.194216 -0.250000
    vertex -0.050428 0.194262 -0.250000
  endloop
endfacet
facet normal 0.000049 -0.000078 0.000000
  outer loop
    vertex -0.050502 0.194216 0.250000
    vertex -0.050658 0.194117 0.250000
    vertex -0.050658 0.194117 -0.250000
  endloop
endfacet
facet normal 0.000049 -0.000078 0.000000
  outer loop
    vertex -0.050502 0.194216 0.250000
    vertex -0.050658 0.194117 -0.250000
    vertex -0.050502 0.194216 -0.250000
  endloop
endfacet
facet normal -0.000023 0.000036 0.000000
  outer loop
    vertex -0.050658 0.194117 0.250000
    vertex -0.050586 0.194164 0.250000
    vertex -0.050586 0.194164 -0.250000
  endloop
endfacet
facet normal -0.000023 0.000036 0.000000
  outer loop
    vertex -0.050658 0.194117 0.250000
    vertex -0.050586 0.194164 -0.250000
    vertex -0.050658 0.194117 -0.250000
  endloop
endfacet
facet normal 0.000054 -0.000084 0.000000
  outer loop
    vertex -0.050586 0.194164 0.250000
    vertex -0.050754 0.194055 0.250000
    vertex -0.050754 0.194055 -0.250000
  endloop
endfacet
facet normal 0.000054 -0.000084 0.000000
  outer loop
    vertex -0.050586 0.194164 0.250000
    vertex -0.050754 0.194055 -0.250000
    vertex -0.050586 0.194164 -0.250000
  endloop
endfacet
facet normal 0.000044 -0.000064 0.000000
  outer loop
    vertex -0.050754 0.194055 0.250000
    vertex -0.050883 0.193968 0.250000
    vertex -0.050883 0.193968 -0.250000
  endloop
endfacet
facet normal 0.000044 -0.000064 0.000000
  outer loop
    vertex -0.050754 0.194055 0.250000
    vertex -0.050883 0.193968 -0.250000
    vertex -0.050754 0.194055 -0.250000
  endloop
endfacet
facet normal 0.000036 -0.000051 0.000000
  outer loop
    vertex -0.050883 0.193968 0.250000
    vertex -0.050985 0.193896 0.250000
    vertex -0.050985 0.193896 -0.250000
  endloop
endfacet
facet normal 0.000036 -0.000051 0.000000
  outer loop
    vertex -0.050883 0.193968 0.250000
    vertex -0.050985 0.193896 -0.250000
    vertex -0.050883 0.193968 -0.250000
  endloop
endfacet
facet normal 0.000035 -0.000049 0.000000
  outer loop
    vertex -0.050985 0.193896 0.250000
    vertex -0.051083 0.193826 0.250000
    vertex -0.051083 0.193826 -0.250000
  endloop
endfacet
facet normal 0.000035 -0.000049 0.000000
  outer loop
    vertex -0.050985 0.193896 0.250000
    vertex -0.051083 0.193826 -0.250000
    vertex -0.050985 0.193896 -0.250000
  endloop
endfacet
facet normal 0.000035 -0.000046 0.000000
  outer loop
    vertex -0.051083 0.193826 0.250000
    vertex -0.051175 0.193756 0.250000
    vertex -0.051175 0.193756 -0.250000
  endloop
endfacet
facet normal 0.000035 -0.000046 0.000000
  outer loop
    vertex -0.051083 0.193826 0.250000
    vertex -0.051175 0.193756 -0.250000
    vertex -0.051083 0.193826 -0.250000
  endloop
endfacet
facet normal 0.000028 -0.000037 0.000000
  outer loop
    vertex -0.051175 0.193756 0.250000
    vertex -0.051248 0.193700 0.250000
    vertex -0.051248 0.193700 -0.250000
  endloop
endfacet
facet normal 0.000028 -0.000037 0.000000
  outer loop
    vertex -0.051175 0.193756 0.250000
    vertex -0.051248 0.193700 -0.250000
    vertex -0.051175 0.193756 -0.250000
  endloop
endfacet
facet normal 0.000035 -0.000044 0.000000
  outer loop
    vertex -0.051248 0.193700 0.250000
    vertex -0.051337 0.193629 0.250000
    vertex -0.051337 0.193629 -0.250000
  endloop
endfacet
facet normal 0.000035 -0.000044 0.000000
  outer loop
    vertex -0.051248 0.193700 0.250000
    vertex -0.051337 0.193629 -0.250000
    vertex -0.051248 0.193700 -0.250000
  endloop
endfacet
facet normal 0.000044 -0.000053 0.000000
  outer loop
    vertex -0.051337 0.193629 0.250000
    vertex -0.051444 0.193541 0.250000
    vertex -0.051444 0.193541 -0.250000
  endloop
endfacet
facet normal 0.000044 -0.000053 0.000000
  outer loop
    vertex -0.051337 0.193629 0.250000
    vertex -0.051444 0.193541 -0.250000
    vertex -0.051337 0.193629 -0.250000
  endloop
endfacet
facet normal 0.000059 -0.000067 0.000000
  outer loop
    vertex -0.051444 0.193541 0.250000
    vertex -0.051578 0.193424 0.250000
    vertex -0.051578 0.193424 -0.250000
  endloop
endfacet
facet normal 0.000059 -0.000067 0.000000
  outer loop
    vertex -0.051444 0.193541 0.250000
    vertex -0.051578 0.193424 -0.250000
    vertex -0.051444 0.193541 -0.250000
  endloop
endfacet
facet normal 0.000042 -0.000045 0.000000
  outer loop
    vertex -0.051578 0.193424 0.250000
    vertex -0.051668 0.193339 0.250000
    vertex -0.051668 0.193339 -0.250000
  endloop
endfacet
facet normal 0.000042 -0.000045 0.000000
  outer loop
    vertex -0.051578 0.193424 0.250000
    vertex -0.051668 0.193339 -0.250000
    vertex -0.051578 0.193424 -0.250000
  endloop
endfacet
facet normal 0.000073 -0.000070 0.000000
  outer loop
    vertex -0.051668 0.193339 0.250000
    vertex -0.051809 0.193194 0.250000
    vertex -0.051809 0.193194 -0.250000
  endloop
endfacet
facet normal 0.000073 -0.000070 0.000000
  outer loop
    vertex -0.051668 0.193339 0.250000
    vertex -0.051809 0.193194 -0.250000
    vertex -0.051668 0.193339 -0.250000
  endloop
endfacet
facet normal 0.000071 -0.000060 0.000000
  outer loop
    vertex -0.051809 0.193194 0.250000
    vertex -0.051930 0.193052 0.250000
    vertex -0.051930 0.193052 -0.250000
  endloop
endfacet
facet normal 0.000071 -0.000060 0.000000
  outer loop
    vertex -0.051809 0.193194 0.250000
    vertex -0.051930 0.193052 -0.250000
    vertex -0.051809 0.193194 -0.250000
  endloop
endfacet
facet normal 0.000073 -0.000054 0.000000
  outer loop
    vertex -0.051930 0.193052 0.250000
    vertex -0.052038 0.192906 0.250000
    vertex -0.052038 0.192906 -0.250000
  endloop
endfacet
facet normal 0.000073 -0.000054 0.000000
  outer loop
    vertex -0.051930 0.193052 0.250000
    vertex -0.052038 0.192906 -0.250000
    vertex -0.051930 0.193052 -0.250000
  endloop
endfacet
facet normal 0.000102 -0.000063 0.000000
  outer loop
    vertex -0.052038 0.192906 0.250000
    vertex -0.052163 0.192701 0.250000
    vertex -0.052163 0.192701 -0.250000
  endloop
endfacet
facet normal 0.000102 -0.000063 0.000000
  outer loop
    vertex -0.052038 0.192906 0.250000
    vertex -0.052163 0.192701 -0.250000
    vertex -0.052038 0.192906 -0.250000
  endloop
endfacet
facet normal -0.000038 0.000022 0.000000
  outer loop
    vertex -0.052163 0.192701 0.250000
    vertex -0.052120 0.192778 0.250000
    vertex -0.052120 0.192778 -0.250000
  endloop
endfacet
facet normal -0.000038 0.000022 0.000000
  outer loop
    vertex -0.052163 0.192701 0.250000
    vertex -0.052120 0.192778 -0.250000
    vertex -0.052163 0.192701 -0.250000
  endloop
endfacet
facet normal 0.000102 -0.000054 0.000000
  outer loop
    vertex -0.052120 0.192778 0.250000
    vertex -0.052228 0.192574 0.250000
    vertex -0.052228 0.192574 -0.250000
  endloop
endfacet
facet normal 0.000102 -0.000054 0.000000
  outer loop
    vertex -0.052120 0.192778 0.250000
    vertex -0.052228 0.192574 -0.250000
    vertex -0.052120 0.192778 -0.250000
  endloop
endfacet
facet normal 0.000039 -0.000017 0.000000
  outer loop
    vertex -0.052228 0.192574 0.250000
    vertex -0.052263 0.192495 0.250000
    vertex -0.052263 0.192495 -0.250000
  endloop
endfacet
facet normal 0.000039 -0.000017 0.000000
  outer loop
    vertex -0.052228 0.192574 0.250000
    vertex -0.052263 0.192495 -0.250000
    vertex -0.052228 0.192574 -0.250000
  endloop
endfacet
facet normal 0.000049 -0.000019 0.000000
  outer loop
    vertex -0.052263 0.192495 0.250000
    vertex -0.052301 0.192397 0.250000
    vertex -0.052301 0.192397 -0.250000
  endloop
endfacet
facet normal 0.000049 -0.000019 0.000000
  outer loop
    vertex -0.052263 0.192495 0.250000
    vertex -0.052301 0.192397 -0.250000
    vertex -0.052263 0.192495 -0.250000
  endloop
endfacet
facet normal 0.000037 -0.000012 0.000000
  outer loop
    vertex -0.052301 0.192397 0.250000
    vertex -0.052325 0.192323 0.250000
    vertex -0.052325 0.192323 -0.250000
  endloop
endfacet
facet normal 0.000037 -0.000012 0.000000
  outer loop
    vertex -0.052301 0.192397 0.250000
    vertex -0.052325 0.192323 -0.250000
    vertex -0.052301 0.192397 -0.250000
  endloop
endfacet
facet normal 0.000091 -0.000022 0.000000
  outer loop
    vertex -0.052325 0.192323 0.250000
    vertex -0.052369 0.192142 0.250000
    vertex -0.052369 0.192142 -0.250000
  endloop
endfacet
facet normal 0.000091 -0.000022 0.000000
  outer loop
    vertex -0.052325 0.192323 0.250000
    vertex -0.052369 0.192142 -0.250000
    vertex -0.052325 0.192323 -0.250000
  endloop
endfacet
facet normal 0.000094 -0.000010 0.000000
  outer loop
    vertex -0.052369 0.192142 0.250000
    vertex -0.052388 0.191954 0.250000
    vertex -0.052388 0.191954 -0.250000
  endloop
endfacet
facet normal 0.000094 -0.000010 0.000000
  outer loop
    vertex -0.052369 0.192142 0.250000
    vertex -0.052388 0.191954 -0.250000
    vertex -0.052369 0.192142 -0.250000
  endloop
endfacet
facet normal -0.000034 0.000002 0.000000
  outer loop
    vertex -0.052388 0.191954 0.250000
    vertex -0.052384 0.192023 0.250000
    vertex -0.052384 0.192023 -0.250000
  endloop
endfacet
facet normal -0.000034 0.000002 0.000000
  outer loop
    vertex -0.052388 0.191954 0.250000
    vertex -0.052384 0.192023 -0.250000
    vertex -0.052388 0.191954 -0.250000
  endloop
endfacet
facet normal 0.000081 -0.000001 0.000000
  outer loop
    vertex -0.052384 0.192023 0.250000
    vertex -0.052386 0.191860 0.250000
    vertex -0.052386 0.191860 -0.250000
  endloop
endfacet
facet normal 0.000081 -0.000001 0.000000
  outer loop
    vertex -0.052384 0.192023 0.250000
    vertex -0.052386 0.191860 -0.250000
    vertex -0.052384 0.192023 -0.250000
  endloop
endfacet
facet normal 0.000067 0.000009 0.000000
  outer loop
    vertex -0.052386 0.191860 0.250000
    vertex -0.052369 0.191726 0.250000
    vertex -0.052369 0.191726 -0.250000
  endloop
endfacet
facet normal 0.000067 0.000009 0.000000
  outer loop
    vertex -0.052386 0.191860 0.250000
    vertex -0.052369 0.191726 -0.250000
    vertex -0.052386 0.191860 -0.250000
  endloop
endfacet
facet normal 0.000046 0.000011 0.000000
  outer loop
    vertex -0.052369 0.191726 0.250000
    vertex -0.052347 0.191634 0.250000
    vertex -0.052347 0.191634 -0.250000
  endloop
endfacet
facet normal 0.000046 0.000011 0.000000
  outer loop
    vertex -0.052369 0.191726 0.250000
    vertex -0.052347 0.191634 -0.250000
    vertex -0.052369 0.191726 -0.250000
  endloop
endfacet
facet normal 0.000178 0.000085 0.000000
  outer loop
    vertex -0.052347 0.191634 0.250000
    vertex -0.052177 0.191278 0.250000
    vertex -0.052177 0.191278 -0.250000
  endloop
endfacet
facet normal 0.000178 0.000085 0.000000
  outer loop
    vertex -0.052347 0.191634 0.250000
    vertex -0.052177 0.191278 -0.250000
    vertex -0.052347 0.191634 -0.250000
  endloop
endfacet
facet normal 0.000157 0.000133 0.000000
  outer loop
    vertex -0.052177 0.191278 0.250000
    vertex -0.051910 0.190964 0.250000
    vertex -0.051910 0.190964 -0.250000
  endloop
endfacet
facet normal 0.000157 0.000133 0.000000
  outer loop
    vertex -0.052177 0.191278 0.250000
    vertex -0.051910 0.190964 -0.250000
    vertex -0.052177 0.191278 -0.250000
  endloop
endfacet
facet normal -0.000302 -0.000208 0.000000
  outer loop
    vertex -0.051910 0.190964 0.250000
    vertex -0.052325 0.191568 0.250000
    vertex -0.052325 0.191568 -0.250000
  endloop
endfacet
facet normal -0.000302 -0.000208 -0.000000
  outer loop
    vertex -0.051910 0.190964 0.250000
    vertex -0.052325 0.191568 -0.250000
    vertex -0.051910 0.190964 -0.250000
  endloop
endfacet
facet normal 0.000036 0.000014 0.000000
  outer loop
    vertex -0.052325 0.191568 0.250000
    vertex -0.052297 0.191496 0.250000
    vertex -0.052297 0.191496 -0.250000
  endloop
endfacet
facet normal 0.000036 0.000014 0.000000
  outer loop
    vertex -0.052325 0.191568 0.250000
    vertex -0.052297 0.191496 -0.250000
    vertex -0.052325 0.191568 -0.250000
  endloop
endfacet
facet normal 0.000042 0.000020 0.000000
  outer loop
    vertex -0.052297 0.191496 0.250000
    vertex -0.052256 0.191412 0.250000
    vertex -0.052256 0.191412 -0.250000
  endloop
endfacet
facet normal 0.000042 0.000020 0.000000
  outer loop
    vertex -0.052297 0.191496 0.250000
    vertex -0.052256 0.191412 -0.250000
    vertex -0.052297 0.191496 -0.250000
  endloop
endfacet
facet normal 0.000136 0.000091 0.000000
  outer loop
    vertex -0.052256 0.191412 0.250000
    vertex -0.052074 0.191140 0.250000
    vertex -0.052074 0.191140 -0.250000
  endloop
endfacet
facet normal 0.000136 0.000091 0.000000
  outer loop
    vertex -0.052256 0.191412 0.250000
    vertex -0.052074 0.191140 -0.250000
    vertex -0.052256 0.191412 -0.250000
  endloop
endfacet
facet normal 0.000040 0.000035 0.000000
  outer loop
    vertex -0.052074 0.191140 0.250000
    vertex -0.052004 0.191060 0.250000
    vertex -0.052004 0.191060 -0.250000
  endloop
endfacet
facet normal 0.000040 0.000035 0.000000
  outer loop
    vertex -0.052074 0.191140 0.250000
    vertex -0.052004 0.191060 -0.250000
    vertex -0.052074 0.191140 -0.250000
  endloop
endfacet
facet normal 0.000097 0.000102 0.000000
  outer loop
    vertex -0.052004 0.191060 0.250000
    vertex -0.051800 0.190866 0.250000
    vertex -0.051800 0.190866 -0.250000
  endloop
endfacet
facet normal 0.000097 0.000102 0.000000
  outer loop
    vertex -0.052004 0.191060 0.250000
    vertex -0.051800 0.190866 -0.250000
    vertex -0.052004 0.191060 -0.250000
  endloop
endfacet
facet normal 0.000092 0.000123 0.000000
  outer loop
    vertex -0.051800 0.190866 0.250000
    vertex -0.051555 0.190682 0.250000
    vertex -0.051555 0.190682 -0.250000
  endloop
endfacet
facet normal 0.000092 0.000123 0.000000
  outer loop
    vertex -0.051800 0.190866 0.250000
    vertex -0.051555 0.190682 -0.250000
    vertex -0.051800 0.190866 -0.250000
  endloop
endfacet
facet normal -0.000044 -0.000063 0.000000
  outer loop
    vertex -0.051555 0.190682 0.250000
    vertex -0.051681 0.190771 0.250000
    vertex -0.051681 0.190771 -0.250000
  endloop
endfacet
facet normal -0.000044 -0.000063 -0.000000
  outer loop
    vertex -0.051555 0.190682 0.250000
    vertex -0.051681 0.190771 -0.250000
    vertex -0.051555 0.190682 -0.250000
  endloop
endfacet
facet normal 0.000088 0.000135 0.000000
  outer loop
    vertex -0.051681 0.190771 0.250000
    vertex -0.051411 0.190594 0.250000
    vertex -0.051411 0.190594 -0.250000
  endloop
endfacet
facet normal 0.000088 0.000135 0.000000
  outer loop
    vertex -0.051681 0.190771 0.250000
    vertex -0.051411 0.190594 -0.250000
    vertex -0.051681 0.190771 -0.250000
  endloop
endfacet
facet normal 0.000046 0.000088 0.000000
  outer loop
    vertex -0.051411 0.190594 0.250000
    vertex -0.051235 0.190501 0.250000
    vertex -0.051235 0.190501 -0.250000
  endloop
endfacet
facet normal 0.000046 0.000088 0.000000
  outer loop
    vertex -0.051411 0.190594 0.250000
    vertex -0.051235 0.190501 -0.250000
    vertex -0.051411 0.190594 -0.250000
  endloop
endfacet
facet normal 0.000027 0.000057 0.000000
  outer loop
    vertex -0.051235 0.190501 0.250000
    vertex -0.051120 0.190448 0.250000
    vertex -0.051120 0.190448 -0.250000
  endloop
endfacet
facet normal 0.000027 0.000057 0.000000
  outer loop
    vertex -0.051235 0.190501 0.250000
    vertex -0.051120 0.190448 -0.250000
    vertex -0.051235 0.190501 -0.250000
  endloop
endfacet
facet normal 0.000032 0.000075 0.000000
  outer loop
    vertex -0.051120 0.190448 0.250000
    vertex -0.050970 0.190384 0.250000
    vertex -0.050970 0.190384 -0.250000
  endloop
endfacet
facet normal 0.000032 0.000075 0.000000
  outer loop
    vertex -0.051120 0.190448 0.250000
    vertex -0.050970 0.190384 -0.250000
    vertex -0.051120 0.190448 -0.250000
  endloop
endfacet
facet normal 0.000028 0.000071 0.000000
  outer loop
    vertex -0.050970 0.190384 0.250000
    vertex -0.050827 0.190329 0.250000
    vertex -0.050827 0.190329 -0.250000
  endloop
endfacet
facet normal 0.000028 0.000071 0.000000
  outer loop
    vertex -0.050970 0.190384 0.250000
    vertex -0.050827 0.190329 -0.250000
    vertex -0.050970 0.190384 -0.250000
  endloop
endfacet
facet normal 0.000030 0.000084 0.000000
  outer loop
    vertex -0.050827 0.190329 0.250000
    vertex -0.050658 0.190268 0.250000
    vertex -0.050658 0.190268 -0.250000
  endloop
endfacet
facet normal 0.000030 0.000084 0.000000
  outer loop
    vertex -0.050827 0.190329 0.250000
    vertex -0.050658 0.190268 -0.250000
    vertex -0.050827 0.190329 -0.250000
  endloop
endfacet
facet normal 0.000023 0.000068 0.000000
  outer loop
    vertex -0.050658 0.190268 0.250000
    vertex -0.050522 0.190223 0.250000
    vertex -0.050522 0.190223 -0.250000
  endloop
endfacet
facet normal 0.000023 0.000068 0.000000
  outer loop
    vertex -0.050658 0.190268 0.250000
    vertex -0.050522 0.190223 -0.250000
    vertex -0.050658 0.190268 -0.250000
  endloop
endfacet
facet normal 0.000023 0.000076 0.000000
  outer loop
    vertex -0.050522 0.190223 0.250000
    vertex -0.050371 0.190176 0.250000
    vertex -0.050371 0.190176 -0.250000
  endloop
endfacet
facet normal 0.000023 0.000076 0.000000
  outer loop
    vertex -0.050522 0.190223 0.250000
    vertex -0.050371 0.190176 -0.250000
    vertex -0.050522 0.190223 -0.250000
  endloop
endfacet
facet normal 0.000023 0.000080 0.000000
  outer loop
    vertex -0.050371 0.190176 0.250000
    vertex -0.050211 0.190129 0.250000
    vertex -0.050211 0.190129 -0.250000
  endloop
endfacet
facet normal 0.000023 0.000080 0.000000
  outer loop
    vertex -0.050371 0.190176 0.250000
    vertex -0.050211 0.190129 -0.250000
    vertex -0.050371 0.190176 -0.250000
  endloop
endfacet
facet normal 0.000021 0.000080 0.000000
  outer loop
    vertex -0.050211 0.190129 0.250000
    vertex -0.050050 0.190087 0.250000
    vertex -0.050050 0.190087 -0.250000
  endloop
endfacet
facet normal 0.000021 0.000080 0.000000
  outer loop
    vertex -0.050211 0.190129 0.250000
    vertex -0.050050 0.190087 -0.250000
    vertex -0.050211 0.190129 -0.250000
  endloop
endfacet
facet normal 0.000022 0.000091 0.000000
  outer loop
    vertex -0.050050 0.190087 0.250000
    vertex -0.049869 0.190042 0.250000
    vertex -0.049869 0.190042 -0.250000
  endloop
endfacet
facet normal 0.000022 0.000091 0.000000
  outer loop
    vertex -0.050050 0.190087 0.250000
    vertex -0.049869 0.190042 -0.250000
    vertex -0.050050 0.190087 -0.250000
  endloop
endfacet
facet normal 0.000018 0.000077 0.000000
  outer loop
    vertex -0.049869 0.190042 0.250000
    vertex -0.049715 0.190007 0.250000
    vertex -0.049715 0.190007 -0.250000
  endloop
endfacet
facet normal 0.000018 0.000077 0.000000
  outer loop
    vertex -0.049869 0.190042 0.250000
    vertex -0.049715 0.190007 -0.250000
    vertex -0.049869 0.190042 -0.250000
  endloop
endfacet
facet normal 0.000014 0.000067 0.000000
  outer loop
    vertex -0.049715 0.190007 0.250000
    vertex -0.049581 0.189978 0.250000
    vertex -0.049581 0.189978 -0.250000
  endloop
endfacet
facet normal 0.000014 0.000067 0.000000
  outer loop
    vertex -0.049715 0.190007 0.250000
    vertex -0.049581 0.189978 -0.250000
    vertex -0.049715 0.190007 -0.250000
  endloop
endfacet
facet normal 0.000010 0.000051 0.000000
  outer loop
    vertex -0.049581 0.189978 0.250000
    vertex -0.049480 0.189958 0.250000
    vertex -0.049480 0.189958 -0.250000
  endloop
endfacet
facet normal 0.000010 0.000051 0.000000
  outer loop
    vertex -0.049581 0.189978 0.250000
    vertex -0.049480 0.189958 -0.250000
    vertex -0.049581 0.189978 -0.250000
  endloop
endfacet
facet normal 0.000014 0.000075 0.000000
  outer loop
    vertex -0.049480 0.189958 0.250000
    vertex -0.049329 0.189929 0.250000
    vertex -0.049329 0.189929 -0.250000
  endloop
endfacet
facet normal 0.000014 0.000075 0.000000
  outer loop
    vertex -0.049480 0.189958 0.250000
    vertex -0.049329 0.189929 -0.250000
    vertex -0.049480 0.189958 -0.250000
  endloop
endfacet
facet normal 0.000014 0.000078 0.000000
  outer loop
    vertex -0.049329 0.189929 0.250000
    vertex -0.049174 0.189902 0.250000
    vertex -0.049174 0.189902 -0.250000
  endloop
endfacet
facet normal 0.000014 0.000078 0.000000
  outer loop
    vertex -0.049329 0.189929 0.250000
    vertex -0.049174 0.189902 -0.250000
    vertex -0.049329 0.189929 -0.250000
  endloop
endfacet
facet normal 0.000010 0.000063 0.000000
  outer loop
    vertex -0.049174 0.189902 0.250000
    vertex -0.049048 0.189881 0.250000
    vertex -0.049048 0.189881 -0.250000
  endloop
endfacet
facet normal 0.000010 0.000063 0.000000
  outer loop
    vertex -0.049174 0.189902 0.250000
    vertex -0.049048 0.189881 -0.250000
    vertex -0.049174 0.189902 -0.250000
  endloop
endfacet
facet normal 0.000012 0.000081 0.000000
  outer loop
    vertex -0.049048 0.189881 0.250000
    vertex -0.048885 0.189857 0.250000
    vertex -0.048885 0.189857 -0.250000
  endloop
endfacet
facet normal 0.000012 0.000081 0.000000
  outer loop
    vertex -0.049048 0.189881 0.250000
    vertex -0.048885 0.189857 -0.250000
    vertex -0.049048 0.189881 -0.250000
  endloop
endfacet
facet normal 0.000012 0.000087 0.000000
  outer loop
    vertex -0.048885 0.189857 0.250000
    vertex -0.048711 0.189832 0.250000
    vertex -0.048711 0.189832 -0.250000
  endloop
endfacet
facet normal 0.000012 0.000087 0.000000
  outer loop
    vertex -0.048885 0.189857 0.250000
    vertex -0.048711 0.189832 -0.250000
    vertex -0.048885 0.189857 -0.250000
  endloop
endfacet
facet normal 0.000012 0.000098 0.000000
  outer loop
    vertex -0.048711 0.189832 0.250000
    vertex -0.048515 0.189807 0.250000
    vertex -0.048515 0.189807 -0.250000
  endloop
endfacet
facet normal 0.000012 0.000098 0.000000
  outer loop
    vertex -0.048711 0.189832 0.250000
    vertex -0.048515 0.189807 -0.250000
    vertex -0.048711 0.189832 -0.250000
  endloop
endfacet
facet normal 0.000024 0.000226 0.000000
  outer loop
    vertex -0.048515 0.189807 0.250000
    vertex -0.048062 0.189759 0.250000
    vertex -0.048062 0.189759 -0.250000
  endloop
endfacet
facet normal 0.000024 0.000226 0.000000
  outer loop
    vertex -0.048515 0.189807 0.250000
    vertex -0.048062 0.189759 -0.250000
    vertex -0.048515 0.189807 -0.250000
  endloop
endfacet
facet normal -0.000014 -0.000135 0.000000
  outer loop
    vertex -0.048062 0.189759 0.250000
    vertex -0.048332 0.189786 0.250000
    vertex -0.048332 0.189786 -0.250000
  endloop
endfacet
facet normal -0.000014 -0.000135 -0.000000
  outer loop
    vertex -0.048062 0.189759 0.250000
    vertex -0.048332 0.189786 -0.250000
    vertex -0.048062 0.189759 -0.250000
  endloop
endfacet
facet normal 0.000027 0.000291 0.000000
  outer loop
    vertex -0.048332 0.189786 0.250000
    vertex -0.047749 0.189732 0.250000
    vertex -0.047749 0.189732 -0.250000
  endloop
endfacet
facet normal 0.000027 0.000291 0.000000
  outer loop
    vertex -0.048332 0.189786 0.250000
    vertex -0.047749 0.189732 -0.250000
    vertex -0.048332 0.189786 -0.250000
  endloop
endfacet
facet normal 0.000009 0.000128 0.000000
  outer loop
    vertex -0.047749 0.189732 0.250000
    vertex -0.047493 0.189713 0.250000
    vertex -0.047493 0.189713 -0.250000
  endloop
endfacet
facet normal 0.000009 0.000128 0.000000
  outer loop
    vertex -0.047749 0.189732 0.250000
    vertex -0.047493 0.189713 -0.250000
    vertex -0.047749 0.189732 -0.250000
  endloop
endfacet
facet normal 0.000006 0.000097 0.000000
  outer loop
    vertex -0.047493 0.189713 0.250000
    vertex -0.047300 0.189701 0.250000
    vertex -0.047300 0.189701 -0.250000
  endloop
endfacet
facet normal 0.000006 0.000097 0.000000
  outer loop
    vertex -0.047493 0.189713 0.250000
    vertex -0.047300 0.189701 -0.250000
    vertex -0.047493 0.189713 -0.250000
  endloop
endfacet
facet normal 0.000005 0.000088 0.000000
  outer loop
    vertex -0.047300 0.189701 0.250000
    vertex -0.047125 0.189691 0.250000
    vertex -0.047125 0.189691 -0.250000
  endloop
endfacet
facet normal 0.000005 0.000088 0.000000
  outer loop
    vertex -0.047300 0.189701 0.250000
    vertex -0.047125 0.189691 -0.250000
    vertex -0.047300 0.189701 -0.250000
  endloop
endfacet
facet normal 0.000005 0.000112 0.000000
  outer loop
    vertex -0.047125 0.189691 0.250000
    vertex -0.046901 0.189681 0.250000
    vertex -0.046901 0.189681 -0.250000
  endloop
endfacet
facet normal 0.000005 0.000112 0.000000
  outer loop
    vertex -0.047125 0.189691 0.250000
    vertex -0.046901 0.189681 -0.250000
    vertex -0.047125 0.189691 -0.250000
  endloop
endfacet
facet normal 0.000003 0.000079 0.000000
  outer loop
    vertex -0.046901 0.189681 0.250000
    vertex -0.046744 0.189675 0.250000
    vertex -0.046744 0.189675 -0.250000
  endloop
endfacet
facet normal 0.000003 0.000079 0.000000
  outer loop
    vertex -0.046901 0.189681 0.250000
    vertex -0.046744 0.189675 -0.250000
    vertex -0.046901 0.189681 -0.250000
  endloop
endfacet
facet normal 0.000002 0.000065 0.000000
  outer loop
    vertex -0.046744 0.189675 0.250000
    vertex -0.046615 0.189671 0.250000
    vertex -0.046615 0.189671 -0.250000
  endloop
endfacet
facet normal 0.000002 0.000065 0.000000
  outer loop
    vertex -0.046744 0.189675 0.250000
    vertex -0.046615 0.189671 -0.250000
    vertex -0.046744 0.189675 -0.250000
  endloop
endfacet
facet normal 0.000002 0.000067 0.000000
  outer loop
    vertex -0.046615 0.189671 0.250000
    vertex -0.046481 0.189667 0.250000
    vertex -0.046481 0.189667 -0.250000
  endloop
endfacet
facet normal 0.000002 0.000067 0.000000
  outer loop
    vertex -0.046615 0.189671 0.250000
    vertex -0.046481 0.189667 -0.250000
    vertex -0.046615 0.189671 -0.250000
  endloop
endfacet
facet normal 0.000002 0.000090 0.000000
  outer loop
    vertex -0.046481 0.189667 0.250000
    vertex -0.046301 0.189663 0.250000
    vertex -0.046301 0.189663 -0.250000
  endloop
endfacet
facet normal 0.000002 0.000090 0.000000
  outer loop
    vertex -0.046481 0.189667 0.250000
    vertex -0.046301 0.189663 -0.250000
    vertex -0.046481 0.189667 -0.250000
  endloop
endfacet
facet normal 0.000001 0.000067 0.000000
  outer loop
    vertex -0.046301 0.189663 0.250000
    vertex -0.046167 0.189661 0.250000
    vertex -0.046167 0.189661 -0.250000
  endloop
endfacet
facet normal 0.000001 0.000067 0.000000
  outer loop
    vertex -0.046301 0.189663 0.250000
    vertex -0.046167 0.189661 -0.250000
    vertex -0.046301 0.189663 -0.250000
  endloop
endfacet
facet normal 0.000001 0.000134 0.000000
  outer loop
    vertex -0.046167 0.189661 0.250000
    vertex -0.045899 0.189658 0.250000
    vertex -0.045899 0.189658 -0.250000
  endloop
endfacet
facet normal 0.000001 0.000134 0.000000
  outer loop
    vertex -0.046167 0.189661 0.250000
    vertex -0.045899 0.189658 -0.250000
    vertex -0.046167 0.189661 -0.250000
  endloop
endfacet
facet normal -0.000000 0.000187 0.000000
  outer loop
    vertex -0.045899 0.189658 0.250000
    vertex -0.045525 0.189658 0.250000
    vertex -0.045525 0.189658 -0.250000
  endloop
endfacet
facet normal -0.000000 0.000187 0.000000
  outer loop
    vertex -0.045899 0.189658 0.250000
    vertex -0.045525 0.189658 -0.250000
    vertex -0.045899 0.189658 -0.250000
  endloop
endfacet
facet normal -0.000003 0.000246 0.000000
  outer loop
    vertex -0.045525 0.189658 0.250000
    vertex -0.045033 0.189665 0.250000
    vertex -0.045033 0.189665 -0.250000
  endloop
endfacet
facet normal -0.000003 0.000246 0.000000
  outer loop
    vertex -0.045525 0.189658 0.250000
    vertex -0.045033 0.189665 -0.250000
    vertex -0.045525 0.189658 -0.250000
  endloop
endfacet
facet normal -0.000008 0.000287 0.000000
  outer loop
    vertex -0.045033 0.189665 0.250000
    vertex -0.044460 0.189682 0.250000
    vertex -0.044460 0.189682 -0.250000
  endloop
endfacet
facet normal -0.000008 0.000287 0.000000
  outer loop
    vertex -0.045033 0.189665 0.250000
    vertex -0.044460 0.189682 -0.250000
    vertex -0.045033 0.189665 -0.250000
  endloop
endfacet
facet normal -0.000006 0.000156 0.000000
  outer loop
    vertex -0.044460 0.189682 0.250000
    vertex -0.044147 0.189695 0.250000
    vertex -0.044147 0.189695 -0.250000
  endloop
endfacet
facet normal -0.000006 0.000156 0.000000
  outer loop
    vertex -0.044460 0.189682 0.250000
    vertex -0.044147 0.189695 -0.250000
    vertex -0.044460 0.189682 -0.250000
  endloop
endfacet
facet normal -0.000017 0.000329 0.000000
  outer loop
    vertex -0.044147 0.189695 0.250000
    vertex -0.043490 0.189729 0.250000
    vertex -0.043490 0.189729 -0.250000
  endloop
endfacet
facet normal -0.000017 0.000329 0.000000
  outer loop
    vertex -0.044147 0.189695 0.250000
    vertex -0.043490 0.189729 -0.250000
    vertex -0.044147 0.189695 -0.250000
  endloop
endfacet
facet normal -0.000018 0.000275 0.000000
  outer loop
    vertex -0.043490 0.189729 0.250000
    vertex -0.042941 0.189766 0.250000
    vertex -0.042941 0.189766 -0.250000
  endloop
endfacet
facet normal -0.000018 0.000275 0.000000
  outer loop
    vertex -0.043490 0.189729 0.250000
    vertex -0.042941 0.189766 -0.250000
    vertex -0.043490 0.189729 -0.250000
  endloop
endfacet
facet normal -0.000021 0.000274 0.000000
  outer loop
    vertex -0.042941 0.189766 0.250000
    vertex -0.042393 0.189808 0.250000
    vertex -0.042393 0.189808 -0.250000
  endloop
endfacet
facet normal -0.000021 0.000274 0.000000
  outer loop
    vertex -0.042941 0.189766 0.250000
    vertex -0.042393 0.189808 -0.250000
    vertex -0.042941 0.189766 -0.250000
  endloop
endfacet
facet normal -0.000016 0.000189 0.000000
  outer loop
    vertex -0.042393 0.189808 0.250000
    vertex -0.042016 0.189841 0.250000
    vertex -0.042016 0.189841 -0.250000
  endloop
endfacet
facet normal -0.000016 0.000189 0.000000
  outer loop
    vertex -0.042393 0.189808 0.250000
    vertex -0.042016 0.189841 -0.250000
    vertex -0.042393 0.189808 -0.250000
  endloop
endfacet
facet normal -0.000018 0.000192 0.000000
  outer loop
    vertex -0.042016 0.189841 0.250000
    vertex -0.041632 0.189877 0.250000
    vertex -0.041632 0.189877 -0.250000
  endloop
endfacet
facet normal -0.000018 0.000192 0.000000
  outer loop
    vertex -0.042016 0.189841 0.250000
    vertex -0.041632 0.189877 -0.250000
    vertex -0.042016 0.189841 -0.250000
  endloop
endfacet
facet normal -0.000023 0.000230 0.000000
  outer loop
    vertex -0.041632 0.189877 0.250000
    vertex -0.041173 0.189924 0.250000
    vertex -0.041173 0.189924 -0.250000
  endloop
endfacet
facet normal -0.000023 0.000230 0.000000
  outer loop
    vertex -0.041632 0.189877 0.250000
    vertex -0.041173 0.189924 -0.250000
    vertex -0.041632 0.189877 -0.250000
  endloop
endfacet
facet normal -0.000024 0.000218 0.000000
  outer loop
    vertex -0.041173 0.189924 0.250000
    vertex -0.040737 0.189971 0.250000
    vertex -0.040737 0.189971 -0.250000
  endloop
endfacet
facet normal -0.000024 0.000218 0.000000
  outer loop
    vertex -0.041173 0.189924 0.250000
    vertex -0.040737 0.189971 -0.250000
    vertex -0.041173 0.189924 -0.250000
  endloop
endfacet
facet normal -0.000029 0.000252 0.000000
  outer loop
    vertex -0.040737 0.189971 0.250000
    vertex -0.040233 0.190030 0.250000
    vertex -0.040233 0.190030 -0.250000
  endloop
endfacet
facet normal -0.000029 0.000252 0.000000
  outer loop
    vertex -0.040737 0.189971 0.250000
    vertex -0.040233 0.190030 -0.250000
    vertex -0.040737 0.189971 -0.250000
  endloop
endfacet
facet normal -0.000036 0.000284 0.000000
  outer loop
    vertex -0.040233 0.190030 0.250000
    vertex -0.039664 0.190102 0.250000
    vertex -0.039664 0.190102 -0.250000
  endloop
endfacet
facet normal -0.000036 0.000284 0.000000
  outer loop
    vertex -0.040233 0.190030 0.250000
    vertex -0.039664 0.190102 -0.250000
    vertex -0.040233 0.190030 -0.250000
  endloop
endfacet
facet normal -0.000042 0.000314 0.000000
  outer loop
    vertex -0.039664 0.190102 0.250000
    vertex -0.039036 0.190186 0.250000
    vertex -0.039036 0.190186 -0.250000
  endloop
endfacet
facet normal -0.000042 0.000314 0.000000
  outer loop
    vertex -0.039664 0.190102 0.250000
    vertex -0.039036 0.190186 -0.250000
    vertex -0.039664 0.190102 -0.250000
  endloop
endfacet
facet normal -0.000028 0.000196 0.000000
  outer loop
    vertex -0.039036 0.190186 0.250000
    vertex -0.038644 0.190242 0.250000
    vertex -0.038644 0.190242 -0.250000
  endloop
endfacet
facet normal -0.000028 0.000196 0.000000
  outer loop
    vertex -0.039036 0.190186 0.250000
    vertex -0.038644 0.190242 -0.250000
    vertex -0.039036 0.190186 -0.250000
  endloop
endfacet
facet normal -0.000033 0.000221 0.000000
  outer loop
    vertex -0.038644 0.190242 0.250000
    vertex -0.038202 0.190307 0.250000
    vertex -0.038202 0.190307 -0.250000
  endloop
endfacet
facet normal -0.000033 0.000221 0.000000
  outer loop
    vertex -0.038644 0.190242 0.250000
    vertex -0.038202 0.190307 -0.250000
    vertex -0.038644 0.190242 -0.250000
  endloop
endfacet
facet normal -0.000034 0.000220 0.000000
  outer loop
    vertex -0.038202 0.190307 0.250000
    vertex -0.037761 0.190375 0.250000
    vertex -0.037761 0.190375 -0.250000
  endloop
endfacet
facet normal -0.000034 0.000220 0.000000
  outer loop
    vertex -0.038202 0.190307 0.250000
    vertex -0.037761 0.190375 -0.250000
    vertex -0.038202 0.190307 -0.250000
  endloop
endfacet
facet normal -0.000038 0.000237 0.000000
  outer loop
    vertex -0.037761 0.190375 0.250000
    vertex -0.037287 0.190450 0.250000
    vertex -0.037287 0.190450 -0.250000
  endloop
endfacet
facet normal -0.000038 0.000237 0.000000
  outer loop
    vertex -0.037761 0.190375 0.250000
    vertex -0.037287 0.190450 -0.250000
    vertex -0.037761 0.190375 -0.250000
  endloop
endfacet
facet normal -0.000058 0.000352 0.000000
  outer loop
    vertex -0.037287 0.190450 0.250000
    vertex -0.036583 0.190567 0.250000
    vertex -0.036583 0.190567 -0.250000
  endloop
endfacet
facet normal -0.000058 0.000352 0.000000
  outer loop
    vertex -0.037287 0.190450 0.250000
    vertex -0.036583 0.190567 -0.250000
    vertex -0.037287 0.190450 -0.250000
  endloop
endfacet
facet normal -0.000044 0.000255 0.000000
  outer loop
    vertex -0.036583 0.190567 0.250000
    vertex -0.036073 0.190655 0.250000
    vertex -0.036073 0.190655 -0.250000
  endloop
endfacet
facet normal -0.000044 0.000255 0.000000
  outer loop
    vertex -0.036583 0.190567 0.250000
    vertex -0.036073 0.190655 -0.250000
    vertex -0.036583 0.190567 -0.250000
  endloop
endfacet
facet normal -0.000022 0.000125 0.000000
  outer loop
    vertex -0.036073 0.190655 0.250000
    vertex -0.035824 0.190699 0.250000
    vertex -0.035824 0.190699 -0.250000
  endloop
endfacet
facet normal -0.000022 0.000125 0.000000
  outer loop
    vertex -0.036073 0.190655 0.250000
    vertex -0.035824 0.190699 -0.250000
    vertex -0.036073 0.190655 -0.250000
  endloop
endfacet
facet normal -0.000029 0.000162 0.000000
  outer loop
    vertex -0.035824 0.190699 0.250000
    vertex -0.035501 0.190757 0.250000
    vertex -0.035501 0.190757 -0.250000
  endloop
endfacet
facet normal -0.000029 0.000162 0.000000
  outer loop
    vertex -0.035824 0.190699 0.250000
    vertex -0.035501 0.190757 -0.250000
    vertex -0.035824 0.190699 -0.250000
  endloop
endfacet
facet normal -0.000025 0.000137 0.000000
  outer loop
    vertex -0.035501 0.190757 0.250000
    vertex -0.035227 0.190807 0.250000
    vertex -0.035227 0.190807 -0.250000
  endloop
endfacet
facet normal -0.000025 0.000137 0.000000
  outer loop
    vertex -0.035501 0.190757 0.250000
    vertex -0.035227 0.190807 -0.250000
    vertex -0.035501 0.190757 -0.250000
  endloop
endfacet
facet normal -0.000057 0.000305 0.000000
  outer loop
    vertex -0.035227 0.190807 0.250000
    vertex -0.034618 0.190922 0.250000
    vertex -0.034618 0.190922 -0.250000
  endloop
endfacet
facet normal -0.000057 0.000305 0.000000
  outer loop
    vertex -0.035227 0.190807 0.250000
    vertex -0.034618 0.190922 -0.250000
    vertex -0.035227 0.190807 -0.250000
  endloop
endfacet
facet normal -0.000084 0.000432 0.000000
  outer loop
    vertex -0.034618 0.190922 0.250000
    vertex -0.033753 0.191090 0.250000
    vertex -0.033753 0.191090 -0.250000
  endloop
endfacet
facet normal -0.000084 0.000432 0.000000
  outer loop
    vertex -0.034618 0.190922 0.250000
    vertex -0.033753 0.191090 -0.250000
    vertex -0.034618 0.190922 -0.250000
  endloop
endfacet
facet normal -0.000197 0.000948 0.000000
  outer loop
    vertex -0.033753 0.191090 0.250000
    vertex -0.031856 0.191484 0.250000
    vertex -0.031856 0.191484 -0.250000
  endloop
endfacet
facet normal -0.000197 0.000948 0.000000
  outer loop
    vertex -0.033753 0.191090 0.250000
    vertex -0.031856 0.191484 -0.250000
    vertex -0.033753 0.191090 -0.250000
  endloop
endfacet
facet normal -0.000158 0.000717 0.000000
  outer loop
    vertex -0.031856 0.191484 0.250000
    vertex -0.030423 0.191800 0.250000
    vertex -0.030423 0.191800 -0.250000
  endloop
endfacet
facet normal -0.000158 0.000717 0.000000
  outer loop
    vertex -0.031856 0.191484 0.250000
    vertex -0.030423 0.191800 -0.250000
    vertex -0.031856 0.191484 -0.250000
  endloop
endfacet
facet normal -0.000199 0.000857 0.000000
  outer loop
    vertex -0.030423 0.191800 0.250000
    vertex -0.028710 0.192198 0.250000
    vertex -0.028710 0.192198 -0.250000
  endloop
endfacet
facet normal -0.000199 0.000857 0.000000
  outer loop
    vertex -0.030423 0.191800 0.250000
    vertex -0.028710 0.192198 -0.250000
    vertex -0.030423 0.191800 -0.250000
  endloop
endfacet
facet normal -0.000391 0.001577 0.000000
  outer loop
    vertex -0.028710 0.192198 0.250000
    vertex -0.025556 0.192980 0.250000
    vertex -0.025556 0.192980 -0.250000
  endloop
endfacet
facet normal -0.000391 0.001577 0.000000
  outer loop
    vertex -0.028710 0.192198 0.250000
    vertex -0.025556 0.192980 -0.250000
    vertex -0.028710 0.192198 -0.250000
  endloop
endfacet
facet normal 0.000169 -0.000669 0.000000
  outer loop
    vertex -0.025556 0.192980 0.250000
    vertex -0.026894 0.192641 0.250000
    vertex -0.026894 0.192641 -0.250000
  endloop
endfacet
facet normal 0.000169 -0.000669 0.000000
  outer loop
    vertex -0.025556 0.192980 0.250000
    vertex -0.026894 0.192641 -0.250000
    vertex -0.025556 0.192980 -0.250000
  endloop
endfacet
facet normal -0.000398 0.001545 0.000000
  outer loop
    vertex -0.026894 0.192641 0.250000
    vertex -0.023803 0.193438 0.250000
    vertex -0.023803 0.193438 -0.250000
  endloop
endfacet
facet normal -0.000398 0.001545 0.000000
  outer loop
    vertex -0.026894 0.192641 0.250000
    vertex -0.023803 0.193438 -0.250000
    vertex -0.026894 0.192641 -0.250000
  endloop
endfacet
facet normal -0.000213 0.000790 0.000000
  outer loop
    vertex -0.023803 0.193438 0.250000
    vertex -0.022223 0.193864 0.250000
    vertex -0.022223 0.193864 -0.250000
  endloop
endfacet
facet normal -0.000213 0.000790 0.000000
  outer loop
    vertex -0.023803 0.193438 0.250000
    vertex -0.022223 0.193864 -0.250000
    vertex -0.023803 0.193438 -0.250000
  endloop
endfacet
facet normal -0.000256 0.000922 0.000000
  outer loop
    vertex -0.022223 0.193864 0.250000
    vertex -0.020379 0.194375 0.250000
    vertex -0.020379 0.194375 -0.250000
  endloop
endfacet
facet normal -0.000256 0.000922 0.000000
  outer loop
    vertex -0.022223 0.193864 0.250000
    vertex -0.020379 0.194375 -0.250000
    vertex -0.022223 0.193864 -0.250000
  endloop
endfacet
facet normal -0.000321 0.001123 0.000000
  outer loop
    vertex -0.020379 0.194375 0.250000
    vertex -0.018134 0.195017 0.250000
    vertex -0.018134 0.195017 -0.250000
  endloop
endfacet
facet normal -0.000321 0.001123 0.000000
  outer loop
    vertex -0.020379 0.194375 0.250000
    vertex -0.018134 0.195017 -0.250000
    vertex -0.020379 0.194375 -0.250000
  endloop
endfacet
facet normal -0.000337 0.001143 0.000000
  outer loop
    vertex -0.018134 0.195017 0.250000
    vertex -0.015847 0.195691 0.250000
    vertex -0.015847 0.195691 -0.250000
  endloop
endfacet
facet normal -0.000337 0.001143 0.000000
  outer loop
    vertex -0.018134 0.195017 0.250000
    vertex -0.015847 0.195691 -0.250000
    vertex -0.018134 0.195017 -0.250000
  endloop
endfacet
facet normal -0.000276 0.000911 0.000000
  outer loop
    vertex -0.015847 0.195691 0.250000
    vertex -0.014024 0.196243 0.250000
    vertex -0.014024 0.196243 -0.250000
  endloop
endfacet
facet normal -0.000276 0.000911 0.000000
  outer loop
    vertex -0.015847 0.195691 0.250000
    vertex -0.014024 0.196243 -0.250000
    vertex -0.015847 0.195691 -0.250000
  endloop
endfacet
facet normal -0.000173 0.000561 0.000000
  outer loop
    vertex -0.014024 0.196243 0.250000
    vertex -0.012901 0.196589 0.250000
    vertex -0.012901 0.196589 -0.250000
  endloop
endfacet
facet normal -0.000173 0.000561 0.000000
  outer loop
    vertex -0.014024 0.196243 0.250000
    vertex -0.012901 0.196589 -0.250000
    vertex -0.014024 0.196243 -0.250000
  endloop
endfacet
facet normal -0.000175 0.000561 0.000000
  outer loop
    vertex -0.012901 0.196589 0.250000
    vertex -0.011779 0.196939 0.250000
    vertex -0.011779 0.196939 -0.250000
  endloop
endfacet
facet normal -0.000175 0.000561 0.000000
  outer loop
    vertex -0.012901 0.196589 0.250000
    vertex -0.011779 0.196939 -0.250000
    vertex -0.012901 0.196589 -0.250000
  endloop
endfacet
facet normal -0.000201 0.000634 0.000000
  outer loop
    vertex -0.011779 0.196939 0.250000
    vertex -0.010512 0.197341 0.250000
    vertex -0.010512 0.197341 -0.250000
  endloop
endfacet
facet normal -0.000201 0.000634 0.000000
  outer loop
    vertex -0.011779 0.196939 0.250000
    vertex -0.010512 0.197341 -0.250000
    vertex -0.011779 0.196939 -0.250000
  endloop
endfacet
facet normal -0.000268 0.000832 0.000000
  outer loop
    vertex -0.010512 0.197341 0.250000
    vertex -0.008848 0.197877 0.250000
    vertex -0.008848 0.197877 -0.250000
  endloop
endfacet
facet normal -0.000268 0.000832 0.000000
  outer loop
    vertex -0.010512 0.197341 0.250000
    vertex -0.008848 0.197877 -0.250000
    vertex -0.010512 0.197341 -0.250000
  endloop
endfacet
facet normal -0.000267 0.000813 0.000000
  outer loop
    vertex -0.008848 0.197877 0.250000
    vertex -0.007221 0.198411 0.250000
    vertex -0.007221 0.198411 -0.250000
  endloop
endfacet
facet normal -0.000267 0.000813 0.000000
  outer loop
    vertex -0.008848 0.197877 0.250000
    vertex -0.007221 0.198411 -0.250000
    vertex -0.008848 0.197877 -0.250000
  endloop
endfacet
facet normal -0.000275 0.000819 0.000000
  outer loop
    vertex -0.007221 0.198411 0.250000
    vertex -0.005584 0.198961 0.250000
    vertex -0.005584 0.198961 -0.250000
  endloop
endfacet
facet normal -0.000275 0.000819 0.000000
  outer loop
    vertex -0.007221 0.198411 0.250000
    vertex -0.005584 0.198961 -0.250000
    vertex -0.007221 0.198411 -0.250000
  endloop
endfacet
facet normal -0.000149 0.000436 0.000000
  outer loop
    vertex -0.005584 0.198961 0.250000
    vertex -0.004711 0.199260 0.250000
    vertex -0.004711 0.199260 -0.250000
  endloop
endfacet
facet normal -0.000149 0.000436 0.000000
  outer loop
    vertex -0.005584 0.198961 0.250000
    vertex -0.004711 0.199260 -0.250000
    vertex -0.005584 0.198961 -0.250000
  endloop
endfacet
facet normal -0.000089 0.000257 0.000000
  outer loop
    vertex -0.004711 0.199260 0.250000
    vertex -0.004196 0.199438 0.250000
    vertex -0.004196 0.199438 -0.250000
  endloop
endfacet
facet normal -0.000089 0.000257 0.000000
  outer loop
    vertex -0.004711 0.199260 0.250000
    vertex -0.004196 0.199438 -0.250000
    vertex -0.004711 0.199260 -0.250000
  endloop
endfacet
facet normal -0.000074 0.000214 0.000000
  outer loop
    vertex -0.004196 0.199438 0.250000
    vertex -0.003768 0.199586 0.250000
    vertex -0.003768 0.199586 -0.250000
  endloop
endfacet
facet normal -0.000074 0.000214 0.000000
  outer loop
    vertex -0.004196 0.199438 0.250000
    vertex -0.003768 0.199586 -0.250000
    vertex -0.004196 0.199438 -0.250000
  endloop
endfacet
facet normal -0.000058 0.000166 0.000000
  outer loop
    vertex -0.003768 0.199586 0.250000
    vertex -0.003436 0.199701 0.250000
    vertex -0.003436 0.199701 -0.250000
  endloop
endfacet
facet normal -0.000058 0.000166 0.000000
  outer loop
    vertex -0.003768 0.199586 0.250000
    vertex -0.003436 0.199701 -0.250000
    vertex -0.003768 0.199586 -0.250000
  endloop
endfacet
facet normal -0.000057 0.000163 0.000000
  outer loop
    vertex -0.003436 0.199701 0.250000
    vertex -0.003109 0.199815 0.250000
    vertex -0.003109 0.199815 -0.250000
  endloop
endfacet
facet normal -0.000057 0.000163 0.000000
  outer loop
    vertex -0.003436 0.199701 0.250000
    vertex -0.003109 0.199815 -0.250000
    vertex -0.003436 0.199701 -0.250000
  endloop
endfacet
endsolid turbine1.stl
